<svg xmlns="http://www.w3.org/2000/svg" width="20mm" height="59.943" viewBox="0 0 2000 1586" shape-rendering="geometricPrecision" text-rendering="geometricPrecision" image-rendering="optimizeQuality" fill-rule="evenodd" clip-rule="evenodd"><defs><style>.fil0{fill:#ffa300}</style></defs><g id="Слой_x0020_1"><g id="_2198655187600"><path class="fil0" d="M.01 1343.05C11.67 1354.71 489.81 1586 499.53 1586c19.43 0 482.02-241.01 501.45-239.07 21.38 0 482.02 241.02 501.45 239.07 5.83 0 489.79-235.17 497.57-242.95-9.72-29.15-186.59-355.69-207.97-410.1-15.55 11.65-36.93 68.03-48.58 87.46-33.04 64.14-34.99 21.38 42.75 178.81 11.66 23.33 38.88 69.97 46.66 91.35l-285.71 138-99.12-472.3 17.49-15.55L1407.21 828c-11.65 5.82-21.37 19.43-31.1 27.2-34.98-13.6-357.62-241.01-377.07-241.01-7.77 0-79.68 48.59-93.29 58.31-52.48 34.98-260.45 172.98-281.83 182.7-48.58-40.81-180.75-182.7-248.77-241.01-11.66 13.6-36.94 68.03-46.66 87.46L186.61 975.71c-29.15 62.19-62.19 124.39-93.29 184.64-15.55 31.1-31.1 60.25-46.65 91.34-13.61 27.21-34.99 62.19-46.66 91.35v.01zm588.92 64.15c75.79-33.04 223.52-106.9 309.03-149.65 46.66-23.33 40.82-7.78 40.82-97.19l.01-357.64c-11.66 1.95-23.33 13.61-34.99 19.43L684.17 964.04c-11.66 11.65-50.54 219.63-54.42 244.89-13.6 64.14-33.03 134.11-40.81 198.25l-.01.02zm472.31-567.55v396.5c11.65 5.83 324.58 163.26 347.91 169.1-5.83-36.93-85.52-429.53-91.35-439.25l-182.7-118.57c-15.55-9.72-60.26-42.76-73.86-46.65v38.87zm-894.07 450.93l287.65 138c13.61-89.41 52.48-252.67 71.92-351.79l17.49-87.47c7.78-38.88 9.73-27.21-27.2-64.14L408.18 820.23c-54.41 104.95-128.28 244.9-180.76 349.85l-60.25 120.5z"/><path class="fil0" d="M1624.89 975.71c7.78-7.78 13.61-21.38 19.43-31.11l254.61-491.73C2017.5 237.13 1850.34 1.96 1626.83.01c-227.4-1.95-394.56 229.35-277.94 450.92l276 524.78zm0-485.9c101.07 0 188.54-81.64 188.54-178.82 0-104.95-79.69-186.58-194.37-186.58-97.18 0-178.81 85.51-178.81 182.7-3.88 99.12 81.64 182.71 184.64 182.71v-.01z"/></g></g></svg>