<svg version="1.0" xmlns="http://www.w3.org/2000/svg" viewBox="0 0 283.5 283.5"><path fill-rule="evenodd" clip-rule="evenodd" fill="#FFA300" d="M112.1 62l23.4 22.4-32.8-.4c-13.6-.2-1.2-32.1 9.4-22zM139.6 40.7l.7 43.1L110 52.4c-12.5-13.1 29.3-31.2 29.6-11.7zM177 49.2L144.3 83l.9-47.5c.4-19.8 46.5-1.5 31.8 13.7zM195.9 83.6l-47.3.7 34.5-33.1c14.4-13.8 34.2 32.1 12.8 32.4z"/><path fill="#ED9816" d="M148.6 156.8c-12.6 0-25-3.4-35.9-9.7-34.1-19.8-45.8-63.8-25.9-97.9 12.8-22 36.5-35.6 62-35.6 12.6 0 25 3.4 35.9 9.7 34.1 19.8 45.8 63.8 25.9 97.9-12.8 21.9-36.5 35.6-62 35.6zm.1-137c-23.2 0-44.9 12.5-56.5 32.5-18.1 31.1-7.5 71.2 23.7 89.3 10 5.8 21.3 8.9 32.8 8.9 23.2 0 44.9-12.5 56.5-32.5 18.1-31.1 7.5-71.2-23.7-89.3-10-5.8-21.3-8.9-32.8-8.9z"/><path fill-rule="evenodd" clip-rule="evenodd" fill="#FFA300" d="M185.9 109.4L162.4 87l32.8.4c13.6.1 1.2 32-9.3 22zM158.3 130.6l-.7-43.1 30.3 31.4c12.6 13.1-29.2 31.2-29.6 11.7zM120.9 122.1l32.7-33.7-.9 47.5c-.4 19.7-46.5 1.4-31.8-13.8zM102 87.7l47.3-.7-34.5 33.1c-14.3 13.9-34.1-32-12.8-32.4z"/><path fill="#030304" d="M31.9 175v.8c0 .2-.1.4-.1.5-.1.1-.1.2-.2.3-.1.1-.2.1-.3.1h-5v16.1c0 .1 0 .2-.1.3-.1.1-.2.1-.3.2-.2 0-.4.1-.6.1h-2c-.3 0-.5-.1-.6-.1-.2-.1-.3-.1-.3-.2-.1-.1-.1-.2-.1-.3v-16.1h-5c-.1 0-.2 0-.3-.1-.1-.1-.1-.2-.2-.3 0-.1-.1-.3-.1-.5v-.8-.8c0-.2.1-.4.1-.5.1-.1.1-.2.2-.3.1-.1.2-.1.3-.1h14c.1 0 .2 0 .3.1.1.1.1.1.2.3.1.1.1.3.1.5v.8zM57.9 192.7c0 .1 0 .2-.1.3-.1.1-.2.1-.3.2-.2 0-.4.1-.6.1h-2c-.3 0-.5-.1-.6-.1-.2-.1-.3-.1-.3-.2-.1-.1-.1-.2-.1-.3v-10.5-1.2-1c-.1.1-.2.3-.3.5-.1.2-.2.4-.4.6-.1.2-.3.4-.4.6-.1.2-.3.4-.4.6l-6.9 10.3-.3.3c-.1.1-.2.1-.3.2-.1 0-.3.1-.5.1h-1.8c-.2 0-.4-.1-.6-.1-.1-.1-.2-.1-.3-.2-.1-.1-.1-.2-.1-.3v-18.9c0-.1 0-.2.1-.3.1-.1.2-.1.3-.2.2 0 .4-.1.6-.1h2c.3 0 .5.1.6.1.2.1.3.1.3.2.1.1.1.2.1.3v12.7c.2-.3.4-.7.7-1.1.3-.4.5-.9.8-1.3l6.9-10.3c.1-.1.1-.2.2-.3.1-.1.2-.1.3-.2.1 0 .3-.1.5-.1H56.7c.2 0 .4.1.6.1.1.1.2.1.3.2.1.1.1.2.1.3v19h.2zM85.2 192.7c0 .1 0 .2-.1.3-.1.1-.2.1-.3.2-.2 0-.4.1-.6.1h-2c-.3 0-.5-.1-.6-.1-.2-.1-.3-.1-.3-.2-.1-.1-.1-.2-.1-.3v-16h-7.4v16c0 .1 0 .2-.1.3-.1.1-.2.1-.3.2-.2 0-.4.1-.6.1h-2c-.3 0-.5-.1-.6-.1-.2-.1-.3-.1-.3-.2-.1-.1-.1-.2-.1-.3v-18.1c0-.4.1-.8.3-1 .2-.2.5-.3.9-.3h13c.4 0 .7.1.9.3.2.2.3.5.3 1v18.1zM114.9 183c0 1.6-.2 3.1-.6 4.4-.4 1.3-1 2.4-1.8 3.3-.8.9-1.8 1.6-3 2.1s-2.6.7-4.2.7-2.9-.2-4.1-.6c-1.2-.4-2.1-1-2.9-1.9-.8-.8-1.3-1.9-1.7-3.2-.4-1.3-.6-2.8-.6-4.6 0-1.6.2-3.1.6-4.3.4-1.3 1-2.4 1.8-3.3.8-.9 1.8-1.6 3-2.1s2.6-.7 4.2-.7c1.5 0 2.8.2 4 .6 1.2.4 2.1 1 2.9 1.8.8.8 1.4 1.9 1.8 3.1.4 1.5.6 3 .6 4.7zm-4.3.2c0-1-.1-2-.2-2.9-.2-.9-.4-1.6-.8-2.2-.4-.6-.9-1.1-1.6-1.4-.7-.3-1.5-.5-2.5-.5s-1.8.2-2.5.6c-.7.4-1.2.9-1.6 1.5-.4.6-.7 1.4-.9 2.2-.2.8-.3 1.7-.3 2.7 0 1.1.1 2.1.2 2.9.2.9.4 1.6.8 2.2.4.6.9 1.1 1.6 1.4.7.3 1.5.5 2.5.5s1.8-.2 2.5-.6c.7-.4 1.2-.9 1.6-1.5.4-.6.7-1.4.9-2.2.2-.8.3-1.7.3-2.7zM137 175v.8c0 .2-.1.4-.1.5-.1.1-.1.2-.2.3-.1.1-.2.1-.3.1h-6.6v16.1c0 .1 0 .2-.1.3-.1.1-.2.1-.3.2-.2 0-.4.1-.6.1h-2c-.3 0-.5-.1-.6-.1-.2-.1-.3-.1-.3-.2-.1-.1-.1-.2-.1-.3v-18.1c0-.4.1-.8.3-1 .2-.2.5-.3.9-.3h9.5c.2 0 .4.1.5.4v1.2zM160.4 179.3c0 1.1-.2 2.1-.5 3-.3.9-.9 1.6-1.5 2.2-.7.6-1.5 1-2.5 1.4-1 .3-2.1.5-3.4.5h-1.7v6.4c0 .1 0 .2-.1.3-.1.1-.2.1-.3.2-.2.1-.4.1-.6.1h-2c-.3 0-.5-.1-.6-.1-.2-.1-.3-.1-.3-.2-.1-.1-.1-.2-.1-.3v-17.9c0-.5.1-.8.4-1.1.3-.2.6-.4 1-.4h4.7c.5 0 .9 0 1.4.1.4 0 .9.1 1.5.2s1.2.3 1.8.7c.6.3 1.1.7 1.6 1.2.4.5.8 1.1 1 1.7.1.5.2 1.2.2 2zm-4.2.3c0-.7-.1-1.3-.4-1.7-.2-.5-.6-.8-.9-1-.4-.2-.7-.4-1.1-.4-.4-.1-.8-.1-1.2-.1h-1.7v6.8h1.8c.7 0 1.2-.1 1.6-.3.4-.2.8-.4 1.1-.7.3-.3.5-.7.6-1.1.1-.5.2-.9.2-1.5zM185.6 191.7c.1.4.2.7.2.9 0 .2 0 .4-.1.5-.1.1-.3.2-.6.2h-2.4c-.3 0-.5 0-.7-.1-.2 0-.3-.1-.3-.2-.1-.1-.1-.2-.2-.3l-1.3-4h-7.5l-1.3 3.9c0 .1-.1.3-.2.4-.1.1-.2.2-.3.2-.1.1-.4.1-.6.1h-2.2c-.3 0-.5-.1-.6-.2-.1-.1-.1-.3-.1-.5s.1-.5.2-.9l6.1-17.7c.1-.2.1-.3.2-.4.1-.1.2-.2.4-.2.2-.1.4-.1.8-.1h2.7c.4 0 .6.1.8.1.2.1.3.1.4.3.1.1.2.3.2.5l6.4 17.5zm-9.2-14.6l-2.8 8.5h5.6l-2.8-8.5zM213.9 182.7c0 1.1-.2 2.1-.5 3-.4.9-.9 1.7-1.6 2.4-.7.7-1.6 1.2-2.6 1.6-1 .4-2.2.7-3.6.8v2.3c0 .1 0 .2-.1.3-.1.1-.2.1-.3.2-.1 0-.4.1-.6.1h-2c-.3 0-.5-.1-.6-.1-.2 0-.3-.1-.3-.2-.1-.1-.1-.2-.1-.3v-2.3c-1.4-.1-2.5-.3-3.6-.6-1-.3-1.9-.8-2.6-1.4-.7-.6-1.2-1.4-1.6-2.3-.4-.9-.5-2-.5-3.3 0-1.1.2-2 .5-2.9.4-.9.9-1.7 1.6-2.3.7-.7 1.6-1.2 2.6-1.6 1-.4 2.2-.7 3.6-.8V173c0-.1 0-.2.1-.3.1-.1.2-.1.3-.2.2 0 .4-.1.6-.1h2c.3 0 .5.1.6.1.2 0 .3.1.3.2.1.1.1.2.1.3v2.2c1.4.1 2.5.3 3.6.6 1 .3 1.9.8 2.6 1.4.7.6 1.2 1.4 1.6 2.3.3.9.5 2 .5 3.2zm-4.1.1c0-.6-.1-1.2-.2-1.8-.1-.5-.4-1-.7-1.4-.3-.4-.8-.7-1.3-1-.5-.2-1.2-.4-2-.5v9.1c.8-.1 1.5-.3 2-.5.5-.3 1-.6 1.3-1 .3-.4.6-.9.7-1.4.1-.4.2-.9.2-1.5zm-8.2-4.6c-.8.1-1.5.3-2 .5-.5.3-1 .6-1.3 1-.3.4-.6.8-.7 1.3-.2.5-.2 1-.2 1.6 0 .7.1 1.3.2 1.8s.4 1 .7 1.4c.3.4.8.7 1.3 1 .5.3 1.2.4 2 .5v-9.1zM240.8 192.7c0 .1 0 .2-.1.3-.1.1-.2.1-.3.2-.2 0-.4.1-.6.1h-2c-.3 0-.5-.1-.6-.1-.2-.1-.3-.1-.3-.2-.1-.1-.1-.2-.1-.3v-10.5-1.2-1c-.1.1-.2.3-.3.5-.1.2-.2.4-.4.6-.1.2-.3.4-.4.6-.1.2-.3.4-.4.6l-6.9 10.3-.3.3c-.1.1-.2.1-.3.2-.1 0-.3.1-.5.1h-1.8c-.2 0-.4-.1-.6-.1-.1-.1-.2-.1-.3-.2-.1-.1-.1-.2-.1-.3v-18.9c0-.1 0-.2.1-.3.1-.1.2-.1.3-.2.2 0 .4-.1.6-.1h2c.3 0 .5.1.6.1.2.1.3.1.3.2.1.1.1.2.1.3v12.7c.2-.3.4-.7.7-1.1.3-.4.5-.9.8-1.3l6.9-10.3c.1-.1.1-.2.2-.3.1-.1.2-.1.3-.2.1 0 .3-.1.5-.1H239.6c.2 0 .4.1.6.1.1.1.2.1.3.2.1.1.1.2.1.3v19h.2zM266.4 192.7c0 .1 0 .2-.1.3-.1.1-.2.1-.3.2-.1 0-.4.1-.6.1h-2c-.3 0-.5-.1-.6-.1-.2-.1-.3-.1-.3-.2-.1-.1-.1-.2-.1-.3v-7.5h-1.5c-.6 0-1.1.1-1.4.2-.3.1-.6.3-.9.6-.3.3-.5.6-.7 1-.2.4-.4.8-.6 1.4l-1.5 4.3c-.1.1-.1.2-.2.3-.1.1-.2.2-.4.2-.2.1-.4.1-.7.1h-2.2c-.3 0-.5-.1-.6-.1-.1-.1-.2-.1-.3-.2 0-.1-.1-.2-.1-.2 0-.1 0-.2.1-.4 0-.2.1-.4.2-.7l1.5-3.9c.2-.5.4-1 .6-1.3.2-.4.4-.7.7-1 .3-.3.5-.6.8-.8.3-.2.6-.4.9-.5-.6-.2-1.2-.4-1.7-.7-.5-.3-.9-.6-1.2-1-.3-.4-.6-.9-.8-1.4-.2-.5-.3-1.1-.3-1.8 0-.9.2-1.7.5-2.5.3-.7.8-1.4 1.4-1.9.6-.5 1.4-.9 2.3-1.2.9-.3 2.2-.4 3.8-.4h4.9c.3 0 .6.1.8.3.2.2.3.5.3 1v18.1h.3zm-4.1-16.3h-2.1c-.9 0-1.5.1-2 .2-.4.1-.8.3-1.1.6-.3.3-.5.6-.6.9-.1.4-.2.7-.2 1.2 0 .4.1.8.2 1.2.1.4.3.7.6.9.3.3.6.5 1.1.6.4.1 1.1.2 1.9.2h2.2v-5.8z"/><path fill="#ED9816" d="M63.1 239.9c0 4.2-.5 8-1.6 11.3-1 3.3-2.6 6.1-4.7 8.4-2.1 2.3-4.6 4.1-7.7 5.3-3 1.2-6.6 1.8-10.6 1.8-3.9 0-7.4-.5-10.3-1.6-2.9-1-5.4-2.6-7.4-4.7s-3.4-4.8-4.4-8.1c-1-3.3-1.5-7.1-1.5-11.6 0-4.1.5-7.8 1.6-11.1 1-3.3 2.6-6.1 4.7-8.4 2.1-2.3 4.6-4.1 7.7-5.3 3-1.2 6.6-1.8 10.6-1.8 3.8 0 7.2.5 10.2 1.5 2.9 1 5.4 2.6 7.4 4.7s3.5 4.8 4.5 8c1 3.4 1.5 7.2 1.5 11.6zm-10.8.6c0-2.7-.2-5.1-.6-7.3-.4-2.2-1.1-4.1-2.1-5.6-1-1.6-2.3-2.8-4-3.6-1.7-.8-3.8-1.3-6.3-1.3s-4.6.5-6.3 1.4c-1.7 1-3.1 2.2-4.1 3.8-1 1.6-1.8 3.5-2.2 5.6-.4 2.1-.6 4.4-.6 6.8 0 2.8.2 5.3.6 7.5.4 2.2 1.1 4.1 2.1 5.7 1 1.6 2.3 2.8 4 3.6 1.7.8 3.8 1.2 6.3 1.2s4.6-.5 6.3-1.4c1.7-.9 3.1-2.2 4.1-3.8 1-1.6 1.8-3.5 2.2-5.7.4-2.2.6-4.5.6-6.9zM106.6 230.6c0 2.9-.4 5.4-1.3 7.6-.9 2.2-2.2 4.1-3.9 5.6-1.7 1.5-3.8 2.6-6.3 3.4-2.5.8-5.4 1.2-8.7 1.2h-4.2v16.2c0 .3-.1.5-.3.7-.2.2-.5.4-.8.5-.4.1-.9.2-1.6.3-.6.1-1.5.1-2.5.1s-1.8 0-2.5-.1-1.2-.2-1.6-.3c-.4-.1-.7-.3-.8-.5-.2-.2-.2-.5-.2-.7V219c0-1.2.3-2.2 1-2.8s1.5-.9 2.5-.9h12c1.2 0 2.4 0 3.4.1 1.1.1 2.4.3 3.9.6s3.1.9 4.6 1.7c1.6.8 2.9 1.8 4 3.1 1.1 1.2 1.9 2.7 2.5 4.4.5 1.5.8 3.3.8 5.4zm-10.8.7c0-1.8-.3-3.3-.9-4.4-.6-1.2-1.4-2-2.3-2.6-.9-.5-1.9-.9-2.9-1-1-.1-2.1-.2-3.1-.2h-4.4v17.3h4.7c1.7 0 3-.2 4.2-.7 1.1-.4 2-1.1 2.7-1.9.7-.8 1.2-1.8 1.6-2.9.2-1 .4-2.3.4-3.6zM151.6 262.1c.3.9.5 1.7.6 2.2.1.5 0 1-.3 1.2-.3.3-.8.4-1.5.5-.7.1-1.7.1-3 .1s-2.4 0-3.1-.1c-.7 0-1.3-.1-1.7-.2-.4-.1-.7-.3-.8-.5-.2-.2-.3-.5-.4-.8l-3.3-10.2H119l-3.2 9.9c-.1.4-.2.7-.4.9-.2.3-.4.4-.8.6-.4.1-.9.2-1.6.3-.7.1-1.6.1-2.7.1-1.2 0-2.1 0-2.8-.1-.7-.1-1.2-.3-1.4-.6-.3-.3-.4-.7-.3-1.3.1-.5.3-1.3.6-2.2l15.6-45c.1-.4.3-.8.5-1.1.2-.3.5-.5 1-.6.5-.1 1.1-.2 1.9-.3.8 0 1.9-.1 3.2-.1 1.5 0 2.8 0 3.7.1.9 0 1.6.1 2.1.3.5.1.9.4 1.1.6.2.3.4.7.6 1.2l15.5 45.1zm-23.3-37.3l-7.1 21.6h14.2l-7.1-21.6zM198.3 264.5c0 .3-.1.5-.3.7-.2.2-.5.4-.8.5-.4.1-.9.2-1.6.3-.6.1-1.5.1-2.4.1-1 0-1.9 0-2.5-.1-.7-.1-1.2-.2-1.6-.3-.4-.1-.6-.3-.8-.5-.2-.2-.3-.5-.3-.7V244h-19v20.5c0 .3-.1.5-.2.7-.1.2-.4.4-.8.5-.4.1-.9.2-1.6.3-.6.1-1.5.1-2.5.1s-1.8 0-2.5-.1-1.2-.2-1.6-.3c-.4-.1-.7-.3-.8-.5-.2-.2-.3-.5-.3-.7v-47.9c0-.3.1-.5.3-.7.2-.2.5-.4.8-.5.4-.1.9-.2 1.6-.3.7-.1 1.5-.1 2.5-.1s1.8 0 2.5.1 1.2.2 1.6.3c.4.1.7.3.8.5.2.2.2.5.2.7v18.7h19v-18.7c0-.3.1-.5.3-.7.2-.2.4-.4.8-.5.4-.1.9-.2 1.6-.3.7-.1 1.5-.1 2.5-.1s1.8 0 2.4.1c.7.1 1.2.2 1.6.3.4.1.7.3.8.5.2.2.3.5.3.7v47.9zM268.3 264.5c0 .3-.1.5-.2.7-.1.2-.4.4-.8.5-.4.1-.9.2-1.6.3-.7.1-1.6.1-2.6.1-1.1 0-2 0-2.7-.1-.7-.1-1.3-.2-1.7-.3-.4-.1-.7-.3-.9-.6-.2-.2-.4-.5-.5-.9l-3.6-11.5c-.5-1.6-1-3-1.6-4.1-.6-1.1-1.2-2-2-2.6-.7-.7-1.6-1.2-2.5-1.4-.9-.3-2-.4-3.2-.4h-2v20.3c0 .3-.1.5-.2.7-.1.2-.4.4-.8.5-.4.1-.9.3-1.6.3-.6.1-1.5.1-2.4.1-1 0-1.8 0-2.5-.1s-1.2-.2-1.6-.3c-.4-.1-.6-.3-.8-.5-.1-.2-.2-.4-.2-.7v-20.3h-2c-1.3 0-2.4.2-3.4.5s-1.8.8-2.5 1.5-1.4 1.6-1.9 2.6c-.5 1.1-1.1 2.4-1.5 3.9l-3.6 11.5c-.1.4-.3.7-.5.9-.2.3-.5.4-.9.6-.4.1-1 .3-1.7.3-.7.1-1.6.1-2.7.1s-2 0-2.7-.1c-.7-.1-1.2-.2-1.6-.3-.4-.1-.7-.3-.8-.5-.2-.2-.2-.4-.2-.7v-.5c0-.2.1-.4.1-.6.1-.3.2-.5.3-.9.1-.3.3-.7.4-1.2l3.5-10.1c.7-1.9 1.3-3.5 2-4.8.7-1.3 1.4-2.4 2.1-3.3.7-.9 1.5-1.6 2.4-2.2.9-.6 1.8-1.1 2.9-1.5-.9-.3-1.8-.7-2.5-1.2-.8-.5-1.5-1.2-2.1-2-.7-.8-1.3-1.9-1.9-3.1-.6-1.2-1.2-2.7-1.8-4.5l-3-9.1c-.3-.8-.5-1.5-.6-2-.1-.5-.2-.9-.2-1.2 0-.3.1-.5.2-.7.1-.2.4-.3.8-.5.4-.1.9-.2 1.6-.3.7-.1 1.5-.1 2.6-.1s2 0 2.7.1c.7.1 1.2.2 1.6.3.4.1.7.3.8.6.2.2.3.5.4.9l3.2 10.7c.4 1.5.9 2.7 1.4 3.8.5 1 1.1 1.8 1.8 2.5.7.6 1.5 1.1 2.3 1.4.9.3 1.9.4 3.2.4h2v-19c0-.3.1-.5.2-.7.1-.2.4-.4.8-.5.4-.1.9-.2 1.6-.3.6-.1 1.5-.1 2.5-.1s1.8 0 2.4.1c.7.1 1.2.2 1.6.3.4.1.6.3.8.5.2.2.2.4.2.7v19h2c1.2 0 2.2-.1 3.1-.5.9-.3 1.7-.8 2.4-1.4.7-.7 1.3-1.5 1.8-2.5s1-2.2 1.4-3.7l3.2-10.7c.1-.4.2-.7.4-.9.2-.3.5-.5.8-.6.4-.1.9-.3 1.6-.3.7-.1 1.6-.1 2.7-.1 1 0 1.9 0 2.5.1.7.1 1.2.2 1.6.3.4.1.7.3.8.5.1.2.2.4.2.7 0 .3-.1.8-.2 1.3s-.3 1.2-.6 2l-3 8.9c-.6 1.7-1.2 3.1-1.7 4.3-.6 1.2-1.2 2.2-1.9 3-.7.8-1.4 1.5-2.2 2-.8.5-1.7 1-2.6 1.4 1.1.5 2.1 1 2.9 1.6.9.6 1.7 1.3 2.4 2.2.7.9 1.4 2 2 3.3.6 1.3 1.3 2.9 2 4.8l3.5 10.1c.2.5.3.9.4 1.2l.3.9c.1.3.1.5.1.6-.2.3-.2.5-.2.6z"/><path fill="#030304" d="M24.2 208.9v.1l-.1.1h-1.2c-.1 0-.1 0-.1-.1l-.1-.1-.6-1.7c-.1-.2-.2-.5-.3-.6-.1-.2-.2-.3-.3-.4-.1-.1-.2-.2-.4-.2-.1 0-.3-.1-.5-.1h-.3v3.1l-.1.1H19c-.1 0-.1 0-.1-.1V201.8v-.1l.1-.1h1.2c.1 0 .1 0 .1.1v2.9h.3c.2 0 .3 0 .5-.1.1 0 .3-.1.4-.2.1-.1.2-.2.3-.4l.3-.6.5-1.5c0-.1 0-.1.1-.1l.1-.1H24c.1 0 .1 0 .1.1V202c0 .1 0 .2-.1.3l-.5 1.3c-.1.2-.2.5-.3.6-.1.2-.2.3-.3.4l-.3.3c-.1.1-.2.1-.4.2.2.1.3.1.4.2.1.1.2.2.4.3.1.1.2.3.3.5.1.2.2.4.3.7l.6 1.6c.1.2.1.3.1.3-.1.1-.1.2-.1.2zM63.9 205.3c0 .6-.1 1.2-.2 1.7-.2.5-.4.9-.7 1.3-.3.3-.7.6-1.1.8-.5.2-1 .3-1.6.3-.6 0-1.1-.1-1.5-.2-.4-.2-.8-.4-1.1-.7-.3-.3-.5-.7-.7-1.2-.1-.5-.2-1.1-.2-1.7 0-.6.1-1.2.2-1.6.2-.5.4-.9.7-1.2.3-.3.7-.6 1.1-.8.5-.2 1-.3 1.6-.3.6 0 1.1.1 1.5.2.4.2.8.4 1.1.7.3.3.5.7.7 1.2.1.3.2.8.2 1.5zm-1.7.1c0-.4 0-.8-.1-1.1-.1-.3-.2-.6-.3-.8-.1-.2-.3-.4-.6-.5-.2-.1-.6-.2-.9-.2-.4 0-.7.1-.9.2-.3.1-.5.3-.6.6-.2.2-.3.5-.3.8-.1.3-.1.7-.1 1 0 .4 0 .8.1 1.1.1.3.2.6.3.8.1.2.3.4.6.5.2.1.6.2.9.2.4 0 .7-.1.9-.2.3-.1.5-.3.6-.6.2-.2.3-.5.3-.8.1-.3.1-.7.1-1zM103 208.9v.1l-.1.1h-1.2c-.1 0-.1 0-.1-.1V202.8h-2.8V209l-.1.1h-1.2c-.1 0-.1 0-.1-.1v-7c0-.2 0-.3.1-.4.1-.1.2-.1.3-.1h5c.1 0 .2 0 .3.1.1.1.1.2.1.4v6.9h-.2zM142.8 208.9v.1l-.1.1h-1.2c-.1 0-.1 0-.1-.1v-4.1-.4-.4c0 .1-.1.1-.1.2s-.1.1-.1.2-.1.2-.2.2c-.1.1-.1.2-.2.2l-2.6 3.9-.1.1-.1.1h-1.1c-.1 0-.1 0-.1-.1V201.7v-.1l.1-.1h1.2c.1 0 .1 0 .1.1v4.9c.1-.1.2-.3.3-.4.1-.2.2-.3.3-.5l2.6-3.9.1-.1.1-.1h1.1c.1 0 .1 0 .1.1v7.3zM188.2 208.7c0 .2 0 .3-.1.4-.1.1-.2.1-.3.1h-8.2c-.1 0-.2 0-.3-.1-.1-.1-.1-.2-.1-.4v-6.9-.1l.1-.1h1.2c.1 0 .1 0 .1.1V207.9h2.3v-6.1-.1s.1 0 .1-.1h1.2c.1 0 .1 0 .1.1V207.9h2.3v-6.1-.1s.1 0 .1-.1h1.2c.1 0 .1 0 .1.1v7h.2zM228.7 205.3c0 .6-.1 1.2-.2 1.7-.2.5-.4.9-.7 1.3-.3.3-.7.6-1.1.8-.5.2-1 .3-1.6.3-.6 0-1.1-.1-1.5-.2-.4-.2-.8-.4-1.1-.7-.3-.3-.5-.7-.7-1.2-.1-.5-.2-1.1-.2-1.7 0-.6.1-1.2.2-1.6.2-.5.4-.9.7-1.2.3-.3.7-.6 1.1-.8.5-.2 1-.3 1.6-.3.6 0 1.1.1 1.5.2.4.2.8.4 1.1.7.3.3.5.7.7 1.2.1.3.2.8.2 1.5zm-1.6.1c0-.4 0-.8-.1-1.1-.1-.3-.2-.6-.3-.8-.1-.2-.3-.4-.6-.5-.2-.1-.6-.2-.9-.2-.4 0-.7.1-.9.2-.3.1-.5.3-.6.6-.2.2-.3.5-.3.8-.1.3-.1.7-.1 1 0 .4 0 .8.1 1.1.1.3.2.6.3.8.1.2.3.4.6.5.2.1.6.2.9.2.4 0 .7-.1.9-.2.3-.1.5-.3.6-.6.2-.2.3-.5.3-.8 0-.3.1-.7.1-1zM267.8 208.9v.1l-.1.1h-1.2c-.1 0-.1 0-.1-.1V202.8h-2.8V209l-.1.1h-1.2c-.1 0-.1 0-.1-.1v-7c0-.2 0-.3.1-.4.1-.1.2-.1.3-.1h5c.1 0 .2 0 .3.1.1.1.1.2.1.4v6.9h-.2z"/><path fill-rule="evenodd" clip-rule="evenodd" fill="#030304" d="M163 205.2c.5 0 .9.4.9.9s-.4.9-.9.9-.9-.4-.9-.9c-.1-.5.4-.9.9-.9z"/></svg>