<?xml version="1.0" encoding="utf-8"?>
<!-- Generator: Adobe Illustrator 18.0.0, SVG Export Plug-In . SVG Version: 6.00 Build 0)  -->
<!DOCTYPE svg PUBLIC "-//W3C//DTD SVG 1.0//EN" "http://www.w3.org/TR/2001/REC-SVG-20010904/DTD/svg10.dtd">
<svg version="1.0" id="Слой_1" xmlns="http://www.w3.org/2000/svg" xmlns:xlink="http://www.w3.org/1999/xlink" x="0px" y="0px"
	 viewBox="0 0 141.7 141.7" enable-background="new 0 0 141.7 141.7" xml:space="preserve">
<path fill="#F3921F" d="M131.5,6.6c-0.3,0.9-0.5,1.7-1.3,2.5c-0.6,0.6-0.8,1.6-0.8,2.5c-0.1,5.9,0,11.8,0,17.8
	c0,0.1,0.1,0.2,0.1,0.3c1.2-0.5,2.4-0.9,3.6-1.4c0,0.1,0.1,0.2,0.1,0.3c-0.9,0.4-1.8,0.8-2.8,1.2c-0.8,0.3-1.1,0.9-1,1.7
	c0.1,2.2,0,4.5,0,6.7c1.4-0.7,2.7-1.4,3.8-2c-0.1,0.8-0.4,1.8-0.5,2.9c-0.2,1-1.5,1.7-2.3,0.9c-0.3-0.2-0.5-0.5-0.9-0.8
	c0,0.4-0.1,0.7-0.1,1c0,4.4,0,8.7,0,13.1c0,1,0.4,1.5,1.4,1.6c0.8,0.1,1.5,0.2,2.3,0.4c-1,0.9-2.3,0.3-3.5,0.6
	c-0.1,0.7-0.1,0.7,0.7,0.7c0.9,0,1.7,0,2.8,0c0.1,0,0.5-0.3,0.8-0.2c0.2,0.1,0.4,0.6,0.5,0.9c0.1,0.7,0,1.5,0.1,2.2
	c0,0.1,0,0.3,0.1,0.4c0.5,0.7,1,1.4,1.6,2.3c-1,0.3-1.8,0.6-2.6,0.9c-0.2,0.1-0.6,0-0.7-0.2c-0.4-0.3-0.9-0.5-1,0.1
	c-0.1,0.5,0.1,1.4,0.3,1.4c1.5,0.4,2.9,0.7,4.4,0.8c1,0.1-2.6-2.7-2.8-3.8c-0.2-1,0.1-1.8,0.7-2.6c0.2-0.3,0.2-0.7,0.3-1
	c-0.4,0-0.8,0-1.1,0.2c-0.8,0.4,2.7,2.3,2.7,1.3c-0.1-1.3,0-2.5,0-3.8c0-0.6-0.1-1.3-0.2-1.9c-0.2-1.3-1.2-1.8-2.4-1.1
	c-0.3,0.2-0.5,0.4-0.7,0.5c-0.2,0.1-0.4,0.2-0.6,0.4c-0.1-0.1-0.2-0.1-0.3-0.2c0.6-0.9,1.2-1.7,1.8-2.6c0.5-0.6,1-1.2,1.5-1.7
	c0.5-0.5-2.9-2.5-2.5-1.8c0.2,0.3,0.4,0.7,0.7,1c0.2,0.2,0.6,0.5,0.8,0.4c1.1-0.6,2.2,0.2,3.3,0.1c1.1-0.1,2.2,0,3.3,0.2
	c0.3,0,0.5,0.5,0.8,0.8c-0.3,0-0.7,0.2-0.9,0.1c-1.3-0.3-2.6,0.5-3.1,2c0,0.1,0,0.2-0.1,0.5c-0.9-0.2-1.7-0.4-2.6-0.6
	c-0.2,1.1-0.1,2,0.9,2.6c1,0.6,1.5,1.6,1.6,2.8c0.1,0.6,0.3,0.9,1,0.9c0.8-0.1,1.4,0.4,1.4,1.2c0,0.8-0.7,1.2-1.5,1.2
	c-0.3,0-0.5,0-0.8,0.1c0,0.7,0,1.4,0,2.1c0,1.3-0.8,2-2,2.3c-1.2,0.3,1.5,2.4,0.2,2.6c-0.5,0.1-0.8,0-1.2,0.5
	c-0.4,0.6-1.1,0.4-1.4-0.2c-0.4-0.7-1-0.7-1.6-0.6c-1.3,0.3-2.4,1.6-2.4,2.9c0,0.8,0,1.6,0,2.6c1.4-1.8,3.5-1.4,5.2-2.2
	c0.4,1.1-0.3,1.3-1.1,1.5c0.5,1.2,0.2,2.1-0.5,3c-0.4,0.4-0.5,1.1,0.2,1.6c0.1,0.1,0.1,0.3,0.1,0.6c-1.5-1.1-3.5-1.6-3.5-4
	c-0.5,1.4-0.4,3.8,0.1,4.1c-0.2,0.7-0.4,1.3-0.5,1.9c0.1,0.1,0.2,0.1,0.3,0.2c0.5-0.2,1-0.5,1.6-0.8c-0.4,0.7-0.8,1.3-1.1,1.8
	c0.8,0.8,1.5,0.5,2.3,0.1c0,0.1,0,0.2,0.1,0.2c-0.7,0.4-1.4,1-2.2,1.3c-0.7,0.3-0.7,0.7-0.7,1.3c0,8.7,0,17.5,0,26.2
	c0,0.4,0,0.7,0,1.1c-0.9,0-1.8,0.1-1.8,1.2c0,1,0.8,1.2,1.7,1.1c0,3,0,5.9,0,9c-0.4-0.2-0.6-0.2-0.8-0.4c-0.8-0.7-1.6-0.6-2.4-0.1
	c-0.3,0.2-0.8,0.4-1.2,0.4c-3.6,0-7.3,0-10.9,0c-1.5,0-2.2-0.7-2.2-2.2c0.5,0.1,0.9,0.3,1.4,0.4c0-0.1,0.1-0.1,0.1-0.2
	c-0.2-0.2-0.4-0.3-0.7-0.4c-0.2-0.1-0.4-0.1-0.5-0.2c-0.4-0.4-0.8-0.9-1.2-1.3c0.5-0.3,1.1-0.6,1.7-0.9c-0.8-0.5-1.8-1.1-2.9-1.7
	c0.5-0.4,0.9-0.8,1.5-1.4c-0.8,0.1-1.4,0.3-1.8,0.1c-0.4-0.2-0.5-0.8-0.7-1.3c0,0-0.2,0.2-0.4,0.5c-0.2-0.4-0.5-0.9-0.8-1.3
	c-0.4,0.8-0.9,1.1-1.7,0.4c-0.3-0.2-1.1,0.1-1.6,0.3c-0.4,0.1-0.7,0.5-1.1,0.8c0.2,0.6-0.5,0.7-1.2,0.7c0.2,0.3,0.3,0.5,0.4,0.8
	c-0.3,0.2-0.7,0.3-1.2,0.5c0.3,0.2,0.5,0.3,0.8,0.5c-0.1,0.1-0.2,0.3-0.3,0.4c-0.6,0.6-1.1,1.2-1.7,1.7c-0.3,0-0.6-0.2-0.8-0.1
	c-0.3,0.3-0.7,0.7-0.6,1c0.1,0.3,0.6,0.5,1,0.7c0.2-0.4,0.5-0.7,0.7-1.1c0.1-0.1-0.2-0.4-0.3-0.6c0.5-0.1,1.1-0.2,1.6-0.3
	c0.1,0.1,0.2,0.1,0.2,0.2c-0.3,0.5-0.6,1-0.9,1.4c0.6,0.1,1.2,0.3,2,0.5c-0.4,0.6-0.6,1-0.9,1.5c0.6-0.3,1.1-0.5,1.5-0.7
	c0.1,0.4,0.2,0.7,0.3,1.2c0.3-0.2,0.7-0.4,1.1-0.7c0.4,0.5,0.4,0.9-0.3,0.9c-2.8,0-5.7-0.2-8.5-0.2c-0.4,0-0.7,0.1-1.1,0.1
	c-0.5,0-1.1-0.1-1.5-0.3c-0.7,0.2-1.3,0.3-2,0.5c-0.2-1-0.5-1.9-1.5-1.6c-0.6,0.2-1,0.9-1.6,1.5c0.3-0.8,0.6-1.7-0.3-2.1
	c-0.5-0.2-1.3,0-2,0.1c0,0.1,0,0.2,0,0.3c-0.1-0.1-0.2-0.3-0.4-0.4c-0.2-0.1-0.5-0.2-0.7-0.2c-0.1,0-0.3,0.4-0.3,0.5
	c0,0.6,0.1,1.1,0.1,1.7c-2.1,0-4.1,0-6,0c-0.5-0.5-0.8-0.9-1.2-1.2c-0.3,0.3-0.6,0.7-0.9,1c0.1,0.1,0.1,0.2,0.2,0.2
	c-1.6,0.2-3.1-0.3-4.7,0c-1.6,0.2-3.2,0.1-4.6,0.1c-0.3-0.4-0.5-0.7-0.7-1c-0.2,0.3-0.5,0.6-0.9,1.2c-0.4,0.2-1.2,0.7-2,1.1
	c0.9,1.3,2.2,0.5,3.2,0.8c0.1,0,0.3-0.1,0.3-0.2c0.2-1.1,1.2-0.8,1.8-1.1c0.1,1.1,0.2,2.2,0.3,3.3c0.2,0,0.4,0.1,0.7,0.1
	c0,0,0,0.1,0,0.1c-0.6,0.1-1.2,0.3-1.9,0.4c-0.1,0.5-0.3,1-0.4,1.7c-0.1,0.1-0.3,0.2-0.5,0.3c0.1,0.6,0.1,1.2,0.4,1.8
	c0.1,0.2,0.6,0.4,1,0.4c0.4,0,0.8-0.2,1.2-0.3c0,0.1,0.1,0.3,0.1,0.4c-0.6,0.1-1.3,0.2-1.9,0.3c-0.8,0.1-1.3,1-0.7,1.4
	c0.6,0.5,0.2,0.9,0.3,1.4c0.1,0.3-0.1,0.7-0.2,1c-0.4,0.2-1,0.2-1.3,0.6c-0.3,0.3-0.2,0.9-0.2,1.3c-0.2-0.2-0.5-0.5-0.7-0.9
	c-0.5-0.8-1-0.8-1.4,0.1c-0.5-0.1-0.9-0.2-1.5-0.3c0.7,1.3,2,2,2.2,3.3c-0.8,0.3-1.1,0.1-1.4-0.5c-0.5-0.9-1.1-1.7-2.1-2.3
	c-0.8-0.4-1.4-1.2-2.1-1.8c-0.4-0.3-0.8-0.6-1.2-0.8c-0.7-0.2-1.2-0.5-1.2-1.4c0.2-0.2,0.4-0.4,0.7-0.6c-0.1-0.2-0.3-0.5-0.4-0.7
	c0,0,0-0.1,0-0.1c0.8-0.1,0.8-0.5,0.6-1.2c-0.5-1.5-1.4-2.6-2.8-3.3c-0.2-0.1-0.4-0.1-0.5-0.2c-0.9-1-1.7-1.9-2.5-3
	c1.5,0.4,2,2.2,3.9,2.3c-0.3-0.4-0.5-0.6-0.6-0.9c-0.3-0.4-0.6-0.8-0.9-1.1c-0.9-0.9-2-1.8-3.4-1.8c-9,0-18,0-27,0
	c-0.6,0-1.2,0.1-1.6-0.7c-0.3-0.6-1-0.5-1.5,0c-0.6,0.7-2.3,0.8-3.2,0.4c-0.3-0.1-0.8-0.2-1.1,0c-0.8,0.4-1,0.3-1-0.6
	c0-3.4,0-6.8,0-10.2c0-0.9-0.1-1.6-1.2-1.8c0.3,0.1,0.7,0.1,1.1,0.2c0-0.4,0-0.7,0-1.1c0-6.9,0-13.8,0-20.7c0-0.7,0-1.3,0-2
	c0-0.3-0.3-0.5-0.4-0.7c-0.5-0.6-0.7-1.1,0-1.7c0.2-0.1,0.4-0.4,0.4-0.6c0-2.5,0-5,0-7.9c-0.3,0.4-0.4,0.5-0.4,0.6
	c-0.1,0.6-4.5-1.2-5.1-1.3c-0.8-0.1-0.8-0.7-0.9-1.3c-0.1-0.5,0.2-0.9,0.8-1c0.9-0.2,5.5,1.1,5.5,0.4c0.1-3.5,0-7,0-10.6
	c-0.3,0-0.7,0.1-0.9,0c-0.3-0.1-4.6-2.3-4.9-2.5c0.2-0.3,4.4,1.4,4.6,1.1c0-0.1,0.2,0,0.3-0.1c0.3-0.2,0.6-0.4,0.9-0.6
	c-0.2-0.2-0.5-0.4-0.5-0.4c0.2-0.6,0.5-1.1,0.5-1.6c0.1-1,0-2.1,0-3.1c-0.1,0-0.2,0-0.3-0.1c-0.1,0.6-0.3,1.1-0.5,2
	c-0.6-0.6-5.1-2.9-5.5-3.4c-0.8-1-1.4-2.2-2.2-3.2c-0.4-0.5-1.1-0.7-1.7-1.1c0,0-0.1,0-0.1,0c-0.8-0.9-1.6-0.3-2.3,0.1
	c-0.8,0.5-1.6,0.9-1.7,1.9c0,0.2-0.4,0.5-0.6,0.5c-0.2,0-0.6-0.3-0.6-0.5c-0.1-0.2,0.2-0.6,0.3-0.7c0.8-0.5,1.7-0.9,2.6-1.4
	c0.5-0.3,0.6-0.5,0.1-1C1.8,46,1.9,45,3.2,44.1c0.1,0.3,0.2,0.8,0.4,0.9c0.8,0.4,1.6,0.8,2.5,1c0.3,0.1,0.7-0.5,1-0.7
	c-0.4-0.6-0.8-0.9-1.1-1.4c-0.3-0.5-0.1-0.8,0.4-0.8c0.9-0.1,1.3-0.8,0.8-1.6c-0.2-0.3-0.4-0.7-0.5-1.1c-0.1-0.4,0-1.1,0.1-1.1
	c0.5-0.1,1.1-0.1,1.4,0.1c0.6,0.7,1.8,1.2,1,2.5c0,0,0,0.1,0,0.2c0.8,0.8,0.6,1.7,0,2.5c0.8,0.1,5.5,2.1,6.5,2.2
	c-0.5-0.5-1-0.8-1.4-1.1c0-0.1,0-0.1,0.1-0.2c0.3,0.1,0.6,0.1,1,0.2c0-4.3,0-8.7,0-13.1c-0.9,0.5-5.7-1.2-5.9-0.1
	c0,0.2-0.5,0.5-0.7,0.5c-0.2,0-0.6-0.3-0.6-0.5c0-0.2,0.2-0.6,0.5-0.7c2.2-0.7,7.3-0.1,6.9-2.5c-0.2-1.1-0.1-2.3,0-3.5
	c0-0.7,0.1-1.5,0.2-2.4c0.7-0.1,1.5-0.3,1.1-1.5c0.7-0.4,1.4-0.7,0.9-1.6c-0.4-0.8-1.1-0.7-1.9-0.2c-0.2-0.5-0.3-1-0.6-1.7
	c1,0.4,1.8,0.8,2.4-0.2c0.5-0.8,0-1.3-0.3-1.5c-0.1-0.8,0-1.5-0.3-1.8c-0.3-0.3-0.9-0.2-1.6-0.3c0-1.1,0-2.6,0-4
	c0-0.7,0.5-0.6,1-0.6c3.1,0,6.1,0,9.2,0c1.5,0,19.9,0,23.1,0c0.3,0,0.7,0.3,0.7,0.5c0.1,1.6,1.5,2.6,2.9,2.6c1.5,0,2.4-1,2.8-2.8
	c0-0.1,0-0.1,0.1-0.2c1.8,0,3.5,0,5.3,0c0.4,1.9,1,2.6,2.1,2.5c1.1-0.1,1.7-0.8,1.8-2.6c2.8,0,5.6,0,8.4,0c0.2,0,0.5,0.3,0.6,0.6
	c0.5,1.3,1.4,2.1,2.7,2.1c1.2,0,2.3-0.7,2.7-2c0.2-0.5,0.4-0.7,1-0.7c8.1,0,16.1,0,24.2,0c7.6,0,15.2,0,22.8,0
	c1.4,0,2.2-0.9,2.1-2.3c0-0.3,0-0.7,0.2-0.8 M18.5,117.2c0.2,0,0.4,0.1,0.5,0c0.2-0.2,0.4-0.4,0.6-0.6c-0.2-0.2-0.4-0.4-0.6-0.6
	c-0.2,0.2-0.4,0.4-0.5,0.7C18.4,116.9,18.5,117.1,18.5,117.2c-0.2-0.2-0.3-0.5-0.5-0.7c-0.7-0.6-1.6-0.4-2.1,0.3
	c-0.5,0.7-0.3,1.6,0.5,1.9c0.4,0.2,1.1,0.2,1.4,0C18.2,118.4,18.3,117.8,18.5,117.2z M123.8,99.7L123.8,99.7
	c0.8-0.1,1.1-0.7,0.9-1.3c-0.1-0.5-0.7-1.1-1.1-1.2c-1-0.3-1.4,0.6-1.8,1.4c-0.3-0.1-0.6-0.3-0.8-0.3c-0.3,0.1-0.8,0.3-0.9,0.6
	c-0.1,0.3,0.1,1.1,0.3,1.1c1,0.2,2,0.2,2.9,0.3C123.4,100.2,123.6,99.9,123.8,99.7z M26.4,113c-0.6,0-1.2,0.1-1.3,0.8
	c0,0.3,0.3,0.8,0.6,1c0.2,0.1,0.8-0.1,1-0.3C27.2,113.9,26.8,113.4,26.4,113c0.3,0.1,0.7,0.2,1,0.2c0.2-0.5,0.2-1.2,0.4-1.3
	c0.4-0.1,0.9,0.2,1.3,0.3c0.5-0.8,0.4-1.6-0.2-2.3c-0.7-0.6-1.5-0.9-2.3-0.3c-0.7,0.5-1.4,0.3-2.1,0.1c-0.3-0.1-0.7,0-1,0.1
	c-0.1,0.1-0.2,0.6-0.1,0.7c0.2,0.2,0.6,0.4,0.9,0.4c0.7,0,1.1,0.1,1.3,0.9C25.7,112.2,26.1,112.6,26.4,113z M7.3,93.1
	c0,0.5,0,0.9,0,1.1c0.4,0.3,0.7,0.4,0.8,0.7C8.2,95,8.1,95.4,8,95.5c-0.6,0.3-0.4,0.6-0.1,1c0.5-0.3,1-0.5,1.3,0.1
	c0.4,0.6-0.2,0.9-0.8,1.2C8.7,97.8,9,97.9,9.1,98c0.2,0.1,0.4,0.3,0.6,0.5c0.2,0.3,0.3,0.6,0.5,0.9c0-0.1,4.1,1.8,4.1,1.7
	c0.4-0.1,0.8-0.3,1.1-0.2c0.4,0.1,0.5,0.5,0.4,0.9c0,0.1,0.2,0.2,0.3,0.3c0.1-0.3,0-0.5,0-0.7c-0.1-0.8,0.2-1.5,0.9-1.9
	c0.6-0.3,1.6-0.3,2.1,0.2c0.6,0.6,1,1.3,1.5,1.9c0.4-0.2,0.7-0.4,1-0.5c0.4,0.2,0.6,0.4,0.9,0.5c0.2,0,0.6-0.3,0.6-0.4
	c0-0.3-0.2-0.7-0.3-1.2c0.2-0.3,0.8-0.7,0.6-1.4c0-0.1,0.1-0.3,0.2-0.3c0.7-0.3,0.5-1,0.7-1.5c-1-0.3-1-0.5-0.4-1.4
	c-0.5-0.8-0.3-0.7-0.1-1.5c0.1-0.5,0-1.3-0.3-1.7c-0.4-0.6-1.1-0.9-1.7-1.3c-0.1-0.1-0.1-0.2-0.2-0.3c-0.3-0.3-0.6-0.6-1-0.9
	c-0.3,0.7-0.6,1.1-1.3,1c-0.8-0.2-0.7-0.8-0.7-1.4c-0.6,0.1-1.1,0.2-1.6,0.3c-0.6,0.1-1.2,0.2-1.7,0.3c-0.5,0.1-0.8,0.4-0.7,1
	c0.1,0.7-4.6-1-5.3-1.2c-0.2,0-0.4-0.1-0.5,0c-0.3,0.4-0.6,0.9-1,1.5c1.3-0.3,1.9-0.1,2.2,0.6c0.3,0.6,0.1,1.2-0.4,1.6
	C9,94,8.4,93.9,7.3,93.1z M90.5,22.1c0.4,0.3,0.8,0.6,1.2,0.8c0.9,0.7,2.2,1,2.3,2.4c0.1,1,0.8,1.6,1.7,1.7c2.5,0.2,5-2.2,4.7-4.7
	c-0.3-2.3-2.7-3.6-4.9-2.6c-0.3,0.1-0.6,0.2-1,0.2c-1.1,0-2.3-0.1-3.1-1.3C91.2,19.9,91.8,21.1,90.5,22.1z M117.6,100.8
	c-0.3,1.4,0,2.2,1,2.4c0.8,0.2,1.7-0.4,1.7-1.2c0-0.4-0.2-1-0.5-1.3c-0.3-0.3-0.9-0.3-1.4-0.5c0.8-1.2,0.8-2.1,0-2.9
	c-0.7-0.7-1.5-0.9-2.4-0.5c-0.9,0.4-1.4,1.3-1.2,2.3C115.1,100.2,115.8,100.6,117.6,100.8z M118.7,109.9
	C118.8,109.9,118.8,109.9,118.7,109.9c0.1,0.7-0.1,1.4,0.2,1.9c0.2,0.3,1,0.6,1.5,0.4c0.5-0.2,0.8-0.1,1.3,0.1
	c0.8,0.4,1.9,0.1,2.4-0.7c0.5-0.8,0.3-1.7-0.4-2.3c-0.7-0.6-1.7-0.6-2.5,0c-0.3,0.2-0.6,0.3-0.6,0.4c-0.4-0.7-0.6-1.3-1-1.7
	c-0.1-0.1-1,0.2-1,0.4C118.5,108.8,118.7,109.4,118.7,109.9z M103.7,13.3c0,1.6,0,3,0,4.4c0,0.4,0.1,1,0.4,1.2
	c0.5,0.3,1.1,0.6,1.7,0.6c0.3,0,0.8-0.4,1-0.8c0.7-1.7,0.4-3.4-0.2-5c-0.1-0.3-0.3-0.5-0.6-0.9c-0.3,1,0.6,2.1-0.8,2.7
	C104.8,14.7,104.3,14.1,103.7,13.3z M122.7,105.5c0,0.3-0.1,0.7,0.1,0.8c0.3,0.3,0.8,0.7,1.2,0.6c0.3,0,0.8-0.7,0.7-1
	c-0.2-0.6,0.1-0.8,0.4-1.2c0.6-0.7,0.6-1.5,0-2.3c-0.6-0.7-1.4-1-2.2-0.7c-0.9,0.3-1.3,1-1.3,1.9c0,0.2,0.1,0.5,0.1,0.7
	C121.3,105.7,121.4,105.8,122.7,105.5z M88.2,12.9c0-1.2-0.9-2.2-2.1-2.2c-1.2,0-2.3,1-2.3,2.2c0,1.1,1.1,2.2,2.2,2.2
	C87.2,15.1,88.2,14.1,88.2,12.9z M123,115.4c0.8,0.8,1.6,0.9,2.2,0.3c0.5-0.6,0.5-1.4-0.1-1.8c-0.7-0.5-1.4-0.3-2.2,0.6
	c-0.6-0.8-1.4-1.3-2.4-0.8c-0.8,0.4-1.1,1-0.9,1.8c0.1,0.8,0.7,1.2,1.4,1.3C122.1,116.9,122.7,116.3,123,115.4z M117.8,95.2
	c0.8,1.2,1.8,1.6,2.7,1c0.8-0.5,1-1.6,0.5-2.4c-0.6-0.9-1.6-0.9-2.8-0.2c-0.5-0.7-1.3-1-2-0.4c-0.3,0.3-0.5,1-0.3,1.4
	C116.2,95.5,117,95.6,117.8,95.2z M89.9,26.8c0.5,0.1,0.9,0.1,1.3,0.2c0.8,0.1,1.7-0.4,2-1.2c0.3-1,0-1.6-1-2
	c-2.2-0.9-2.6-1.6-2.2-3.9c0-0.2,0-0.4-0.1-0.9c-0.3,0.5-0.5,0.6-0.5,0.8c-0.3,1.1-0.3,2.2,0.3,3.2c0.2,0.4,0.3,0.9,0.3,1.3
	C90,25.1,89.9,26,89.9,26.8z M82.5,22.6c-0.4-1.1-0.7-1.9-1.1-2.8c-0.1-0.2-0.3-0.6-0.5-0.7c-0.2-0.1-0.5,0.2-0.8,0.3
	c-1.2,0.7-1.1,2.1-1.8,3.1c-0.3,0.5,0.4,1.1,1,1c0.6-0.1,1.3-0.1,1.9-0.3C81.7,23.2,82,22.9,82.5,22.6z M51,15.2
	c0,1,0.7,1.8,1.7,1.8c1,0,1.8-0.8,1.8-1.7c0-0.9-0.8-1.8-1.8-1.8C51.8,13.5,51,14.2,51,15.2z M22.3,114.5c1-0.6,1-0.8,0.2-3.1
	c-0.3,0-0.6,0-0.9,0c-1.4-0.1-2.2,0.9-1.9,2.2c0.1,0.3,0,0.6,0,0.9c0,0.6,0.4,0.9,0.9,0.7c0.5-0.2,0.9-0.5,1.2-0.6
	c0-0.5,0-0.9,0-1.3c0.3,0,0.7,0,1.2,0C22.6,113.9,22.5,114.2,22.3,114.5z M54.9,26.6c0,0.8,0.9,1.7,1.7,1.6c0.8,0,1.5-0.9,1.5-2.1
	c0-0.6-0.9-1.5-1.5-1.5C55.7,24.7,54.9,25.7,54.9,26.6z M17.5,108.7c0.1,0.8,0.4,1.2,1.3,1.4c0.4,0.1,0.7,0.3,1.1,0.4
	c0.3,0.1,0.6,0.1,0.9,0.1c0-0.3,0.1-0.6,0-0.9c-0.1-0.4-0.3-0.8-0.4-1.2c-0.1-0.7-0.8-1.4-1.5-1.3C18.2,107.3,17.6,108,17.5,108.7z
	 M83.9,22.9c0.2,0.1,0.4,0.2,0.5,0.1c0.9-0.2,1.8-0.3,2.6-0.6c0.5-0.2,0.9-0.7,1-1.2c0.1-0.3-0.3-0.9-0.6-1
	c-0.4-0.1-0.9,0.2-1.3,0.4c-0.3,0.1-0.6,0.5-0.9,0.6C84.3,21.4,84.1,22.1,83.9,22.9z M115.8,105.3c0,0.7,0.6,1.4,1.4,1.4
	c0.8,0,1.4-0.5,1.5-1.3c0-0.8-0.6-1.5-1.4-1.5C116.5,104,115.8,104.6,115.8,105.3z M123.8,93.4c-0.8,0-1.4,0.6-1.3,1.4
	c0.1,0.8,0.6,1.3,1.4,1.3c0.8,0,1.4-0.6,1.4-1.4C125.2,93.9,124.6,93.4,123.8,93.4z M19.6,14.6c-0.8,0-1.4,0.6-1.4,1.4
	c0,0.8,0.6,1.3,1.5,1.3c0.9,0,1.3-0.5,1.3-1.3C21,15.2,20.4,14.6,19.6,14.6z M22.7,15.3c-1,0-1.6,0.9-1.3,1.5
	c0.2,0.5,0.6,0.9,0.4,1.5c-0.1,0.1,0.2,0.5,0.4,0.6c0.2,0.1,0.8,0,0.8-0.1c0.2-1,0.4-2,0.4-3C23.4,15.6,22.8,15.4,22.7,15.3z
	 M21.7,117.3c-0.3,0.1-0.4,0.1-0.6,0.1c-0.3,0.1-0.7,0.2-1,0.4c-0.1,0,0.1,0.6,0.2,0.6c0.3,0,0.6,0,1-0.1c0.6-0.1,1.1-0.4,1.6,0.3
	c0.1,0.1,0.3,0.2,0.5,0.2c0.1,0,0.2-0.3,0.2-0.4c0.1-1.6,0.1-1.6-1.3-2.4c-0.2-0.1-0.6-0.1-0.7,0c-0.2,0.2-0.2,0.5-0.2,0.8
	C21.3,116.8,21.5,117,21.7,117.3z M64,13.9c0,0.8,0.2,1.4,1.1,1.4c0.7,0,1.3-0.6,1.2-1.4c0-0.7-0.4-1.2-1.2-1.2
	C64.3,12.8,64,13.2,64,13.9z M21.1,12.7c0-0.1,0-0.2,0-0.4c-0.2-0.3-0.4-0.6-0.7-0.9c-0.1-0.1-0.6,0.2-0.6,0.3
	c0.2,0.7,0.4,1.3,0.7,2c0.1,0.2,0.4,0.4,0.6,0.4c0.2,0,0.5-0.2,0.7-0.3c0.3-0.1,0.6-0.3,0.9-0.5c0.2-0.2,0.5-0.4,0.6-0.6
	c0-0.2-0.2-0.6-0.4-0.7c-0.2-0.1-0.5,0-0.8,0.1C21.7,12.4,21.4,12.5,21.1,12.7z M124.2,90.8c0-0.7-0.4-1.2-1.1-1.3
	c-0.7,0-1.3,0.5-1.3,1.2c0,0.7,0.5,1.2,1.2,1.2C123.7,91.9,124.2,91.5,124.2,90.8z M30.5,98.7c0.1,0.7,0.5,1.2,1.3,1.2
	c0.7,0,1.2-0.5,1.1-1.2c0-0.7-0.5-1.2-1.2-1.2C31,97.5,30.6,98,30.5,98.7z M76.6,17.7c-0.3-0.2-0.7-0.7-1.1-0.7
	c-0.8,0-1.2,0.7-1.2,1.4c0,0.7,0.4,0.9,1,0.9C76.2,19.3,76.5,18.7,76.6,17.7z M34.2,111.3c-0.4-0.3-0.9-0.8-1.3-0.8
	c-0.7-0.1-1.2,0.4-1.2,1.1c0,0.7,0.4,1.2,1.2,1.1C33.7,112.7,34,112.2,34.2,111.3z M123.8,121.5c0.2,0,0.3,0,0.5,0
	c0.3-0.4,0.8-0.8,0.9-1.3c0.2-0.6-0.6-1.2-1.2-1.1c-0.7,0.1-1.2,0.5-1,1.2C123,120.7,123.5,121.1,123.8,121.5z M86.5,22.7
	c-0.5,0.7-1.1,1-1.1,1.4c0,0.3,0.6,0.7,1,1c0.4-0.4,0.9-0.7,1-1.1C87.5,23.8,87,23.4,86.5,22.7z M117.7,83c-0.6-0.5-1.1-1-1.4-0.9
	c-0.4,0.1-0.7,0.6-1,0.9c0.4,0.3,0.7,0.8,1.1,0.9C116.7,84,117.1,83.5,117.7,83z M18.4,21.7c0.1,0,0.3,0,0.4,0
	c0.2-0.4,0.7-0.8,0.7-1c-0.1-0.4-0.6-0.7-0.9-1c-0.3,0.3-0.8,0.7-0.9,1C17.6,21,18.2,21.4,18.4,21.7z M29.9,106.1
	c-0.2,0.5-0.5,1.1-0.7,1.6c-0.1,0.2,0.1,0.5,0.1,0.7c0,0,0.1,0.1,0.2,0.1c1.1,0.2,0.8-1.1,1.5-1.3c-0.1-0.3-0.2-0.7-0.4-1
	C30.5,106.2,30.3,106.2,29.9,106.1z M35.8,91c-0.4,0.7-0.8,1-0.8,1.4c-0.1,0.6,0.3,1,0.9,0.9c0.4-0.1,0.9-0.6,0.9-0.9
	C36.8,92.1,36.3,91.7,35.8,91z M102,16.9c1.3-1.1,1.4-1.6,0.4-2.5C101.4,15.2,101.3,15.7,102,16.9z M35.3,98.9
	c-0.5,0.6-0.9,1-0.9,1.2c0,0.3,0.5,0.7,0.8,0.8c0.2,0.1,0.8-0.5,0.8-0.8C36.1,99.9,35.7,99.6,35.3,98.9z M58.1,19.7
	c-0.5,0.6-0.9,0.9-0.9,1.3c0,0.3,0.5,0.6,0.8,0.8c0.3-0.3,0.7-0.5,0.7-0.8C58.7,20.7,58.4,20.3,58.1,19.7z M29.5,104.7
	c0.5,0.4,0.9,0.8,1.1,0.7c0.3-0.1,0.7-0.5,0.7-0.8c0-0.2-0.5-0.6-0.8-0.6C30.3,104,30,104.4,29.5,104.7z M30,103.5
	c-0.6-0.3-0.9-0.6-1.2-0.6c-0.3,0-0.7,0.5-0.7,0.6c0.1,0.3,0.4,0.7,0.7,0.8C29.1,104.3,29.4,103.9,30,103.5z M33.9,97.3
	c-0.4,0.5-0.8,0.8-0.7,1c0.1,0.3,0.5,0.5,0.7,0.8c0.2-0.2,0.7-0.5,0.7-0.7C34.6,98.1,34.2,97.8,33.9,97.3z M23.7,115.3
	c0.5,0.3,0.8,0.7,1,0.6c0.3-0.1,0.5-0.5,0.8-0.7c-0.3-0.2-0.5-0.6-0.8-0.6C24.4,114.6,24.1,115,23.7,115.3z M24.4,117.3
	c0.6,0.4,1.2,0.5,1.6-0.1c0.1-0.1-0.1-0.7-0.3-0.8C24.9,116.1,24.7,116.8,24.4,117.3z M58.3,24c0-0.5,0.3-1.2-0.6-1.1
	c-0.1,0-0.4,0.4-0.3,0.6c0.2,0.5,0.4,0.9,0.7,1.4c0.1-0.1,0.3-0.2,0.3-0.3C58.4,24.4,58.4,24.2,58.3,24z M25.7,11.3
	c-0.3,0.4-0.7,0.6-0.7,0.8c0.1,0.3,0.4,0.5,0.6,0.7C25.9,12.7,26,11.7,25.7,11.3z M30.5,108.7c0.4,0.3,0.7,0.6,0.9,0.6
	c0.2,0,0.6-0.4,0.6-0.6c0-0.2-0.4-0.6-0.6-0.6C31.2,108.1,30.9,108.5,30.5,108.7z M34.8,103.8c0.2,0.1,0.4,0.2,0.6,0.2
	c0.2-0.4,0.4-0.9,0.6-1.3c-0.2-0.1-0.5-0.2-0.7-0.3C35.2,102.8,35,103.3,34.8,103.8z M15.6,24.2c0.4,0.3,0.7,0.6,0.8,0.6
	c0.3-0.1,0.5-0.4,0.7-0.7c-0.2-0.2-0.4-0.5-0.7-0.5C16.2,23.6,16,23.9,15.6,24.2z M121.3,118.4c0.4,0.3,0.6,0.6,0.9,0.6
	c0.2,0,0.6-0.4,0.6-0.6c0-0.2-0.3-0.6-0.6-0.6C122,117.8,121.7,118.1,121.3,118.4z M20.5,18.4c-0.4-0.3-0.7-0.6-0.9-0.5
	c-0.2,0-0.4,0.4-0.6,0.6c0.2,0.2,0.4,0.6,0.7,0.6C19.8,19,20,18.7,20.5,18.4z M114,85.6c0.5,0.3,0.7,0.6,1,0.5
	c0.2,0,0.4-0.3,0.6-0.5c-0.2-0.2-0.4-0.5-0.6-0.6C114.7,85,114.5,85.3,114,85.6z M119.5,104.4c-0.3,0.4-0.5,0.7-0.5,1
	c0,0.2,0.4,0.5,0.6,0.5c0.2-0.1,0.6-0.4,0.6-0.6C120.1,105,119.8,104.8,119.5,104.4z M16.8,21.5c-0.3,0.4-0.5,0.7-0.5,0.9
	c0,0.2,0.4,0.5,0.6,0.5c0.2,0,0.6-0.3,0.6-0.5C17.4,22.1,17.1,21.9,16.8,21.5z M24.5,106.1c-0.4-0.3-0.7-0.6-0.9-0.6
	c-0.2,0-0.4,0.4-0.6,0.6c0.2,0.2,0.4,0.5,0.6,0.5C23.8,106.7,24.1,106.4,24.5,106.1z M59.8,18.5c0.4,0.2,0.7,0.5,0.8,0.4
	c0.3-0.1,0.4-0.4,0.6-0.6c-0.2-0.2-0.5-0.5-0.7-0.5C60.3,17.8,60.1,18.1,59.8,18.5z M19.3,23.5c0.4,0.3,0.6,0.6,0.8,0.6
	c0.2,0,0.4-0.3,0.6-0.5c-0.2-0.2-0.4-0.5-0.6-0.5C20,23,19.7,23.2,19.3,23.5z M30.9,100.6c0.3,0.3,0.5,0.6,0.8,0.6
	c0.2,0,0.5-0.3,0.5-0.5c0-0.2-0.3-0.6-0.5-0.6C31.5,100.1,31.3,100.4,30.9,100.6z M115.9,71.8c-0.3,0.4-0.6,0.6-0.6,0.8
	c0,0.2,0.3,0.4,0.5,0.6c0.2-0.2,0.5-0.4,0.6-0.6C116.4,72.4,116.1,72.2,115.9,71.8z M120.1,90.5c-0.2,0.4-0.5,0.7-0.4,0.9
	c0,0.2,0.4,0.4,0.6,0.5c0.2-0.2,0.5-0.4,0.5-0.6C120.7,91,120.4,90.8,120.1,90.5z M17.4,12.9c0.4,0.3,0.6,0.6,0.8,0.6
	c0.2,0,0.5-0.3,0.5-0.5c0-0.2-0.3-0.5-0.5-0.6C18.1,12.4,17.8,12.6,17.4,12.9z M114.6,90.5c-0.3,0.3-0.6,0.6-0.6,0.7
	c0.1,0.2,0.4,0.4,0.6,0.6c0.2-0.2,0.5-0.4,0.5-0.6C115.2,91.1,114.9,90.8,114.6,90.5z"/>
<g>
	<path fill="#FFFFFF" stroke="#FFFFFF" stroke-miterlimit="10" d="M20.2,39.6c-0.7-4.2-1.5-8.4-2.2-12.7c0.2-0.8,0.6-1.6,1.2-2.2
		c0.1-0.1,0.2-0.4,0.1-0.6c-0.7-1.7-0.3-3,1.3-3.9c3-1.7,6-3.4,9.2-4.9c2.8-1.4,5.9-1.5,8.8-0.3c6,2.5,11.9,5,17.8,7.5
		c6.1,2.6,12.2,5.2,18.4,7.8c4.4,1.9,8.8,3.8,13.2,5.6c4.8,2.1,9.7,4.1,14.5,6.2c3.9,1.7,7.8,3.3,11.7,5c3,1.3,6,2.5,8.9,3.9
		c2.2,1,2.5,3.3,0.7,4.9c-0.5,0.4-0.9,0.8-1.5,1.3c0.7,0.4,1.3,0.7,1.9,1.1c1.6,1,3.4,1.6,4.6,3.1c0.1,0.7,0.2,1.4,0.4,2.1
		c-0.4,1.2-1.1,2.1-2.1,2.8c-2.3,1.7-4.6,3.4-6.9,5.1c-0.5,0.3-0.6,0.7-0.5,1.2c0.5,2.6,0.9,5.1,1.4,7.7c0.6,3.5-0.8,6.7-3.8,8.6
		c-3.6,2.3-7.2,4.5-10.8,6.7c-4.7,2.9-9.4,5.9-14.2,8.8c-2.6,1.6-5.3,1.6-7.8-0.1c-1.1-0.7-2-1.8-2.9-2.7c-3.2-3.2-6.4-6.5-9.6-9.8
		c-0.5-0.5-1-1-1.5-1.5c-0.1,0.2-0.1,0.3,0,0.3c1.7,3.3,3.5,6.5,5.2,9.8c0.9,1.6,1.2,3.3,0.3,5c-0.7,1.2-1.8,1.9-3.2,2.3
		c-6.3,1.8-12.7,3.7-19,5.5c-2.8,0.8-5.5,1.6-8.3,2.4c-2.9,0.9-5.9-0.6-6.7-3.4c-0.6-2.1-1.1-4.3-1.7-6.4c-1.5-6-3.1-12.1-4.6-18.1
		c-2-8-4-16-6.1-23.9c-1.7-6.8-3.4-13.6-5.1-20.4C20.9,42,20.6,40.8,20.2,39.6z M64.8,27c-0.2-0.1-0.4-0.1-0.5-0.1
		c-3.2-1.4-6.5-2.8-9.7-4.1c-4.9-2.1-9.8-4.1-14.6-6.2c-1.7-0.7-3.4-1.4-5.3-1.4c-2.2,0-4.2,0.7-6.1,1.8c-2.5,1.4-5.1,2.7-7.6,4.2
		c-1.4,0.8-1.5,2.3-0.2,3.2c1.9,1.5,4,2.8,6,4.2c4.1,2.8,8.1,5.5,12.2,8.3c3.1,2.1,6.1,4.2,9.2,6.2c0.4,0.3,0.6,0.3,1-0.1
		c1.3-1.4,2.6-2.7,4-4c2.8-2.8,5.5-5.6,8.3-8.4C62.5,29.4,63.5,28.3,64.8,27z M101,82.7c0.7-0.3,1.4-0.5,2-0.9
		c1.1-0.7,2.2-1.6,3.3-2.4c3.5-2.6,7-5.2,10.5-7.9c3.2-2.4,6.4-4.8,9.6-7.2c1.3-1,1.2-2-0.2-2.8c-1.7-1-3.4-1.9-5.2-2.9
		c-0.2-0.1-0.6-0.1-0.7,0.1c-0.6,0.4-1.2,1-1.9,1.4c-5.8,4.5-11.6,9.1-17.3,13.6c-2.5,1.9-5.8,2.1-8.5,0.4c-0.6-0.4-1.3-0.8-1.9-1.3
		c-7.8-5.3-15.6-10.6-23.4-15.8C59.7,52,52.1,46.8,44.5,41.7c-5.1-3.5-10.2-6.9-15.3-10.4c-2.6-1.7-5.2-3.5-7.7-5.2
		c-0.5-0.4-0.8,0-1.1,0.3c-0.2,0.3-0.5,0.6,0,1c2.1,1.8,4.1,3.8,6.4,5.4c5.6,4,11.2,7.9,16.9,11.9c8.3,5.8,16.5,11.6,24.8,17.3
		c9.4,6.6,18.9,13.2,28.3,19.8C97.9,82.6,99.4,82.9,101,82.7z M67.4,88.5c-0.8-1.4-1.5-2.8-2.4-3.9c-1.5-1.8-3.2-3.3-4.9-5
		c-0.4-0.4-0.7-0.5-1.2-0.3c-2,0.6-4.1,1.1-6.1,1.7c-6,1.6-12,3.2-18.1,4.8c-0.6,0.2-0.8,0.4-0.6,1c0.9,3.3,1.7,6.5,2.5,9.8
		c0.1,0.6,0.3,0.7,0.9,0.5c2.7-0.8,5.4-1.5,8.1-2.3c6-1.7,12.1-3.5,18.1-5.2C64.9,89.3,66,88.9,67.4,88.5z M118.4,76.2
		c-0.3,0.2-0.5,0.3-0.7,0.5c-1.9,1.4-3.8,2.7-5.7,4.1c-5.6,4-11.1,7.9-16.7,11.9c-2.8,2-6.5,1.9-9-0.3c-3.4-2.9-6.7-5.8-10.1-8.7
		c-3.4-3-6.9-5.9-10.3-8.8c-4.7-4.1-9.5-8.2-14.2-12.3c-6.2-5.3-12.3-10.7-18.5-16c-3.7-3.2-7.4-6.4-11.1-9.6
		c-0.2-0.1-0.4-0.2-0.5-0.4c0,0-0.1,0.1-0.1,0.1c0.1,0.2,0.2,0.4,0.3,0.6c1.7,1.7,3.5,3.3,5.3,4.9c3.2,3,6.4,5.9,9.5,8.9
		c3.5,3.2,6.9,6.5,10.4,9.8c3.1,2.9,6.3,5.9,9.5,8.8c4.5,4.3,9.1,8.5,13.6,12.8c5.2,4.8,10.4,9.7,15.5,14.5c2.1,2,4.7,2.3,6.9,0.8
		c2.1-1.4,4.3-2.9,6.4-4.3c3.2-2.2,6.5-4.4,9.7-6.5c3.4-2.3,6.7-4.5,10.1-6.8c0.2-0.1,0.3-0.3,0.3-0.5
		C118.8,78.5,118.6,77.4,118.4,76.2z M20.8,30.9c-0.1,0-0.1,0.1-0.2,0.1c0.2,1.1,0.1,2.2,1.3,3c1.2,0.9,2.2,1.9,3.4,2.9
		c4.7,4,9.4,8.1,14,12.1c3.3,2.9,6.7,5.8,10,8.7c3.1,2.6,6.1,5.3,9.2,7.9c2.8,2.4,5.6,4.9,8.5,7.3c3.4,3,6.8,5.9,10.3,8.8
		c3.4,3,6.8,5.9,10.2,8.9c2.3,1.9,4.6,2,7,0.3c3.2-2.3,6.3-4.5,9.5-6.8c4.5-3.2,9.1-6.5,13.6-9.7c0.5-0.4,0.5-0.7,0.2-1.2
		c-0.3,0.2-0.6,0.4-0.8,0.6c-4,3-8,6-12,9c-0.7,0.5-1.4,1-2.1,1.3c-2.5,0.9-4.9,0.7-7.1-0.7c-0.2-0.1-0.5-0.1-0.7,0.1
		c-0.6,0.4-1.1,0.9-1.6,1.4c-1.9,1.8-4.1,2.4-6.7,1.6c-1.2-0.3-2-1.1-2.9-1.8c-3-2.6-6.1-5.2-9.1-7.9c-4-3.4-7.9-6.9-11.9-10.3
		c-3.7-3.2-7.4-6.4-11.1-9.6c-3.4-3-6.8-5.9-10.2-8.9c-3.5-3-7-6-10.5-9c-2.2-1.9-4.5-3.8-6.8-5.7C23.1,32.4,21.9,31.7,20.8,30.9z
		 M39.8,109.2C39.8,109.2,39.8,109.2,39.8,109.2c0.1,0.5,0.3,1,0.4,1.5c0.6,2.7,2.4,3.8,5.1,3c5.8-1.7,11.7-3.4,17.5-5.1
		c3.2-0.9,6.4-1.9,9.7-2.8c1.9-0.6,2.7-2.1,1.8-3.9c-0.5-1-1-2-1.5-3c-0.6-1.1-0.3-1.1-1.7-0.7c-3.4,0.9-6.7,1.9-10.1,2.8
		c-6.9,1.9-13.8,3.9-20.8,5.8c-0.9,0.3-0.9,0.2-0.7,1.2C39.6,108.3,39.7,108.7,39.8,109.2z M93.4,82.2C76.3,70.1,59.1,58.1,42,46
		c0.2,0.2,0.5,0.5,0.7,0.7c3.4,2.9,6.8,5.8,10.2,8.8c4.9,4.2,9.7,8.4,14.6,12.6c5.9,5.1,11.8,10.2,17.7,15.2c1.9,1.7,3.9,2,5.7,0.9
		C91.9,83.7,92.7,82.8,93.4,82.2z M51.1,70.5c-0.8-0.8-1.4-1.5-2.1-2.2c-2.6-2.6-5.1-5.2-7.7-7.8c-0.2-0.2-0.5-0.3-0.7-0.2
		c-4,0.7-8,1.4-12,2.1c-0.4,0.1-0.6,0.2-0.4,0.7c0.9,3.4,1.7,6.7,2.6,10.1c0.2,0.7,0.4,0.9,1.2,0.8c6.1-1.1,12.2-2.2,18.3-3.2
		C50.4,70.6,50.6,70.6,51.1,70.5z M119.3,81.9c-0.3,0.2-0.5,0.3-0.7,0.4c-4.6,3.1-9.2,6.2-13.7,9.2c-3.9,2.6-7.7,5.2-11.6,7.8
		c-2.4,1.6-5.8,1.5-7.9-0.4c-2.1-1.8-4.1-3.7-6.1-5.5c-3.1-2.9-6.2-5.9-9.4-8.8c-3.9-3.6-7.7-7.2-11.6-10.8
		C54.2,70,50,66.1,45.9,62.2c-0.2-0.2-0.5-0.4-0.8-0.6c0.8,1,1.7,1.9,2.6,2.8c4,4,7.9,8,11.9,12c4.3,4.3,8.5,8.7,12.8,13
		c2.5,2.6,5.1,5.2,7.6,7.7c1.6,1.6,3.2,3.2,4.8,4.8c1.7,1.7,4.1,2.1,6.2,0.8c1.7-1,3.3-2,5-3c6.8-4.2,13.6-8.4,20.4-12.6
		C118.2,86,119.1,84.3,119.3,81.9z M31.6,50.7c-2.9-2.9-5.7-5.8-8.6-8.8c0,0.3,0,0.4,0,0.5c0.7,3,1.5,5.9,2.2,8.9
		c0.1,0.5,0.4,0.5,0.7,0.4c1.6-0.3,3.2-0.6,4.8-0.9C31,50.8,31.2,50.8,31.6,50.7z"/>
	<path fill="#FFFFFF" stroke="#FFFFFF" stroke-miterlimit="10" d="M30.6,17.4c1,0.1,2,0.1,2.9,0.3c1.1,0.2,2.1,0.8,2.3,2
		c0.2,1.2-0.4,2.1-1.4,2.7c-1.8,1.2-3.7,1.5-5.8,0.9c-1-0.3-1.8-0.9-1.9-2c-0.2-1.1,0.4-1.9,1.2-2.5C28.8,18.3,29.8,17.9,30.6,17.4z
		 M31.6,22.5c1-0.2,2.1-0.6,2.9-1.4c0.7-0.7,0.5-1.7-0.3-2.2c-1.7-1-4.8-0.5-6.1,1c-0.6,0.7-0.5,1.6,0.3,2.1
		C29.3,22.7,30.3,22.7,31.6,22.5z"/>
</g>
</svg>
