<?xml version="1.0" encoding="utf-8"?>
<!-- Generator: Adobe Illustrator 18.0.0, SVG Export Plug-In . SVG Version: 6.00 Build 0)  -->
<!DOCTYPE svg PUBLIC "-//W3C//DTD SVG 1.0//EN" "http://www.w3.org/TR/2001/REC-SVG-20010904/DTD/svg10.dtd">
<svg version="1.0" id="Слой_1" xmlns="http://www.w3.org/2000/svg" xmlns:xlink="http://www.w3.org/1999/xlink" x="0px" y="0px"
	 viewBox="0 0 141.7 141.7" enable-background="new 0 0 141.7 141.7" xml:space="preserve">
<path fill="#F3921F" d="M131.5,6.6c-0.3,0.9-0.5,1.7-1.3,2.5c-0.6,0.6-0.8,1.6-0.8,2.5c-0.1,5.9,0,11.8,0,17.8
	c0,0.1,0.1,0.2,0.1,0.3c1.2-0.5,2.4-0.9,3.6-1.4c0,0.1,0.1,0.2,0.1,0.3c-0.9,0.4-1.8,0.8-2.8,1.2c-0.8,0.3-1.1,0.9-1,1.7
	c0.1,2.2,0,4.5,0,6.7c1.4-0.7,2.7-1.4,3.8-2c-0.1,0.8-0.4,1.8-0.5,2.9c-0.2,1-1.5,1.7-2.3,0.9c-0.3-0.2-0.5-0.5-0.9-0.8
	c0,0.4-0.1,0.7-0.1,1c0,4.4,0,8.7,0,13.1c0,1,0.4,1.5,1.4,1.6c0.8,0.1,1.5,0.2,2.3,0.4c-1,0.9-2.3,0.3-3.5,0.6
	c-0.1,0.7-0.1,0.7,0.7,0.7c0.9,0,1.7,0,2.8,0c0.1,0,0.5-0.3,0.8-0.2c0.2,0.1,0.4,0.6,0.5,0.9c0.1,0.7,0,1.5,0.1,2.2
	c0,0.1,0,0.3,0.1,0.4c0.5,0.7,1,1.4,1.6,2.3c-1,0.3-1.8,0.6-2.6,0.9c-0.2,0.1-0.6,0-0.7-0.2c-0.4-0.3-0.9-0.5-1,0.1
	c-0.1,0.5,0.1,1.4,0.3,1.4c1.5,0.4,2.9,0.7,4.4,0.8c1,0.1-2.6-2.7-2.8-3.8c-0.2-1,0.1-1.8,0.7-2.6c0.2-0.3,0.2-0.7,0.3-1
	c-0.4,0-0.8,0-1.1,0.2c-0.8,0.4,2.7,2.3,2.7,1.3c-0.1-1.3,0-2.5,0-3.8c0-0.6-0.1-1.3-0.2-1.9c-0.2-1.3-1.2-1.8-2.4-1.1
	c-0.3,0.2-0.5,0.4-0.7,0.5c-0.2,0.1-0.4,0.2-0.6,0.4c-0.1-0.1-0.2-0.1-0.3-0.2c0.6-0.9,1.2-1.7,1.8-2.6c0.5-0.6,1-1.2,1.5-1.7
	c0.5-0.5-2.9-2.5-2.5-1.8c0.2,0.3,0.4,0.7,0.7,1c0.2,0.2,0.6,0.5,0.8,0.4c1.1-0.6,2.2,0.2,3.3,0.1c1.1-0.1,2.2,0,3.3,0.2
	c0.3,0,0.5,0.5,0.8,0.8c-0.3,0-0.7,0.2-0.9,0.1c-1.3-0.3-2.6,0.5-3.1,2c0,0.1,0,0.2-0.1,0.5c-0.9-0.2-1.7-0.4-2.6-0.6
	c-0.2,1.1-0.1,2,0.9,2.6c1,0.6,1.5,1.6,1.6,2.8c0.1,0.6,0.3,0.9,1,0.9c0.8-0.1,1.4,0.4,1.4,1.2c0,0.8-0.7,1.2-1.5,1.2
	c-0.3,0-0.5,0-0.8,0.1c0,0.7,0,1.4,0,2.1c0,1.3-0.8,2-2,2.3c-1.2,0.3,1.5,2.4,0.2,2.6c-0.5,0.1-0.8,0-1.2,0.5
	c-0.4,0.6-1.1,0.4-1.4-0.2c-0.4-0.7-1-0.7-1.6-0.6c-1.3,0.3-2.4,1.6-2.4,2.9c0,0.8,0,1.6,0,2.6c1.4-1.8,3.5-1.4,5.2-2.2
	c0.4,1.1-0.3,1.3-1.1,1.5c0.5,1.2,0.2,2.1-0.5,3c-0.4,0.4-0.5,1.1,0.2,1.6c0.1,0.1,0.1,0.3,0.1,0.6c-1.5-1.1-3.5-1.6-3.5-4
	c-0.5,1.4-0.4,3.8,0.1,4.1c-0.2,0.7-0.4,1.3-0.5,1.9c0.1,0.1,0.2,0.1,0.3,0.2c0.5-0.2,1-0.5,1.6-0.8c-0.4,0.7-0.8,1.3-1.1,1.8
	c0.8,0.8,1.5,0.5,2.3,0.1c0,0.1,0,0.2,0.1,0.2c-0.7,0.4-1.4,1-2.2,1.3c-0.7,0.3-0.7,0.7-0.7,1.3c0,8.7,0,17.5,0,26.2
	c0,0.4,0,0.7,0,1.1c-0.9,0-1.8,0.1-1.8,1.2c0,1,0.8,1.2,1.7,1.1c0,3,0,5.9,0,9c-0.4-0.2-0.6-0.2-0.8-0.4c-0.8-0.7-1.6-0.6-2.4-0.1
	c-0.3,0.2-0.8,0.4-1.2,0.4c-3.6,0-31-0.2-31.5-0.4c-0.7,0.2-1.3,0.3-2,0.5c-0.2-1-0.5-1.9-1.5-1.6c-0.6,0.2-1,0.9-1.6,1.5
	c0.3-0.8,0.6-1.7-0.3-2.1c-0.5-0.2-1.3,0-2,0.1c0,0.1,0,0.2,0,0.3c-0.1-0.1-0.2-0.3-0.4-0.4c-0.2-0.1-0.5-0.2-0.7-0.2
	c-0.1,0-0.3,0.4-0.3,0.5c0,0.6,0.1,1.1,0.1,1.7c-2.1,0-4.1,0-6,0c-0.5-0.5-0.8-0.9-1.2-1.2c-0.3,0.3-0.6,0.7-0.9,1
	c0.1,0.1,0.1,0.2,0.2,0.2c-1.6,0.2-3.1-0.3-4.7,0c-1.6,0.2-3.2,0.1-4.6,0.1c-0.3-0.4-0.5-0.7-0.7-1c-0.2,0.3-0.5,0.6-0.9,1.2
	c-0.4,0.2-1.2,0.7-2,1.1c0.9,1.3,2.2,0.5,3.2,0.8c0.1,0,0.3-0.1,0.3-0.2c0.2-1.1,1.2-0.8,1.8-1.1c0.1,1.1,0.2,2.2,0.3,3.3
	c0.2,0,0.4,0.1,0.7,0.1c0,0,0,0.1,0,0.1c-0.6,0.1-1.2,0.3-1.9,0.4c-0.1,0.5-0.3,1-0.4,1.7c-0.1,0.1-0.3,0.2-0.5,0.3
	c0.1,0.6,0.1,1.2,0.4,1.8c0.1,0.2,0.6,0.4,1,0.4c0.4,0,0.8-0.2,1.2-0.3c0,0.1,0.1,0.3,0.1,0.4c-0.6,0.1-1.3,0.2-1.9,0.3
	c-0.8,0.1-1.3,1-0.7,1.4c0.6,0.5,0.2,0.9,0.3,1.4c0.1,0.3-0.1,0.7-0.2,1c-0.4,0.2-1,0.2-1.3,0.6c-0.3,0.3-0.2,0.9-0.2,1.3
	c-0.2-0.2-0.5-0.5-0.7-0.9c-0.5-0.8-1-0.8-1.4,0.1c-0.5-0.1-0.9-0.2-1.5-0.3c0.7,1.3,2,2,2.2,3.3c-0.8,0.3-1.1,0.1-1.4-0.5
	c-0.5-0.9-1.1-1.7-2.1-2.3c-0.8-0.4-1.4-1.2-2.1-1.8c-0.4-0.3-0.8-0.6-1.2-0.8c-0.7-0.2-1.2-0.5-1.2-1.4c0.2-0.2,0.4-0.4,0.7-0.6
	c-0.1-0.2-0.3-0.5-0.4-0.7c0,0,0-0.1,0-0.1c0.8-0.1,0.8-0.5,0.6-1.2c-0.5-1.5-1.4-2.6-2.8-3.3c-0.2-0.1-0.4-0.1-0.5-0.2
	c-0.9-1-1.7-1.9-2.5-3c1.5,0.4,2,2.2,3.9,2.3c-0.3-0.4-0.5-0.6-0.6-0.9c-0.3-0.4-0.6-0.8-0.9-1.1c-0.9-0.9-2-1.8-3.4-1.8
	c-9,0-18,0-27,0c-0.6,0-1.2,0.1-1.6-0.7c-0.3-0.6-1-0.5-1.5,0c-0.6,0.7-2.3,0.8-3.2,0.4c-0.3-0.1-0.8-0.2-1.1,0
	c-0.8,0.4-1,0.3-1-0.6c0-3.4,0-6.8,0-10.2c0-0.9-0.1-1.6-1.2-1.8c0.3,0.1,0.7,0.1,1.1,0.2c0-0.4,0-0.7,0-1.1c0-6.9,0-13.8,0-20.7
	c0-0.7,0-1.3,0-2c0-0.3-0.3-0.5-0.4-0.7c-0.5-0.6-0.7-1.1,0-1.7c0.2-0.1,0.4-0.4,0.4-0.6c0-2.5,0-5,0-7.9c-0.3,0.4-0.4,0.5-0.4,0.6
	c-0.1,0.6-4.5-1.2-5.1-1.3c-0.8-0.1-0.8-0.7-0.9-1.3c-0.1-0.5,0.2-0.9,0.8-1c0.9-0.2,5.5,1.1,5.5,0.4c0.1-3.5,0-7,0-10.6
	c-0.3,0-0.7,0.1-0.9,0c-0.3-0.1-4.6-2.3-4.9-2.5c0.2-0.3,4.4,1.4,4.6,1.1c0-0.1,0.2,0,0.3-0.1c0.3-0.2,0.6-0.4,0.9-0.6
	c-0.2-0.2-0.5-0.4-0.5-0.4c0.2-0.6,0.5-1.1,0.5-1.6c0.1-1,0-2.1,0-3.1c-0.1,0-0.2,0-0.3-0.1c-0.1,0.6-0.3,1.1-0.5,2
	c-0.6-0.6-5.1-2.9-5.5-3.4c-0.8-1-1.4-2.2-2.2-3.2c-0.4-0.5-1.1-0.7-1.7-1.1c0,0-0.1,0-0.1,0c-0.8-0.9-1.6-0.3-2.3,0.1
	c-0.8,0.5-1.6,0.9-1.7,1.9c0,0.2-0.4,0.5-0.6,0.5c-0.2,0-0.6-0.3-0.6-0.5c-0.1-0.2,0.2-0.6,0.3-0.7c0.8-0.5,1.7-0.9,2.6-1.4
	c0.5-0.3,0.6-0.5,0.1-1C1.8,46,1.9,45,3.2,44.1c0.1,0.3,0.2,0.8,0.4,0.9c0.8,0.4,1.6,0.8,2.5,1c0.3,0.1,0.7-0.5,1-0.7
	c-0.4-0.6-0.8-0.9-1.1-1.4c-0.3-0.5-0.1-0.8,0.4-0.8c0.9-0.1,1.3-0.8,0.8-1.6c-0.2-0.3-0.4-0.7-0.5-1.1c-0.1-0.4,0-1.1,0.1-1.1
	c0.5-0.1,1.1-0.1,1.4,0.1c0.6,0.7,1.8,1.2,1,2.5c0,0,0,0.1,0,0.2c0.8,0.8,0.6,1.7,0,2.5c0.8,0.1,5.5,2.1,6.5,2.2
	c-0.5-0.5-1-0.8-1.4-1.1c0-0.1,0-0.1,0.1-0.2c0.3,0.1,0.6,0.1,1,0.2c0-4.3,0-8.7,0-13.1c-0.9,0.5-5.7-1.2-5.9-0.1
	c0,0.2-0.5,0.5-0.7,0.5c-0.2,0-0.6-0.3-0.6-0.5c0-0.2,0.2-0.6,0.5-0.7c2.2-0.7,7.3-0.1,6.9-2.5c-0.2-1.1-0.1-2.3,0-3.5
	c0-0.7,0.1-1.5,0.2-2.4c0.7-0.1,1.5-0.3,1.1-1.5c0.7-0.4,1.4-0.7,0.9-1.6c-0.4-0.8-1.1-0.7-1.9-0.2c-0.2-0.5-0.3-1-0.6-1.7
	c1,0.4,1.8,0.8,2.4-0.2c0.5-0.8,0-1.3-0.3-1.5c-0.1-0.8,0-1.5-0.3-1.8c-0.3-0.3-0.9-0.2-1.6-0.3c0-1.1,0-2.6,0-4
	c0-0.7,0.5-0.6,1-0.6c3.1,0,6.1,0,9.2,0c1.5,0,3,0,4.5,0c0.8,0,1.5-0.1,1.8,1.1c0.1,0.4,0.8,0.7,0.6,1.4c-0.1,0.3-0.1,0.7-0.3,0.9
	c-0.6,0.8-1.4,1.5-2,2.3C30,16.1,30,16.4,30,16.7c0.3-0.1,0.6-0.1,0.8-0.3c0.4-0.4,0.7-0.8,1-1.2c0.1,0.1,0.2,0.2,0.3,0.3
	c-0.7,0.9-1.5,1.8-2.2,2.6c0.1,0.1,0.1,0.2,0.2,0.2c0.9-0.3,1.7-0.6,2.6-0.8c-0.3,0.9-0.5,1.6-0.7,2.4c0,0,0.4,0.2,0.6,0.3
	c-0.3,0.7-0.6,1.4-0.9,2.2c0.1,0.1,0.2,0.1,0.3,0.2c0.4-0.7,0.7-1.5,1.1-2.2c0.2-0.4,0.5-1.1,0.8-1.1c0.8,0,0.4,0.8,0.4,1.1
	c0.1,1,0,2,0,3.1c-0.1,0-0.2,0-0.3,0c-0.1,0-0.1,0.1-0.2,0.1c-0.4,0-1-0.3-1.1,0.4c0,0.2,0.3,0.7,0.5,0.7c0.6,0.1,1.1-0.1,1.2-0.9
	c0.2-1.2,0.5-2.3,0.8-3.5c0.1,0,0.2,0,0.4,0c0.1,0.5,0.1,0.9,0.2,1.4c0.1,0,0.1,0,0.2,0.1c0.1-0.4,0.2-0.8,0.3-1.2
	c0.1-0.4,0.4-1,0.5-1c0.6,0.1,1.1,0.3,1.6,0.7c0.3,0.2,0.4,0.7,0.5,1c0.1,0,0.2-0.1,0.3-0.1c-0.3-1-0.5-1.9-0.9-3.1
	c0.4,0.1,0.9,0.2,1.3,0.3c0-0.2,0-0.4-0.1-0.6c0.2,0,0.5,0,0.7,0c0-0.1,0.1-0.1,0.1-0.2c-0.5-0.3-1-0.6-1.5-0.9
	c0-0.1,0.1-0.2,0.1-0.3c0.7,0,1.3-0.2,2,0.4c0.3,0.3,1,0.3,1.6,0.5c-0.1-1-0.9-1.8,0.1-2.7c-1.9-0.1-2.7-1.3-2.9-3.1
	c0.8,0.2,1.4,0.3,2.1,0.4c0-0.1,0.1-0.2,0.1-0.3c-1-0.3-2-0.7-3-1c0-0.2,0.1-0.3,0.1-0.5c3.2,0,6.4,0,9.6,0c0.3,0,0.7,0.3,0.7,0.5
	c0.1,1.6,1.5,2.6,2.9,2.6c1.5,0,2.4-1,2.8-2.8c0-0.1,0-0.1,0.1-0.2c1.8,0,3.5,0,5.3,0c0.4,1.9,1,2.6,2.1,2.5
	c1.1-0.1,1.7-0.8,1.8-2.6c2.8,0,5.6,0,8.4,0c0.2,0,0.5,0.3,0.6,0.6c0.5,1.3,1.4,2.1,2.7,2.1c1.2,0,2.3-0.7,2.7-2
	c0.2-0.5,0.4-0.7,1-0.7c8.1,0,16.1,0,24.2,0c7.6,0,15.2,0,22.8,0c1.4,0,2.2-0.9,2.1-2.3c0-0.3,0-0.7,0.2-0.8 M18.5,117.2
	c0.2,0,0.4,0.1,0.5,0c0.2-0.2,0.4-0.4,0.6-0.6c-0.2-0.2-0.4-0.4-0.6-0.6c-0.2,0.2-0.4,0.4-0.5,0.7C18.4,116.9,18.5,117.1,18.5,117.2
	c-0.2-0.2-0.3-0.5-0.5-0.7c-0.7-0.6-1.6-0.4-2.1,0.3c-0.5,0.7-0.3,1.6,0.5,1.9c0.4,0.2,1.1,0.2,1.4,0
	C18.2,118.4,18.3,117.8,18.5,117.2z M26.4,113c-0.6,0-1.2,0.1-1.3,0.8c0,0.3,0.3,0.8,0.6,1c0.2,0.1,0.8-0.1,1-0.3
	C27.2,113.9,26.8,113.4,26.4,113c0.3,0.1,0.7,0.2,1,0.2c0.2-0.5,0.2-1.2,0.4-1.3c0.4-0.1,0.9,0.2,1.3,0.3c0.5-0.8,0.4-1.6-0.2-2.3
	c-0.7-0.6-1.5-0.9-2.3-0.3c-0.7,0.5-1.4,0.3-2.1,0.1c-0.3-0.1-0.7,0-1,0.1c-0.1,0.1-0.2,0.6-0.1,0.7c0.2,0.2,0.6,0.4,0.9,0.4
	c0.7,0,1.1,0.1,1.3,0.9C25.7,112.2,26.1,112.6,26.4,113z M7.3,93.1c0,0.5,0,0.9,0,1.1c0.4,0.3,0.7,0.4,0.8,0.7
	C8.2,95,8.1,95.4,8,95.5c-0.6,0.3-0.4,0.6-0.1,1c0.5-0.3,1-0.5,1.3,0.1c0.4,0.6-0.2,0.9-0.8,1.2C8.7,97.8,9,97.9,9.1,98
	c0.2,0.1,0.4,0.3,0.6,0.5c0.2,0.3,0.3,0.6,0.5,0.9c0-0.1,4.1,1.8,4.1,1.7c0.4-0.1,0.8-0.3,1.1-0.2c0.4,0.1,0.5,0.5,0.4,0.9
	c0,0.1,0.2,0.2,0.3,0.3c0.1-0.3,0-0.5,0-0.7c-0.1-0.8,0.2-1.5,0.9-1.9c0.6-0.3,1.6-0.3,2.1,0.2c0.6,0.6,1,1.3,1.5,1.9
	c0.4-0.2,0.7-0.4,1-0.5c0.4,0.2,0.6,0.4,0.9,0.5c0.2,0,0.6-0.3,0.6-0.4c0-0.3-0.2-0.7-0.3-1.2c0.2-0.3,0.8-0.7,0.6-1.4
	c0-0.1,0.1-0.3,0.2-0.3c0.7-0.3,0.5-1,0.7-1.5c-1-0.3-1-0.5-0.4-1.4c-0.5-0.8-0.3-0.7-0.1-1.5c0.1-0.5,0-1.3-0.3-1.7
	c-0.4-0.6-1.1-0.9-1.7-1.3c-0.1-0.1-0.1-0.2-0.2-0.3c-0.3-0.3-0.6-0.6-1-0.9c-0.3,0.7-0.6,1.1-1.3,1c-0.8-0.2-0.7-0.8-0.7-1.4
	c-0.6,0.1-1.1,0.2-1.6,0.3c-0.6,0.1-1.2,0.2-1.7,0.3c-0.5,0.1-0.8,0.4-0.7,1c0.1,0.7-4.6-1-5.3-1.2c-0.2,0-0.4-0.1-0.5,0
	c-0.3,0.4-0.6,0.9-1,1.5c1.3-0.3,1.9-0.1,2.2,0.6c0.3,0.6,0.1,1.2-0.4,1.6C9,94,8.4,93.9,7.3,93.1z M51,15.2c0,1,0.7,1.8,1.7,1.8
	c1,0,1.8-0.8,1.8-1.7c0-0.9-0.8-1.8-1.8-1.8C51.8,13.5,51,14.2,51,15.2z M22.3,114.5c1-0.6,1-0.8,0.2-3.1c-0.3,0-0.6,0-0.9,0
	c-1.4-0.1-2.2,0.9-1.9,2.2c0.1,0.3,0,0.6,0,0.9c0,0.6,0.4,0.9,0.9,0.7c0.5-0.2,0.9-0.5,1.2-0.6c0-0.5,0-0.9,0-1.3c0.3,0,0.7,0,1.2,0
	C22.6,113.9,22.5,114.2,22.3,114.5z M17.5,108.7c0.1,0.8,0.4,1.2,1.3,1.4c0.4,0.1,0.7,0.3,1.1,0.4c0.3,0.1,0.6,0.1,0.9,0.1
	c0-0.3,0.1-0.6,0-0.9c-0.1-0.4-0.3-0.8-0.4-1.2c-0.1-0.7-0.8-1.4-1.5-1.3C18.2,107.3,17.6,108,17.5,108.7z M123.8,93.4
	c-0.8,0-1.4,0.6-1.3,1.4c0.1,0.8,0.6,1.3,1.4,1.3c0.8,0,1.4-0.6,1.4-1.4C125.2,93.9,124.6,93.4,123.8,93.4z M19.6,14.6
	c-0.8,0-1.4,0.6-1.4,1.4c0,0.8,0.6,1.3,1.5,1.3c0.9,0,1.3-0.5,1.3-1.3C21,15.2,20.4,14.6,19.6,14.6z M22.7,15.3
	c-1,0-1.6,0.9-1.3,1.5c0.2,0.5,0.6,0.9,0.4,1.5c-0.1,0.1,0.2,0.5,0.4,0.6c0.2,0.1,0.8,0,0.8-0.1c0.2-1,0.4-2,0.4-3
	C23.4,15.6,22.8,15.4,22.7,15.3z M21.7,117.3c-0.3,0.1-0.4,0.1-0.6,0.1c-0.3,0.1-0.7,0.2-1,0.4c-0.1,0,0.1,0.6,0.2,0.6
	c0.3,0,0.6,0,1-0.1c0.6-0.1,1.1-0.4,1.6,0.3c0.1,0.1,0.3,0.2,0.5,0.2c0.1,0,0.2-0.3,0.2-0.4c0.1-1.6,0.1-1.6-1.3-2.4
	c-0.2-0.1-0.6-0.1-0.7,0c-0.2,0.2-0.2,0.5-0.2,0.8C21.3,116.8,21.5,117,21.7,117.3z M21.1,12.7c0-0.1,0-0.2,0-0.4
	c-0.2-0.3-0.4-0.6-0.7-0.9c-0.1-0.1-0.6,0.2-0.6,0.3c0.2,0.7,0.4,1.3,0.7,2c0.1,0.2,0.4,0.4,0.6,0.4c0.2,0,0.5-0.2,0.7-0.3
	c0.3-0.1,0.6-0.3,0.9-0.5c0.2-0.2,0.5-0.4,0.6-0.6c0-0.2-0.2-0.6-0.4-0.7c-0.2-0.1-0.5,0-0.8,0.1C21.7,12.4,21.4,12.5,21.1,12.7z
	 M30.5,98.7c0.1,0.7,0.5,1.2,1.3,1.2c0.7,0,1.2-0.5,1.1-1.2c0-0.7-0.5-1.2-1.2-1.2C31,97.5,30.6,98,30.5,98.7z M34.2,111.3
	c-0.4-0.3-0.9-0.8-1.3-0.8c-0.7-0.1-1.2,0.4-1.2,1.1c0,0.7,0.4,1.2,1.2,1.1C33.7,112.7,34,112.2,34.2,111.3z M123.8,121.5
	c0.2,0,0.3,0,0.5,0c0.3-0.4,0.8-0.8,0.9-1.3c0.2-0.6-0.6-1.2-1.2-1.1c-0.7,0.1-1.2,0.5-1,1.2C123,120.7,123.5,121.1,123.8,121.5z
	 M18.4,21.7c0.1,0,0.3,0,0.4,0c0.2-0.4,0.7-0.8,0.7-1c-0.1-0.4-0.6-0.7-0.9-1c-0.3,0.3-0.8,0.7-0.9,1C17.6,21,18.2,21.4,18.4,21.7z
	 M29.9,106.1c-0.2,0.5-0.5,1.1-0.7,1.6c-0.1,0.2,0.1,0.5,0.1,0.7c0,0,0.1,0.1,0.2,0.1c1.1,0.2,0.8-1.1,1.5-1.3
	c-0.1-0.3-0.2-0.7-0.4-1C30.5,106.2,30.3,106.2,29.9,106.1z M35.8,91c-0.4,0.7-0.8,1-0.8,1.4c-0.1,0.6,0.3,1,0.9,0.9
	c0.4-0.1,0.9-0.6,0.9-0.9C36.8,92.1,36.3,91.7,35.8,91z M102,16.9c1.3-1.1,1.4-1.6,0.4-2.5C101.4,15.2,101.3,15.7,102,16.9z
	 M35.3,98.9c-0.5,0.6-0.9,1-0.9,1.2c0,0.3,0.5,0.7,0.8,0.8c0.2,0.1,0.8-0.5,0.8-0.8C36.1,99.9,35.7,99.6,35.3,98.9z M29.5,104.7
	c0.5,0.4,0.9,0.8,1.1,0.7c0.3-0.1,0.7-0.5,0.7-0.8c0-0.2-0.5-0.6-0.8-0.6C30.3,104,30,104.4,29.5,104.7z M30,103.5
	c-0.6-0.3-0.9-0.6-1.2-0.6c-0.3,0-0.7,0.5-0.7,0.6c0.1,0.3,0.4,0.7,0.7,0.8C29.1,104.3,29.4,103.9,30,103.5z M33.9,97.3
	c-0.4,0.5-0.8,0.8-0.7,1c0.1,0.3,0.5,0.5,0.7,0.8c0.2-0.2,0.7-0.5,0.7-0.7C34.6,98.1,34.2,97.8,33.9,97.3z M23.7,115.3
	c0.5,0.3,0.8,0.7,1,0.6c0.3-0.1,0.5-0.5,0.8-0.7c-0.3-0.2-0.5-0.6-0.8-0.6C24.4,114.6,24.1,115,23.7,115.3z M24.4,117.3
	c0.6,0.4,1.2,0.5,1.6-0.1c0.1-0.1-0.1-0.7-0.3-0.8C24.9,116.1,24.7,116.8,24.4,117.3z M25.7,11.3c-0.3,0.4-0.7,0.6-0.7,0.8
	c0.1,0.3,0.4,0.5,0.6,0.7c0.2-0.2,0.6-0.4,0.6-0.7C26.3,12,26,11.7,25.7,11.3z M30.5,108.7c0.4,0.3,0.7,0.6,0.9,0.6
	c0.2,0,0.6-0.4,0.6-0.6c0-0.2-0.4-0.6-0.6-0.6C31.2,108.1,30.9,108.5,30.5,108.7z M34.8,103.8c0.2,0.1,0.4,0.2,0.6,0.2
	c0.2-0.4,0.4-0.9,0.6-1.3c-0.2-0.1-0.5-0.2-0.7-0.3C35.2,102.8,35,103.3,34.8,103.8z M15.6,24.2c0.4,0.3,0.7,0.6,0.8,0.6
	c0.3-0.1,0.5-0.4,0.7-0.7c-0.2-0.2-0.4-0.5-0.7-0.5C16.2,23.6,16,23.9,15.6,24.2z M20.5,18.4c-0.4-0.3-0.7-0.6-0.9-0.5
	c-0.2,0-0.4,0.4-0.6,0.6c0.2,0.2,0.4,0.6,0.7,0.6C19.8,19,20,18.7,20.5,18.4z M16.8,21.5c-0.3,0.4-0.5,0.7-0.5,0.9
	c0,0.2,0.4,0.5,0.6,0.5c0.2,0,0.6-0.3,0.6-0.5C17.4,22.1,17.1,21.9,16.8,21.5z M24.5,106.1c-0.4-0.3-0.7-0.6-0.9-0.6
	c-0.2,0-0.4,0.4-0.6,0.6c0.2,0.2,0.4,0.5,0.6,0.5C23.8,106.7,24.1,106.4,24.5,106.1z M19.3,23.5c0.4,0.3,0.6,0.6,0.8,0.6
	c0.2,0,0.4-0.3,0.6-0.5c-0.2-0.2-0.4-0.5-0.6-0.5C20,23,19.7,23.2,19.3,23.5z M30.9,100.6c0.3,0.3,0.5,0.6,0.8,0.6
	c0.2,0,0.5-0.3,0.5-0.5c0-0.2-0.3-0.6-0.5-0.6C31.5,100.1,31.3,100.4,30.9,100.6z M17.4,12.9c0.4,0.3,0.6,0.6,0.8,0.6
	c0.2,0,0.5-0.3,0.5-0.5c0-0.2-0.3-0.5-0.5-0.6C18.1,12.4,17.8,12.6,17.4,12.9z"/>
<g>
	<path fill="#FFFFFF" d="M113.5,64.7c2.7,2.4,5,4.6,7.4,6.8c1,0.9,2.1,1.8,3.1,2.7c0.3,0.3,0.6,0.8,0.6,1.2c0,15,0,30,0,45.1
		c0,2.6-1.8,4.1-4.7,4.2c-2.7,0-5.5,0-8.2,0c-2.9,0-4.6-1.6-4.6-4.1c0-16.4,0-32.8,0-49.3c0-0.3,0-0.7,0.2-0.9
		C109.3,68.5,111.3,66.7,113.5,64.7z"/>
	<path fill="#FFFFFF" d="M49.7,106.8c0-4.8,0-9.5,0-14.3c0-0.5,0.2-0.9,0.7-1.3c1.5-1.1,2.9-2.2,4.4-3.3c0.5-0.4,0.8-0.4,1.3,0
		c3.4,2.6,6.9,5.3,10.3,7.9c0.3,0.2,0.5,0.6,0.5,0.9c0,8.1,0,16.3,0,24.4c0,2.2-1.8,3.5-4.7,3.6c-2.5,0-5.1,0-7.6,0
		c-3.1,0-4.8-1.3-4.8-3.6C49.7,116.2,49.7,111.5,49.7,106.8z"/>
	<path fill="#FFFFFF" d="M95.7,81.2c0,0.3,0,0.6,0,0.9c0,12.6,0,25.3,0,37.9c0,3.1-1.7,4.6-5.1,4.6c-2.5,0-5,0-7.5,0
		c-3,0-4.7-1.5-4.8-4.2c0-7.8,0-15.6,0-23.5c0-0.5,0.3-1,0.7-1.4c3.4-3,6.8-6,10.2-9c1.9-1.6,3.7-3.3,5.6-4.9
		c0.2-0.2,0.5-0.4,0.7-0.6C95.6,81.1,95.6,81.2,95.7,81.2z"/>
	<path fill="#FFFFFF" d="M21,105.8c1.1,1,2.1,1.9,3.1,2.9c4.6-4.1,9.2-8.2,13.9-12.5c0,0.5,0.1,0.8,0.1,1.1c0,7.6,0,15.2,0,22.8
		c0,2.9-1.9,4.6-5.1,4.6c-2.4,0-4.8,0-7.3,0c-3,0-4.9-1.6-4.9-4.3c0-4.6,0-9.2,0-13.8C20.9,106.4,20.9,106.2,21,105.8z"/>
</g>
<g>
	<path fill="none" d="M40.7,63.3c-0.5-5.3-1.1-10.5-1.6-15.8c-0.1-1.4-1-2.1-2.4-2c-1.9,0.2-3.8,0.4-5.8,0.6c-0.3,0-0.6,0.1-0.8,0.2
		c-0.9,0.4-1.2,1.1-1.1,2.3c0.7,7.1,1.5,14.3,2.2,21.4c0.3,3.4,0.7,6.7,1,10.1c0.2,1.5,1,2.2,2.5,2c1.9-0.2,3.7-0.4,5.6-0.6
		c0.4,0,0.7-0.1,1.1-0.3c0.8-0.5,1-1.3,1-2.2C41.8,73.8,41.3,68.5,40.7,63.3z M37.3,79.8c-1.7,0.2-3.1-1-3.3-2.7
		c-0.2-1.7,1-3.1,2.7-3.3c1.7-0.2,3.1,1,3.3,2.7C40.2,78.2,39,79.6,37.3,79.8z"/>
	<path fill="none" d="M36.9,75.8c-0.7,0.1-0.9,0.4-0.9,1.1c0.1,0.7,0.4,0.9,1.1,0.9c0.7-0.1,1-0.4,0.9-1.1
		C37.9,76,37.6,75.7,36.9,75.8z"/>
	<path fill="none" d="M61,43c0-0.2,0.1-0.3,0.1-0.4c0.3-1.6,0.7-3.2,0.9-4.8c0.2-1.8,0-3.6-0.2-5.4c-0.2-2.7-1.4-5.1-3.2-7
		c-0.8-0.8-1.6-1.5-2.7-1.9c-1.6-0.5-2.8,0.4-2.8,2c0,0.8,0.1,1.7,0.1,2.5c-0.1,2.9-0.6,5.7-1.7,8.4c-1.7,4.3-4.7,7.4-8.8,9.4
		c-1.2,0.6-1.6,1.3-1.5,2.7c0.9,9.1,1.9,18.2,2.8,27.3c0.1,1.1,0.7,1.6,1.7,1.7c2.7,0.4,5.5,0.7,8.2,1.1c4,0.6,8,0.8,12,0.4
		c3.8-0.4,7.6-0.8,11.4-1.2c0.5,0,0.9-0.1,1.4-0.2c1.3-0.4,2.2-1,2.5-2.4c0.1-0.4,0.1-0.7,0.3-1.1c0.4-1.2-0.6-2.8-2.2-2.6
		c-1.1,0.1-2.2,0.2-3.3,0.3c-0.6,0.1-1-0.2-1-0.9c-0.1-0.6,0.2-1,0.8-1c1-0.1,2.1-0.2,3.1-0.3c0.7-0.1,1.5-0.2,2.2-0.5
		c1.3-0.5,2.3-1.2,2.7-2.7c0.2-0.9,0.4-1.7,0.4-2.6c0.1-1.4-0.4-2.5-2.1-2.6c-0.4,0-0.9,0-1.3,0c-1.2,0.1-2.5,0.3-3.7,0.4
		c-0.7,0.1-1.2-0.5-1.1-1.2c0.1-0.5,0.3-0.7,1.1-0.8c1.5-0.2,3-0.3,4.5-0.5c0.6-0.1,1.1-0.2,1.7-0.4c2.1-0.8,3.1-4.7,1.6-6.6
		c-0.4-0.6-0.9-1-1.6-1c-0.5-0.1-1.1-0.1-1.6,0c-1.2,0.1-2.4,0.2-3.6,0.4c-0.7,0.1-1-0.2-1-0.9c-0.1-0.7,0.2-1,1-1.1
		c1.4-0.2,2.8-0.3,4.2-0.4c0.5-0.1,0.9-0.2,1.4-0.3c0.2-0.1,0.3-0.1,0.5-0.2c-0.4-0.4-0.8-0.8-1.3-1.3c-1.5-1.5-4-1.6-5.5,0
		c-3.2,3.2-6.4,6.4-9.6,9.5c-1.8,1.8-3.6,3.6-5.4,5.4c-1.6,1.5-4,1.5-5.6,0C56,61.5,55.5,61,55,60.3c-1.4-1.8-1.1-4.2,0.5-5.7
		c3.4-3.3,6.7-6.7,10-10c0.8-0.8,1.5-1.5,2.3-2.3c-1,0.1-2.1,0.2-3.1,0.3C63.5,42.7,62.2,42.8,61,43z"/>
	<g>
		<path fill="#FFFFFF" d="M84,48.4c-0.1,0.1-0.3,0.1-0.5,0.2c-0.4,0.1-0.9,0.3-1.4,0.3c-1.4,0.2-2.8,0.3-4.2,0.4
			c-0.8,0.1-1.1,0.4-1,1.1c0.1,0.6,0.4,0.9,1,0.9c1.2-0.1,2.4-0.3,3.6-0.4c0.5,0,1.1,0,1.6,0c0.7,0.1,1.2,0.5,1.6,1
			c1.5,2,0.5,5.8-1.6,6.6c-0.5,0.2-1.1,0.4-1.7,0.4c-1.5,0.2-3,0.3-4.5,0.5c-0.8,0.1-1,0.3-1.1,0.8c-0.1,0.7,0.3,1.3,1.1,1.2
			c1.2-0.1,2.5-0.3,3.7-0.4c0.4,0,0.9-0.1,1.3,0c1.7,0.1,2.2,1.2,2.1,2.6c-0.1,0.9-0.2,1.8-0.4,2.6c-0.3,1.4-1.4,2.2-2.7,2.7
			c-0.7,0.3-1.4,0.3-2.2,0.5c-1,0.1-2.1,0.2-3.1,0.3c-0.6,0.1-0.9,0.4-0.8,1c0.1,0.7,0.4,1,1,0.9c1.1-0.1,2.2-0.2,3.3-0.3
			c1.6-0.2,2.6,1.4,2.2,2.6c-0.1,0.4-0.2,0.7-0.3,1.1c-0.3,1.4-1.3,2-2.5,2.4c-0.5,0.1-0.9,0.2-1.4,0.2c-3.8,0.4-7.6,0.8-11.4,1.2
			c-4,0.4-8,0.2-12-0.4c-2.7-0.4-5.5-0.8-8.2-1.1c-1-0.1-1.6-0.7-1.7-1.7c-0.9-9.1-1.9-18.2-2.8-27.3c-0.1-1.4,0.3-2,1.5-2.7
			c4.1-2.1,7.1-5.1,8.8-9.4c1-2.7,1.6-5.5,1.7-8.4c0-0.8,0-1.7-0.1-2.5c-0.1-1.7,1.2-2.6,2.8-2c1.1,0.4,1.9,1.1,2.7,1.9
			c1.9,2,3,4.3,3.2,7c0.2,1.8,0.4,3.6,0.2,5.4c-0.2,1.6-0.6,3.2-0.9,4.8c0,0.1,0,0.2-0.1,0.4c1.3-0.1,2.5-0.3,3.7-0.4
			c1-0.1,2.1-0.2,3.1-0.3c1.4-1.4,2.8-2.8,4.2-4.2c-1.9,0.1-3.8,0.3-5.7,0.4c-0.1,0-0.2,0-0.3,0c0-0.8,0.1-1.6,0.1-2.3
			c-0.1-2.6-0.1-5.3-1-7.8c-1.2-3.4-3.3-6.2-6.4-8.1c-0.7-0.4-1.5-0.6-2.2-0.9c-1.3,0.1-2.5,0.3-3.8,0.4c-1.4,0.7-2.4,1.7-3.1,3.1
			C49,24,49,25.2,49.1,26.4c0.2,2.2,0.1,4.4-0.5,6.6c-1,3.8-3.2,6.6-6.5,8.6c-0.4,0.3-0.9,0.6-1.3,0.8c-0.1,0.1-0.4,0.1-0.5,0
			c-1.3-0.8-2.8-1.1-4.3-0.9c-2,0.3-4.1,0.4-6.1,0.7c-2.5,0.4-4,2-4.7,4.4c0,0.1-0.1,0.2-0.1,0.4c1.2,11.8,2.4,23.6,3.6,35.5
			c0.4,0.8,0.9,1.5,1.5,2.2c1,0.9,2.1,1.4,3.4,1.6c2.9-0.3,5.8-0.6,8.8-0.9c0.7-0.4,1.5-0.8,2-1.4c0.6-0.6,1-1.3,1.4-2
			c0.1-0.2,0.3-0.4,0.5-0.3c1.6,0.2,3.1,0.4,4.7,0.6c2.2,0.3,4.4,0.6,6.7,0.8c1.7,0.1,3.5,0.1,5.2,0.2c0.1,0,0.2,0,0.3,0
			c5.6-0.6,11.2-1.1,16.8-1.7c0.4-0.2,0.8-0.3,1.2-0.5c2.3-1,3.5-2.8,4.2-5.2c0.4-1.4,0.4-2.8-0.1-4.2c0-0.1,0-0.2,0.1-0.3
			c1.7-1.5,2.3-3.6,2.8-5.7c0.3-1.5,0.3-2.9-0.3-4.3c-0.3-0.6-0.1-1,0.2-1.6c1.1-1.8,1.7-3.8,1.5-5.7c-0.1-0.1-0.2-0.2-0.3-0.3
			C87.5,51.9,85.7,50.1,84,48.4z M41.4,81.3c-0.3,0.2-0.7,0.3-1.1,0.3c-1.9,0.2-3.7,0.4-5.6,0.6c-1.5,0.2-2.3-0.5-2.5-2
			c-0.3-3.4-0.7-6.7-1-10.1c-0.7-7.1-1.5-14.3-2.2-21.4c-0.1-1.2,0.2-1.9,1.1-2.3c0.2-0.1,0.5-0.2,0.8-0.2c1.9-0.2,3.8-0.4,5.8-0.6
			c1.4-0.1,2.3,0.6,2.4,2c0.5,5.3,1.1,10.5,1.6,15.8c0.5,5.3,1.1,10.5,1.6,15.8C42.5,80,42.3,80.8,41.4,81.3z"/>
	</g>
	<g>
		<path fill="#FFFFFF" d="M36.7,73.8C35,74,33.8,75.5,34,77.1c0.2,1.7,1.6,2.9,3.3,2.7c1.7-0.2,2.9-1.6,2.7-3.3
			C39.9,74.8,38.4,73.7,36.7,73.8z M37.1,77.8c-0.7,0.1-1-0.2-1.1-0.9c-0.1-0.7,0.2-1,0.9-1.1c0.7-0.1,1,0.2,1.1,0.9
			C38.1,77.4,37.8,77.7,37.1,77.8z"/>
	</g>
	<path fill="#FFFFFF" d="M121.5,19.4c-3.9,0-7.8,0-11.7,0c-0.9,0-1.7,0.2-2.1,1.2c-0.3,0.9,0,1.6,0.6,2.3c0.9,0.8,1.8,1.7,2.7,2.6
		c-0.2,0.2-0.2,0.3-0.3,0.4c-1.9,1.9-3.9,3.8-5.8,5.8c-2.5,2.5-5,5-7.5,7.5c-0.7,0.7-1.4,1.5-2.3,2c-1.9,1.1-3.6,0.7-5.3-1
		c-2.3-2.4-4.7-4.7-7-7c-1.8-1.8-4.1-1.8-5.9-0.1c-1.1,1-2.2,2.2-3.2,3.2c-0.6,0.6-1.2,1.2-1.8,1.8c1.1-0.1,2.1-0.2,3.2-0.2
		c2.4-0.1,4.7-0.3,7.1-0.3c1.9,0,3.7,0.7,5,2.1c0.6,0.7,1.1,1.5,1.7,2.3c0.2,1.7,0.4,3.4,0.5,5.1c-0.4,0.9-0.7,1.7-1.1,2.6
		c0,0.1,0,0.3,0,0.4c0.1,0.3,0.4,0.6,0.5,1c0.3,0.9,0.5,1.9,0.6,2.8c2.3,2.1,5.3,2.1,7.5-0.1c6.9-6.9,13.8-13.8,20.7-20.6
		c0.2-0.2,0.3-0.3,0.5-0.5c1.1,1.1,2.1,2.2,3.2,3.2c0.6,0.7,1.4,1,2.3,0.6c0.8-0.4,1.1-1.1,1.1-2c0-3.8,0.1-7.7,0.2-11.5
		C125.1,20.8,123.7,19.4,121.5,19.4z"/>
	<path fill="#FFFFFF" d="M55.4,54.6c-1.6,1.6-1.8,4-0.5,5.7c0.5,0.6,1.1,1.2,1.7,1.8c1.6,1.5,4,1.5,5.6,0c1.8-1.8,3.6-3.6,5.4-5.4
		c3.2-3.2,6.4-6.4,9.6-9.5c1.5-1.5,4-1.5,5.5,0c0.4,0.4,0.8,0.8,1.3,1.3c0.9-0.4,1.6-1.2,1.6-2.5c0-0.7-0.1-1.4-0.2-2.2
		c-0.2-1.1-0.9-1.8-1.9-2.1c-0.5-0.1-1.1-0.2-1.6-0.2c-2.3,0.1-4.7,0.1-7,0.3c-2.3,0.2-4.7,0.4-7,0.6c-0.8,0.8-1.5,1.5-2.3,2.3
		C62.1,47.9,58.8,51.3,55.4,54.6z"/>
	<path fill="#F3921A" d="M88.4,50.1c-0.1-0.1-0.1-0.3,0-0.4c0.4-0.9,0.7-1.7,1.1-2.6c-0.2-1.7-0.4-3.4-0.5-5.1
		c-0.6-0.8-1-1.6-1.7-2.3c-1.3-1.4-3.1-2.1-5-2.1c-2.4,0-4.7,0.1-7.1,0.3c-1.1,0.1-2.1,0.1-3.2,0.2c-1.4,1.4-2.8,2.8-4.2,4.2
		c2.3-0.2,4.7-0.4,7-0.6c2.3-0.2,4.7-0.2,7-0.3c0.5,0,1.1,0.1,1.6,0.2c1,0.3,1.8,1,1.9,2.1c0.1,0.7,0.2,1.4,0.2,2.2
		c0,1.3-0.7,2.1-1.6,2.5c1.7,1.7,3.5,3.5,5.2,5.2c0.1,0.1,0.2,0.2,0.3,0.3c-0.1-0.9-0.2-1.9-0.6-2.8C88.8,50.8,88.6,50.5,88.4,50.1z
		"/>
</g>
</svg>
