<svg version="1.0" xmlns="http://www.w3.org/2000/svg" viewBox="0 0 141.7 141.7"><path fill="#F3921F" d="M131.5 6.6c-.3.9-.5 1.7-1.3 2.5-.6.6-.8 1.6-.8 2.5-.1 5.9 0 11.8 0 17.8 0 .1.1.2.1.3 1.2-.5 2.4-.9 3.6-1.4 0 .1.1.2.1.3-.9.4-1.8.8-2.8 1.2-.8.3-1.1.9-1 1.7.1 2.2 0 4.5 0 6.7 1.4-.7 2.7-1.4 3.8-2-.1.8-.4 1.8-.5 2.9-.2 1-1.5 1.7-2.3.9-.3-.2-.5-.5-.9-.8 0 .4-.1.7-.1 1v13.1c0 1 .4 1.5 1.4 1.6.8.1 1.5.2 2.3.4-1 .9-2.3.3-3.5.6-.1.7-.1.7.7.7h2.8c.1 0 .5-.3.8-.2.2.1.4.6.5.9.1.7 0 1.5.1 2.2 0 .1 0 .3.1.4.5.7 1 1.4 1.6 2.3-1 .3-1.8.6-2.6.9-.2.1-.6 0-.7-.2-.4-.3-.9-.5-1 .1-.1.5.1 1.4.3 1.4 1.5.4 2.9.7 4.4.8 1 .1-2.6-2.7-2.8-3.8-.2-1 .1-1.8.7-2.6.2-.3.2-.7.3-1-.4 0-.8 0-1.1.2-.8.4 2.7 2.3 2.7 1.3-.1-1.3 0-2.5 0-3.8 0-.6-.1-1.3-.2-1.9-.2-1.3-1.2-1.8-2.4-1.1-.3.2-.5.4-.7.5-.2.1-.4.2-.6.4-.1-.1-.2-.1-.3-.2.6-.9 1.2-1.7 1.8-2.6.5-.6 1-1.2 1.5-1.7s-2.9-2.5-2.5-1.8c.2.3.4.7.7 1 .2.2.6.5.8.4 1.1-.6 2.2.2 3.3.1 1.1-.1 2.2 0 3.3.2.3 0 .5.5.8.8-.3 0-.7.2-.9.1-1.3-.3-2.6.5-3.1 2 0 .1 0 .2-.1.5-.9-.2-1.7-.4-2.6-.6-.2 1.1-.1 2 .9 2.6 1 .6 1.5 1.6 1.6 2.8.1.6.3.9 1 .9.8-.1 1.4.4 1.4 1.2 0 .8-.7 1.2-1.5 1.2-.3 0-.5 0-.8.1v2.1c0 1.3-.8 2-2 2.3-1.2.3 1.5 2.4.2 2.6-.5.1-.8 0-1.2.5-.4.6-1.1.4-1.4-.2-.4-.7-1-.7-1.6-.6-1.3.3-2.4 1.6-2.4 2.9v2.6c1.4-1.8 3.5-1.4 5.2-2.2.4 1.1-.3 1.3-1.1 1.5.5 1.2.2 2.1-.5 3-.4.4-.5 1.1.2 1.6.1.1.1.3.1.6-1.5-1.1-3.5-1.6-3.5-4-.5 1.4-.4 3.8.1 4.1-.2.7-.4 1.3-.5 1.9.1.1.2.1.3.2.5-.2 1-.5 1.6-.8-.4.7-.8 1.3-1.1 1.8.8.8 1.5.5 2.3.1 0 .1 0 .2.1.2-.7.4-1.4 1-2.2 1.3-.7.3-.7.7-.7 1.3v27.3c-.9 0-1.8.1-1.8 1.2 0 1 .8 1.2 1.7 1.1v9c-.4-.2-.6-.2-.8-.4-.8-.7-1.6-.6-2.4-.1-.3.2-.8.4-1.2.4h-10.9c-1.5 0-2.2-.7-2.2-2.2.5.1.9.3 1.4.4 0-.1.1-.1.1-.2-.2-.2-.4-.3-.7-.4-.2-.1-.4-.1-.5-.2-.4-.4-.8-.9-1.2-1.3.5-.3 1.1-.6 1.7-.9-.8-.5-1.8-1.1-2.9-1.7.5-.4.9-.8 1.5-1.4-.8.1-1.4.3-1.8.1-.4-.2-.5-.8-.7-1.3 0 0-.2.2-.4.5-.2-.4-.5-.9-.8-1.3-.4.8-.9 1.1-1.7.4-.3-.2-1.1.1-1.6.3-.4.1-.7.5-1.1.8.2.6-.5.7-1.2.7.2.3.3.5.4.8-.3.2-.7.3-1.2.5.3.2.5.3.8.5-.1.1-.2.3-.3.4-.6.6-1.1 1.2-1.7 1.7-.3 0-.6-.2-.8-.1-.3.3-.7.7-.6 1 .1.3.6.5 1 .7.2-.4.5-.7.7-1.1.1-.1-.2-.4-.3-.6.5-.1 1.1-.2 1.6-.3.1.1.2.1.2.2-.3.5-.6 1-.9 1.4.6.1 1.2.3 2 .5-.4.6-.6 1-.9 1.5.6-.3 1.1-.5 1.5-.7.1.4.2.7.3 1.2.3-.2.7-.4 1.1-.7.4.5.4.9-.3.9-2.8 0-5.7-.2-8.5-.2-.4 0-.7.1-1.1.1-.5 0-1.1-.1-1.5-.3-.7.2-1.3.3-2 .5-.2-1-.5-1.9-1.5-1.6-.6.2-1 .9-1.6 1.5.3-.8.6-1.7-.3-2.1-.5-.2-1.3 0-2 .1v.3c-.1-.1-.2-.3-.4-.4-.2-.1-.5-.2-.7-.2-.1 0-.3.4-.3.5 0 .6.1 1.1.1 1.7h-6c-.5-.5-.8-.9-1.2-1.2-.3.3-.6.7-.9 1 .1.1.1.2.2.2-1.6.2-3.1-.3-4.7 0-1.6.2-3.2.1-4.6.1-.3-.4-.5-.7-.7-1-.2.3-.5.6-.9 1.2-.4.2-1.2.7-2 1.1.9 1.3 2.2.5 3.2.8.1 0 .3-.1.3-.2.2-1.1 1.2-.8 1.8-1.1l.3 3.3c.2 0 .4.1.7.1v.1c-.6.1-1.2.3-1.9.4-.1.5-.3 1-.4 1.7-.1.1-.3.2-.5.3.1.6.1 1.2.4 1.8.1.2.6.4 1 .4s.8-.2 1.2-.3c0 .1.1.3.1.4-.6.1-1.3.2-1.9.3-.8.1-1.3 1-.7 1.4.6.5.2.9.3 1.4.1.3-.1.7-.2 1-.4.2-1 .2-1.3.6-.3.3-.2.9-.2 1.3-.2-.2-.5-.5-.7-.9-.5-.8-1-.8-1.4.1-.5-.1-.9-.2-1.5-.3.7 1.3 2 2 2.2 3.3-.8.3-1.1.1-1.4-.5-.5-.9-1.1-1.7-2.1-2.3-.8-.4-1.4-1.2-2.1-1.8-.4-.3-.8-.6-1.2-.8-.7-.2-1.2-.5-1.2-1.4.2-.2.4-.4.7-.6-.1-.2-.3-.5-.4-.7v-.1c.8-.1.8-.5.6-1.2-.5-1.5-1.4-2.6-2.8-3.3-.2-.1-.4-.1-.5-.2-.9-1-1.7-1.9-2.5-3 1.5.4 2 2.2 3.9 2.3-.3-.4-.5-.6-.6-.9-.3-.4-.6-.8-.9-1.1-.9-.9-2-1.8-3.4-1.8h-27c-.6 0-1.2.1-1.6-.7-.3-.6-1-.5-1.5 0-.6.7-2.3.8-3.2.4-.3-.1-.8-.2-1.1 0-.8.4-1 .3-1-.6v-10.2c0-.9-.1-1.6-1.2-1.8.3.1.7.1 1.1.2v-1.1-20.7-2c0-.3-.3-.5-.4-.7-.5-.6-.7-1.1 0-1.7.2-.1.4-.4.4-.6v-7.9c-.3.4-.4.5-.4.6-.1.6-4.5-1.2-5.1-1.3-.8-.1-.8-.7-.9-1.3-.1-.5.2-.9.8-1 .9-.2 5.5 1.1 5.5.4.1-3.5 0-7 0-10.6-.3 0-.7.1-.9 0-.3-.1-4.6-2.3-4.9-2.5.2-.3 4.4 1.4 4.6 1.1 0-.1.2 0 .3-.1l.9-.6c-.2-.2-.5-.4-.5-.4.2-.6.5-1.1.5-1.6.1-1 0-2.1 0-3.1-.1 0-.2 0-.3-.1-.1.6-.3 1.1-.5 2-.6-.6-5.1-2.9-5.5-3.4-.8-1-1.4-2.2-2.2-3.2-.4-.5-1.1-.7-1.7-1.1h-.1c-.8-.9-1.6-.3-2.3.1-.8.5-1.6.9-1.7 1.9 0 .2-.4.5-.6.5-.2 0-.6-.3-.6-.5-.1-.2.2-.6.3-.7.8-.5 1.7-.9 2.6-1.4.5-.3.6-.5.1-1-1.2-.9-1.1-1.9.2-2.8.1.3.2.8.4.9.8.4 1.6.8 2.5 1 .3.1.7-.5 1-.7-.4-.6-.8-.9-1.1-1.4-.3-.5-.1-.8.4-.8.9-.1 1.3-.8.8-1.6-.2-.3-.4-.7-.5-1.1-.1-.4 0-1.1.1-1.1.5-.1 1.1-.1 1.4.1.6.7 1.8 1.2 1 2.5v.2c.8.8.6 1.7 0 2.5.8.1 5.5 2.1 6.5 2.2-.5-.5-1-.8-1.4-1.1 0-.1 0-.1.1-.2.3.1.6.1 1 .2V32.6c-.9.5-5.7-1.2-5.9-.1 0 .2-.5.5-.7.5-.2 0-.6-.3-.6-.5s.2-.6.5-.7c2.2-.7 7.3-.1 6.9-2.5-.2-1.1-.1-2.3 0-3.5 0-.7.1-1.5.2-2.4.7-.1 1.5-.3 1.1-1.5.7-.4 1.4-.7.9-1.6-.4-.8-1.1-.7-1.9-.2-.2-.5-.3-1-.6-1.7 1 .4 1.8.8 2.4-.2.5-.8 0-1.3-.3-1.5-.1-.8 0-1.5-.3-1.8-.3-.3-.9-.2-1.6-.3v-4c0-.7.5-.6 1-.6h13.7c.8 0 1.5-.1 1.8 1.1.1.4.8.7.6 1.4-.1.3-.1.7-.3.9-.6.8-1.4 1.5-2 2.3-.3.4-.3.7-.3 1 .3-.1.6-.1.8-.3.4-.4.7-.8 1-1.2l.3.3c-.7.9-1.5 1.8-2.2 2.6.1.1.1.2.2.2.9-.3 1.7-.6 2.6-.8-.3.9-.5 1.6-.7 2.4l.6.3c-.3.7-.6 1.4-.9 2.2.1.1.2.1.3.2.4-.7.7-1.5 1.1-2.2.2-.4.5-1.1.8-1.1.8 0 .4.8.4 1.1.1 1 0 2 0 3.1H34c-.1 0-.1.1-.2.1-.4 0-1-.3-1.1.4 0 .2.3.7.5.7.6.1 1.1-.1 1.2-.9.2-1.2.5-2.3.8-3.5h.4c.1.5.1.9.2 1.4.1 0 .1 0 .2.1l.3-1.2c.1-.4.4-1 .5-1 .6.1 1.1.3 1.6.7.3.2.4.7.5 1 .1 0 .2-.1.3-.1-.3-1-.5-1.9-.9-3.1.4.1.9.2 1.3.3 0-.2 0-.4-.1-.6h.7c0-.1.1-.1.1-.2l-1.5-.9c0-.1.1-.2.1-.3.7 0 1.3-.2 2 .4.3.3 1 .3 1.6.5-.1-1-.9-1.8.1-2.7-1.9-.1-2.7-1.3-2.9-3.1.8.2 1.4.3 2.1.4 0-.1.1-.2.1-.3-1-.3-2-.7-3-1 0-.2.1-.3.1-.5h9.6c.3 0 .7.3.7.5.1 1.6 1.5 2.6 2.9 2.6 1.5 0 2.4-1 2.8-2.8 0-.1 0-.1.1-.2h5.3c.4 1.9 1 2.6 2.1 2.5 1.1-.1 1.7-.8 1.8-2.6h8.4c.2 0 .5.3.6.6.5 1.3 1.4 2.1 2.7 2.1 1.2 0 2.3-.7 2.7-2 .2-.5.4-.7 1-.7h47c1.4 0 2.2-.9 2.1-2.3 0-.3 0-.7.2-.8m-10.7 81.1c.5-.2 1.3-.3 1.4-.6.2-.4-.1-1-.2-1.6l.9.3c1 .2 1.9-.2 2.3-1.1.4-.8.1-1.8-.6-2.3-.7-.6-1.8-.5-2.5 0-.8.6-.9 1.6-.4 2.5.1.2.2.4.4.6-.7-.3-1.4-.3-1.8.5-.6.8-.1 1.3.5 1.7-.2 0-.4 0-.7-.1-.8-.1-1.3.4-1.3 1.1 0 .5.5 1.2.9 1.3.4.1 1.2-.2 1.5-.6.5-.6 0-1.2-.4-1.7zm-99.8 29.1c.2 0 .4.1.5 0l.6-.6-.6-.6c-.2.2-.4.4-.5.7-.1.2 0 .4 0 .5-.2-.2-.3-.5-.5-.7-.7-.6-1.6-.4-2.1.3s-.3 1.6.5 1.9c.4.2 1.1.2 1.4 0 .4-.3.5-.9.7-1.5zm105.3-17.5c.8-.1 1.1-.7.9-1.3-.1-.5-.7-1.1-1.1-1.2-1-.3-1.4.6-1.8 1.4-.3-.1-.6-.3-.8-.3-.3.1-.8.3-.9.6-.1.3.1 1.1.3 1.1 1 .2 2 .2 2.9.3.1-.1.3-.4.5-.6zM26.4 113c-.6 0-1.2.1-1.3.8 0 .3.3.8.6 1 .2.1.8-.1 1-.3.5-.6.1-1.1-.3-1.5.3.1.7.2 1 .2.2-.5.2-1.2.4-1.3.4-.1.9.2 1.3.3.5-.8.4-1.6-.2-2.3-.7-.6-1.5-.9-2.3-.3-.7.5-1.4.3-2.1.1-.3-.1-.7 0-1 .1-.1.1-.2.6-.1.7.2.2.6.4.9.4.7 0 1.1.1 1.3.9.1.4.5.8.8 1.2zM7.3 93.1v1.1c.4.3.7.4.8.7.1.1 0 .5-.1.6-.6.3-.4.6-.1 1 .5-.3 1-.5 1.3.1.4.6-.2.9-.8 1.2.3 0 .6.1.7.2.2.1.4.3.6.5.2.3.3.6.5.9 0-.1 4.1 1.8 4.1 1.7.4-.1.8-.3 1.1-.2.4.1.5.5.4.9 0 .1.2.2.3.3.1-.3 0-.5 0-.7-.1-.8.2-1.5.9-1.9.6-.3 1.6-.3 2.1.2.6.6 1 1.3 1.5 1.9.4-.2.7-.4 1-.5.4.2.6.4.9.5.2 0 .6-.3.6-.4 0-.3-.2-.7-.3-1.2.2-.3.8-.7.6-1.4 0-.1.1-.3.2-.3.7-.3.5-1 .7-1.5-1-.3-1-.5-.4-1.4-.5-.8-.3-.7-.1-1.5.1-.5 0-1.3-.3-1.7-.4-.6-1.1-.9-1.7-1.3-.1-.1-.1-.2-.2-.3-.3-.3-.6-.6-1-.9-.3.7-.6 1.1-1.3 1-.8-.2-.7-.8-.7-1.4-.6.1-1.1.2-1.6.3-.6.1-1.2.2-1.7.3-.5.1-.8.4-.7 1 .1.7-4.6-1-5.3-1.2-.2 0-.4-.1-.5 0-.3.4-.6.9-1 1.5 1.3-.3 1.9-.1 2.2.6.3.6.1 1.2-.4 1.6-.6.6-1.2.5-2.3-.3zm83.2-71c.4.3.8.6 1.2.8.9.7 2.2 1 2.3 2.4.1 1 .8 1.6 1.7 1.7 2.5.2 5-2.2 4.7-4.7-.3-2.3-2.7-3.6-4.9-2.6-.3.1-.6.2-1 .2-1.1 0-2.3-.1-3.1-1.3-.2 1.3.4 2.5-.9 3.5zm27.1 78.7c-.3 1.4 0 2.2 1 2.4.8.2 1.7-.4 1.7-1.2 0-.4-.2-1-.5-1.3-.3-.3-.9-.3-1.4-.5.8-1.2.8-2.1 0-2.9-.7-.7-1.5-.9-2.4-.5-.9.4-1.4 1.3-1.2 2.3.3 1.1 1 1.5 2.8 1.7zm1.1 9.1c.1 0 .1 0 0 0 .1.7-.1 1.4.2 1.9.2.3 1 .6 1.5.4.5-.2.8-.1 1.3.1.8.4 1.9.1 2.4-.7.5-.8.3-1.7-.4-2.3-.7-.6-1.7-.6-2.5 0-.3.2-.6.3-.6.4-.4-.7-.6-1.3-1-1.7-.1-.1-1 .2-1 .4-.1.4.1 1 .1 1.5zm-15-96.6v4.4c0 .4.1 1 .4 1.2.5.3 1.1.6 1.7.6.3 0 .8-.4 1-.8.7-1.7.4-3.4-.2-5-.1-.3-.3-.5-.6-.9-.3 1 .6 2.1-.8 2.7-.4-.8-.9-1.4-1.5-2.2zm19 92.2c0 .3-.1.7.1.8.3.3.8.7 1.2.6.3 0 .8-.7.7-1-.2-.6.1-.8.4-1.2.6-.7.6-1.5 0-2.3-.6-.7-1.4-1-2.2-.7-.9.3-1.3 1-1.3 1.9 0 .2.1.5.1.7-.4 1.4-.3 1.5 1 1.2zM88.2 12.9c0-1.2-.9-2.2-2.1-2.2-1.2 0-2.3 1-2.3 2.2 0 1.1 1.1 2.2 2.2 2.2 1.2 0 2.2-1 2.2-2.2zM123 115.4c.8.8 1.6.9 2.2.3.5-.6.5-1.4-.1-1.8-.7-.5-1.4-.3-2.2.6-.6-.8-1.4-1.3-2.4-.8-.8.4-1.1 1-.9 1.8.1.8.7 1.2 1.4 1.3 1.1.1 1.7-.5 2-1.4zm-5.2-20.2c.8 1.2 1.8 1.6 2.7 1 .8-.5 1-1.6.5-2.4-.6-.9-1.6-.9-2.8-.2-.5-.7-1.3-1-2-.4-.3.3-.5 1-.3 1.4.3.9 1.1 1 1.9.6zM89.9 26.8c.5.1.9.1 1.3.2.8.1 1.7-.4 2-1.2.3-1 0-1.6-1-2-2.2-.9-2.6-1.6-2.2-3.9 0-.2 0-.4-.1-.9-.3.5-.5.6-.5.8-.3 1.1-.3 2.2.3 3.2.2.4.3.9.3 1.3 0 .8-.1 1.7-.1 2.5zm-7.4-4.2c-.4-1.1-.7-1.9-1.1-2.8-.1-.2-.3-.6-.5-.7-.2-.1-.5.2-.8.3-1.2.7-1.1 2.1-1.8 3.1-.3.5.4 1.1 1 1 .6-.1 1.3-.1 1.9-.3.5 0 .8-.3 1.3-.6zm34.6 56.9c-.7.6-1.3 1.3-.6 2.2.5.6 1.1.7 1.7.3.9-.6.8-1.4.4-2.2.7-.6 1.1-1.2.5-2-.4-.6-1.1-.7-1.7-.3-.8.5-.8 1.2-.3 2zM51 15.2c0 1 .7 1.8 1.7 1.8s1.8-.8 1.8-1.7c0-.9-.8-1.8-1.8-1.8-.9 0-1.7.7-1.7 1.7zm-28.7 99.3c1-.6 1-.8.2-3.1h-.9c-1.4-.1-2.2.9-1.9 2.2.1.3 0 .6 0 .9 0 .6.4.9.9.7.5-.2.9-.5 1.2-.6v-1.3H23c-.4.6-.5.9-.7 1.2zm32.6-87.9c0 .8.9 1.7 1.7 1.6.8 0 1.5-.9 1.5-2.1 0-.6-.9-1.5-1.5-1.5-.9.1-1.7 1.1-1.7 2zm-37.4 82.1c.1.8.4 1.2 1.3 1.4.4.1.7.3 1.1.4.3.1.6.1.9.1 0-.3.1-.6 0-.9-.1-.4-.3-.8-.4-1.2-.1-.7-.8-1.4-1.5-1.3-.7.1-1.3.8-1.4 1.5zm66.4-85.8c.2.1.4.2.5.1.9-.2 1.8-.3 2.6-.6.5-.2.9-.7 1-1.2.1-.3-.3-.9-.6-1-.4-.1-.9.2-1.3.4-.3.1-.6.5-.9.6-.9.2-1.1.9-1.3 1.7zm31.9 82.4c0 .7.6 1.4 1.4 1.4.8 0 1.4-.5 1.5-1.3 0-.8-.6-1.5-1.4-1.5-.8.1-1.5.7-1.5 1.4zm8-11.9c-.8 0-1.4.6-1.3 1.4.1.8.6 1.3 1.4 1.3.8 0 1.4-.6 1.4-1.4-.1-.8-.7-1.3-1.5-1.3zM19.6 14.6c-.8 0-1.4.6-1.4 1.4 0 .8.6 1.3 1.5 1.3S21 16.8 21 16s-.6-1.4-1.4-1.4zm3.1.7c-1 0-1.6.9-1.3 1.5.2.5.6.9.4 1.5-.1.1.2.5.4.6.2.1.8 0 .8-.1.2-1 .4-2 .4-3 0-.2-.6-.4-.7-.5zm-1 102c-.3.1-.4.1-.6.1-.3.1-.7.2-1 .4-.1 0 .1.6.2.6.3 0 .6 0 1-.1.6-.1 1.1-.4 1.6.3.1.1.3.2.5.2.1 0 .2-.3.2-.4.1-1.6.1-1.6-1.3-2.4-.2-.1-.6-.1-.7 0-.2.2-.2.5-.2.8-.1 0 .1.2.3.5zM64 13.9c0 .8.2 1.4 1.1 1.4.7 0 1.3-.6 1.2-1.4 0-.7-.4-1.2-1.2-1.2-.8.1-1.1.5-1.1 1.2zm-42.9-1.2v-.4c-.2-.3-.4-.6-.7-.9-.1-.1-.6.2-.6.3.2.7.4 1.3.7 2 .1.2.4.4.6.4.2 0 .5-.2.7-.3.3-.1.6-.3.9-.5.2-.2.5-.4.6-.6 0-.2-.2-.6-.4-.7-.2-.1-.5 0-.8.1-.4.3-.7.4-1 .6zm103.1 78.1c0-.7-.4-1.2-1.1-1.3-.7 0-1.3.5-1.3 1.2s.5 1.2 1.2 1.2 1.2-.4 1.2-1.1zm-93.7 7.9c.1.7.5 1.2 1.3 1.2.7 0 1.2-.5 1.1-1.2 0-.7-.5-1.2-1.2-1.2s-1.1.5-1.2 1.2zm46.1-81c-.3-.2-.7-.7-1.1-.7-.8 0-1.2.7-1.2 1.4s.4.9 1 .9c.9 0 1.2-.6 1.3-1.6zm-42.4 93.6c-.4-.3-.9-.8-1.3-.8-.7-.1-1.2.4-1.2 1.1 0 .7.4 1.2 1.2 1.1.8 0 1.1-.5 1.3-1.4zm89.6 10.2h.5c.3-.4.8-.8.9-1.3.2-.6-.6-1.2-1.2-1.1-.7.1-1.2.5-1 1.2 0 .4.5.8.8 1.2zM86.5 22.7c-.5.7-1.1 1-1.1 1.4 0 .3.6.7 1 1 .4-.4.9-.7 1-1.1.1-.2-.4-.6-.9-1.3zm27 55.9c-.4.6-1 1-.9 1.3.1.4.6.7 1 1 .3-.4.9-.7.9-1.1 0-.2-.5-.6-1-1.2zm4.2 4.4c-.6-.5-1.1-1-1.4-.9-.4.1-.7.6-1 .9.4.3.7.8 1.1.9.3.1.7-.4 1.3-.9zM18.4 21.7h.4c.2-.4.7-.8.7-1-.1-.4-.6-.7-.9-1-.3.3-.8.7-.9 1-.1.3.5.7.7 1zm11.5 84.4c-.2.5-.5 1.1-.7 1.6-.1.2.1.5.1.7 0 0 .1.1.2.1 1.1.2.8-1.1 1.5-1.3-.1-.3-.2-.7-.4-1-.1 0-.3 0-.7-.1zM35.8 91c-.4.7-.8 1-.8 1.4-.1.6.3 1 .9.9.4-.1.9-.6.9-.9 0-.3-.5-.7-1-1.4zM102 16.9c1.3-1.1 1.4-1.6.4-2.5-1 .8-1.1 1.3-.4 2.5zm-66.7 82c-.5.6-.9 1-.9 1.2 0 .3.5.7.8.8.2.1.8-.5.8-.8.1-.2-.3-.5-.7-1.2zM112.5 82c-.4.5-.8.9-.7 1.1 0 .3.5.6.7.8.3-.3.8-.5.8-.9 0-.1-.4-.4-.8-1zM58.1 19.7c-.5.6-.9.9-.9 1.3 0 .3.5.6.8.8.3-.3.7-.5.7-.8 0-.3-.3-.7-.6-1.3zm-28.6 85c.5.4.9.8 1.1.7.3-.1.7-.5.7-.8 0-.2-.5-.6-.8-.6-.2 0-.5.4-1 .7zm85.9-18.1c-.3.5-.7.8-.7 1.1 0 .3.4.5.7.8.3-.3.7-.5.7-.9.1-.2-.3-.5-.7-1zM30 103.5c-.6-.3-.9-.6-1.2-.6-.3 0-.7.5-.7.6.1.3.4.7.7.8.3 0 .6-.4 1.2-.8zm3.9-6.2c-.4.5-.8.8-.7 1 .1.3.5.5.7.8.2-.2.7-.5.7-.7 0-.3-.4-.6-.7-1.1zm-10.2 18c.5.3.8.7 1 .6.3-.1.5-.5.8-.7-.3-.2-.5-.6-.8-.6-.3 0-.6.4-1 .7zm.7 2c.6.4 1.2.5 1.6-.1.1-.1-.1-.7-.3-.8-.8-.3-1 .4-1.3.9zM58.3 24c0-.5.3-1.2-.6-1.1-.1 0-.4.4-.3.6.2.5.4.9.7 1.4.1-.1.3-.2.3-.3 0-.2 0-.4-.1-.6zM25.7 11.3c-.3.4-.7.6-.7.8.1.3.4.5.6.7.2-.2.6-.4.6-.7.1-.1-.2-.4-.5-.8zm4.8 97.4c.4.3.7.6.9.6.2 0 .6-.4.6-.6 0-.2-.4-.6-.6-.6-.2 0-.5.4-.9.6zm4.3-4.9c.2.1.4.2.6.2.2-.4.4-.9.6-1.3-.2-.1-.5-.2-.7-.3-.1.4-.3.9-.5 1.4zM15.6 24.2c.4.3.7.6.8.6.3-.1.5-.4.7-.7-.2-.2-.4-.5-.7-.5-.2 0-.4.3-.8.6zm105.7 94.2c.4.3.6.6.9.6.2 0 .6-.4.6-.6 0-.2-.3-.6-.6-.6-.2 0-.5.3-.9.6zM20.5 18.4c-.4-.3-.7-.6-.9-.5-.2 0-.4.4-.6.6.2.2.4.6.7.6.1-.1.3-.4.8-.7zM114 85.6c.5.3.7.6 1 .5.2 0 .4-.3.6-.5-.2-.2-.4-.5-.6-.6-.3 0-.5.3-1 .6zm5.5 18.8c-.3.4-.5.7-.5 1 0 .2.4.5.6.5.2-.1.6-.4.6-.6-.1-.3-.4-.5-.7-.9zM16.8 21.5c-.3.4-.5.7-.5.9 0 .2.4.5.6.5.2 0 .6-.3.6-.5-.1-.3-.4-.5-.7-.9zm7.7 84.6c-.4-.3-.7-.6-.9-.6-.2 0-.4.4-.6.6.2.2.4.5.6.5.2.1.5-.2.9-.5zm35.3-87.6c.4.2.7.5.8.4.3-.1.4-.4.6-.6-.2-.2-.5-.5-.7-.5-.2 0-.4.3-.7.7zm-40.5 5c.4.3.6.6.8.6.2 0 .4-.3.6-.5-.2-.2-.4-.5-.6-.5-.1-.1-.4.1-.8.4zm11.6 77.1c.3.3.5.6.8.6.2 0 .5-.3.5-.5s-.3-.6-.5-.6-.4.3-.8.5zm85-28.8c-.3.4-.6.6-.6.8 0 .2.3.4.5.6.2-.2.5-.4.6-.6 0-.2-.3-.4-.5-.8zm4.2 18.7c-.2.4-.5.7-.4.9 0 .2.4.4.6.5.2-.2.5-.4.5-.6-.1-.3-.4-.5-.7-.8zM17.4 12.9c.4.3.6.6.8.6.2 0 .5-.3.5-.5s-.3-.5-.5-.6c-.1 0-.4.2-.8.5zm97.2 77.6c-.3.3-.6.6-.6.7.1.2.4.4.6.6.2-.2.5-.4.5-.6.1-.1-.2-.4-.5-.7z"/><g fill="#FFF"><path d="M46.1 16.3c-3.8 30.1-7.5 60.1-11.3 90.2 22.4 2.8 44.7 5.6 67.2 8.4.2-1.2.3-2.4.5-3.6.1-.9.2-1.7.5-2.6.7-2.1 3-3.3 5.2-2.9 2.2.5 3.8 2.6 3.5 4.8-.4 3.1-.8 6.3-1.2 9.4-.4 3-2.6 4.8-5.6 4.4-6.1-.7-12.1-1.5-18.2-2.3-17.2-2.2-34.4-4.3-51.5-6.5-2-.2-3.9-.5-5.9-.7-2.9-.4-4.6-2.5-4.2-5.4 1.7-13.8 3.5-27.6 5.2-41.4 2-15.6 3.9-31.2 5.9-46.8.4-3.5.9-7 1.3-10.5.4-3.1 2.5-4.8 5.6-4.4 9.7 1.2 19.4 2.4 29.1 3.7 6.1.8 12.1 1.5 18.2 2.2 1.4.2 2.5.8 3.4 1.8 7.6 8.5 15.2 16.9 22.8 25.4 1 1.1 2 2.2 2.7 3.4.4.7.6 1.7.5 2.6-1.3 10.8-2.7 21.6-4 32.3-.3 2.5-2.6 4.2-5 3.9-2.6-.3-4.3-2.5-4-5.1.5-4 1-8.1 1.5-12.1.6-4.7 1.2-9.5 1.8-14.2v-.8c-.3 0-.7-.1-1-.1-7.5-.9-14.9-1.9-22.4-2.8-2.9-.4-4.6-2.5-4.2-5.4L84.9 22c0-.3.1-.6.1-1-12.9-1.5-25.9-3.1-38.9-4.7zm47.5 11.3c-.5 3.7-.9 7.1-1.3 10.6 4 .5 8 1 12.2 1.5-3.7-4.1-7.2-8-10.9-12.1z"/><path d="M97.4 97.4c.7-.8 1.4-1.4 2.1-2.1 4-4 8.3-7.6 13.3-10.3 3.4-1.9 6.9-3.2 10.8-3.4 2.9-.2 5.1 1.4 5.5 3.9.4 2.4-1.3 5-3.6 5.1-6 .2-10.4 3.5-14.7 7-3.7 3-7 6.3-10 9.9-2.2 2.7-6.2 2-7.6-.4-1.7-2.8-3.7-5.5-5.6-8.2-1.5-2.2-1-5 1.1-6.5 2-1.4 4.8-.8 6.3 1.3.7 1.2 1.5 2.4 2.4 3.7zM72.9 75.3c5.9.7 11.8 1.5 17.6 2.2 2.7.3 4.5 2.6 4.1 5.2-.3 2.7-2.5 4.3-5.3 3.9-11.7-1.5-23.5-2.9-35.2-4.4-2.4-.3-4-1.9-4.3-4-.3-3 2.1-5.4 5.1-5.1 6.1.7 12 1.4 18 2.2zM74.7 62c-5.9-.7-11.9-1.5-17.8-2.2-2.6-.3-4.4-2.5-4.2-5 .3-2.6 2.5-4.4 5.2-4.1 5.3.6 10.5 1.3 15.8 2 6.5.8 12.9 1.6 19.4 2.4 1.3.2 2.5.6 3.4 1.7 1.2 1.5 1.4 3.5.5 5.2-.9 1.7-2.5 2.5-4.5 2.2-6-.7-11.9-1.5-17.8-2.2z"/></g></svg>