<svg xmlns="http://www.w3.org/2000/svg" width="20mm" height="20mm" viewBox="0 0 2000 2000" shape-rendering="geometricPrecision" text-rendering="geometricPrecision" image-rendering="optimizeQuality" fill-rule="evenodd" clip-rule="evenodd"><g fill="#ffa300"><path d="M963.5 0h72.99c266.45 0 507.32 109.66 681.59 287.16C1892.35 464.67 2000 710.02 2000 981.42v37.17c0 271.39-107.65 516.75-281.92 694.26-174.27 177.5-415.14 287.15-681.59 287.15H963.5c-266.44 0-507.32-109.65-681.59-287.15C107.65 1535.34 0 1289.98 0 1018.59v-37.17c0-271.17 107.98-516.31 282.17-693.75C456.73 109.86 697.86 0 963.5 0zm72.99 215.93H963.5c-207.19 0-395.26 85.7-531.44 224.41-135.85 138.39-220.08 329.58-220.08 541.08v37.17c0 211.77 83.94 403.18 219.82 541.58 135.88 138.4 323.8 223.91 531.7 223.91h72.99c207.92 0 395.83-85.51 531.7-223.91 135.88-138.4 219.83-329.81 219.83-541.58v-37.17c0-211.78-83.95-403.18-219.83-541.59-135.87-138.4-323.78-223.9-531.7-223.9z" fill-rule="nonzero"/><path d="M1123.66 870.16l220.97-239.77c28.38-30.98 75.01-33.04 105.41-4.13 30.41 26.84 32.44 74.34 4.05 105.31l-345.15 374.5c-20.76 39.99-61.49 67.39-108.95 67.39h-4.05c-68.93 0-123.66-55.76-123.66-125.97V537.47c0-70.21 54.73-125.97 123.66-125.97h4.05c68.93 0 123.67 55.76 123.67 125.97v332.69z"/></g></svg>