<svg xmlns="http://www.w3.org/2000/svg" width="20mm" height="20mm" viewBox="0 0 2000 2000" shape-rendering="geometricPrecision" text-rendering="geometricPrecision" image-rendering="optimizeQuality" fill-rule="evenodd" clip-rule="evenodd"><defs><style>.fil0{fill:#ffa300;fill-rule:nonzero}</style></defs><g id="Слой_x0020_1"><g id="_2198658292352"><path class="fil0" d="M961.12 0h77.77c265.34 0 505.64 109.71 679.56 286.99C1892.38 464.27 2000 709.21 2000 979.68v40.65c0 270.47-107.62 515.41-281.55 692.69C1544.53 1890.3 1304.23 2000 1038.89 2000h-77.77c-265.35 0-505.64-109.7-679.57-286.98C107.63 1535.74 0 1290.8 0 1020.33v-40.65c0-270.47 107.63-515.41 281.55-692.69C455.48 109.71 695.77 0 961.12 0zm77.77 89.58h-77.77c-241.09 0-459.42 99.66-617.44 260.74-158.02 161.07-255.8 383.61-255.8 629.36v40.65c0 245.74 97.78 468.29 255.8 629.36s376.35 260.74 617.44 260.74h77.77c241.09 0 459.41-99.67 617.44-260.74 158.02-161.07 255.79-383.62 255.79-629.36v-40.65c0-245.75-97.77-468.29-255.79-629.36-158.03-161.08-376.35-260.74-617.44-260.74z"/><path class="fil0" d="M382.8 1258.11V709.38c.32-1.32.21-3.69.21-5.15 1.4-46.84 21.38-92.79 50.75-126.76 30.82-35.63 72.73-59.28 116.07-59.28l2.54.18v-.14h855.38c44.38 0 87.67 24.17 119.21 60.7 30.22 34.99 50.37 82.23 50.37 130.45v548.73c0 48.22-20.15 95.45-50.37 130.45-31.54 36.53-74.83 60.7-119.21 60.7H552.37c-44.37 0-87.66-24.17-119.2-60.7-30.22-35-50.37-82.23-50.37-130.45zm1009-583.18H570.33c-12.74 0-22.25 3.58-28.23 9.84-4.02 4.2-7.06 9.86-9.04 16.73l14.35 12.63c13.51 12.03 21.96 19.78 30.35 27.49l357.99 314.27c24.74 21.26 38.25 31.9 45.3 31.9 7.08 0 20.58-10.65 45.31-31.92l358.03-314.22c8.35-7.74 17.19-15.82 30.32-27.52l14.55-12.74c-1.91-7.14-4.87-12.82-8.8-16.93-5.89-6.16-15.55-9.53-28.66-9.53zM528.56 853.98v260.47l26.96-23.38c40.69-35.26 92.57-79.33 121.17-103.86l-30.04-27.57c-10.3-9.45-19.66-17.57-29.02-25.67-10.58-9.16-21.15-18.32-30.8-27.17l-1.33-1.36c-2.73-2.78-29.38-27.03-56.94-51.46zm893.86 9.26l-138.36 120.6.98.95c16.18 14.71 90.06 80.3 145.07 127.92l1.47 1.28V855.28l-9.16 7.96zm-884.01 394.97l-6.17 5.51c2.39 7.68 5.59 13.63 9.63 17.76h.15c5.85 5.95 15.23 9.05 28.31 9.05h821.47c12.11 0 21.26-3.37 27.14-9.51 4.12-4.32 7.34-10.29 9.56-17.75-77.49-65.84-159.84-133.6-233.11-203.07l-.14.13c-5.6 5.2-12.54 11.65-23.92 21.7-28.91 29.48-68.62 56.56-98.3 85.97-29.98 25.25-60.99 37.88-92.97 37.88-31.97 0-62.98-12.63-92.96-37.88l-22.41-19.76c-36.78-32.48-91.83-97.32-100.96-97.32-8.21 0-13.99 21.56-46.3 49.54-65.26 56.54-154.92 136.13-167.59 147.77-2.99 2.27-9.11 7.4-11.43 9.98z"/><path class="fil0" d="M1200.56 1050.71l-1.7.41c4.83-.82 8.19-1.37 1.7-.41z"/></g></g></svg>