<svg xmlns="http://www.w3.org/2000/svg" width="152.141" height="151.843" viewBox="0 0 4025.4 4017.5" shape-rendering="geometricPrecision" text-rendering="geometricPrecision" image-rendering="optimizeQuality" fill-rule="evenodd" clip-rule="evenodd"><defs><style>.fil2{fill:#030304}.fil1{fill:#ed9816}.fil0{fill:#ffa300}</style></defs><g id="Слой_x0020_1"><g id="_2545738071072"><path class="fil0" d="M1542.84 768.28l371.43 355.56-520.63-6.35c-215.87-3.17-19.05-509.52 149.21-349.21h-.01zm436.5-338.1l11.11 684.13L1509.5 615.9c-198.41-207.94 465.08-495.24 469.84-185.71v-.01zm593.64 134.92l-519.04 536.51 14.29-753.97c6.35-314.29 738.1-23.81 504.76 217.46h-.01zm300 546.03l-750.79 11.11 547.62-525.4c228.57-219.05 542.86 509.52 203.17 514.29z"/><path class="fil1" d="M2122.19 2273.03c-199.99 0-396.82-53.97-569.83-153.97-541.27-314.28-726.98-1012.69-411.11-1553.96C1344.42 215.89 1720.62.02 2125.37.02c200 0 396.83 53.97 569.84 153.97 541.27 314.29 726.98 1012.7 411.11 1553.97-203.17 347.61-579.37 565.07-984.13 565.07zm1.59-2174.59c-368.24 0-712.69 198.41-896.82 515.87-287.3 493.65-119.05 1130.16 376.19 1417.45 158.73 92.06 338.1 141.27 520.62 141.27 368.25 0 712.7-198.4 896.83-515.86 287.3-493.65 119.05-1130.16-376.19-1417.46-158.73-92.06-338.1-141.27-520.63-141.27z"/><path class="fil0" d="M2714.25 1520.66l-373.01-355.56 520.63 6.35c215.87 1.59 19.05 507.94-147.62 349.21zm-438.09 336.51l-11.11-684.13L2746 1671.45c200 207.94-463.49 495.23-469.84 185.71v.01zm-593.64-134.92l519.04-534.92-14.29 753.97c-6.35 312.69-738.09 22.22-504.75-219.05zm-300-546.04l750.78-11.11-547.61 525.4c-226.98 220.63-541.27-507.94-203.17-514.29z"/><path class="fil2" d="M269.82 2561.92v12.7c0 3.17-1.59 6.35-1.59 7.94-1.59 1.59-1.59 3.17-3.17 4.76-1.59 1.59-3.17 1.59-4.76 1.59l-79.37-.01v255.56c0 1.59 0 3.17-1.59 4.76-1.59 1.59-3.17 1.59-4.76 3.17-3.17 0-6.35 1.59-9.52 1.59h-31.75c-4.76 0-7.94-1.59-9.52-1.59-3.17-1.59-4.76-1.59-4.76-3.17-1.59-1.59-1.59-3.17-1.59-4.76V2588.9H38.07c-1.59 0-3.17 0-4.76-1.59-1.59-1.59-1.59-3.17-3.17-4.76 0-1.59-1.59-4.76-1.59-7.94v-25.4c0-3.17 1.59-6.35 1.59-7.94 1.59-1.59 1.59-3.17 3.17-4.76 1.59-1.59 3.17-1.59 4.76-1.59l222.23.01c1.59 0 3.17 0 4.76 1.59 1.59 1.59 1.59 1.59 3.17 4.76 1.59 1.59 1.59 4.76 1.59 7.94v12.7zm412.7 280.95c0 1.59 0 3.17-1.59 4.76-1.59 1.59-3.17 1.59-4.76 3.17-3.17 0-6.35 1.59-9.52 1.59H634.9c-4.76 0-7.94-1.59-9.52-1.59-3.17-1.59-4.76-1.59-4.76-3.17-1.59-1.59-1.59-3.17-1.59-4.76v-201.59c-1.59 1.59-3.17 4.76-4.76 7.94-1.59 3.17-3.17 6.35-6.35 9.52-1.59 3.17-4.76 6.35-6.35 9.52-1.59 3.17-4.76 6.35-6.35 9.52L485.7 2841.27l-4.76 4.76c-1.59 1.59-3.17 1.59-4.76 3.17-1.59 0-4.76 1.59-7.94 1.59l-28.58.02c-3.17 0-6.35-1.59-9.52-1.59-1.59-1.59-3.17-1.59-4.76-3.17-1.59-1.59-1.59-3.17-1.59-4.76v-300c0-1.59 0-3.17 1.59-4.76 1.59-1.59 3.17-1.59 4.76-3.17 3.17 0 6.35-1.59 9.52-1.59l31.75-.01c4.76 0 7.94 1.59 9.52 1.59 3.17 1.59 4.76 1.59 4.76 3.17 1.59 1.59 1.59 3.17 1.59 4.76v201.59c3.17-4.76 6.35-11.11 11.11-17.46 4.76-6.35 7.94-14.29 12.7-20.63l109.52-163.49c1.59-1.59 1.59-3.17 3.17-4.76 1.59-1.59 3.17-1.59 4.76-3.17 1.59 0 4.76-1.59 7.94-1.59l26.99-.01c3.17 0 6.35 1.59 9.52 1.59 1.59 1.59 3.17 1.59 4.76 3.17 1.59 1.59 1.59 3.17 1.59 4.76v301.59h3.18zm433.33 0c0 1.59 0 3.17-1.59 4.76-1.59 1.59-3.17 1.59-4.76 3.17-3.17 0-6.35 1.59-9.52 1.59h-31.75c-4.76 0-7.94-1.59-9.52-1.59-3.17-1.59-4.76-1.59-4.76-3.17-1.59-1.59-1.59-3.17-1.59-4.76V2588.9H934.9v253.97c0 1.59 0 3.17-1.59 4.76-1.59 1.59-3.17 1.59-4.76 3.17-3.17 0-6.35 1.59-9.52 1.59h-31.75c-4.76 0-7.94-1.59-9.52-1.59-3.17-1.59-4.76-1.59-4.76-3.17-1.59-1.59-1.59-3.17-1.59-4.76v-287.3c0-6.35 1.59-12.7 4.76-15.87s7.94-4.76 14.29-4.76l206.34-.01c6.35 0 11.11 1.59 14.29 4.76 3.17 3.17 4.76 7.94 4.76 15.87v287.31zm471.43-153.97c0 25.4-3.17 49.21-9.52 69.84-6.35 20.63-15.87 38.1-28.57 52.38-12.7 14.29-28.57 25.4-47.62 33.33-19.05 7.93-41.27 11.11-66.67 11.11s-46.03-3.17-65.08-9.52c-19.05-6.35-33.33-15.87-46.03-30.16-12.7-12.7-20.63-30.16-26.98-50.79-6.35-20.63-9.52-44.44-9.52-73.02 0-25.4 3.17-49.21 9.52-68.25 6.35-20.63 15.87-38.1 28.57-52.38 12.7-14.29 28.57-25.4 47.62-33.33 19.05-7.93 41.27-11.11 66.67-11.11 23.81 0 44.44 3.17 63.49 9.52 19.05 6.35 33.33 15.87 46.03 28.57 12.7 12.7 22.22 30.16 28.57 49.21 6.35 23.81 9.52 47.62 9.52 74.6zm-68.25 3.18c0-15.87-1.59-31.75-3.17-46.03-3.17-14.29-6.35-25.4-12.7-34.92-6.35-9.52-14.29-17.46-25.4-22.22-11.11-4.76-23.81-7.94-39.68-7.94-15.87 0-28.57 3.17-39.68 9.52s-19.05 14.29-25.4 23.81c-6.35 9.52-11.11 22.22-14.29 34.92-3.17 12.7-4.76 26.98-4.76 42.86 0 17.46 1.59 33.33 3.17 46.03 3.17 14.29 6.35 25.4 12.7 34.92 6.35 9.52 14.29 17.46 25.4 22.22 11.11 4.76 23.81 7.94 39.68 7.94 15.87 0 28.57-3.17 39.68-9.52s19.05-14.29 25.4-23.81c6.35-9.52 11.11-22.22 14.29-34.92 3.17-12.7 4.76-26.98 4.76-42.86zm419.04-130.16v12.7c0 3.17-1.59 6.35-1.59 7.94-1.59 1.59-1.59 3.17-3.17 4.76-1.59 1.59-3.17 1.59-4.76 1.59l-104.76-.01v255.56c0 1.59 0 3.17-1.59 4.76-1.59 1.59-3.17 1.59-4.76 3.17-3.17 0-6.35 1.59-9.52 1.59h-31.75c-4.76 0-7.94-1.59-9.52-1.59-3.17-1.59-4.76-1.59-4.76-3.17-1.59-1.59-1.59-3.17-1.59-4.76v-287.3c0-6.35 1.59-12.7 4.76-15.87s7.94-4.76 14.29-4.76l150.79-.01c3.17 0 6.35 1.59 7.94 6.35v19.05h-.01zm371.42 68.25c0 17.46-3.17 33.33-7.94 47.62-4.76 14.29-14.29 25.4-23.81 34.92-11.11 9.52-23.81 15.87-39.68 22.22-15.87 4.76-33.33 7.94-53.97 7.94h-26.98v101.59c0 1.59 0 3.17-1.59 4.76-1.59 1.59-3.17 1.59-4.76 3.17-3.17 1.59-6.35 1.59-9.52 1.59h-31.75c-4.76 0-7.94-1.59-9.52-1.59-3.17-1.59-4.76-1.59-4.76-3.17-1.59-1.59-1.59-3.17-1.59-4.76v-284.13c0-7.94 1.59-12.7 6.35-17.46 4.76-3.17 9.52-6.35 15.87-6.35h74.6c7.94 0 14.29 0 22.22 1.59 6.35 0 14.29 1.59 23.81 3.17 9.52 1.58 19.05 4.76 28.57 11.11 9.52 4.76 17.46 11.11 25.4 19.05 6.35 7.94 12.7 17.46 15.87 26.98 1.59 7.94 3.17 19.05 3.17 31.75h.01zm-66.66 4.76c0-11.11-1.59-20.63-6.35-26.98-3.17-7.94-9.52-12.7-14.29-15.87-6.35-3.17-11.11-6.35-17.46-6.35-6.35-1.59-12.7-1.59-19.05-1.59h-26.98v107.94h28.57c11.11 0 19.05-1.59 25.4-4.76 6.35-3.17 12.7-6.35 17.46-11.11 4.76-4.76 7.94-11.11 9.52-17.46 1.59-7.94 3.17-14.29 3.17-23.81l.01-.01zM2709.49 2827c1.59 6.35 3.17 11.11 3.17 14.29 0 3.17 0 6.35-1.59 7.94-1.59 1.59-4.76 3.17-9.52 3.17l-38.09-.01c-4.76 0-7.94 0-11.11-1.59-3.17 0-4.76-1.59-4.76-3.17-1.59-1.59-1.59-3.17-3.17-4.76l-20.63-63.49h-119.06l-20.63 61.9c0 1.59-1.59 4.76-3.17 6.35-1.59 1.59-3.17 3.17-4.76 3.17-1.59 1.59-6.35 1.59-9.52 1.59h-34.94c-4.76 0-7.94-1.59-9.52-3.17-1.59-1.59-1.59-4.76-1.59-7.94 0-3.18 1.59-7.94 3.17-14.29l96.83-280.95c1.59-3.17 1.59-4.76 3.17-6.35 1.59-1.59 3.17-3.17 6.35-3.17 3.17-1.59 6.35-1.59 12.7-1.59h42.86c6.35 0 9.52 1.59 12.7 1.59 3.17 1.59 4.76 1.59 6.35 4.76 1.59 1.59 3.17 4.76 3.17 7.94L2709.49 2827zm-146.03-231.75l-44.44 134.92h88.88l-44.44-134.92zm595.24 88.89c0 17.46-3.17 33.33-7.94 47.62-6.35 14.29-14.29 26.98-25.4 38.1-11.11 11.11-25.4 19.05-41.27 25.4-15.87 6.35-34.92 11.11-57.14 12.7v36.51c0 1.59 0 3.17-1.59 4.76-1.59 1.59-3.17 1.59-4.76 3.17-1.59 0-6.35 1.59-9.52 1.59l-31.75-.01c-4.76 0-7.94-1.59-9.52-1.59-3.17 0-4.76-1.59-4.76-3.17-1.59-1.59-1.59-3.17-1.59-4.76v-36.51c-22.22-1.59-39.68-4.76-57.14-9.52-15.87-4.76-30.16-12.7-41.27-22.22-11.11-9.52-19.05-22.22-25.4-36.51-6.35-14.29-7.94-31.75-7.94-52.38 0-17.46 3.17-31.75 7.94-46.03 6.35-14.29 14.29-26.98 25.4-36.51 11.11-11.11 25.4-19.05 41.27-25.4 15.87-6.35 34.92-11.11 57.14-12.7v-36.51c0-1.59 0-3.17 1.59-4.76 1.59-1.59 3.17-1.59 4.76-3.17 3.17 0 6.35-1.59 9.52-1.59h31.75c4.76 0 7.94 1.59 9.52 1.59 3.17 0 4.76 1.59 4.76 3.17 1.59 1.59 1.59 3.17 1.59 4.76v34.92c22.22 1.59 39.68 4.76 57.14 9.52 15.87 4.76 30.16 12.7 41.27 22.22 11.11 9.52 19.05 22.22 25.4 36.51 4.76 14.29 7.94 31.75 7.94 50.79v.01zm-65.08 1.59c0-9.52-1.59-19.05-3.17-28.57-1.59-7.94-6.35-15.87-11.11-22.22s-12.7-11.11-20.63-15.87c-7.94-3.17-19.05-6.35-31.75-7.94v144.44c12.7-1.59 23.81-4.76 31.75-7.94 7.94-4.76 15.87-9.52 20.63-15.87s9.52-14.29 11.11-22.22c1.59-6.35 3.17-14.29 3.17-23.81zm-130.16-73.02c-12.7 1.59-23.81 4.76-31.75 7.94-7.94 4.76-15.87 9.52-20.63 15.87s-9.52 12.7-11.11 20.63c-3.17 7.94-3.17 15.87-3.17 25.4 0 11.11 1.59 20.63 3.17 28.57 1.58 7.94 6.35 15.87 11.11 22.22s12.7 11.11 20.63 15.87c7.94 4.76 19.05 6.35 31.75 7.94v-144.44zm622.22 230.16c0 1.59 0 3.17-1.59 4.76-1.59 1.59-3.17 1.59-4.76 3.17-3.17 0-6.35 1.59-9.52 1.59h-31.75c-4.76 0-7.94-1.59-9.52-1.59-3.17-1.59-4.76-1.59-4.76-3.17-1.59-1.59-1.59-3.17-1.59-4.76v-201.59c-1.59 1.59-3.17 4.76-4.76 7.94-1.59 3.17-3.17 6.35-6.35 9.52-1.59 3.17-4.76 6.35-6.35 9.52-1.59 3.17-4.76 6.35-6.35 9.52l-109.52 163.49-4.76 4.76c-1.59 1.59-3.17 1.59-4.76 3.17-1.59 0-4.76 1.59-7.94 1.59l-28.57.02c-3.17 0-6.35-1.59-9.52-1.59-1.59-1.59-3.17-1.59-4.76-3.17-1.59-1.59-1.59-3.17-1.59-4.76v-300c0-1.59 0-3.17 1.59-4.76 1.59-1.59 3.17-1.59 4.76-3.17 3.17 0 6.35-1.59 9.52-1.59l31.74-.01c4.76 0 7.94 1.59 9.52 1.59 3.17 1.59 4.76 1.59 4.76 3.17 1.59 1.59 1.59 3.17 1.59 4.76v201.59c3.17-4.76 6.35-11.11 11.11-17.46 4.76-6.35 7.94-14.29 12.7-20.63l109.52-163.49c1.59-1.59 1.59-3.17 3.17-4.76 1.59-1.59 3.17-1.59 4.76-3.17 1.59 0 4.76-1.59 7.94-1.59l26.99-.01c3.17 0 6.35 1.59 9.52 1.59 1.59 1.59 3.17 1.59 4.76 3.17 1.59 1.59 1.59 3.17 1.59 4.76v301.59h3.18zm406.35 0c0 1.59 0 3.17-1.59 4.76-1.59 1.59-3.17 1.59-4.76 3.17-1.59 0-6.35 1.59-9.52 1.59h-31.75c-4.76 0-7.94-1.59-9.52-1.59-3.17-1.59-4.76-1.59-4.76-3.17-1.59-1.59-1.59-3.17-1.59-4.76v-119.05h-23.81c-9.52 0-17.46 1.59-22.22 3.17-4.76 1.59-9.52 4.76-14.29 9.52-4.76 4.76-7.94 9.52-11.11 15.87-3.17 6.35-6.35 12.7-9.52 22.22l-23.81 68.25c-1.59 1.59-1.59 3.17-3.17 4.76-1.59 1.59-3.17 3.17-6.35 3.17-3.17 1.59-6.35 1.59-11.11 1.59l-34.93.02c-4.76 0-7.94-1.59-9.52-1.59-1.59-1.59-3.17-1.59-4.76-3.17 0-1.59-1.59-3.17-1.59-3.17 0-1.59 0-3.17 1.59-6.35 0-3.17 1.59-6.35 3.17-11.11l23.81-61.9c3.17-7.94 6.35-15.87 9.52-20.63 3.17-6.35 6.35-11.11 11.11-15.87s7.94-9.52 12.7-12.7c4.76-3.17 9.52-6.35 14.29-7.94-9.52-3.17-19.05-6.35-26.98-11.11-7.94-4.76-14.29-9.52-19.05-15.87-4.76-6.35-9.52-14.29-12.7-22.22-3.17-7.94-4.76-17.46-4.76-28.57 0-14.29 3.17-26.98 7.94-39.68 4.76-11.11 12.7-22.22 22.22-30.16 9.52-7.94 22.22-14.29 36.51-19.05 14.29-4.76 34.92-6.35 60.32-6.35l77.77-.02c4.76 0 9.52 1.59 12.7 4.76 3.17 3.17 4.76 7.94 4.76 15.87v287.3l4.76.01zm-65.08-258.73h-33.33c-14.29 0-23.81 1.59-31.75 3.17-6.35 1.59-12.7 4.76-17.46 9.52-4.76 4.76-7.94 9.52-9.52 14.29-1.59 6.35-3.17 11.11-3.17 19.05 0 6.35 1.59 12.7 3.17 19.05 1.59 6.35 4.76 11.11 9.52 14.29 4.76 4.76 9.52 7.94 17.46 9.52 6.35 1.59 17.46 3.17 30.16 3.17h34.92v-92.06z"/><path class="fil1" d="M765.06 3592.08c0 66.67-7.94 126.98-25.4 179.37-15.87 52.38-41.27 96.83-74.6 133.33-33.33 36.51-73.02 65.08-122.22 84.13-47.62 19.05-104.76 28.57-168.25 28.57-61.9 0-117.46-7.94-163.49-25.4-46.03-15.87-85.71-41.27-117.46-74.6-31.75-33.33-53.97-76.19-69.84-128.57-15.87-52.38-23.81-112.7-23.81-184.13 0-65.08 7.94-123.81 25.4-176.19 15.87-52.38 41.27-96.83 74.6-133.33 33.33-36.51 73.02-65.08 122.22-84.13 47.62-19.05 104.76-28.57 168.25-28.57 60.32 0 114.29 7.94 161.9 23.81 46.03 15.87 85.71 41.27 117.46 74.6 31.75 33.33 55.56 76.19 71.43 126.98 15.87 53.97 23.81 114.29 23.81 184.13zm-171.43 9.52c0-42.86-3.17-80.95-9.52-115.87s-17.46-65.08-33.33-88.89c-15.87-25.4-36.51-44.44-63.49-57.14-26.98-12.7-60.32-20.63-100-20.63s-73.02 7.94-100 22.22c-26.98 15.87-49.21 34.92-65.08 60.32-15.87 25.4-28.57 55.56-34.92 88.89-6.35 33.33-9.52 69.84-9.52 107.94 0 44.44 3.17 84.13 9.52 119.05s17.46 65.08 33.33 90.48c15.87 25.4 36.51 44.44 63.49 57.14 26.98 12.7 60.32 19.05 100 19.05s73.02-7.94 100-22.22c26.98-14.29 49.21-34.92 65.08-60.32 15.87-25.4 28.57-55.56 34.92-90.48 6.35-34.92 9.52-71.43 9.52-109.52v-.02zm861.9-157.14c0 46.03-6.35 85.71-20.63 120.63-14.29 34.92-34.92 65.08-61.9 88.89-26.98 23.81-60.32 41.27-100 53.97-39.68 12.7-85.71 19.05-138.1 19.05h-66.67v257.14c0 4.76-1.59 7.94-4.76 11.11-3.17 3.17-7.94 6.35-12.7 7.94-6.35 1.59-14.29 3.17-25.4 4.76-9.52 1.59-23.81 1.59-39.68 1.59-15.87 0-28.57 0-39.68-1.59s-19.05-3.17-25.4-4.76c-6.35-1.59-11.11-4.76-12.7-7.94-3.17-3.17-3.17-7.94-3.17-11.11v-723.81c0-19.05 4.76-34.92 15.87-44.44 11.11-9.52 23.81-14.29 39.68-14.29h190.48c19.05 0 38.1 0 53.97 1.59 17.46 1.59 38.1 4.76 61.9 9.52 23.8 4.76 49.21 14.29 73.02 26.98 25.4 12.7 46.03 28.57 63.49 49.21 17.46 19.05 30.16 42.86 39.68 69.84 7.94 23.81 12.7 52.38 12.7 85.71v.01zm-171.43 11.11c0-28.57-4.76-52.38-14.29-69.84-9.52-19.05-22.22-31.75-36.51-41.27-14.29-7.94-30.16-14.29-46.03-15.87-15.87-1.59-33.33-3.17-49.21-3.17l-69.83-.01v274.6h74.61c26.98 0 47.62-3.17 66.67-11.11 17.46-6.35 31.75-17.46 42.86-30.16s19.05-28.57 25.4-46.03c3.17-15.87 6.35-36.51 6.35-57.14h-.02zm885.71 488.89c4.76 14.29 7.94 26.98 9.52 34.92 1.59 7.94 0 15.87-4.76 19.05-4.76 4.76-12.7 6.35-23.81 7.94-11.11 1.59-26.98 1.59-47.62 1.59-20.64 0-38.1 0-49.21-1.59-11.11 0-20.63-1.59-26.98-3.17-6.35-1.59-11.11-4.76-12.7-7.94-3.17-3.17-4.76-7.94-6.35-12.7l-52.37-161.9-303.17-.01-50.79 157.14c-1.59 6.35-3.17 11.11-6.35 14.29-3.17 4.76-6.35 6.35-12.7 9.52-6.35 1.59-14.29 3.17-25.4 4.76-11.11 1.59-25.4 1.59-42.86 1.59-19.05 0-33.33 0-44.44-1.59s-19.05-4.76-22.22-9.52c-4.76-4.76-6.35-11.11-4.76-20.63 1.59-7.94 4.76-20.63 9.52-34.92L1699.98 3227c1.59-6.35 4.76-12.7 7.94-17.46 3.17-4.76 7.94-7.94 15.87-9.52 7.94-1.59 17.46-3.17 30.16-4.76 12.7 0 30.16-1.59 50.79-1.59 23.81 0 44.44 0 58.73 1.59 14.29 0 25.4 1.59 33.33 4.76 7.94 1.59 14.29 6.35 17.46 9.52 3.17 4.76 6.35 11.11 9.52 19.05l246.02 715.87h.01zm-369.83-592.07l-112.7 342.86h225.4l-112.7-342.86zm1111.1 630.16c0 4.76-1.59 7.94-4.76 11.11-3.17 3.17-7.94 6.35-12.7 7.94-6.35 1.59-14.29 3.17-25.4 4.76-9.52 1.59-23.81 1.59-38.1 1.59-15.87 0-30.16 0-39.68-1.59-11.11-1.59-19.05-3.17-25.4-4.76-6.35-1.59-9.52-4.76-12.7-7.94-3.17-3.17-4.76-7.94-4.76-11.11l.01-325.39H2446v325.4c0 4.76-1.59 7.94-3.17 11.11-1.59 3.17-6.35 6.35-12.7 7.94-6.35 1.59-14.29 3.17-25.4 4.76-9.52 1.59-23.81 1.59-39.68 1.59-15.87 0-28.57 0-39.68-1.59s-19.05-3.17-25.4-4.76c-6.35-1.59-11.11-4.76-12.7-7.94-3.17-3.17-4.76-7.94-4.76-11.11v-760.32c0-4.76 1.59-7.94 4.76-11.11 3.17-3.17 7.94-6.35 12.7-7.94 6.35-1.59 14.29-3.17 25.4-4.76 11.11-1.59 23.81-1.59 39.68-1.59 15.87 0 28.57 0 39.68 1.59s19.05 3.17 25.4 4.76c6.35 1.59 11.11 4.76 12.7 7.94 3.17 3.17 3.17 7.94 3.17 11.11v296.83l301.59-.01v-296.83c0-4.76 1.59-7.94 4.76-11.11 3.17-3.17 6.35-6.35 12.7-7.94 6.35-1.59 14.29-3.17 25.4-4.76 11.11-1.59 23.81-1.59 39.68-1.59 15.87 0 28.57 0 38.1 1.59 11.11 1.59 19.05 3.17 25.4 4.76 6.35 1.59 11.11 4.76 12.7 7.94 3.17 3.17 4.76 7.94 4.76 11.11v760.32h-.01zm1111.11 0c0 4.76-1.59 7.94-3.17 11.11-1.59 3.17-6.35 6.35-12.7 7.94-6.35 1.59-14.29 3.17-25.4 4.76-11.11 1.59-25.4 1.59-41.27 1.59-17.46 0-31.75 0-42.86-1.59s-20.63-3.17-26.98-4.76c-6.35-1.59-11.11-4.76-14.29-9.52-3.17-3.17-6.35-7.94-7.94-14.29l-57.14-182.54c-7.94-25.4-15.87-47.62-25.4-65.08-9.52-17.46-19.05-31.75-31.75-41.27-11.11-11.11-25.4-19.05-39.68-22.22-14.29-4.76-31.75-6.35-50.79-6.35h-31.74v322.22c0 4.76-1.59 7.94-3.17 11.11-1.59 3.17-6.35 6.35-12.7 7.94-6.35 1.59-14.29 4.76-25.4 4.76-9.52 1.59-23.81 1.59-38.1 1.59-15.87 0-28.57 0-39.68-1.59s-19.05-3.17-25.4-4.76c-6.35-1.59-9.52-4.76-12.7-7.94-1.59-3.17-3.17-6.35-3.17-11.11v-322.22h-31.74c-20.63 0-38.1 3.17-53.97 7.94-15.87 4.77-28.57 12.7-39.68 23.81s-22.22 25.4-30.16 41.27c-7.94 17.46-17.46 38.1-23.81 61.9l-57.14 182.54c-1.59 6.35-4.76 11.11-7.94 14.29-3.17 4.76-7.94 6.35-14.29 9.52-6.35 1.59-15.87 4.76-26.98 4.76-11.11 1.59-25.4 1.59-42.86 1.59s-31.75 0-42.86-1.59-19.05-3.17-25.4-4.76c-6.35-1.59-11.11-4.76-12.7-7.94-3.17-3.17-3.17-6.35-3.17-11.11v-7.94c0-3.17 1.59-6.35 1.59-9.52 1.59-4.76 3.17-7.94 4.76-14.29 1.59-4.76 4.76-11.11 6.35-19.05l55.56-160.32c11.11-30.16 20.63-55.56 31.75-76.19 11.11-20.63 22.22-38.1 33.33-52.38 11.11-14.29 23.81-25.4 38.1-34.92 14.29-9.52 28.57-17.46 46.03-23.81-14.29-4.76-28.57-11.11-39.68-19.05-12.7-7.94-23.81-19.05-33.33-31.75-11.11-12.7-20.63-30.16-30.16-49.21-9.52-19.05-19.05-42.86-28.57-71.43l-47.62-144.44c-4.76-12.7-7.94-23.81-9.52-31.75-1.59-7.94-3.17-14.29-3.17-19.05 0-4.76 1.59-7.94 3.17-11.11 1.59-3.17 6.35-4.76 12.7-7.94 6.35-1.59 14.29-3.17 25.4-4.76 11.11-1.59 23.81-1.59 41.27-1.59 17.46 0 31.75 0 42.86 1.59s19.05 3.17 25.4 4.76c6.35 1.59 11.11 4.76 12.7 9.52 3.17 3.17 4.76 7.94 6.35 14.29l50.79 169.84c6.35 23.81 14.29 42.86 22.22 60.32 7.94 15.87 17.46 28.57 28.57 39.68 11.11 9.52 23.81 17.46 36.51 22.22 14.29 4.76 30.16 6.35 50.79 6.35l31.73.03v-301.59c0-4.76 1.59-7.94 3.17-11.11 1.59-3.17 6.35-6.35 12.7-7.94 6.35-1.59 14.29-3.17 25.4-4.76 9.52-1.59 23.81-1.59 39.68-1.59 15.87 0 28.57 0 38.1 1.59 11.11 1.59 19.05 3.17 25.4 4.76 6.35 1.59 9.52 4.76 12.7 7.94 3.17 3.17 3.17 6.35 3.17 11.11v301.59H3646c19.05 0 34.92-1.59 49.21-7.94 14.29-4.76 26.98-12.7 38.1-22.22 11.11-11.11 20.63-23.81 28.57-39.68 7.94-15.87 15.87-34.92 22.22-58.73l50.79-169.84c1.59-6.35 3.17-11.11 6.35-14.29 3.17-4.76 7.94-7.94 12.7-9.52 6.35-1.59 14.29-4.76 25.4-4.76 11.11-1.59 25.4-1.59 42.86-1.59 15.87 0 30.16 0 39.68 1.59 11.11 1.59 19.05 3.17 25.4 4.76 6.35 1.59 11.11 4.76 12.7 7.94 1.59 3.17 3.17 6.35 3.17 11.11s-1.59 12.7-3.17 20.63c-1.58 7.93-4.76 19.05-9.52 31.75l-47.62 141.27c-9.52 26.98-19.05 49.21-26.98 68.25-9.52 19.05-19.05 34.92-30.16 47.62-11.11 12.7-22.22 23.81-34.92 31.75-12.7 7.94-26.98 15.87-41.27 22.22 17.46 7.94 33.33 15.87 46.03 25.4 14.29 9.52 26.98 20.63 38.1 34.92 11.11 14.29 22.22 31.75 31.75 52.38 9.52 20.63 20.63 46.03 31.75 76.19l55.56 160.32c3.17 7.94 4.76 14.29 6.35 19.05l4.76 14.29c1.59 4.76 1.59 7.94 1.59 9.52-3.17 4.76-3.17 7.94-3.17 9.52l-.04-.01z"/><path class="fil2" d="M147.6 3100.01v1.59l-1.59 1.59h-19.05c-1.59 0-1.59 0-1.59-1.59l-1.59-1.59-9.52-26.98c-1.59-3.17-3.17-7.94-4.76-9.52-1.59-3.17-3.17-4.76-4.76-6.35-1.59-1.59-3.17-3.17-6.35-3.17-1.59 0-4.76-1.59-7.94-1.59l-4.76-.01v49.21l-1.59 1.59H65.06c-1.59 0-1.59 0-1.59-1.59V2985.72l1.59-1.59 19.04.01c1.59 0 1.59 0 1.59 1.59v46.03h4.76c3.17 0 4.76 0 7.94-1.59 1.59 0 4.76-1.59 6.35-3.17 1.59-1.59 3.17-3.17 4.76-6.35l4.76-9.52 7.94-23.81c0-1.59 0-1.59 1.59-1.59l1.59-1.59h19.04c1.59 0 1.59 0 1.59 1.59v4.76c0 1.59 0 3.17-1.59 4.76l-7.94 20.63c-1.59 3.17-3.17 7.94-4.76 9.52-1.59 3.17-3.17 4.76-4.76 6.35l-4.76 4.76c-1.59 1.59-3.17 1.59-6.35 3.17 3.17 1.59 4.76 1.59 6.35 3.17 1.59 1.59 3.17 3.17 6.35 4.76 1.59 1.59 3.17 4.76 4.76 7.94 1.59 3.17 3.17 6.35 4.76 11.11l9.52 25.4c1.59 3.17 1.59 4.76 1.59 4.76-1.59 1.59-1.59 3.17-1.59 3.17l.01.02zm630.16-57.14c0 9.52-1.59 19.05-3.17 26.98-3.17 7.94-6.35 14.29-11.11 20.63-4.76 4.76-11.11 9.52-17.46 12.7-7.94 3.17-15.87 4.76-25.4 4.76-9.52 0-17.46-1.59-23.81-3.17-6.35-3.17-12.7-6.35-17.46-11.11-4.76-4.76-7.94-11.11-11.11-19.05-1.59-7.94-3.17-17.46-3.17-26.98s1.59-19.05 3.17-25.4c3.17-7.94 6.35-14.29 11.11-19.05 4.76-4.76 11.11-9.52 17.46-12.7 7.94-3.17 15.87-4.76 25.4-4.76 9.52 0 17.46 1.59 23.81 3.17 6.35 3.17 12.7 6.35 17.46 11.11 4.76 4.76 7.94 11.11 11.11 19.05 1.59 4.76 3.17 12.7 3.17 23.81v.01zm-26.99 1.59c0-6.35 0-12.7-1.59-17.46-1.59-4.76-3.17-9.52-4.76-12.7-1.59-3.17-4.76-6.35-9.52-7.94-3.17-1.59-9.52-3.17-14.29-3.17-6.35 0-11.11 1.59-14.29 3.17-4.76 1.59-7.94 4.76-9.52 9.52-3.17 3.17-4.76 7.94-4.76 12.7-1.59 4.76-1.59 11.11-1.59 15.87 0 6.35 0 12.7 1.59 17.46 1.59 4.76 3.17 9.52 4.76 12.7 1.59 3.17 4.76 6.35 9.52 7.94 3.17 1.59 9.52 3.17 14.29 3.17 6.35 0 11.11-1.59 14.29-3.17 4.76-1.59 7.94-4.76 9.52-9.52 3.17-3.17 4.76-7.94 4.76-12.7 1.59-4.76 1.59-11.11 1.59-15.87zm647.62 55.55v1.59l-1.59 1.59h-19.04c-1.59 0-1.59 0-1.59-1.59v-98.41h-44.45v98.41l-1.59 1.59h-19.04c-1.59 0-1.59 0-1.59-1.59v-111.11c0-3.17 0-4.76 1.59-6.35 1.59-1.59 3.17-1.59 4.76-1.59h79.37c1.59 0 3.17 0 4.76 1.59 1.59 1.59 1.59 3.17 1.59 6.35v109.52h-3.18zm631.74 0v1.59l-1.59 1.59h-19.05c-1.59 0-1.59 0-1.59-1.59V3023.82c0 1.59-1.59 1.59-1.59 3.17 0 1.58-1.59 1.59-1.59 3.17 0 1.58-1.59 3.17-3.17 3.17-1.59 1.59-1.59 3.17-3.17 3.17l-41.26 61.9-1.59 1.59-1.59 1.59-17.45.02c-1.59 0-1.59 0-1.59-1.59v-115.87l1.59-1.59h19.04c1.59 0 1.59 0 1.59 1.59v77.78c1.59-1.59 3.17-4.76 4.76-6.35 1.59-3.17 3.17-4.76 4.76-7.94l41.26-61.9 1.59-1.59 1.59-1.59h17.46c1.59 0 1.59 0 1.59 1.59v115.87zm720.63-3.17c0 3.17 0 4.76-1.59 6.35-1.59 1.59-3.17 1.59-4.76 1.59l-130.16-.01c-1.59 0-3.17 0-4.76-1.59-1.59-1.59-1.59-3.17-1.59-6.35v-111.11l1.59-1.59 19.05.01c1.59 0 1.59 0 1.59 1.59v98.41h36.5v-98.42s1.59 0 1.59-1.59l19.05.01c1.59 0 1.59 0 1.59 1.59v98.41h36.5v-98.42s1.59 0 1.59-1.59l19.05.01c1.59 0 1.59 0 1.59 1.59v111.11h3.17zm642.86-53.97c0 9.52-1.59 19.05-3.17 26.98-3.17 7.94-6.35 14.29-11.11 20.63-4.76 4.76-11.11 9.52-17.46 12.7-7.94 3.17-15.87 4.76-25.4 4.76-9.52 0-17.46-1.59-23.81-3.17-6.35-3.17-12.7-6.35-17.46-11.11-4.76-4.76-7.94-11.11-11.11-19.05-1.59-7.94-3.17-17.46-3.17-26.98s1.59-19.05 3.17-25.4c3.17-7.94 6.35-14.29 11.11-19.05 4.76-4.76 11.11-9.52 17.46-12.7 7.94-3.17 15.87-4.76 25.4-4.76 9.52 0 17.46 1.59 23.81 3.17 6.35 3.17 12.7 6.35 17.46 11.11 4.76 4.76 7.94 11.11 11.11 19.05 1.59 4.76 3.17 12.7 3.17 23.81v.01zm-25.4 1.59c0-6.35 0-12.7-1.59-17.46-1.59-4.76-3.17-9.52-4.76-12.7-1.59-3.17-4.76-6.35-9.52-7.94-3.17-1.59-9.52-3.17-14.29-3.17-6.35 0-11.11 1.59-14.29 3.17-4.76 1.59-7.94 4.76-9.52 9.52-3.17 3.17-4.76 7.94-4.76 12.7-1.59 4.76-1.59 11.11-1.59 15.87 0 6.35 0 12.7 1.59 17.46 1.59 4.76 3.17 9.52 4.76 12.7 1.59 3.17 4.76 6.35 9.52 7.94 3.17 1.59 9.52 3.17 14.29 3.17 6.35 0 11.11-1.59 14.29-3.17 4.76-1.59 7.94-4.76 9.52-9.52 3.17-3.17 4.76-7.94 4.76-12.7 0-4.76 1.59-11.11 1.59-15.87zm646.03 55.55v1.59l-1.59 1.59h-19.04c-1.59 0-1.59 0-1.59-1.59v-98.41h-44.44v98.41l-1.59 1.59h-19.05c-1.59 0-1.59 0-1.59-1.59v-111.11c0-3.17 0-4.76 1.59-6.35 1.59-1.59 3.17-1.59 4.76-1.59h79.37c1.59 0 3.17 0 4.76 1.59 1.59 1.59 1.59 3.17 1.59 6.35v109.52h-3.18zM2350.76 3041.28c7.94 0 14.29 6.35 14.29 14.29 0 7.94-6.35 14.29-14.29 14.29a14.23 14.23 0 01-14.29-14.29c-1.59-7.94 6.35-14.29 14.29-14.29z"/></g></g></svg>