<?xml version="1.0" encoding="utf-8"?>
<!-- Generator: Adobe Illustrator 18.0.0, SVG Export Plug-In . SVG Version: 6.00 Build 0)  -->
<!DOCTYPE svg PUBLIC "-//W3C//DTD SVG 1.0//EN" "http://www.w3.org/TR/2001/REC-SVG-20010904/DTD/svg10.dtd">
<svg version="1.0" id="Слой_1" xmlns="http://www.w3.org/2000/svg" xmlns:xlink="http://www.w3.org/1999/xlink" x="0px" y="0px"
	 viewBox="0 0 126 123.5" enable-background="new 0 0 126 123.5" xml:space="preserve">
<g>
	<path fill="#FFFFFF" d="M60.5,0l5.1,0C99,0,126,27.1,126,60.5v2.6c0,33.4-27.1,60.5-60.5,60.5h-5.1C27.1,123.5,0,96.4,0,63.1l0-2.6
		C0,27.1,27.1,0,60.5,0z"/>
	<g>
		<g>
			<path fill-rule="evenodd" clip-rule="evenodd" fill="#FFA300" d="M56.2,51.4L57,99L22.9,64.3C8.7,49.9,55.9,29.9,56.2,51.4
				L56.2,51.4z"/>
		</g>
		<g>
			<path fill-rule="evenodd" clip-rule="evenodd" fill="#FFA300" d="M103.3,55.9L61.6,98.1l1.2-59.4C63.2,14,122.1,36.9,103.3,55.9
				L103.3,55.9z"/>
		</g>
	</g>
</g>
</svg>
