<?xml version="1.0" encoding="utf-8"?>
<!-- Generator: Adobe Illustrator 18.0.0, SVG Export Plug-In . SVG Version: 6.00 Build 0)  -->
<!DOCTYPE svg PUBLIC "-//W3C//DTD SVG 1.0//EN" "http://www.w3.org/TR/2001/REC-SVG-20010904/DTD/svg10.dtd">
<svg version="1.0" id="Слой_1" xmlns="http://www.w3.org/2000/svg" xmlns:xlink="http://www.w3.org/1999/xlink" x="0px" y="0px"
	 viewBox="0 0 126 123.5" enable-background="new 0 0 126 123.5" xml:space="preserve">
<g>
	<path fill="#FFFFFF" d="M60.5,0l5.1,0C99,0,126,27.1,126,60.5v2.6c0,33.4-27.1,60.5-60.5,60.5h-5.1C27.1,123.5,0,96.4,0,63.1l0-2.6
		C0,27.1,27.1,0,60.5,0z"/>
	<g>
		<path fill="#FFA300" d="M94.9,38.6c1.2-1.5,2.2-3.2,3.6-4.5c2.2-2.1,4.8-2.2,7.1-0.2c2.4,2.2,2.4,4.9,0.2,7.2
			c-4.4,4.6-8.9,9.1-13.4,13.6C83.9,63.1,75.4,71.5,66.9,80c-3.7,3.7-5.9,3.7-9.6,0.2c-4.9-4.7-9.7-9.4-14.5-14.2
			c-3-3-3.2-5.9-0.9-8.1c2.2-2.2,5.3-1.8,8.3,1.1c3.8,3.7,7.5,7.6,11.2,11.3c4.9-4.6,9.6-9,14.1-13.3c1.3-1.3,2.4-2.8,3.9-3.8
			c4-2.9,4.3-6.7,3.3-11.2c-14.8,0-29.7,0-44.9,0c0,14.7,0,29.2,0,44c14.9,0,29.8,0,45.3,0c0-4.3,0.2-8.6-0.1-12.9
			c-0.2-3.4,0.7-5.9,3.4-8.1c2.3-1.9,4.3-4,6.8-6.4c0.1,1.1,0.3,1.8,0.3,2.5c0,9.7,0.1,19.3,0,29c0,4.8-1.5,6.3-6.4,6.3
			c-17.7,0.1-35.5,0.1-53.2,0c-5.1,0-6.8-1.7-6.8-6.9c-0.1-17-0.1-34,0-51c0-5.4,1.9-7.1,7.4-7.2c17.1,0,34.2,0,51.2,0
			C91.3,31.3,92.5,32.3,94.9,38.6z"/>
	</g>
</g>
</svg>
