<?xml version="1.0" encoding="utf-8"?>
<!-- Generator: Adobe Illustrator 18.0.0, SVG Export Plug-In . SVG Version: 6.00 Build 0)  -->
<!DOCTYPE svg PUBLIC "-//W3C//DTD SVG 1.0//EN" "http://www.w3.org/TR/2001/REC-SVG-20010904/DTD/svg10.dtd">
<svg version="1.0" id="Слой_1" xmlns="http://www.w3.org/2000/svg" xmlns:xlink="http://www.w3.org/1999/xlink" x="0px" y="0px"
	 viewBox="0 0 126 123.5" enable-background="new 0 0 126 123.5" xml:space="preserve">
<g>
	<path fill="#FFFFFF" d="M60.5,0l5.1,0C99,0,126,27.1,126,60.5v2.6c0,33.4-27.1,60.5-60.5,60.5h-5.1C27.1,123.5,0,96.4,0,63.1l0-2.6
		C0,27.1,27.1,0,60.5,0z"/>
	<g>
		<path fill="#FFA300" d="M51.5,14.8c1,0.6,2.1,1,3,1.7c2.1,1.6,2.9,3.8,2.9,6.4c0,0.6,0.2,0.8,0.7,0.7c0.6,0,1.1,0,1.7,0
			c1.5,0.1,2.4,0.9,2.5,2.4c0.1,0.7,0.3,0.8,1,0.8c2.4,0,4.9,0,7.3,0c2.1,0,4,0.5,5.5,1.9c1.3,1.2,2.2,2.6,2.3,4.3
			c0.1,2.7,0.1,5.5,0.1,8.2c0,2,0,4.1,0,6.1c0,0.3-0.1,0.8-0.3,1c-1.9,2.1-3.8,4.2-5.8,6.3c-0.1,0.1-0.1,0.1-0.4,0.3
			c0-0.4,0-0.7,0-0.9c0-5.6,0-11.1,0-16.7c0-1.9-1.1-3.4-2.8-3.9c-0.4-0.1-0.8-0.2-1.3-0.2c-1.6,0-3.3,0-4.9,0
			c-0.5,0-0.8,0.1-0.7,0.7c0,0.9,0,1.8,0,2.7c0,1.8-1.1,2.9-3,2.9c-6.7,0-13.4,0-20.1,0c-1.9,0-3-1.1-3-2.9c0-0.8-0.1-1.7,0-2.5
			c0.1-0.7-0.2-0.9-0.9-0.9c-1.5,0-3,0-4.5,0c-2.7,0-4.4,1.6-4.4,4.3c0,5.8,0,11.7,0,17.5c0,9.3,0,18.7,0,28c0,1.7,0.5,3.2,2.1,3.9
			c0.7,0.3,1.5,0.4,2.3,0.5c3.9,0,7.9,0,11.8,0c0.3,0,0.6,0,0.9,0c-0.1,0.5-0.2,0.9-0.3,1.4c-0.5,1.5-0.9,3.1-1.4,4.6
			c-0.1,0.4-0.3,0.5-0.8,0.5c-4.5,0-9.1,0-13.6,0c-2.6,0-4.7-1-6.3-3c-1-1.4-1.4-2.9-1.4-4.6c0-6.9,0-13.8,0-20.7
			c0-10.4,0-20.7,0-31.1c0-1.9,0.4-3.7,1.8-5.2c1.2-1.4,2.7-2.3,4.6-2.4c3-0.1,6-0.1,9-0.1c0.3,0,0.6,0,1,0c0.1-0.4,0.1-0.7,0.2-1.1
			c0.2-1.1,1-1.9,2.1-2c0.7-0.1,1.5-0.1,2.2-0.1c0.4,0,0.6-0.1,0.6-0.6c-0.2-3.8,2.1-7,5.6-8.1c0.1,0,0.1-0.1,0.2-0.2
			C48.5,14.8,50,14.8,51.5,14.8z M49.3,23.6c0.8,0,1.7,0,2.5,0c0.2,0,0.6-0.3,0.6-0.5c0.3-1.1-0.3-2.5-1.4-3.2
			c-1-0.7-2.5-0.7-3.5-0.1c-1.1,0.7-1.7,2.1-1.5,3.2c0.1,0.4,0.3,0.6,0.7,0.6C47.6,23.6,48.5,23.6,49.3,23.6z"/>
		<path fill="#FFA300" d="M43.4,110.3c-1.5-0.9-1.8-1.5-1.3-3.2c1.8-6.1,3.6-12.3,5.4-18.4c0-0.2,0.1-0.3,0.2-0.6
			c5.4,4.8,10.8,9.5,16.3,14.3c-1.1,0.4-2,0.8-3,1.2c-4,1.6-8,3.2-12.1,4.9c-1.5,0.6-3,1.2-4.5,1.9
			C44.2,110.3,43.8,110.3,43.4,110.3z M49.4,93.1c-0.1,0.1-0.2,0.2-0.2,0.2c-0.7,2.3-1.4,4.6-2,6.9c-0.1,0.2,0.1,0.5,0.3,0.7
			c1.1,1,2.3,2,3.5,3.1c0.4,0.3,0.6,0.4,1.1,0.2c1.4-0.6,2.8-1.1,4.2-1.7c0.8-0.3,1.7-0.7,2.6-1.1C55.5,98.6,52.5,95.9,49.4,93.1z"
			/>
		<path fill="#FFA300" d="M49.7,85.8c11.6-12.6,23.1-25.2,34.7-37.9c0.8,0.7,1.7,1.4,2.5,2.1c4.5,3.9,8.9,7.9,13.4,11.8
			c0.4,0.4,0.4,0.6,0,1c-3.9,4.3-7.9,8.6-11.8,12.9C83.8,80.8,79,86,74.3,91.1c-2.6,2.9-5.2,5.7-7.8,8.6c-0.1,0.1-0.2,0.3-0.3,0.5
			C60.6,95.4,55.2,90.6,49.7,85.8z M57.8,85.3c0,0.5,0.4,1.2,1.2,1.5c0.7,0.3,1.6,0.2,2.2-0.4c0.4-0.4,0.8-0.9,1.2-1.3
			c2.5-2.7,4.9-5.4,7.4-8.1c2.7-3,5.5-6,8.2-9c0.8-0.8,1.5-1.7,2.2-2.6c0.5-0.7,0.2-1.8-0.4-2.3c-0.8-0.7-1.8-0.8-2.5-0.1
			c-0.9,0.8-1.7,1.7-2.5,2.6c-2.5,2.7-4.9,5.4-7.4,8c-2.7,3-5.5,6-8.2,9C58.5,83.4,57.8,84,57.8,85.3z M84.5,60.2
			c0.3-0.2,0.9-0.4,1.3-0.8c0.4-0.3,0.7-0.7,1-1.1c1-1.2,1-1.2-0.1-2.3c-1.1-1-2.3-1-3.2,0c-0.2,0.2-0.4,0.4-0.6,0.7
			c-0.5,0.6-0.9,1.3-0.5,2.2C82.7,59.6,83.3,60.1,84.5,60.2z"/>
		<path fill="#FFA300" d="M49.4,57.2c4.7,0,9.4,0,14.1,0c1.6,0,2.9,0.5,3.5,2c0.3,0.6,0.3,1.2-0.3,1.7c-0.7,0.7-1.3,1.5-2.1,2.2
			c-0.3,0.3-0.7,0.5-1.1,0.5c-9.6,0-19.2,0-28.7,0c-1.4,0-2.4-0.5-3.1-1.7c-0.6-1.2-0.5-2.3,0.2-3.4c0.7-1.1,1.8-1.4,3.1-1.4
			C39.9,57.2,44.6,57.2,49.4,57.2z"/>
		<path fill="#FFA300" d="M49.4,53c-4.8,0-9.5,0-14.3,0c-1.8,0-2.9-0.7-3.4-2.2c-0.7-1.9,0.6-3.9,2.6-4.2c0.3,0,0.7-0.1,1-0.1
			c9.4,0,18.9,0,28.3,0c1.3,0,2.4,0.3,3.2,1.4c1.4,1.9,0.2,4.7-2.2,5C64.1,53,63.7,53,63.3,53C58.6,53,54,53,49.4,53z"/>
		<path fill="#FFA300" d="M114.7,45.6c0,1.1-0.5,2.1-1.3,2.9c-1.7,1.8-3.4,3.7-5.1,5.5c-0.4,0.4-0.6,0.3-1,0
			c-2.7-2.4-5.4-4.8-8.1-7.1c-2.4-2.1-4.8-4.2-7.2-6.3c-0.4-0.3-0.5-0.6-0.1-1c1.6-1.7,3.3-3.4,4.8-5.2c1.7-2.1,4.6-2.8,7.3-0.3
			c3,2.8,6.2,5.5,9.3,8.2C114.2,43.1,114.7,44.2,114.7,45.6z M107.5,48.5c0.9-1,1.6-1.8,2.5-2.7c0.4-0.4,0.3-0.6-0.1-1
			c-1.5-1.3-2.9-2.6-4.4-3.8c-1.5-1.3-3.1-2.7-4.6-4c-0.1-0.1-0.5-0.2-0.6-0.1c-0.9,0.9-1.7,1.9-2.7,2.9
			C100.9,42.7,104.2,45.6,107.5,48.5z"/>
		<path fill="#FFA300" d="M60.4,67.9c-0.9,1-1.7,1.9-2.6,2.8c-0.9,1-1.8,2.1-2.8,3c-0.2,0.2-0.6,0.4-0.9,0.4c-6.4,0-12.8,0-19.2,0
			c-1.6,0-2.8-0.9-3.2-2.2c-0.4-1.3,0-2.7,1.1-3.5c0.6-0.4,1.4-0.7,2.1-0.7c8.3,0,16.7,0,25,0C60,67.8,60.1,67.8,60.4,67.9z"/>
		<path fill="#FFA300" d="M106.4,56.2c-1.4,1.5-2.7,2.9-4,4.4c-0.9-0.8-1.7-1.5-2.5-2.2c-4.1-3.6-8.2-7.2-12.3-10.8
			c-0.4-0.3-0.8-0.7-1.2-1c-0.3-0.2-0.3-0.5,0-0.7c1.1-1.2,2.2-2.4,3.3-3.6c0.3-0.4,0.5-0.2,0.8,0c1.7,1.5,3.3,2.9,5,4.4
			c3.4,2.9,6.7,5.9,10.1,8.9C105.8,55.6,106,55.9,106.4,56.2z"/>
	</g>
</g>
</svg>
