<?xml version="1.0" encoding="utf-8"?>
<!-- Generator: Adobe Illustrator 18.0.0, SVG Export Plug-In . SVG Version: 6.00 Build 0)  -->
<!DOCTYPE svg PUBLIC "-//W3C//DTD SVG 1.0//EN" "http://www.w3.org/TR/2001/REC-SVG-20010904/DTD/svg10.dtd">
<svg version="1.0" id="Слой_1" xmlns="http://www.w3.org/2000/svg" xmlns:xlink="http://www.w3.org/1999/xlink" x="0px" y="0px"
	 viewBox="0 0 126 123.5" enable-background="new 0 0 126 123.5" xml:space="preserve">
<g>
	<path fill="#FFFFFF" d="M60.5,0l5.1,0C99,0,126,27.1,126,60.5v2.6c0,33.4-27.1,60.5-60.5,60.5h-5.1C27.1,123.5,0,96.4,0,63.1l0-2.6
		C0,27.1,27.1,0,60.5,0z"/>
	<g>
		<path fill-rule="evenodd" clip-rule="evenodd" fill="#FFA300" d="M69.3,45.7c-0.5-2.3,0.9-5.2,1.8-6.7c1.7-2.8,5-8.6,8.3-9.1
			c2.5-0.4,4.5,1.9,5.7,2.9c1.8,1.5,3,2.4,4.4,4.4c4.4,6.3,4.7,13.4,2.3,20.5c-2.8,8.4-8.9,15.7-13.8,21
			c-8.2,8.8-21.8,19.1-35.7,13.1c-2-0.9-3.9-2.2-5.3-3.5c-1.3-1.3-3.5-2.6-4.2-4.5c-1.1-3.1,2.7-6.4,4.8-8.1c2.3-1.8,4.8-4.4,7.9-5
			c5.4-1.1,8.2,4.9,11.1,6.1c2.4,0.9,5-0.4,6.5-1.4C67.9,72.3,79,61,77.3,55C76.4,51.7,70.2,50.5,69.3,45.7L69.3,45.7z"/>
	</g>
</g>
</svg>
