<?xml version="1.0" encoding="utf-8"?>
<!-- Generator: Adobe Illustrator 18.0.0, SVG Export Plug-In . SVG Version: 6.00 Build 0)  -->
<!DOCTYPE svg PUBLIC "-//W3C//DTD SVG 1.0//EN" "http://www.w3.org/TR/2001/REC-SVG-20010904/DTD/svg10.dtd">
<svg version="1.0" id="Слой_1" xmlns="http://www.w3.org/2000/svg" xmlns:xlink="http://www.w3.org/1999/xlink" x="0px" y="0px"
	 viewBox="0 0 126 123.5" enable-background="new 0 0 126 123.5" xml:space="preserve">
<g>
	<path fill="#FFFFFF" d="M60.5,0l5.1,0C99,0,126,27.1,126,60.5v2.6c0,33.4-27.1,60.5-60.5,60.5h-5.1C27.1,123.5,0,96.4,0,63.1l0-2.6
		C0,27.1,27.1,0,60.5,0z"/>
	<g>
		<g>
			<path fill-rule="evenodd" clip-rule="evenodd" fill="#FFA300" d="M31.2,78.7c0.8-0.6,1.4-1.2,2.2-1.9
				c1.3-1.1,15.2-13.2,15.5-13.2c0.4-0.1,8.9,7.5,9.6,8.1c2.9,2.5,6,2.5,9,0l6.3-5.4c3.9-3.3,2.7-3.2,5.5-0.8l13.2,11.3
				c0.8,0.7,1.5,1.3,2.3,1.9c-0.2,3.2-2,5.2-5.1,5.2H36.3C33.2,83.9,31.6,82,31.2,78.7L31.2,78.7z M79.1,61.8
				c0.3-0.4,10.8-9.3,11.7-10.1c0.5-0.4,3.6-3.2,4-3.4v27c-0.6-0.2-12.4-10.6-13.8-11.7C80.6,63.2,79.3,62.2,79.1,61.8L79.1,61.8z
				 M31.2,75.2v-27c0.6,0.2,7.5,6.3,7.9,6.7c1.3,1.1,2.6,2.2,3.9,3.4l3.9,3.4c-0.3,0.5-12.3,10.6-13.7,11.8
				C32.8,74,31.6,75.1,31.2,75.2L31.2,75.2z M36.3,39.7h53.4c3.1,0,4.9,2,5.1,5.2c-1.3,1-2.6,2.2-3.9,3.3L67.5,68.2
				c-4.2,3.6-4.9,3.6-9.1,0L35.1,48.2c-1.3-1.1-2.6-2.3-3.9-3.3C31.4,41.6,33.2,39.7,36.3,39.7L36.3,39.7z M26.6,44.2v35.1
				c0,4.9,4.2,9.7,8.5,9.7h55.7c4.3,0,8.5-4.8,8.5-9.7V44.2c0-4.9-4.2-9.8-8.5-9.8H35.2C30.9,34.5,26.6,39.3,26.6,44.2L26.6,44.2z"
				/>
			<path fill="#FFA300" d="M90.9,91.5H35.2c-5.7,0-11-5.9-11-12.2V44.2c0-6.3,5.3-12.2,11-12.2h55.7c5.6,0,11,5.9,11,12.2v35.1
				C101.9,85.6,96.5,91.5,90.9,91.5z M31.3,84.6c1.1,1.2,2.5,2,3.9,2h55.7c1.3,0,2.7-0.8,3.8-1.9c-1.3,1.1-3,1.7-4.9,1.7H36.3
				C34.3,86.3,32.6,85.7,31.3,84.6z M33.9,79.6c0.5,1.6,1.4,1.7,2.4,1.7h53.4c0.6,0,1.9,0,2.4-1.7c-0.2-0.2-0.4-0.4-0.7-0.6
				l-0.6-0.5L77.7,67.3c-0.3-0.2-0.5-0.4-0.7-0.6c0,0,0,0,0,0c-0.4,0.4-0.9,0.8-1.5,1.4l-6.3,5.4c-3.9,3.3-8.3,3.3-12.2,0
				c-0.1-0.1-0.5-0.4-1-0.9c-3.3-2.9-5.6-4.9-6.9-6c-2.8,2.3-8.9,7.6-11.6,9.9c-1.2,1.1-2.1,1.8-2.4,2.1l-0.5,0.5
				C34.3,79.3,34.1,79.5,33.9,79.6z M82.7,61.8c0.3,0.3,1.1,1,2.1,1.9c1.6,1.4,4.9,4.2,7.5,6.4V53.5C90.2,55.4,85.4,59.4,82.7,61.8z
				 M33.7,53.5V70c3.8-3.2,7.4-6.3,9.6-8.2l-5.7-5c-0.1,0-0.4-0.3-0.9-0.8C35.5,55.1,34.5,54.2,33.7,53.5z M33.9,43.8
				c0.5,0.4,1,0.9,1.6,1.3c0.4,0.4,0.9,0.7,1.3,1.1l23.4,20.1c1.6,1.4,2.6,2.1,2.9,2.1s1.3-0.7,2.9-2.1l23.4-20.1
				c0.4-0.4,0.9-0.8,1.3-1.1c0.5-0.4,1-0.9,1.6-1.3c-0.5-1.7-1.8-1.7-2.4-1.7H36.3C35.7,42.1,34.4,42.1,33.9,43.8z M36.3,37.2h53.4
				c2,0,3.7,0.6,5,1.7c-1.1-1.2-2.5-2-3.8-2H35.2c-1.3,0-2.7,0.8-3.8,2C32.6,37.8,34.3,37.2,36.3,37.2z"/>
		</g>
	</g>
</g>
</svg>
