<svg version="1.1" id="Слой_1" xmlns="http://www.w3.org/2000/svg" x="0" y="0" viewBox="0 0 201 164.5" xml:space="preserve"><style>.st0{fill:#232020}.st1{fill:#e7383e}.st2{fill:#e41b21}</style><path class="st0" d="M111.4 68.8c3.2 2.7 4.8 6.7 4.8 12.1 0 5.6-1.6 9.7-4.8 12.3-2.5 2.1-6.1 3.1-10.7 3.1H87.3v-31h13.3c4.5.1 8.1 1.2 10.8 3.5zM110 91.6c2.7-2.2 4.1-5.8 4.1-10.7 0-4.7-1.3-8.2-4-10.5-2.3-1.9-5.4-2.9-9.3-2.9H89.4c-.2 0-.3.1-.3.4v26c0 .2.1.4.3.4h11.3c4-.1 7.1-1 9.3-2.7zM107.8 73c1.9 1.6 2.8 4.2 2.8 7.9 0 3.5-.8 6.1-2.3 7.6-1.5 1.5-4.1 2.3-7.6 2.3h-7.5c-.2 0-.4-.1-.4-.4V71.3c0-.2.1-.3.4-.3h7.5c3.1 0 5.5.6 7.1 2zm-7.2 16.3c1.6 0 2.9-.1 4-.4 1.1-.3 1.9-.7 2.6-1.4.7-.7 1.1-1.5 1.4-2.6.3-1.1.4-2.4.4-3.9 0-3.2-.7-5.5-2.2-6.7-1.4-1.1-3.4-1.7-6.2-1.7h-5.9c-.2 0-.4.1-.4.4v16.1c0 .2.1.4.4.4h5.9zM138.9 85.3v-3.7l15.4-19.2c1.1-1.4 2.1-2.5 3.1-3.6h-16.7v-3.5h21.5v3.5l-15.6 20.1h16.1v6.4h-23.8zm23.7-14.2v-1.7h-19.9L150 61v-1.3h-9.3v1.6h6.8l-7.3 8.3v1.6h22.4z"/><path class="st0" d="M103.3 109.4l-5.3 6.5c-.7 3.4-1.3 9.2-1.6 17.3-.1.5-.3-.8-.7-3.9-.3-3.3-.6-4.9-.7-4.9 0 0-.1.3-.1.7 0 .7 0 2.6.1 5.8 0 1.1.2 2.3.6 3.7.4 1.6.6 2.8.7 3.6.2 2.1.4-20.9.4-15.9.5 0 4.7.4 12.5 1.1 7.4.7 11.7 1.1 12.8 1.2.2 0-1.2 0-4.4.1-3.8 0-5.5.2-5.1.5l5.2 1.4c.2.3-1.2.6-4.3.8-3.4.3-5.2.5-5.4.6-.2.1.3.3 1.7.4 1.2 0 2.4.1 3.7.2 1.2.1 1.7.1 1.3.2-1 .2-2.9.3-5.6.1-2.9-.1-4.9-.1-5.9.1-.5 0 1.5.5 6 1.5l-10.6-.1c-.1.1-.5.1-1 0s-.8-.2-.8-.1l.1 3.5c.2 1.4.4 3.8.7 7 0 .8.1 2.5.3 5 .1 2.1.2 3.5.2 4-.1 1.8-.4 3.6-.8 5.5 0 .2-.6.4-1.8.7-.6.1-1.1.2-1.5.2-.2 0-.4 0-.5-.1-.2 0-.7.1-1.3.4-.6.3-1.1.4-1.4.3-1.8-.8-2.6-1.5-2.6-2.3-.1-.1-.1-.3-.1-.4 0-.3.2-.8.5-1.6s.5-1.3.5-1.6c.2-1.8 0-3.3-.7-4.3-1-1.8-1.6-2.7-1.7-2.8-.8-1.1-2-2.3-3.5-3.4-.8-.7-2.3-1.7-4.3-3.2-.5-.3-1.5-.8-3-1.5-.8-.3-1.8-.6-3.1-.8-1.8-.3-2.8-.5-3.2-.5 0 3.8-.1 6.8-.3 9.1-.2 2.2-.4 4.5-.4 6.8.1 0-.1 2.4-.7 7-.5 4.4-.8 6.8-.9 7.2 0 .2-.3-2.9-.7-9.4 0 5-.2 7.5-.5 7.5l-1-4c-.9.1-1.9.5-2.9 1.1-.1 0-.4-.3-.9-.8-.4-.5-.7-2.3-.7-5.5v-6.2c-.1-.9 0-2.8.4-5.7V136c-.1-.1-.1-.5 0-1.2s.2-1 .1-1c-1 0-2.4.1-4.2.4-2.1.3-3.4.5-4.1.5-2.6.2-3.9-.7-3.9-2.6 0-1.3 1.1-3.9 3.2-7.8.1-.2.1-.4.1-.7 0-.5-.4-1.5-1.1-3-.8-1.5-1.1-2.8-1.1-3.6 0-.7.2-1.4.7-2 2.8.3 6.6 1.6 11.2 3.9-.1.2 0-1.3.4-4.5.1-1.1.2-2.9.2-5.3 0-2.8-.1-6.9-.3-12.4-.2-5.5-.3-8.6-.3-9.4 0-.1-.7-1.4-2.1-3.9-.4-.7-.6-1.4-.7-2.1 0-.6.4-1 1.3-1h.7c2.8 0 5.6.6 8.3 1.9 1.3.6 2.4 1.3 3.2 2.2 1.5 1.6 2.2 2.6 2 3.2l-1.5 3.5c-.5.6-1.2 2-2.1 4-.2 2.9-.6 7.8-1.1 14.5-.4 5.8-.4 9.2.1 10.4 1 0 3.1.2 6.4.5.3 0 1.1.2 2.3.6.9.2 1.6.3 2.2.3.6 0 1.6.1 3.1.3 1.5.3 2.5.4 2.9.3.4-.1 1.1 0 2.1.1.8.1 1.3.1 1.6-.1l.8-5.4c.1-2.7.1 18.9 0 11.6-.2-4.1-.5-7-.7-8.9-.6-3.5-1.2-6.9-1.8-10.4-.1.1-.2.1-.4.1-.5 0-1-.5-1.6-1.5-.6-1-.9-2-.9-2.9 0-.5.1-1 .4-1.3 1.3-1.6 2.3-2.5 2.9-2.6l4-1.2c.7-.2 2.3-.4 4.8-.6 2.4-.2 3.8-.2 4.2-.1 1 .5 1.9 1.6 2.6 3.5.5 1.1.5 2.4.1 4-.1.6-.5 1.2-1.1 1.9-.3.8-.6 1.1-.6 1.2zm-13.2 21.9l-.4-.3c-.1-.3-1-.4-2.5-.4-1.2-.1-2-.1-2.3-.1-.8 0-1.5.1-2.3.1l-6.2 1 6.2 3.8c.6 0 1.8 1.1 3.7 3.2 2 2.3 3.2 4.2 3.8 5.7 0 0-.1-.5-.1-1.5 0-1.1 0-1.7.1-1.8.1 0 0-1.3-.4-3.9l.2-3.4.2-2.4z"/><path class="st1" d="M116.1 58.5c.2.1.2-.2.3-.3-.4 0-.4.4-.3.3zM112.8 57.9l.1-.1-.5.1zM110.1 56.7c0 .6 1 .3 1.4.7v.2l.4-.3c-.6-.2-1.5-.2-1.8-.6zM109.1 55c0 .2-.4 0 .3.2v-.1c-.1 0-.2-.1-.3-.1zM109.4 55.1c.3.1-.1-.3 0 0zM108 54.6h.5c0-.2-.4-.3-.2-.4-.5 0-.5.1-.3.4zM107.4 54.9h.2c.1-.1 0-.1-.2 0zM108.2 54.9h-.5c0 .1 0 .3.2 0-.1.1 0 0 .3 0zM108.4 55.1c.2.2.4.4 0 .4.7.2.7-.2 0-.4zM109.7 57.2l.2.3.3-.1c-.1.1-.4-.4-.5-.2zM105.7 53.4c-.1.1 0 .4 0 .5h.3c-.1-.2-.4-.3-.3-.5zM105.7 53.9h-.5c.3.2.4.1.5 0zM107.1 55.4l.9-.1-1 .1zM104.1 52.7l.3-.1-.5.2zM103.1 52.3c.3-.1 0-.5.2-.5-.3-.1-.6 0-.8.1.2 0 .4.1.6.4zM102 52c.1 0 .3 0 .4-.1-.1 0-.2 0-.4.1zM104.5 53.6c0-.1 0-.3-.2-.5v.4c.1 0 .1.1.2.1zM104.3 53.5c-.2-.1-.3-.2-.3-.2 0 .1.1.1.3.2zM104.5 53.6zM106.1 54.7c-.3.1-.9.1-.5.5.3-.1.1-.4.5-.5zM104.5 54.1l.4.3c0-.1 0-.2.2-.3h-.6zM104.3 54.1h.2l-.1-.1zM102.5 52.6c-.2.1-.4 0-.6-.1.2.2.4.3.6.4.1-.1.3-.2 0-.3zM103.4 53.1c-.1 0-.1 0 0 0zM99.9 51.3zM102.5 53c.1.1.3.1.4.1-.1-.1-.2-.1-.4-.1zM101.4 51.8c0 .1.1.2.2.3 0-.1-.1-.4-.2-.3zM103.3 53c0-.1 0-.1 0 0zM103.3 53c-.1 0-.2.1-.3.1h.3V53zM98 52.7c.2-.2.8-.2 1 .4.5.1.8-1 .8-1.7-.1.1-.2.2-.6.1 0 .2.6.9.1.9-.6-.2-.4-.4-.5-.7 0 .5-1 0-1.2.6l.6.2s-.3 0-.2.2zM100.6 51.8l.2.1c-.1-.1-.2-.3-.3-.7-.3 0-.5 0-.5.1l.6.5zM101.5 52.3c-.3.2-.7.1-.7.6.5.3.5-.1.8 0-.8-.4.3-.1-.1-.6.2.1.3.1.4.2l-.3-.3c0 .1 0 .1 0 0l-.1.1c0-.1 0 0 0 0-.2-.2 0-.1 0 0l.1-.1-.8-.3c.1.1.3.2.7.4zM104.9 55.7c-.1 0-.1 0 0 0zM104.6 55.4c.1 0 .2-.1.4 0 .1.2-.1.2-.1.3.2 0 .5-.1.2-.4h-.1c-.3-.3-.6-.8-.5-.9 0 .4 0 .6.1 1zM102.9 54l-.8-.2.2.4.1-.2c.3.3.4.1.5 0zM99.9 51.1l.3-.3-.6.2zM99.1 50.5l.2-.2H99zM48.9 65.1l-.2.2.2-.2zM50.4 64.5v-.2c-.1.1-.1.2 0 .2zM76 47.4c-.4-.1-1-.3-.8 0l.3.3c.2-.2.4-.3.5-.3zM62 57.1l.1.1c0-.1 0-.3.1-.4-.1.1-.1.2-.2.3zM62.4 58.6h-.5.5zM40.8 69.1l-.1.4c.3-.1.1-.2.1-.4zM90.8 44.4c-.1-.3-.3-.5-.4-.6.1.4.2.8.4.6zM48 61.4c-.1.1-.1.2-.1.3.1-.1.1-.2.1-.3zM89.6 43.3c0 .1.1.1.1.2.2.1.4.2.6.4 0-.3-.3-.6-.7-.6zM12 84c-.1 0-.1 0 0 0-.1.1-.1 0 0 0zM2.2 86.9l.3-.3c-.1 0-.2.1-.3.3zM96 48c.2.1 0 0 0 0zM96 49.8c-.1 0-.1 0-.2.1.1-.1.1-.1.2-.1zM86.5 44.2c0 .1 0 .1 0 0zM96.1 48.4c0-.1-.1-.2-.2-.2.1 0 .1 0 .2.2zM96.2 48.2l.1.1c.1 0 .1 0-.1-.1zM95.7 47.9c.1.1.2.2.3.2V48c-.1 0-.1 0-.3-.1zM26.5 74.5c-.2.2-.1.1 0 0zM73 53.3zM72.4 53.9c.1-.5.3-.6.5-.6l-.7-.8.2 1.4z"/><path class="st1" d="M45.3 66.8l.6.1c-.4.7-.9.8-.2 1-.4-1 1.9-1 1.5-2l.4.1c-.1 0-.1.1-.2.1.8.2.2-.9 1-1.2.3 0 .6 0 .4.2l.5-.5c.2-.1.2.1 0 .2l.9-.5.4-.8c.3 0-.1.2 0 .3l.4-.5c.3.2 0 .6-.4.7.9.8.3-.4 1.7-.3l-.2.3c.6.4.9 0 1.6.1-.2-.1-1.5-.4-1.1-.9.2 0 .4-.1.7-.4.2.4.4.1.8-.1l.2.5c.4-.3.2-.5.4-.9.5-.2.7.2 1 .4.8-.3-.8-.4.1-.8.7-.1 1-.5 1.7-1.1.5 0 .1.3.3.4l.2-.5c.1 0 .1.1.1.2.3-.3-.2-.5.3-.8-.1-.6 1.4.3 1.7-.6.2.1.1.3.2.5.7-.8.6-.6 1.1-1.5h.7c-.6-.1-.2-.8.1-1.4-.2-.1-.4-.2-.6-.2l.7-.6c.1 0 .1.2.1.5 0-.1.1-.1.1-.2.4 0 .3.4.3.7-.1-.1-.3-.1-.4-.2-.1.4-.1.8.1 1 0-.1.1-.2.2-.2v.2s.1-.1.2-.3l.4.4-.3-.1 1.2-.2c.5-.9.7-2 1.8-2.7-.1.5.2.6.5 1.1-.6-.3-.8.6-1.4.8.3-.1.4.1.3.3l.9-1c.2.4.4.2.7.2-.6-.6.6-.9.9-1.3.1.2.2.5-.4.7.9.3.3-1.2 1.1-1-.1.1-.2.1-.2.2.2-.4 1-.6.9-.3l-.2.1c.9-.4 2.6-1.4 2.4-2 .1.1.3.8.3.9l.4-2.8c.1.6 1.3 1.6.8 2.2.2 0 .5-.1.9-.5-.2 0-.8-.6-.6-.7.8.3.5.1 1.4.2-.3 0-.5-.9-.2-1.1 0 .1.5.8.4.9l.4-1.2c-.1.3.3.7.7.8-.2-.1.7-.4.9-.6h-.4c1-.4.2-1.6 1.2-2.1 0 .2.3 1.1.8 1 0-.5-.2-2.5.3-3.2l.2.2.4-.6c0 .8-.2 2.7-.5 3.6.4 0 .3.2.7-.1.3.1-.1.5-.2.6l1.2-.6c-.3-.4.6-1 .3-1.4l-1 1.3c-.3-.4-.1-1.8.8-2.2.3.1.4.9.5 1.1 0-.2.6-.8.7-.7l-.2.5c.6-.1.4-1.1 1.2-1 .2-.1.9.2.8-.1-.7-.3-1.8-1.9-1.8-2.4.1 0 1.3-.1 1.7 0 .6.2.2 1.3.7 1.5-.1-.1 0-.4 0-.5.2 0 .2.4.5.2-.2-.5.8-.3 0-.5.3-.3.5-.1.8-.2-.1-.2-.1-.5 0-.8.1-.3.5-.6.7-.6 0 .1.1.3.1.4 1 .2 1.3.8 2 1.3 0 .2.2.6 0 .6.2 0 .4-.1.6.1.2.7-.6-.3-.6.4.2-.2.9.1 1.3.2.2-.5-.7-.7-1.1-.7.4-.5 1.4-.7 2.4-.3.7.3 0 .6.2.6 1.1 1 1.7-.2 2.4.9.1.6-.5.7-.6 1-.6-.3-.6-.8-1-1.1l.3.5c-.2 0-.7-.2-.8-.4.1.6 1.9 1.6 2.6 2.5.2 0 .6.1.6-.1l-.3-.2c0-.5.8 0 .6-.4.5.1 1.2.1 1.6.7l-.2.5c.1-.1-.2-.5-.4-.5.4 0 .4 1.2 1.1.8l-.2-.9c.5.1 1.3 0 1.7.5.1-.6-.1 0-.1-.7-.1.8-1.2-.9-1.2 0 .1-.8-.4-.7-.5-1.5-.1.1 0 .4-.4 0h-.2c.1.1.1.3.1.4-.4.2-1.1-.3-1.4-.3-.2-.2.2-.1.2-.3h-.5c.2-.3-.3-1 .4-.7l-.6-.4c-.2-.4-.5-.8-.9-.8-.2-.2-.8-.1-.5-.2l-.9-.4v-.1c-.4-.3-.9-.5-1.3-.8-.5-.3-.9-.6-1.2-1.2-.4-.1-.7-.3-1.4-.7v-.4c-.2-.1-.7-.4-1.2-.5-.5-.1-1-.2-1.1 0-.2-.2-.6-.3-1-.3s-.9.2-1.3.4c-.8.4-1.3.9-1.7 1l.2.4c-.5.3-.8.6-1.2 1.1l.2.3c-.3.5-1.3.5-2 1 0-.1.2-.2.4-.2-1.3-.2-1.5 1.7-2.6 1.6-.1.2-.3.3-.5.3h-.5.3c-.2.1-.4.3-.5.5l-.3-.3c-.3 0-.1.3.2.4-.1.1-.2.2-.2.4-.5-.4-.5.5-1.1.1 0 .4-1 .9-.8 1.5-.1-.1-.1-.1 0-.1-.3.1-.6.2-.7.5l-.3-.4-.3.9c-.5-.1-.7-.2-.6-.7-.6 1-.6.6-1 1.4l-.1-.3c-.2.1-.5.7-.7.6-.8-.2-2.8 1.4-4.6 1.6.7.7-.9 0-.6.6-.2-.2-.4-.2-.3-.5-.7.6-1.3.2-1.5 1-.2-.2 0-.4-.1-.5 0 .1-.2.3-.3.2-.1-.1 0-.2.1-.4-.8.4-.5 1.1-.3 1.7-.5-.1-.7 0-.8.6-.2-.1-.6-.2-.1-.5-.3.1-1.8.5-1.6 1-.1-.1-.4.1-.4.2-.6.3-.7.2-1.3.6h.2c0 .7-.4.4-.9.7v-.1c-1.3.1-.4.4-1.7.4l.2.3c.2.8-1.2 0-1.7.6l.3.1c-.2.4-1.4-.6-1.8-.5-.1 0 .1-.2.2-.3-1.1 0 .1.5-.6.9-.2-.2-.1-.7-.6-.5-.3-.1-1 1.4-1.8 1.2.2.1.4.3.2.5-.5.3-1.7-.1-1.8.7-.1 0-.1-.1-.2-.1-.3.3-1.1.8-1.2 1.2-.9-1.1-2.1 1.6-2.6.5L43 64v-.1c-.8.3-.9.6-1.1 1-.2 0-.1-.2-.1-.2-1.2.2-1.3.3-1.9 1.3l-.3-.3c-.1.3-1.8.1-2.7 1v-.2c-1 1-3.3.3-3.1 1.8l-.6.7c1.1-.4.1.6.6.7-.4.3-1.2.1-.8-.2h.1c-.1-.8-1.4.3-1.6-.1-2 .9-4.1 1.6-5.9 2.4l.5.4-.7.3c-.2 0-.4-.3 0-.5-.4-.2-.6.6-.6.8-1 .2 0-.8-.2-.7l-.4.2h.1c-.2.4-.1.6-.7.9-.4.1-.3-.2-.5-.2 0 0-.1 0-.2.1l-.8.4.5.2c-.2.4-.8.4-.1.7-.9-.4-3.1 1.3-3.6 1.3-.3.6-.8.9-1.4 1.2.2 0 .5.4 0 .6-.4-1-1.2.1-2-.3.6.2-1.4 1-.4 1.3-.5.2-.2-.3-.7-.4-.8 1-2.3 1.2-3.5 2.1.1.1.4.2.2.5l-1-.2c-.2.2.2.8-.5.7.1.1.3.1.2.3-1.4.5-2.5 1.5-3.6 2.4-.6.5-1.2.9-1.8 1.3-.6.4-1.3.7-2.1 1 .5 0 .3.2.1.4.2-.1.2.3.4.4l-1.3.4c.2.6-1 .9-.8 1.3l.2-.3c0 .8 1.4.6 1.9 1.2 0-.9 1.8-.2 1.9-1.5.3 0 0 .3.2.4 0-.4.1-.6.6-.9v.1c1.1-1 1.8-1.1 3.3-1.9l-.3-.2c.3-.2.4-.1.6-.1 0-.7-.8.6-.9-.2.8.4 2-1.5 2.8-.9.4-.3-.4-.3.1-.6l.3.1-.1-.3c.3-.2.6 0 .8.2-.1 0-.2.2-.2.2.5 0 1-.8 1.2-.8l-.5.2c1.1-1 2.8-1.7 3.8-2.9l-.2-.1c.8-.8.9-.3 1.8-1v.1c.1-.3.4-.5.6-.7-.2.3.7.1.5.5.8-.9.4-.5.7-1.5l.3.2c.1-.4 0-.5.5-.9-.3.5.6.2.2.8 1.4 0 1.3-1.5 2.3-.9.1-1-1.2.1-1-.2-.4-.1.1-.8.5-.9.4-.2 1.1.6 2 .1-.1 0-.1.1-.2.1.4 0 .5-.6 1.1-.5 0-.6.6-.3.3-.9-.3.2-.5.4-.8.6.4-.4.5-1.3 1.4-1.4 0 .1-.2.4-.3.6.3.1.4-.3.7-.3.2.6-1 .6-1.2 1.3.4.1.8-.9.8-.1 0-1 .9-.3 1.3-1.3l.1.4c.1-.1.2-.4.4-.4l-.1.6c.3-.6 1.1-.1 1.5-.6-1 .5-.4-.3-1-.3 1-1.1 1.2.5 2.5-.3-.2.1-.8.1-.6-.2.3-.1.7-.1 1 0 .9-.5-.3-.3 0-.7.5.3.4-.4.7-.7l.2.4c1.2-.3-.1-.9 1-1l-.2.7.4-.4.1.5c.4-.6.6-.6 1.2-.7.1-.4.1-.9.6-1.1.4.1 0 .4.6.1 0 .3-.1.6-.5.5v.4c.5.1.9-.4 1.1-.5-.1 0-.2.1-.3 0l.7-.9c.2.1.1.2.1.4.2-.1.2-.4.5-.5.1.3.2.6-.1.9l.8-.7c.1.1.6.1.6.3.6-.1 1-1.1 1.8-1.2 0-.1.1-.2.2-.3.7-.2 1.4-.1 2-.9l.7.3c.5-.4-.9-.4 0-1 .6-.5.5.3.8.4.2-.4.6-1.2 1.4-1.1-.2.2-.4.2-.6.3zm7.3-3.5c-.1.1-.3.5-.5.3 0-.5.2-.3.5-.3zm10.8-6c0 .2-.2.2-.5.1.1 0 .3-.1.5-.1zm30.5-10.4c-.2-.4-.1-.2 0 0zm.5.5c.1 0 .1 0 .1-.1-.1 0-.2 0-.4-.2 0 .2.1.3.3.3zM23.3 73.2h.2c-.3.3-.2.1-.2 0z"/><path class="st1" d="M62.4 58.4c-.1 0-.1-.1-.2-.2 0 .1 0 .2.2.2zM40.8 69c-.1.1-.1.1 0 0zM84.6 46.3h-.3c0 .1.1.1.3 0zM97.8 49.2l-.4-.2c.2.1.2.2.3.3 0 0 0-.2.1-.1zM99.7 53.5c.1 0 .1.1.2.1l.1-.2c-.3-.2-.5-.1-.3.1zM97.4 50.5c-.2.3.1.4.4.5.3-.3 0-.4-.4-.5zM97.9 51.1c.1 0 .2.1.2.2.2-.2 0-.2-.2-.2zM95.3 47.8c.1.2.3-.3.3-.1.4-.2-1.1-.2-.3.1zM97 51.5l.1-.4-.3.2zM95.1 49.8l.3.4c0-.1.1-.1.2 0-.2-.3-.4-.5-.5-.4zM95.6 50.1c.1.1.3.2.4.2-.1 0-.2-.1-.4-.2zM96.3 51.2v-.1l-.3-.3zM90.7 46.3l-.5-.3c-.1.1-.1.2.1.3.2.1.4.2.4 0zM91.4 48.2c-.1-.2 0-.2 0-.4l-.3.4h.3zM90 47.3c-.1.1-.9-.2-.3.2.1 0 .6.2.3-.2zM83.1 45.6h.2l-.5-.7zM77.7 51.3c.7-.2-.1-.5.5-.6 0-.2-.5.1-.5-.1-.2.3-.4.3 0 .7z"/><path class="st1" d="M77.8 50.6c0-.1.1-.1.1-.2-.1 0-.1.1-.1.2zM.7 87.6l-.5.1h.4zM.4 88.6l-.4-.4.1.5c.1 0 .2-.2.3-.1zM54.1 63.8v-.1c-.1-.1-.2-.1-.4 0l.4.1zM48.6 65.8h.1l-.4-.4zM44.3 68.3c.2-.1.4-.3.6-.3-.4.3-.9-.2-.6.3z"/><g><path class="st0" d="M133.6 140.6c.1.2.3.4.4.6.1.2.2.3.3.5.7 1.1 1 2.3 1 3.6-.1 1.3-.1 2.5-.1 3.8 0 1.3.1 2.6.1 3.8 0 .3 0 .5.1.7.1.2.1.5.2.7.1.7-.1 1-.8 1.2-.8.2-1.5.2-2.2.1-.6-.1-1.3-.2-1.9-.3-.6-.1-1.3-.1-2 .1h-.2c-.6 0-.9-.2-1-.7 0-.2 0-.4.2-.7.2-.2.4-.4.6-.5.3 0 .5-.1.7-.1h.7c.5 0 .9.1 1.4.1.5 0 .9.1 1.4.1.5 0 .8 0 .9-.1.1-.1.2-.4.2-.8 0-.7.1-1.5.1-2.2v-2.2-.7c0-.2 0-.5.1-.7.1-.5.2-1 .1-1.5s-.1-.9-.1-1.4c0-.4-.2-.7-.4-1-.2-.3-.4-.6-.7-.9-.1-.1-.2-.2-.4-.3-.2 0-.3-.1-.5-.1h-.8c-.3 0-.5 0-.7-.1-.1 0-.3-.1-.4-.2-.1-.1-.2-.3-.3-.4 0-.2 0-.3.2-.5.1-.1.3-.3.5-.3.1 0 .2-.1.3-.1s.2 0 .3-.1c.2-.1.4-.2.7-.2.2-.1.4-.2.6-.4 1.2-.8 1.6-1.8 1.2-3.1-.1-.6-.5-1.1-.9-1.5-.5-.4-1-.6-1.7-.5-.5 0-1-.1-1.5-.3-.3-.1-.4-.2-.4-.5 0-.2.1-.4.4-.5.4-.2.8-.3 1.2-.3 1.9 0 3.2.8 4.1 2.6.8 1.8.6 3.4-.7 4.8 0 .2-.2.3-.3.5zM155.2 143.4c-.1 1.4-.1 2.8 0 4.3.1 1.4.2 2.9.2 4.3.1 1 .1 1.9 0 2.9 0 .7-.4 1-1.1 1-.8-.1-1.5-.1-2.3-.2-.8-.1-1.5-.1-2.2-.2-.2 0-.4-.1-.5-.1-.2 0-.3 0-.5-.1-.4-.1-.7-.2-.8-.3-.1-.1-.2-.4-.3-.8-.1-.5-.1-1-.2-1.5s-.1-1-.1-1.5c-.1-.9-.1-1.9-.2-2.8-.1-.9-.1-1.8 0-2.8 0-.5.1-1.1.2-1.7.1-.6.3-1.1.5-1.6.4-1.6 1.5-2.6 3.1-3 .3-.1.6-.1.8-.2.3 0 .5-.1.8-.2.7-.2.9-.6.8-1.2-.3-.8-.6-1.4-1-2-.4-.6-1.1-.9-2-1.1-.3-.1-.6-.1-1-.2-.3 0-.7-.1-1-.2-.5-.1-.9-.2-1.2-.4-.2-.1-.3-.3-.2-.5 0-.2.1-.4.3-.4.3-.1.7-.2 1-.2 1.2-.1 2.2.1 3.1.7.9.5 1.7 1.2 2.3 2.2.6.8 1 1.7 1.2 2.6.3.9.4 1.9.5 2.8v1.1c-.2.6-.2.9-.2 1.3zm-1.3 3c-.1-.8-.1-1.6-.1-2.3 0-.8 0-1.5-.1-2.3 0-.7-.2-1-.4-1.2-.2-.1-.6-.1-1.2.1-.7.2-1.3.6-1.7 1.1-.4.5-.8 1.1-1 1.8-.6 1.6-.8 3.2-.7 4.8.1 1.6.3 3.2.5 4.8.1.5.4.8.9.9.4.1.9.1 1.3.2s.9.1 1.3.1c.5 0 .9 0 1.1-.2.2-.2.3-.6.3-1.1 0-.5 0-1-.1-1.5s-.1-1-.1-1.5v-1.8c-.1-.7 0-1.3 0-1.9zM169.5 148.9c.1-.2.2-.3.3-.5.1-.1.2-.3.3-.5l1.5-3 1.5-3c.1-.1.1-.3.2-.5 0-.2.1-.3.1-.5 0-.9.1-1.8.1-2.7 0-.9 0-1.8.1-2.6v-1.1c0-.3 0-.7.1-1.1 0-.5.2-.7.7-.7.4 0 .7.2.8.7 0 .3.1.5.1.7v.7c-.2 1.9-.2 3.8-.2 5.7.1 1.9.1 3.8.1 5.7V154.4c0 .2 0 .4-.1.6-.1.7-.4.9-.9.9s-.7-.4-.7-1V151v-3.9-.8c0-.3-.1-.6-.2-.9-.4.4-.6.8-.8 1.2-.2.4-.4.8-.5 1.2-.4.8-.8 1.5-1.1 2.3-.3.8-.7 1.6-1.1 2.4l-.8 2.1c-.3.7-.8.9-1.5.5-.2-.1-.3-.3-.3-.5s-.1-.4-.1-.6c.1-.9.2-1.9.3-2.8.1-.9.2-1.9.2-2.8.1-2.1.2-4.1.2-6.1.1-2 0-4.1-.1-6.1-.1-.8-.1-1.5 0-2.3 0-.1 0-.3.1-.5 0-.2.1-.3.2-.4.1-.1.2-.2.3-.2.1-.1.2-.1.3-.1.1 0 .2 0 .3.1.1.1.2.2.3.2.1.3.2.6.2.9 0 1.4.1 2.7.1 4v4c0 1.2 0 2.3-.1 3.4 0 1.1-.1 2.3-.1 3.4.1 0 .1.1.2.1-.2 0-.1 0 0 .1zm1.8-18.4c-.3 0-.5-.2-.7-.5-.2-.3-.2-.6-.2-.9 0-.3.1-.5.3-.7.2-.2.3-.3.5-.2.3 0 .6.1.8.4.2.3.3.5.3.8-.1.3-.2.6-.4.8-.2.3-.4.4-.6.3zM186.4 142.9v-.5-8.1-.4-.4c.1-.4.3-.7.7-.7.5 0 .7.2.8.7 0 .3.1.5.1.7v.7c0 .6.1 1.2.1 1.8v1.8c0 .6.3.9.8.9.6 0 1.1.1 1.7.1h1.7c.5 0 .7-.4.7-1.1v-4.1-.4c0-.1 0-.3.1-.4.1-.2.2-.3.2-.5.1-.1.2-.2.5-.1.4 0 .5.3.5.8v2.6c0 .8 0 1.7.1 2.6.1 1.1.1 2.2 0 3.3-.1 1.1-.1 2.2-.1 3.3V154.9c0 .2 0 .4-.1.6-.1.2-.2.3-.3.4-.1.1-.3.1-.5.1-.1 0-.2-.1-.4-.2-.1-.1-.2-.2-.2-.3-.1-.6-.2-1.2-.2-1.8 0-.4 0-.9.1-1.3 0-.4.1-.9.1-1.3v-1.8-1.8-2.7-2.7c0-.5-.2-.8-.7-.8-.6 0-1.1-.1-1.7-.1h-1.7c-.5.1-.8.4-.8.9 0 .3 0 .6-.1.8v.8c.1 1.8.2 3.5.2 5.3s-.1 3.5-.2 5.3c0 .8-.3 1.2-.8 1.2s-.8-.4-.8-1.3c0-.6 0-1.1.1-1.7 0-.6.1-1.1.1-1.7v-7.9z"/></g><g><path class="st2" d="M134.6 41.5c.7 0 1.3-.2 1.8-.7.5-.5.7-1.1.7-1.8s-.2-1.3-.7-1.8c-.5-.5-1.1-.7-1.8-.7h-.4v5h.4zM134.6 47.7c.7 0 1.3-.2 1.8-.7.5-.5.7-1.1.7-1.8s-.2-1.3-.7-1.8c-.5-.5-1.1-.7-1.8-.7h-.4v5h.4zM121.7 0c-.9 0-1.7.3-2.4 1s-1 1.4-1 2.4c0 .9.3 1.7 1 2.4.5.5 1 .8 1.6.9v84.7h1.5V6.6c.6-.1 1.2-.4 1.7-.9.7-.7 1-1.4 1-2.4 0-.9-.3-1.7-1-2.4-.6-.6-1.4-.9-2.4-.9zM134.6 35.4c.7 0 1.3-.2 1.8-.7.5-.5.7-1.1.7-1.8s-.2-1.3-.7-1.8c-.5-.5-1.1-.7-1.8-.7h-.4v5h.4zM134.6 53.9c.7 0 1.3-.2 1.8-.7.5-.5.7-1.1.7-1.8s-.2-1.3-.7-1.8c-.5-.5-1.1-.7-1.8-.7h-.4v5h.4zM134.6 60c.7 0 1.3-.2 1.8-.7.5-.5.7-1.1.7-1.8s-.2-1.3-.7-1.8c-.5-.5-1.1-.7-1.8-.7h-.4v5h.4zM134.1 29.1h.5c.7 0 1.3-.2 1.8-.7.5-.5.7-1.1.7-1.8s-.2-1.3-.7-1.8c-.5-.5-1.1-.7-1.8-.7h-.5v5zM134.1 60c-.5-.1-.9-.3-1.3-.7-.5-.5-.7-1.1-.7-1.8s.2-1.3.7-1.8c.4-.4.8-.6 1.3-.7v-1.2c-.5-.1-.9-.3-1.3-.7-.5-.5-.7-1.1-.7-1.8s.2-1.3.7-1.8c.4-.4.8-.6 1.3-.7v-1.2c-.5-.1-.9-.3-1.3-.7-.5-.5-.7-1.1-.7-1.8s.2-1.3.7-1.8c.4-.4.8-.6 1.3-.7v-1.2c-.5-.1-.9-.3-1.3-.7-.5-.5-.7-1.1-.7-1.8s.2-1.3.7-1.8c.4-.4.8-.6 1.3-.7v-1.2c-.5-.1-.9-.3-1.3-.7-.5-.5-.7-1.1-.7-1.8s.2-1.3.7-1.8c.4-.4.8-.6 1.3-.7v-1.3c-.5-.1-.9-.3-1.3-.7-.5-.5-.7-1.1-.7-1.8s.2-1.3.7-1.8c.4-.4.8-.6 1.3-.7h-8.9V91h8.9V60z"/></g><g><path class="st0" d="M111.2 143.9l.2 6.2v4.2c0 .3.1.5.1.6.1.1.3.1.6.2h.2c.2 0 .3.1.5.3.1.1.2.3.2.5s-.1.3-.2.4c-.1.1-.3.2-.5.2h-.6l-3.6-.3c-1.2-.1-2.4-.1-3.7-.1h-.1c-.5 0-.8-.2-.9-.6 0-.4.2-.6.7-.7h.4c.3 0 .4-.2.5-.5 0-.4 0-.7.1-1.1v-1.1c0-.9-.1-1.8-.1-2.6 0-.9-.1-1.7-.1-2.6 0-1.4-.1-2.8-.1-4.2 0-1.4-.1-2.8-.1-4.2 0-.9.1-1.7.3-2.6.2-.8.7-1.6 1.2-2.3.3-.4.6-.6 1-.9l1.2-.6c.5-.2.9-.2 1.2 0 .4.2.7.4 1 .6.1 0 .2.1.2.3v.4c-.2 1.3-.2 2.5.1 3.8.1.7.2 1.5.2 2.2v2.2l.1 2.3zm-1.5-10.6c-.6.1-1.1.2-1.6.5-.4.3-.8.6-1.1 1.1-.4.6-.7 1.2-.9 1.9-.1.7-.2 1.4-.2 2.1l.1 6.3c0 1 0 2 .1 3 0 1 0 2 .1 3v3c0 .3.1.5.1.6.1.1.2.1.5.2.4 0 .8.1 1.1.1.4 0 .7 0 1.1.1.5 0 .7 0 .8-.1.1-.1.2-.4.2-.8v-.5-4.3c0-1.4-.1-2.9-.2-4.3v-1.5-1.6-2.3c0-.8-.1-1.6-.2-2.3-.1-.6-.2-1.2-.2-1.8 0-.6 0-1.2.1-1.8v-.1c.2-.3.2-.4.2-.5z"/></g><circle class="st2" cx="119.7" cy="133.6" r="3.6"/><path class="st2" d="M120.4 133.8v23.4h-1.5v-23.4"/><g><path class="st0" d="M120.6 122.9c-.1 0-.2 0-.3.1 0 .1.1.2.1.3 0 .2-.1.2-.2 0h-.1c-.1.1-.2.2-.3.4-.1 0-.1.1-.2.2 0 0 .1.1.1.2 0 .2-.1.3-.2.4-.1 0-.1 0-.2-.1l-.1-.1c-.1.2-.2.3-.2.4.1-.1.2-.1.2-.1h.1c0 .1-.2.3-.5.7-.3.3-.5.5-.7.5h-.1v-.1l.5-.5s0-.1-.1-.1c-.7.5-1 .8-.9.9.1-.1.1-.1.3-.2 0 0 .1 0 .1.1 0 .2-.4.5-1.1 1-.8.5-1.2.7-1.4.6-.1.1-.2.1-.3.2-.2 0-.4.1-.8.1-.1.1-.3.1-.6.2-1 .1-2.1-.2-3.1-.9-1.1-.7-1.7-1.5-1.7-2.4h-.2l-.1.1h-.1c0-.1-.1-.4-.3-.9-.2-.5-.3-.7-.3-.9l.1-.1h.1l.1.1h.1l.1-.1-.3-1.5c0-.1.1-.2.1-.3 0-.3-.1-.8-.1-1.4v-.3l-.1-.1v-.2c0-.1.1-.2.1-.2l.1-1.5v-.2c.1 0 .2 0 .3-.1.1-.5.2-1 .3-1.7.1-.2.2-.4.4-.7.1-.2.2-.6.3-1.1l.6-1.2c0-.2.1-.4.2-.7l.9-1.8c.2-.3.4-.8.8-1.4v-.2c-.1-.1-.1-.2-.1-.2.1-.1.2-.3.4-.5.5-1 1.3-2.2 2.2-3.5.9-1.1 1.7-2.2 2.5-3.3.5-.6.7-1 .6-1.2 0-.1-.1-.2-.1-.4v-.1s.3-.1.8-.2h.4c.2 0 .4-.1.6-.1.4.1 1.1.5 2 1.2l.5.5c.1 0 .3.1.5.2v.6c.2.1.4.3.7.6.1.1.2.3.3.6.1.2.1.5.1.7l.3.3s0 .1-.1.1c0 .1-.1.1-.1.1 0 .2 0 .3-.1.5 0 0-.1.2-.4.5-.2 0-.3.1-.5.3v.4c.1.1.2.3.3.5.1.3.3.7.3 1.3v.4c.1.2.1.5.2.8 0 0 0 .1-.1.2s-.1.1-.1.2v1.2c-.1.3-.1.7-.2 1.2-.1.4-.1 1.2 0 2.4.1.1.3.1.5.1.4 0 .9-.2 1.8-.5.8-.3 1.3-.5 1.4-.5.3 0 .5 0 .5.2 0 .3-.4.7-1.2 1.2-.8.6-1.4.9-1.8.9l-1.2.1c-.1 0-.1 0-.2.1l-.1 1.5c0 .3-.2.9-.5 1.9-.3 1-.6 1.7-.7 2-.2.3-.4.6-.6 1 0 .7-.1 1-.2 1.3zm-8.6 1.6h.1v-.1s0-.1.1-.1.2.1.4.4c.2.3.4.5.4.5.4.2.8.4 1.2.4.3 0 .7-.1 1.1-.2.7-.3 1.4-.7 2-1.3.3-.3.8-.9 1.6-1.8l.5-.5c.2-.4.5-.9.9-1.7h.1c0-.3.1-.5.3-.6.2-.3.4-.8.7-1.5 0-.1.2-.7.6-2 .2-.6.2-.9.2-1-.2-.1-.4-.3-.8-.5-.4-.3-.7-.8-1-1.3-.3-.6-.5-1.1-.6-1.5l.1-.1c.1 0 .1 0 .1-.1v-.1l-.1-.1s-.1.1-.2.1v-.3c0-.2-.1-.6-.1-1 0-1 0-1.9.2-2.8 0 0 .1-.3.2-.7.1-.4.2-.6.2-.7v-.1h-.2c-.6.3-1.1.6-1.5 1-.4.6-.9 1.3-1.7 2.3-.3.3-.7.7-1.2 1.3-.1.2-.3.5-.6.9 0 .1-.1.3-.2.5-.1.1-.3.3-.5.6 0 .1-.1.4-.2.7-.3.5-.6 1-.9 1.6 0 .1 0 .2-.1.4-.1.1-.3.4-.4.7-.1.2-.2.5-.3.8l-.2.2c-.1 0-.1 0-.1-.1s0-.1.1-.2c.2-.5.6-1.1.9-1.8 0-.2.1-.4.1-.6.1-.2.3-.4.6-.9.1-.1.2-.3.3-.6v-.2c-.3.1-.6.4-.9 1-.3.6-.5.9-.6 1-.2.4-.5 1.1-.9 1.9-.1.2-.2 1-.3 2.3-.1 0-.1 0-.2.1 0 .1-.1.3-.1.7-.1.4-.1.6-.1.6h.1c.1 0 .1-.1.2-.4.1 0 .2 0 .3-.1 0-.2 0-.4.1-.7 0-.1 0-.2.1-.3.1-.1.1-.2.1-.3 0-.1 0-.1-.1-.2 0 0 0-.1.1-.1h.2c0 .1.1.1.1.1h.1c.1.1-.1.7-.4 1.8-.1.2-.1.5-.1.8 0 1 .1 1.9.3 2.7 0 .1.1.2.1.3.1.2.1.3.1.3 0 .1-.1.1-.2.1s-.1-.2-.2-.5-.2-.5-.2-.6l-.3-2.2c0-.1 0-.1-.1-.1s-.1 0-.1.1l-.1.8c0 .3.1.8.3 1.6.2.8.4 1.3.6 1.4zm.2 3c.2.1.4 0 .4-.1l-.1-.1c-.1 0-.4-.1-.8-.2-.2-.1-.3-.2-.4-.1-.1 0-.1 0-.1.1s.3.2 1 .4zm-.5-9.9l-.1-.1c0-.2.1-.3.3-.4.1-.1.2-.1.2-.1 0 .1 0 .2-.1.4 0 .1-.1.2-.3.2zm1.9-11.6c.1 0 .1-.1.1-.1l-.1-.1c-.1 0-.1 0-.1.1l.1.1zm1.8 21v.1h.3c.2 0 .3-.1.3-.1v-.2l.1-.1s0-.1-.1-.1l-.3.3s-.1.1-.3.1zm2.6-26.9h.2v-.1c-.1 0-.2 0-.2.1zm.2-.3v-.1c-.1-.1-.1-.1-.2-.1h-.1v.1c.2.1.3.1.3.1zm.8-.1v-.1c-.1 0-.1 0-.2-.1s-.2-.1-.2-.1v.2l.1.1h.1.2zm.4 0h.2v-.1c0-.1-.1-.1-.2-.1v.2zm.7 23.7c0 .2 0 .2-.1.2l-.1-.1c.1 0 .1-.1.2-.1zm.7-19.4h.1v-.1l-.1-.1h-.2l.2.2zm.5 8l.2.2c.1.2.3.6.7 1.2.1.1.1.1.2.1.2 0 .3-.3.3-1 0-.4 0-.7.1-1.1.2-1.9.2-3.1.1-3.6 0-.1 0-.3-.1-.6-.2-.4-.3-.8-.5-1.2h-.2v.1l-.7 1.3c-.1.2-.2.8-.3 1.7-.1.9-.1 1.5-.1 1.8 0 .2.1.6.3 1.1zM128 109.2c-.1-1.9-.1-2.7-.2-2.5-.1-1.4-.1-2.4 0-3 0-.1-.2-.7-.5-1.7-.1-.4-.2-.8-.1-1.3 0-.2.1-.5.2-.8.2-.4.4-.7.6-.9.3-.3.6-.5 1.1-.5.2 0 .4.1.8.2.5.2.8.4.9.6.1.2.2.3.4.4l.5.1c.2.1.5.2.8.2.2 0 .3.2.4.5.1.4.2.8.2 1.2 0 1.1-.4 2.3-1.1 3.5-.1.3-.2.8-.3 1.5l-.2 7.4c-.4-1.7-.6-3.4-.6-5.3 0-.6 0-1.1.1-1.6 0-.1-.2.1-.5.7s-.4 1-.4 1.3l.7 7 .6 1.7c0-.1-.1-.1-.2-.1s0 .4.2 1.3l1 1.6c0 .1.2.6.5 1.4.1.4.3.7.7 1.1.4.4.8.6 1.2.6.5 0 .9-.3 1.2-.9l1-1.7.7-2 .3-1.7.2-3.4c.1-.8.1-1.7.1-2.6v-1.4-1.2l-.1-1.5-.1-1.4-.6-1.2-.3-2.1-.2-2.4c.1-.1.1-.3.2-.4v-.4-.4c0-.2 0-.6.3-1.3.2-.7.4-1.1.6-1.4.2-.2.6-.4 1.3-.8.1 0 .3.1.7.4.3.3.5.4.6.6l1.4 2.2c.3.1.5.3.7.4.5.4.8.7.9 1.1 0 .1.1.3.1.4 0 .8-.2 1.4-.7 1.7-.5.4-.8.7-.9 1.1 0 .1-.1.5-.2 1.2l-.2 1.6-.1 2.5-.1 4.4c0 2-.1 4-.1 5.9l.1 5.7.2 1.6.7 3.2s.1 0 .1.1c-.4-.3-.8-.4-.9-.4-.1 0-.1 0-.1.1v-.4c0-.4-.1-.6-.1-.6-.1 0-.2.4-.2 1.3v1.7l-.5-2.4-.9 1.4-.1-.9c-.2 0-.3.2-.3.7 0 .2 0 .5.1.8 0 .3.1.5.1.5s0-.1-.1-.2c-.4-.7-.7-1.4-.7-2.2l-.2-2.5-.1-1.9v-1.6c.1-.9.2-1.5.1-1.7-.1 0-.2.3-.3.7-.1.6-.2.9-.2 1l-.7 1.8c-.3.7-.5 1.2-.6 1.3l-.9.9c-.2.2-.5.4-.7.6-.1 0-.4.2-.9.4l-1.1-.2c-.8-.1-1.3-.4-1.6-.7-.5-.6-1.1-1.7-1.7-3.2-.7-1.6-1.3-4.2-1.6-7.6-.1-.4-.3-3-.4-7.2zm1.5-1.9c0 .5.1.7.2.7s.2-.2.2-.7c0-.5-.1-.7-.2-.7s-.2.2-.2.7zm0 2.6s.1 0 .2.1l.1.1c.1 0 .1-.1.1-.2 0-.5-.1-.7-.2-.7s-.2.2-.2.7zm.9 1.4c0-2.2.1-3.3.3-3.3.1 0 .1.7.1 2 0 3 0 4.5-.1 4.5-.2.1-.3-1-.3-3.2zm.4 2.4c0-1.5.1-2.2.2-2.2s.2.7.2 2.2c0 1.5-.1 2.3-.2 2.3s-.2-.8-.2-2.3zm.6 3c0-1.2.1-1.8.2-1.8s.1.3.2 1c.1.6.1 1.2.1 1.8 0 .4.1.9.2 1.5.1.5.1.7.1.7-.1 0-.2-.4-.4-1.2-.3-.9-.4-1.5-.4-2z"/><path class="st0" d="M168.5 121.2s-.1 0-.2.1v.1c0 .2 0 .4-.2.5-.3.1-.4.2-.4.2-.2.3-.4.5-.6.6-.4.3-.9.6-1.7.8v.3c-.3.1-.5.1-.6.2-.2.1-.3.2-.5.4-.2.1-.5.2-.9.3-.1.1-.2.1-.3.2h-.3c0 .1-.1.2-.1.2-.1.1-.3.1-.6.2-.3 0-.5.1-.6.1-.1.1-.2.1-.4.2h-.4s0 .1-.1.1h-.1c-.1-.1-.2-.1-.4-.1s-.5.1-.8.2c-.4.1-.6.2-.8.1 0-.1-.1-.1-.2-.2 0 0-.1.1-.3.2-.2.1-.3.2-.4.2l-.1-.1v-.2h.2l.1-.1v-.1l-.1-.1c-.3 0-.8.1-1.5.4-.2 0-.5.1-.8.2l-.6.3-.2-.2c-.1-.1-.2-.1-.2-.1-.1 0-.1 0-.2.1l-.2.2c-.6 0-1.9.2-3.7.6-.3 0-.7.1-1.2.2-1.6.5-2.4.7-2.5.7 0 0-.1 0-.1-.1.1-.2.4-.3 1-.5.4-.1.8-.2 1.2-.4l.1-.1V126.5s.1 0 .1.1c.1 0 .1.1.1.1.2 0 .4-.1.7-.2.3-.2.5-.3.6-.5h.4s.3-.1.7-.2c.1-.1.3-.2.5-.4h.5V125.1h.5l4.5-1.8c.2-.2.6-.4 1.1-.8.7-.3 1.4-.7 2.1-1 .8-.4 1.4-.8 2-1.2.7-.6 1.1-.9 1.1-1.1 0-.1-.1-.2-.4-.2h-.5c-.1 0-.4-.1-.6-.2-.4 0-.9 0-1.7-.1-.5 0-1.3 0-2.4-.1-.8-.1-1.2-.1-1-.1-.2 0-.5 0-1 .1s-.8.1-1.1.1c-1.1-.1-1.7-.1-1.9-.1-.1 0-.3 0-.6-.1-.3 0-.4-.1-.5-.1-.2 0-.5.1-.6.2l-.1-.1h-.3c-.1 0-.2-.1-.4-.1h-1.9c-1.8-.2-2.9-.4-3.2-.5-.1-.1-.3-.1-.6-.2-.1-.1-.2-.2-.3-.4-.2-.1-.4-.2-.7-.5l-1.2-1.7c-.1-.2-.2-.6-.4-1.2-.1-.6-.2-1.2-.2-1.6 0-.3 0-.4.1-.6.1 0 .2 0 .3-.1v-.4l.1-.1v-.4-.3h.1c.1 0 .1 0 .1.1.1 0 .1.1.1.1l.1-.4s.1-.1.1-.2c.1-.4.3-.8.6-1.4h.1l.1.1c0-.1 0 .1-.1.4v.1h.1c.2-.2.3-.4.5-.5.1.1.2.1.4.1.1-.3.3-.7.6-1.2.1-.1.3-.3.5-.6l.4-.8c.1-.1.3-.2.4-.4 0-.1 0-.2.1-.4.1 0 .2 0 .4-.1 0 0 0-.1.1-.1 0-.1.1-.1.1-.2s0-.1-.1-.2v-.1c.2-.1.5-.4.9-.6v-.1c-.1-.1-.1-.2-.2-.4.1 0 .1-.1.2-.2.5-.5 1.6-1.2 3.5-2.1.1 0 .3-.1.5-.2.1-.1.1-.1.3-.2l7.1-3.1c.2-.2.5-.4.7-.6.1 0 .3 0 .6.1.6.1 1.1.3 1.3.5.1.1.4.6.9 1.3.5.7.7 1.2.8 1.3.3.6.4 1.1.5 1.5.2.8.3 1.6.3 2.3 0 .5-.1.7-.2.9-.1.1-.3.2-.4.2-.2 0-.4-.1-.6-.3-.2-.2-.4-.3-.5-.5-.5-.3-.9-.5-1.2-.6-.4-.1-.7-.1-1.1-.1-.8 0-2 .4-3.8 1.2l-1.1.5c-1.4.6-2.5 1.2-3.4 1.7-.1.1-.3.3-.6.5-.1 0-.2.1-.4.1l-.4.4c-.1 0-.3.1-.6.2-.1.1-.3.4-.6.6-.1 0-.4.1-.7.3-.1.1-.3.3-.5.6-.5.5-1 .9-1.4 1.4-.7.7-1 1.3-1 1.8 0 .2.1.4.2.5.3.3 1.2.6 2.7.8 1.1.2 2.1.3 2.9.3l7.5.4c1.8.1 3.4.4 5 1 2.1.8 3.3 1.8 3.8 3 .1.3.1.5.1.6 0 .1 0 .1-.1.2s-.1.2-.1.4c.4.6.3.8.3.9zm-18.4-17.1l.1-.1H149.9v.2c0-.1.1-.1.2-.1zm.8 15.1c-.2.1-.3.1-.3.1-.1 0-.1 0 0-.1s.2-.1.3-.1v.1zm10-16.8c.2 0 .3-.1.3-.1 0-.1 0-.1-.1-.1s-.2 0-.2.1v.1zm1.8 1.8s.1-.1.1-.2l-.1-.1-.1-.1c-.1 0-.1 0-.2.1v.1c.1.1.2.2.3.2zM186.7 104.1l-.2.1h-3.1c-.4.1-1 .2-1.8.3h-.9c-.4 0-.6.1-.8.2-.1 0-.1.1-.1.1l.2.2c.2.1.2.2.2.3-.1 0-.3.1-.6.2-.2.1-.4.1-.6.1h-.4c-.2.1-.3.1-.4.1v-.1c.1-.2.1-.3.1-.3h-.2c-.1 0-.3.1-.4.2-.2.1-.3.2-.3.2-1 .3-1.7.6-2.1.9-1 .7-1.6 2.1-1.7 4.2 0 .1 0 .3-.1.6s-.1.4-.1.4c.1.2.7.3 2 .4 1 0 2.6.1 4.7.1.3 0 .7-.1 1.2-.1 1.2 0 2.9 0 5.2.1 1.4.1 3.5.3 6.3.5.7.1 1.5.1 2.2.1 1.2.1 1.8.2 1.9.3.1.1.1.1 0 .1s-.3 0-.6.1c-.3 0-.7 0-1.3-.1-.6-.1-1-.1-1.3-.1-.2.1-.5.1-.9.1 0 0-.2-.1-.5-.2s-.5-.1-.5-.1c-.1 0-.2.1-.4.2s-.4.2-.5.1l-.2-.1h-.1c-.2.1-.6.2-1.1.2-.4 0-1.1-.1-2-.1-.1 0-.3 0-.6.1s-.5.1-.7.1c-.1 0-.2 0-.3-.1-.1-.1-.3-.1-.3-.1 0 .1-.1.3-.2.4l-1.5.1c-.2 0-.3.1-.3.2s.1.1.3.1c.2 0 .3 0 .4.1v.1s-.5.1-1.3.2c0 0-.1-.1-.2-.3 0 0-.2.1-.5.2-.4.2-.6.3-.7.3-.4-.1-.6-.1-.6-.1-.2.1-.4.2-.8.3h-.5c-.1 0-.3.1-.3.2l-.2.2c-.1-.1-.2-.1-.3-.1-.1 0-.1.1-.2.1-.1.1-.1.1-.2.1s-.2 0-.3-.1c-.1-.1-.2-.1-.2-.1v.2c0 .3.2.4.7.3l5.2-.2s.2 0 .5-.1c.3 0 .6-.1.7-.1.4 0 .6.1.6.2l-.1.1-2.2.1c-1.5.1-2.3.1-2.3.1-.4 0-.6-.1-.5-.1-.1.1-.3.1-.5.2h-.3c-.2 0-.3-.1-.3-.1-.1 0-.4 0-1 .1-.6 0-.9.1-1 .1-.1 0-.1 0-.1.1l.2.2c.1.1.2.1.2.2 0 0 0 .1-.1.1l-1.2.2c-.2 0-.6.2-1 .4s-.7.3-1 .4c-.2.3-.2.5-.2.6l.8 2.2c0 .1 0 .2-.1.2s-.1-.1-.2-.2c-.1-.4-.4-1.2-.8-2.5l-.1-.1c-.1 0-.2.1-.3.2-.1.1-.1.2-.1.3.1.1.2.2.3.4 0 .1.1.3.2.5.5 1.2 1 2 1.4 2.6l.9 1.2c.1.1.1.2 0 .2h-.2c-.4-.4-.9-1.1-1.4-2-.4-.8-.7-1.5-.9-2.2 0-.1-.1-.2-.3-.3-.2 0-.2.1-.2.2 0 .2.1.4.3.8l.3.6c.1.2.2.6.4 1.1 0 .2 0 .4.1.6.2.3.4.7.7 1.2.3.3.7.8 1.2 1.3.6.6 1 .9 1.3 1h.1c.5.4.9.6 1.3.7.5.1 1 .2 1.5.4.2.1.5.2.8.3.4 0 .9 0 1.5.1.1.1.1.1.2.1 0 0 .1 0 .2-.1s.1-.1.2-.1c.4-.1.7-.1 1 0 .2.1.3.1.3.1.1-.1.3-.1.5-.2.3 0 .8 0 1.4-.1.2-.1.4-.2.7-.3 1.1-.2 2.5-.7 4.2-1.2.1 0 .5-.3 1.1-.7.6-.4 1-.5 1.3-.6h.1c0-.1 0-.3.1-.4.1 0 .4 0 .7-.1.3-.2.8-.5 1.6-.9.2-.1 1-.7 2.4-1.8 1.3-1 2-1.5 2.1-1.4l.1.1c0 .1-.7.7-2 1.8-1.1.9-1.8 1.4-2.2 1.7-1.7 1-3.5 2.1-5.2 3.2-.3.2-.8.3-1.5.5V126.9h-.2c-.1 0-.1.1 0 .1s.1.1.2.1c.1.1 0 .1-.3.2s-.4.1-.5.1c-.1-.1-.1-.1-.2-.1s-.2.1-.3.3c-.2.2-.3.3-.5.3l-.1-.1c0-.1.1-.2.3-.3.2-.1.3-.2.3-.2h-.1c-.1 0-.4.1-.9.3-.5.2-.9.4-1.2.4h-.3c-.2 0-.4.1-.8.2-1.1.2-2.2.4-3.5.4-1.4 0-2.5-.2-3.2-.5-.4-.1-.9-.3-1.5-.5 0 0-.2-.1-.5-.3-.2-.1-.4-.2-.5-.2-.2 0-.2 0-.2.1 0 0 0 .1.1.2s.1.2.1.2h-.1c-.1 0-.3-.1-.4-.3-.1-.2-.2-.3-.3-.3-.2-.1-.5-.2-.7-.3-.3-.1-.5-.3-.5-.5l.1-.1.2.1h.1v-.1l-.1-.2c.1-.3 0-.5-.2-.6-.3-.1-.5-.1-.8-.2-.1-.1-.2-.3-.3-.5-.2-.1-.3-.3-.5-.4 0-.3-.1-.5-.2-.6-.2-.1-.4-.2-.5-.4v-.4-.4l-.1-.1c-.1.1-.2.1-.3.1-.1-.1-.1-.2-.1-.2s0-.1.1-.2 0-.3-.1-.5c0-.1-.1-.2-.2-.2h-.2c0-.3-.1-.6-.1-1 0-.2-.1-.4-.3-.6-.2-.2-.3-.4-.3-.5-.1-.4-.2-.9-.3-1.6-.1-.8-.2-1.3-.3-1.6 0-.1-.2-.5-.5-1.1-.3-.6-.5-1-.6-1.1l-.3-.3v-.3c-.1-.1-.4-.5-.8-1.2s-.6-1.1-.6-1.1c.1 0 .2-.1.4-.3 0-.1 0-.1-.1-.2 0-.1 0-.2.1-.2.3.2.8.6 1.5 1 .1.1.1.1.2.1s.2-.1.2-.4v-.5l.2-3.5-.3-.6c-.1-.3-.2-.8-.3-1.5-.2-.4-.5-.9-.7-1.6 0-.2-.1-.6-.1-1.1-.2-.5-.4-1.2-.6-2.2v-.2-.3c.1-.2.2-.4.2-.7 0-.3 0-.6.1-.8.1.1.3.3.5.6.2.2.6.4 1 .7.6.4.9.5 1 .5.1-.3.4-.7.7-1.3l.1-.1.1.1c.2.3.6.6 1 .8l1.2.6c.2.3.7.7 1.3 1.2.3.1 1.2.3 2.7.3.9 0 1.9.1 2.9.1.1 0 .3 0 .7.1.3.1.5.1.6.1.2 0 .4-.1.7-.1.6-.1 1.4-.1 2.2-.1l9 .6c.1 0 .2.1.3.2l.2.2c.1 0 .2-.1.2-.3h.3c-.1 0 1.7.2 5.6.5.2 0 .4.1.7.2.1 0 .1.1 0 .2s-.1.1-.2.1c-.6-.1-1.6-.2-2.9-.3l-1.3-.2c-.1 0-.1 0-.1.1s0 .1.1.1c1 .1 2.1.2 3.1.3v.2s-1.4-.1-4-.2c-3-.2-5-.3-6.2-.3-.9 0-1.4.1-1.5.2v.2c.5.3 1 .5 1.7.5.3 0 .8-.1 1.4-.2h.6s0 .1-.1.1l-4.4-.1c-.1 0-.2 0-.4.1-.2 0-.3.1-.4.1h-1.5c-.1 0-.1 0-.1.1s0 .1.1.2.1.1.2.1l6.6.1v.2c-.1.1-.2.2-.3.2-.1 0-.3 0-.4-.1-.2 0-.3-.1-.3-.1l-2.4.1c-1.2-.3-1.3-.4-1.5-.4zm-16.4 9.4h.1v-.2h-.2c-.1 0-.1.1-.1.1.1.1.1.1.2.1zm0-1l.2-.1c0-.1 0-.1-.1-.1s-.1 0-.2.1c0 0 0 .1.1.1zm1.5 9.8l.1-.2c0-.1 0-.1-.1-.1s-.1 0-.1.1c-.1.1 0 .2.1.2zm1.3-9.8c.1 0 .1-.1.1-.2l-.1-.1h-.2c-.1 0-.1.1-.1.2v.1c.2.1.3.1.3 0zm.1 3.7l.1.1h.1l.1-.1c0-.1 0-.1-.1-.2h-.1c-.1 0-.1 0-.2.1l.1.1zm.1-3.1c.2.1.3 0 .3-.1s-.1-.2-.3-.2l-.1.1c0 .1.1.1.1.2zm.3 11.2c.2 0 .3 0 .3-.1s0-.2-.1-.2-.1.1-.2.1v.2zm1.1.4c0 .1 0 .1 0 0v.1c.2.1.3 0 .3-.1.1-.1 0-.2-.1-.2 0 .1-.1.2-.2.2zm.6-21.7v-.2l-.1-.1h-.1c-.1.1-.1.1-.1.2.1.1.2.1.3.1zm.2 23.9v-.2c-.1-.1-.1-.1-.2-.1s-.1.1-.1.2.1.2.2.2l.1-.1zm.4-4.2l-.1-.1c0-.1.1-.2.1-.4.1 0 .2 0 .3.1-.1.3-.2.4-.3.4zm.5 5.2c0 .1-.1.2-.2.2-.3 0-.4-.1-.5-.3.1 0 .2 0 .3-.1.3.1.4.1.4.2zm-.1-4.3v.2h-.1c-.1 0-.1 0-.2-.1l-.1-.1c0-.1.1-.1.1-.2.2.1.3.1.3.2zm.6.8c-.1 0-.2 0-.4-.2s-.2-.3-.1-.3c.1-.1.2 0 .3.2.3.2.3.3.2.3zm.4 3.8c.2.1.3.2.3.3 0 0 0 .1-.1.1 0 0-.2-.1-.7-.2-.1 0-.2-.1-.2-.2s.1-.1.2-.1c.2 0 .3 0 .5.1zm0-3.3h-.1c-.1 0-.1-.1-.1-.2l.1-.1h.2l.1.1-.2.2zm-.1-11.8h.2c.1 0 .1-.1 0-.1 0-.1-.1-.1-.1-.1-.1 0-.1.1-.1.2zm1.5 12.7c-.2-.1-.4-.2-.7-.3-.3-.2-.5-.4-.5-.6 0-.1 0-.1.1-.1h.1l1 .7.1.1c0 .1.1.1.1.1-.1.1-.1.1-.2.1zm-.8 3.1c-.1-.1 0-.2.1-.2h.3l.1.1c0 .1-.1.1-.2.1-.1.1-.2 0-.3 0zm.5-14.5l.1-.2-.1-.1h-.1c-.1 0-.1.1-.1.1 0 .1.1.2.2.2zm.9 14.6H179v-.1l.1-.1h.2c.1 0 .1.1 0 .2.1 0 .1 0 0 0zm-.2-3c0-.2.1-.2.2-.2s.3.1.6.2l.6.3v.1h-.5c-.1 0-.4-.2-.9-.4zm.4 1.3h-.1c-.1 0-.2.1-.2.1v.1c.2.1.3 0 .3-.2zm0-14.1c.1.1.1.1.2 0l.1-.1c0-.1 0-.1-.1-.2s-.1 0-.2.1v.2zm.7 15.9c0 .1 0 .2-.1.2h-.2c-.1 0-.1-.1-.1-.2s.1-.1.2-.1c.1-.1.1 0 .2.1zm-.2-15.2v-.1h-.2l-.1.1v.1c.2-.1.3-.1.3-.1zm.1-.5c.1-.2.1-.2 0-.3-.1-.1-.1-.1-.1 0s-.1.1 0 .2l.1.1zm.9 15.9h-.3c-.2 0-.3-.1-.3-.1 0-.1.1-.2.3-.2.2 0 .3.1.3.3 0-.1 0 0 0 0zm-.4-26.8c-.1 0-.1.1-.1.1.1 0 .1.1.1.1.1 0 .1-.1.1-.1.1 0 0-.1-.1-.1zm0 2.5c.1 0 .3-.1.6-.3h.2c0 .2 0 .3.1.3 0 0 .1 0 .2-.1s.3-.1.4-.1c.1 0 .2 0 .4.1l.1.1v.1h-.1c-.6 0-1.2.1-1.8.2-.1 0-.2 0-.2-.1s0-.1.1-.2zm1 21.4c.1.2 0 .3-.2.3s-.3-.1-.3-.2c.1-.1.2-.1.5-.1zm.3-12.9l.1-.2c-.1 0-.1-.1-.2-.1v.2l.1.1zm.8 15.6l-.1.1c-.1 0-.2-.1-.1-.2l.1-.1.1.2zm3.6-.6s-.9.2-2.6.6h-.4c-.2 0-.3-.1-.3-.1v-.1c.1-.1.2-.1.4-.1h.4l2.3-.5h.1l.1.2zm-2.3-15.3l.1-.1v-.1l-.1-.1-.1.1v.1c0 .1.1.1.1.1zm.4 13.4v.2h-.2v-.2l.1-.1h.1zm.4-12.2c-.2.1-.3 0-.3 0v-.1c0-.1.1-.1.2-.1 0 0 .1.1.1.2zm.4-.2v.2l-.1.1c-.1 0-.1-.1-.1-.1 0-.1 0-.2.1-.2h.1zm.6 1.6v-.2l.1-.1 1.8-.2c.1 0 .2 0 .2.1.1.1 0 .1-.1.2h-.4c-1.1.2-1.6.2-1.6.2zm.4 10.9s-.1.1-.2.1-.2 0-.2-.1c0-.2.1-.3.3-.3.1 0 .1 0 .1.1.1 0 0 .1 0 .2zm.3-12.6v.2l-.1.1-.1-.1-.1-.1.1-.1h.2zm1.2 14c-.5.3-.8.4-1 .3l-.1-.1v-.1c.2-.2.5-.2.9-.2.1 0 .2 0 .2.1zm-.5-1.9v.2c-.1.1-.2.1-.2 0-.1-.1 0-.1.1-.2-.1-.1 0-.1.1 0zm0-11.9h-.2l-.1-.1v-.1c.1 0 .2 0 .3.2zm.7 0c-.2 0-.2 0-.2-.1v-.1l.1-.1c.1 0 .1 0 .2.1-.1.1-.1.2-.1.2zm.4 1.3h-.1l-.1-.1v-.1h.2c.1.1.1.2 0 .2zm.4 12.1h-.2v-.1h.2c.1 0 .1.1 0 .1zm0-14.6c-.1.1-.1.2-.1.2 0 .1.1.1.3-.1v-.1l-.1-.1-.1.1zm1.6 13.9l-.1.1h-.2v-.2l.1-.1c.1.1.1.2.2.2zm1-22.9l-.3.1c-.2 0-.3-.1-.3-.2s.1-.1.2-.1c.3 0 .4.1.4.2zm0-.7c.1.1 0 .2 0 .2h-.2l-.1-.1v-.1l.1-.1h.1l.1.1zm.7.6v.2h-.2c-.2 0-.3 0-.3-.1 0-.2.1-.2.3-.2.1-.1.1 0 .2.1zm-.2-.4c-.1 0-.1-.1-.1-.1l.1-.1.1-.1c.1 0 .2.1.2.2-.1.1-.2.1-.3.1zm.7.5h-.2l-.1-.1v-.1l.1-.1h.1l.1.3zm.1-.6v.2h-.2v-.1c0-.1.1-.1.1-.1 0-.1.1-.1.1 0zm.4.6c0 .1-.1.1-.1.1-.1 0-.1-.1-.1-.2s.1-.1.2-.1v.2zm.1-.7c.3 0 .5 0 .5.2 0 0-.1.1-.2.1-.2 0-.3 0-.3-.1v-.2zm.3.7l-.2.1-.1-.1v-.1h.2l.1.1zm.9-.4l-.2.1-.1-.1v-.1l.1-.1c.1-.1.1-.1.2 0 0 .1.1.1 0 .2zm.6 0c-.1 0-.1.1-.2.1-.2 0-.2-.1-.2-.1 0-.1.1-.2.3-.2.1 0 .1.1.1.2zm1.6 0c0-.1 0-.1.1-.2h.1c.1.1.2.1.1.2 0 .1-.1.1-.2.1 0 .1-.1 0-.1-.1zm.8 17.8h-.1l-.1-.1v-.1h.2v.2zm2.4-1.7h-.2c-.1 0-.1-.1-.1-.1.1-.1.1-.1.2-.1s.1 0 .1.1v.1zM201 103v.2h-.4c-.3 0-.4 0-.4-.1s0-.2.1-.2h.3c.3.1.4.1.4.1z"/></g><circle class="st2" cx="145.1" cy="90.2" r="1.6"/><circle class="st2" cx="140.6" cy="90.2" r="1.6"/><circle class="st2" cx="150.1" cy="90.2" r="1.6"/><circle class="st2" cx="155.4" cy="90.2" r="1.6"/><circle class="st2" cx="162.4" cy="90.2" r="1.6"/><circle class="st2" cx="169.2" cy="90.2" r="1.6"/><circle class="st2" cx="176.1" cy="90.2" r="1.6"/><circle class="st2" cx="184.6" cy="90.2" r="1.6"/><circle class="st2" cx="195.4" cy="90.2" r="1.6"/></svg>