<?xml version="1.0" encoding="UTF-8"?>
<!DOCTYPE svg PUBLIC "-//W3C//DTD SVG 1.1//EN" "http://www.w3.org/Graphics/SVG/1.1/DTD/svg11.dtd">
<!-- Creator: CorelDRAW X6 -->
<svg xmlns="http://www.w3.org/2000/svg" xml:space="preserve" width="36.917mm" height="41.236mm" version="1.1" style="shape-rendering:geometricPrecision; text-rendering:geometricPrecision; image-rendering:optimizeQuality; fill-rule:evenodd; clip-rule:evenodd"
viewBox="0 0 3692 4124"
 xmlns:xlink="http://www.w3.org/1999/xlink"
 enable-background="new 0 0 275 210">
 <defs>
  <style type="text/css">
   <![CDATA[
    .fil0 {fill:#FFA300}
   ]]>
  </style>
 </defs>
 <g id="Слой_x0020_1">
  <metadata id="CorelCorpID_0Corel-Layer"/>
  <g id="_746419936">
   <g>
    <path class="fil0" d="M178 2095c0,32 0,52 0,72 0,311 2,622 -2,930 0,81 32,128 101,167 489,275 977,549 1464,829 72,41 133,43 205,2 489,-279 980,-556 1470,-831 68,-38 99,-86 97,-162 -2,-315 0,-628 -2,-944 0,-18 -2,-36 -5,-61 -74,36 -140,70 -209,101 -36,16 -45,36 -45,72 2,245 0,489 2,734 0,43 -14,68 -52,88 -390,218 -779,439 -1169,660 -18,9 -36,18 -63,32 0,-313 0,-619 0,-912 -88,0 -169,0 -257,0 0,295 0,599 0,912 -18,-9 -27,-14 -36,-18 -403,-227 -804,-455 -1207,-682 -36,-20 -38,-45 -38,-77 0,-245 0,-489 0,-734 0,-20 -5,-52 -18,-59 -74,-41 -151,-77 -236,-119zm1570 -1529c36,86 63,153 99,236 36,-86 63,-155 95,-236 -70,0 -126,0 -194,0z"/>
    <path class="fil0" d="M2092 1448c133,68 254,135 378,196 36,18 47,41 47,79 -2,191 0,383 0,585 122,-61 236,-117 351,-176 14,-7 23,-29 23,-45 2,-180 2,-358 0,-538 0,-18 -23,-43 -41,-52 -70,-32 -142,-59 -230,-92 36,-16 59,-27 83,-36 200,-88 399,-180 556,-336 11,-11 41,-16 56,-11 92,27 185,59 275,88 65,20 97,68 99,133 2,180 0,358 0,538 0,61 -27,104 -83,131 -561,277 -1121,554 -1682,831 -54,27 -106,27 -160,0 -558,-277 -1117,-552 -1675,-826 -61,-29 -90,-77 -90,-142 0,-173 0,-347 0,-520 0,-83 32,-124 113,-151 86,-29 171,-56 257,-81 18,-5 47,-5 56,7 171,167 385,266 603,356 9,5 18,9 38,20 -81,32 -153,63 -225,90 -34,11 -45,29 -45,65 2,173 0,347 2,520 0,20 11,47 25,56 110,59 225,113 349,173 0,-90 0,-171 0,-252 0,-110 2,-221 0,-329 0,-41 11,-63 50,-83 124,-61 243,-126 376,-194 -95,-29 -178,-56 -261,-83 -225,-74 -448,-160 -651,-286 -106,-65 -194,-149 -261,-250 -90,-137 -79,-293 36,-412 99,-104 200,-203 304,-302 167,-160 351,-155 538,5 155,133 248,306 324,489 72,169 128,345 191,516 7,18 14,38 25,72 34,-101 63,-187 92,-272 83,-241 178,-475 333,-680 70,-92 155,-169 266,-216 124,-54 243,-41 342,47 126,115 248,234 365,356 106,110 106,270 16,403 -99,151 -241,254 -403,324 -230,99 -466,180 -700,268 -18,4 -36,9 -63,18zm-437 -180c-2,-18 -2,-27 -5,-36 -86,-225 -164,-453 -259,-673 -59,-137 -146,-263 -284,-345 -77,-43 -131,-38 -194,20 -104,99 -205,198 -306,299 -61,61 -72,122 -18,187 61,77 133,153 214,205 257,167 552,252 851,342zm372 2c315,-95 615,-182 880,-356 77,-50 140,-124 196,-196 50,-63 41,-119 -16,-178 -104,-106 -212,-212 -320,-313 -56,-52 -113,-61 -176,-14 -72,54 -149,113 -198,187 -180,259 -270,556 -367,869z"/>
    <path class="fil0" d="M178 2095c86,43 162,79 236,119 14,7 18,38 18,59 2,245 2,489 0,734 0,34 2,59 38,77 403,225 804,455 1207,682 9,5 18,9 36,18 0,-313 0,-617 0,-912 88,0 169,0 257,0 0,293 0,597 0,912 27,-14 45,-23 63,-32 390,-221 779,-441 1169,-660 38,-23 54,-45 52,-88 -2,-245 0,-489 -2,-734 0,-36 9,-56 45,-72 68,-29 135,-65 209,-101 2,25 5,43 5,61 0,315 -2,628 2,944 0,77 -32,126 -97,162 -491,277 -980,552 -1470,831 -72,41 -133,38 -205,-2 -486,-277 -975,-554 -1464,-829 -68,-38 -101,-88 -101,-167 2,-311 2,-622 2,-930 0,-20 0,-41 0,-72z"/>
    <path class="fil0" d="M1747 566c68,0 126,0 194,0 -34,81 -61,151 -95,236 -36,-83 -63,-151 -99,-236z"/>
   </g>
  </g>
 </g>
</svg>
