<svg version="1.0" xmlns="http://www.w3.org/2000/svg" viewBox="0 0 283.5 354.3">
  <g fill="#EC9100">
    <path d="M240.4 178.7c.9-.4 2.4-.5 2.7-1.2.4-.8-.3-2-.5-3 .5.2 1.1.4 1.6.5 1.9.5 3.6-.3 4.4-2 .7-1.5.2-3.3-1.1-4.4-1.4-1-3.5-1-4.8.1-1.5 1.2-1.8 3.1-.8 4.8.2.4.5.7.7 1.1-1.4-.5-2.7-.5-3.5.9-.8 1.5.2 2.5 1.3 3.2-.4 0-.8-.1-1.3-.1-1.5-.1-2.5.8-2.4 2 0 .9.9 2.2 1.7 2.5.8.2 2.2-.4 2.8-1.1 1-1.2 0-2.3-.8-3.3zM51.9 233.8c.3 0 .7.2.9.1.5-.3.8-.7 1.2-1.1-.4-.4-.8-.8-1.2-1.1-.3.4-.8.8-1 1.3-.1.2.1.5.1.8-.3-.4-.6-.9-1-1.3-1.3-1.1-3-.8-4 .6-.9 1.3-.5 3.1.9 3.7.8.3 2.1.4 2.6 0 .8-.7 1-2 1.5-3zm198.9-33.2c1.5-.1 2-1.4 1.7-2.5-.3-.9-1.2-2-2.1-2.2-1.9-.5-2.7 1.1-3.3 2.7-.5-.2-1.1-.6-1.4-.5-.7.2-1.6.6-1.7 1.1-.2.6.2 2 .5 2.1 1.8.4 3.7.5 5.6.5 0-.1.4-.8.7-1.2zm-184 25.3c-1.2-.1-2.3.2-2.4 1.5 0 .6.6 1.5 1.1 1.8.4.2 1.5-.2 1.9-.6.9-1.1.2-2-.6-2.7.6.1 1.3.3 1.8.5.3-1 .4-2.2.8-2.4.7-.2 1.6.3 2.5.5.9-1.6.8-3.1-.5-4.3-1.3-1.2-2.9-1.7-4.3-.6-1.4 1-2.6.5-3.9.2-.6-.1-1.3-.1-1.9.2-.2.1-.4 1.1-.2 1.3.4.4 1.1.7 1.7.7 1.2 0 2.1.2 2.4 1.7.3.7 1.1 1.4 1.6 2.2zM38.3 192v2.1c.7.5 1.3.8 1.6 1.2.2.2-.1 1.1-.4 1.2-1.2.5-.7 1.1-.2 1.8.9-.5 1.8-.9 2.4.1.7 1.2-.3 1.6-1.5 2.3.8.2 1.2.2 1.5.4.4.3.8.6 1.1 1 .4.5.6 1.1.9 1.6.1-.2.2-.3.3-.5.7-.1 1.5-.5 2.1-.4.8.2 1 .9.8 1.8 0 .1.3.4.5.5.2-.5 0-.9 0-1.3-.2-1.5.4-2.9 1.7-3.6 1.2-.6 3-.5 3.9.4 1 1.1 1.9 2.4 2.9 3.6.7-.4 1.4-.8 1.8-1 .7.4 1.2.8 1.8.9.3 0 1-.5 1-.7 0-.7-.3-1.3-.6-2.2.4-.6 1.5-1.2 1.1-2.6 0-.1.2-.5.4-.6 1.3-.6 1-1.8 1.4-2.8-1.9-.6-2-1-.7-2.6-.9-1.4-.6-1.4-.2-2.8.3-1 0-2.4-.6-3.2-.8-1-2.2-1.7-3.3-2.5-.2-.1-.3-.3-.4-.5-.6-.5-1.2-1.1-1.9-1.7-.5 1.4-1.2 2.1-2.4 1.9-1.5-.3-1.2-1.5-1.3-2.7-1 .2-2 .3-2.9.5-1.1.2-2.2.3-3.3.5-1 .2-1.5.8-1.4 1.9.1 1.3-1.1 2-2.4 1.6-.3-.1-.8-.1-.9 0-.6.8-1.2 1.7-1.9 2.8 2.5-.5 3.6-.1 4.2 1.1.5 1.1.2 2.4-.8 3.1-1.2 1.2-2.3 1-4.3-.6zM187.9 54c.8.6 1.6 1 2.3 1.6 1.7 1.3 4.1 2 4.3 4.6.2 1.8 1.4 3.1 3.3 3.3 4.8.5 9.5-4.2 8.8-8.8-.6-4.4-5.1-6.8-9.2-4.9-.6.3-1.2.4-1.8.4-2.2 0-4.3-.2-5.8-2.5-.6 2.3.6 4.5-1.9 6.3zm51.3 148.7c-.6 2.7 0 4.2 2 4.6 1.6.3 3.2-.7 3.3-2.3 0-.8-.4-1.9-1-2.4-.6-.6-1.7-.7-2.6-.9 1.4-2.3 1.5-4 0-5.4-1.3-1.3-2.8-1.7-4.5-.9-1.7.8-2.6 2.5-2.2 4.3.3 2 1.5 2.7 5 3zm2.1 17.3l.1.1c.1 1.1-.2 2.5.3 3.4.4.6 2 1.1 2.8.8 1-.3 1.6-.2 2.4.3 1.6.8 3.6.2 4.5-1.3.9-1.5.7-3.3-.7-4.4-1.4-1.2-3.2-1.2-4.7 0-.5.4-1.1.7-1.2.7-.7-1.4-1.1-2.4-1.8-3.2-.2-.2-1.9.3-2 .7-.2.9.2 1.9.3 2.9zM212.9 37.4c0 3-.1 5.6 0 8.2 0 .8.3 1.8.8 2.2.9.7 2.1 1.1 3.2 1.2.6 0 1.6-.8 1.9-1.4 1.4-3.2.7-6.4-.4-9.5-.2-.5-.6-.9-1-1.7-.5 1.9 1.1 3.9-1.5 5-.9-1.2-1.8-2.5-3-4zm35.8 174.3c0 .5-.1 1.3.2 1.6.6.6 1.5 1.2 2.2 1.2.5 0 1.4-1.3 1.3-1.9-.3-1.1.1-1.6.7-2.3 1.1-1.4 1.1-2.9 0-4.3s-2.6-1.9-4.2-1.3c-1.6.6-2.5 1.9-2.5 3.6 0 .4.2.9.1 1.3-.4 2.5-.3 2.7 2.2 2.1zm-65.2-175c0-2.3-1.7-4.1-4-4.2-2.3-.1-4.3 1.9-4.3 4.2 0 2.2 2 4.1 4.2 4.1 2.3 0 4.1-1.8 4.1-4.1zm65.9 193.6c1.5 1.6 3.1 1.8 4.2.6 1-1.1.9-2.6-.3-3.5-1.2-1-2.6-.7-4.1 1.1-1.2-1.5-2.6-2.5-4.6-1.5-1.5.7-2 1.9-1.7 3.4.3 1.4 1.2 2.3 2.7 2.5 2 .2 3.1-.9 3.8-2.6zm-9.9-38.1c1.6 2.4 3.3 3 5 1.9 1.5-.9 1.9-3 1-4.5-1.1-1.6-3-1.8-5.3-.3-1-1.3-2.4-1.9-3.7-.7-.6.5-.9 1.9-.6 2.6.6 1.6 2.1 1.7 3.6 1zM186.8 62.9c.9.1 1.7.2 2.4.3 1.5.3 3.3-.8 3.8-2.3.6-1.9 0-3.1-1.9-3.8-4.2-1.7-5-3.1-4.2-7.5.1-.4-.1-.8-.2-1.8-.6.9-.9 1.2-1 1.6-.5 2.1-.5 4.1.6 6.1.4.7.5 1.7.5 2.5.1 1.7 0 3.3 0 4.9zm-14-7.9c-.8-2-1.4-3.6-2-5.3-.2-.5-.5-1.1-.9-1.2-.4-.1-1 .3-1.5.6-2.3 1.3-2.1 4-3.3 5.9-.6.9.7 2 2 1.8 1.2-.2 2.4-.2 3.6-.5.6-.2 1.2-.8 2.1-1.3zm65.4 107.6c-1.4 1.2-2.4 2.4-1.1 4.1.9 1.1 2 1.3 3.2.6 1.8-1 1.4-2.6.7-4.1 1.3-1.1 2.2-2.3 1-3.9-.8-1.1-2-1.4-3.2-.6-1.5 1-1.5 2.3-.6 3.9zM113.3 41.1c0 1.9 1.4 3.4 3.3 3.4 1.8 0 3.5-1.5 3.5-3.3 0-1.8-1.6-3.4-3.4-3.4-2-.1-3.4 1.4-3.4 3.3zM59 228.7c1.9-1 1.9-1.5.3-5.8h-1.7c-2.7-.1-4.1 1.6-3.6 4.2.1.6 0 1.2-.1 1.8-.1 1.1.7 1.7 1.7 1.3.9-.4 1.7-.9 2.3-1.2v-2.5h2.2c-.5 1-.7 1.5-1.1 2.2zm61.6-166.1c0 1.5 1.7 3.1 3.2 3.1 1.6 0 2.8-1.8 2.8-3.9 0-1.2-1.7-2.9-2.8-2.9-1.7.1-3.2 1.9-3.2 3.7zM50 217.7c.1 1.4.8 2.4 2.4 2.6.7.1 1.3.6 2 .8.5.2 1.1.1 1.7.1 0-.6.2-1.2.1-1.7-.2-.8-.6-1.5-.7-2.3-.2-1.4-1.5-2.6-2.9-2.5-1.4.3-2.5 1.6-2.6 3zM175.4 55.6c.4.1.7.3 1 .2 1.7-.3 3.4-.6 5-1.2.9-.4 1.7-1.4 1.9-2.3.2-.5-.6-1.8-1.2-2-.7-.2-1.7.3-2.5.7-.6.3-1.1 1-1.7 1.2-1.8.5-2.1 1.9-2.5 3.4zm60.4 155.7c0 1.4 1.2 2.6 2.7 2.7 1.5.1 2.7-1 2.8-2.5.1-1.6-1.1-2.8-2.7-2.8-1.5.1-2.8 1.2-2.8 2.6zm15-22.5c-1.5 0-2.6 1.2-2.5 2.7.1 1.5 1.1 2.4 2.6 2.4 1.5.1 2.6-1.1 2.6-2.6s-1.1-2.5-2.7-2.5zM53.9 39.9c-1.5 0-2.6 1.2-2.6 2.7.1 1.5 1.2 2.5 2.8 2.4 1.6-.1 2.4-1 2.5-2.5 0-1.5-1.2-2.6-2.7-2.6zm5.8 1.2c-1.9 0-3.1 1.6-2.4 2.9.5.9 1.1 1.7.7 2.8-.1.3.4 1 .8 1.1.5.2 1.5 0 1.5-.2.4-1.8.7-3.7.8-5.6 0-.3-1.1-.8-1.4-1zM57.8 234c-.6.1-.8.1-1.1.2-.6.2-1.3.4-1.9.7-.1.1.2 1.2.3 1.2.6.1 1.2-.1 1.8-.2 1.1-.3 2.1-.8 2.9.5.1.2.6.3.9.3.1 0 .3-.5.3-.8.1-3 .1-3-2.4-4.6-.3-.2-1.1-.3-1.3-.1-.3.3-.4 1-.3 1.4.1.5.5.8.8 1.4zm80.1-195.4c0 1.5.4 2.6 2 2.7 1.3.1 2.4-1.2 2.3-2.6-.1-1.3-.7-2.3-2.2-2.3-1.5 0-2.2.8-2.1 2.2zm-81.1-2.3v-.7c-.4-.6-.8-1.2-1.4-1.6-.2-.1-1.2.5-1.2.5.4 1.3.8 2.5 1.3 3.8.2.4.8.7 1.2.7.4 0 .9-.3 1.3-.5.6-.3 1.1-.5 1.6-.9.4-.3 1-.7 1.1-1.1.1-.4-.3-1.2-.7-1.3-.4-.2-1 .1-1.5.3-.6.2-1.1.5-1.7.8zm194.8 147.5c0-1.3-.8-2.3-2.1-2.4-1.3-.1-2.5 1-2.4 2.3.1 1.4.9 2.2 2.3 2.2 1.3.1 2.1-.6 2.2-2.1zm-177.1 15c.2 1.4 1 2.2 2.5 2.2 1.3-.1 2.2-1 2.2-2.2 0-1.3-.9-2.3-2.3-2.3-1.5 0-2.2 1-2.4 2.3zm87.1-153c-.5-.4-1.3-1.4-2.1-1.4-1.6 0-2.2 1.3-2.2 2.7 0 1.2.7 1.8 1.9 1.7 1.7-.1 2.2-1.1 2.4-3zM81.5 222.6c-.8-.6-1.6-1.5-2.5-1.6-1.3-.2-2.2.8-2.2 2.1s.8 2.2 2.3 2.2c1.4-.1 2.1-.9 2.4-2.7zm169.4 19.3h.9c.6-.8 1.4-1.6 1.7-2.5.3-1.1-1.1-2.3-2.3-2.1-1.3.2-2.3 1-2 2.2.2.8 1.1 1.6 1.7 2.4zM180.4 55.2c-1 1.2-2.1 2-2.1 2.7 0 .6 1.2 1.3 1.8 1.9.7-.7 1.7-1.3 2-2.1.2-.4-.8-1.3-1.7-2.5zm50.9 105.6c-.8 1.2-1.8 2-1.7 2.5.2.7 1.2 1.3 1.9 1.9.6-.7 1.6-1.3 1.7-2.1.1-.5-.9-1.2-1.9-2.3zm8.1 8.4c-1.2-.9-2-1.8-2.6-1.7-.8.2-1.3 1.1-2 1.8.7.6 1.3 1.5 2 1.7.6.1 1.4-.9 2.6-1.8zM51.7 53.3h.8c.5-.7 1.4-1.4 1.3-2-.2-.7-1.1-1.3-1.8-1.9-.6.7-1.6 1.2-1.7 2-.1.5.9 1.3 1.4 1.9zm21.7 159.4c-.5 1-1 2-1.4 3.1-.1.4.1.9.2 1.3 0 .1.2.2.3.2 2 .4 1.5-2.1 2.8-2.4-.2-.6-.4-1.3-.7-1.9-.1-.1-.5-.1-1.2-.3zm11.1-28.4c-.8 1.2-1.4 1.9-1.6 2.7-.2 1.1.6 1.9 1.7 1.6.7-.2 1.7-1.1 1.7-1.7.1-.6-.9-1.3-1.8-2.6zm125.1-140c2.4-2.1 2.6-3.1.8-4.7-1.9 1.4-2 2.5-.8 4.7zm-126 155c-.9 1.1-1.8 1.8-1.7 2.4.1.6.9 1.4 1.6 1.6.4.1 1.4-.9 1.5-1.4 0-.7-.7-1.4-1.4-2.6zm145.8-32c-.7 1-1.5 1.6-1.4 2.1.1.6.9 1.1 1.4 1.6.6-.5 1.4-1 1.6-1.6.1-.4-.8-1.1-1.6-2.1zM126.7 49.5c-.9 1.2-1.7 1.8-1.7 2.4 0 .5.9 1.1 1.4 1.6.5-.5 1.3-1 1.4-1.5.1-.6-.5-1.3-1.1-2.5zm-54 160.7c1 .7 1.7 1.4 2.1 1.3.6-.1 1.2-.9 1.4-1.5.1-.3-.9-1.2-1.4-1.2-.6 0-1.1.7-2.1 1.4zM235 175.9c-.6 1-1.3 1.6-1.2 2.1.1.5.8 1 1.3 1.5.5-.5 1.3-1 1.4-1.6.1-.5-.8-1.1-1.5-2zM73.5 207.8c-1.1-.6-1.7-1.2-2.2-1.2-.5 0-1.4.9-1.3 1.2.2.6.8 1.3 1.3 1.4.5.1 1.1-.6 2.2-1.4zm7.5-11.7c-.7.9-1.4 1.5-1.4 1.9.1.6.9 1 1.3 1.5.5-.4 1.3-.9 1.3-1.3.1-.6-.6-1.1-1.2-2.1zm-19.4 34.1c.9.6 1.5 1.3 1.9 1.2.6-.1 1-.9 1.4-1.3-.5-.4-1-1.1-1.6-1.2-.4-.1-.9.6-1.7 1.3zm1.4 3.7c1.2.7 2.2.9 3-.2.2-.3-.2-1.3-.5-1.5-1.6-.6-1.9.8-2.5 1.7zm64.1-176.3c.1-.9.6-2.2-1.1-2.1-.3 0-.7.8-.6 1.1.3.9.8 1.7 1.3 2.6.2-.2.6-.3.6-.6 0-.2-.1-.6-.2-1zM65.5 33.7c-.6.7-1.3 1.2-1.2 1.6.1.5.8.9 1.2 1.4.4-.4 1.1-.8 1.1-1.3s-.6-1-1.1-1.7zm9 184.1c.8.5 1.2 1.2 1.7 1.1.4 0 1.1-.7 1.1-1.1 0-.4-.7-1.1-1.2-1.1-.3-.1-.8.5-1.6 1.1zm8.2-9.4c.4.1.7.3 1.1.4.4-.8.8-1.7 1.2-2.5-.5-.2-.9-.4-1.4-.6l-.9 2.7zM46.4 58.1c.7.5 1.3 1.2 1.6 1.1.5-.1.9-.8 1.3-1.2-.4-.4-.8-1-1.3-1-.4-.1-.9.5-1.6 1.1zm199.7 178c.7.6 1.2 1.2 1.7 1.2.4 0 1.2-.7 1.2-1.1 0-.4-.7-1.1-1.1-1.2-.5-.1-1 .5-1.8 1.1zM55.6 47c-.8-.5-1.3-1.1-1.7-1-.4.1-.8.7-1.2 1.1.4.4.8 1 1.2 1.1.4 0 .9-.6 1.7-1.2zm176.7 127.1c.9.5 1.4 1 1.8 1 .4 0 .8-.7 1.1-1-.4-.4-.8-1-1.2-1.1-.3 0-.8.6-1.7 1.1zm10.4 35.5c-.5.8-1 1.3-1 1.8 0 .4.8 1 1 .9.5-.1 1.1-.7 1.1-1.1.1-.4-.5-.9-1.1-1.6zM48.7 52.9c-.5.8-1 1.3-1 1.8 0 .3.7.9 1.1.9.4 0 1.1-.6 1.1-1-.1-.5-.6-.9-1.2-1.7zm14.5 160c-.8-.5-1.3-1.1-1.8-1-.4.1-.8.7-1.2 1.1.4.3.8.9 1.2.9.5 0 1-.5 1.8-1zm66.6-165.7c.7.4 1.2.9 1.5.8.5-.2.8-.8 1.2-1.2-.4-.4-.9-1-1.3-1s-.8.8-1.4 1.4zm-76.4 9.4c.7.5 1.1 1.1 1.5 1.1.4 0 .8-.6 1.2-1-.4-.4-.7-.9-1.1-1-.4 0-.8.5-1.6.9zm21.8 145.8c.6.6 1 1.1 1.4 1.2.4 0 1-.6 1-.9 0-.4-.5-1.1-.9-1.1-.2-.2-.7.3-1.5.8zM235.8 148c-.5.7-1.1 1.1-1 1.5 0 .4.6.8.9 1.1.4-.4 1-.7 1.1-1.1.1-.3-.5-.8-1-1.5zm8 35.3c-.4.8-.9 1.2-.8 1.6.1.4.7.7 1.1 1 .3-.4.9-.8.9-1.2-.1-.4-.7-.8-1.2-1.4zM49.8 36.6c.7.6 1.1 1.1 1.5 1.1.4 0 1-.6 1-.9 0-.3-.5-1-.9-1-.4-.1-.9.4-1.6.8zm183.7 146.7c-.5.6-1.2 1.1-1.1 1.4.1.5.7.8 1.1 1.2.3-.4.9-.7 1-1.1 0-.4-.5-.9-1-1.5z"/>
    <path d="M71.4 190.1c1.1-1.7 3.9-1.6 4.5-4 .1-.4.9-.6 1.5-.8.1 0 .7.5.7.7-.2.5-.5 1-.8 1.4-1 1.2-2.2 2.3-2.9 3.6-.7 1.5 1 3.5 3 4 .3.1.6.1.9.5-.4.1-.9.2-1.3.2-2.6.1-4 1.9-3.4 4.3.1.4.7.8 1 .8 2.9.5 5.8 1.1 8.6-.1.3-.1.7-.1 1.4-.1-.4.5-.5.9-.8.9-2.3.4-4.6.7-6.9 1-.8.1-1.7 0-2.2.4-.7.5-1.8 1.5-1.7 2 .2.8 1.3 1.4 2.1 1.9.7.5 1.5.8 2.3 1.2-.1.2-.1.4-.2.6-.5 0-1.1.2-1.5 0-1.8-.6-2.5.7-2.6 1.9-.2 1.2-.5 2.9 1.6 3.2 1.2.2 2.4.7 3.5 1 0 .2-.1.3-.1.5-1.2-.3-2.4-.5-3.6-.9-1.5-.5-2.4-.4-2.9 1.4-.5 1.5-1.5 2.9-.4 4.5.5.8 1.1 1.5 1.6 2.6-.8-.4-1.8-.5-2.4-1.1-1.3-1.1-3.5-1.3-4.8-.1-.9.8-.8 2.2.2 3.2 1.1 1.1 2.1 2.3 3 3.7-2.9-.5-2.9-4.7-6.4-4.6.3.7.6 1.1 1 2.1-.8-.2-1.2-.3-1.6-.5-.8-.5-1.5-1.2-2.4-1.4-.9-.3-1.9-.1-2.9-.1.2.7.4 1.5.6 2.2.1.3.1.5.2.8-.1.1-.3.2-.4.3-.5-.6-1.2-1.1-1.4-1.7-.3-1.6-1.4-1.5-2.6-1.5-1.4 0-1.2.9-1.4 1.8 0 .2-.2.4-.3.5-.9-1.1-1.7-2.1-2.5-3.1-1.5-1.8-1.5-1.7-2.8.2-.1.2-.4.3-.7.4-.4-1.1-.5-2.5-1.2-3.1-.7-.6-2.1-.4-3.4-.5 0-.1.3-.5.3-.9.1-1.1.2-2.3-1.6-2.4-1.3-.1-2.2-1.6-1.3-2.6 1.3-1.5.7-2.6 0-3.9-.2-.4-.2-.8-.2-1.3H34c2-.3 3.1-1.2 2.5-3.3.6-.3 1.1-.5 1.6-.7.3-2.8-2.5-.9-3.4-2.5.9 0 1.6-.2 2.3-.1 1.4.1 2.1-.5 2.5-1.7 1.1-2.8.3-5-2.3-6.4-.4-.2-.5-.8-.7-1.3.4 0 1 0 1.3.2 1.7.8 3.2 1.9 4.9 2.6 1.2.5 2 .2 2.1-1.4.1-1.9.5-3.8.7-5.7.1-.7-.1-1.5 0-2.2.1-.8.4-1.6.5-2.4.2-.8.3-1.5.7-2.3l.3 3.3c.6 0 1.2.1 1.8.1.2.7.4 1.5.6 2.3h4.1c2.6-3.8 2.6-8.2 2.8-12.5.2 0 .5 0 .7.1-.2 3.9-.4 7.7-.6 11.6 2.1.7 3-.2 2.8-3.1.5-.2 1-.5 2-1-1.2-.3-1.9-.5-3-.7.6-.6 1-1.5 1.5-1.5 2.5-.3 3.5-1.8 3.9-4 .1-.5.2-1.1.5-1.4.4-.3 1.1-.4 1.6-.3.6.1 1.2.5 1.8.7 1 .4 2.1.8 3.2 1.2 1.2.6 2-.1 2.3-1 .3-.8.3-1.9 0-2.8-.2-.8-1.4-1.7-1.2-2.1.5-1.1 1.4-2.3 2.5-2.9 2.1-1.2 3.7-2.5 3.9-5.1.2-2.2 3.7-3.8 5.9-2.7.9.4 1.8.9 2.6 1.5 1.2.8 1.7 3 .7 4-1.2 1.3-2.6 2.6-4.1 3.6-2.2 1.5-2.3 1.9-1.4 4.4.4 1.1 0 2.1-1.4 2.3-1.5.3-3.2 2.1-3.2 3.7 0 .6.4 1.8.6 1.8.7.1 1.6-.2 2.2-.7 1-.7 1.9-1.6 3.1-2.6.1.5.3.8.2.9-1.2 1.7-2.4 3.4-3.9 4.9-.3.3-1.9-.3-2.5-1-1.5-1.6-3.5-.5-5.1-1.1-.2.7-.8 1.5-.7 2.1 1.1 3.4 1.2 3.3.2 6.1zM30.4 166.9c-.5.4-1.1.7-1.5 1.1-.7 1.1-2.1 1.3-2.4.3-.6-1.7-1.9-2.4-3.2-3.1-2.3-1.2-4.1-3.6-7.1-3.5-.3 0-.6-.8-1-1.2.7-.3 1.4-.9 2-.8 1.4.3 2.7.9 4.4 1.6-.4-1-.6-1.7-.9-2.3.4-.6.7-1.2 1.2-2-1.3-.5-2.3-.9-3.5-1.4 2.6-.1 3.6-1.6 3.3-4.3 1.8-.4 3.7-.7 5.4-1.3.6-.2 1-1.2 1.2-2 .3-1.3.2-2.6.3-3.9.2 0 .4 0 .6.1-.1 1.2-.2 2.4-.4 3.8 1.6-.3 2.8-.5 4-.7-.1-.1-.1-.2-.2-.3.8-.6 1.5-1.1 2.3-1.6 1.7-1.1 1.9-2.6 1.8-3.9 2.2-.6 4.2-1.2 6.3-1.8 0 1.2.2 2.5-1.1 3.5-1.1.9-.4 4.4 1.2 6 .6-1.5 1.2-2.9 1.9-4.3.1.4.1.9.2 1.4h1.4c0 1 .1 1.9.1 3.2 2.6-1.1 5-2.1 7.4-3.1 0 .1.1.2.1.3-1.3.8-2.6 1.6-3.4 2.1-.3 1.3-.5 2.1-.8 3.3.1.2.3.9.7 1.8h5.5c-1.1 1-3.2-.2-3.5 1.9 1.1.5 2.1 1 3.4 1.6-1.8.3-3.3.5-4.7 1-.5.2-1.1.9-1.2 1.5-.1.4.5 1.1 1 1.3 1.3.5 2.6.8 3.9 1.5-.9-.1-1.8-.2-3-.3.4.7.7 1.2 1 1.7-2.6 1.2-4.4-1.1-6.9-1.5 1 4.3 3 7.5 6.5 9.8.9.6 1.4 1.6 1.9 2.7-4.5-3.5-7.8-8.5-14-10 .1 3.1 3.7 2.8 4.7 4.8-.3.2-.4.4-.5.4-.4 0-5.5-2.7-5.8-3-1.5-1.9-4.4-2.9-6.7-2.1-.7.2-1.1 1.1-1.6 1.7h-.3zM44.8 182.4c-.2.3-.4.9-.7 1-1.3.4-2.7 1-4 .9-2.8-.4-4.2 2.2-6.5 2.7 0 0-.1.1-.1.2-.2 3.6-3.8 2.8-5.7 4.3-1.3 1-2.5 1.9-4.1 2-.2 0-.4.2-.4.3-.4 2-2.6 2-3.8 3-2.8 2.2-5 1.3-7.8-.5-1.9-1.2-2-4.6-.5-6.3.9-1 1.5-2.4 2.6-2.9 1.2-.5 3.3-.9 4.1-.2 1.8 1.6 3.7 1.1 5.5.8 2.8-.4 5.5-1.2 8.2-2 2.6-.8 5.2-1.9 7.8-2.7 1.7-.5 3.5-.7 5.3-1-.1 0 0 .2.1.4zM76.9 114.4c1.1-.1 2-.3 2.5-.3.6 1.4.9 2.8 1.7 3.9 1 1.5 1 2.7 0 4.1-1 1.3-3 1.8-4.3 1-.9-.6-1.8-1.4-2.4-2.4-.3-.5-.1-1.9.3-2.1 1.7-1 2-2.5 2.2-4.2zM14.5 178.7c-1.1-.1-2.5-.2-3.9-.5-1.9-.4-3.1-3.2-2.1-4.8.8-1.2 3.5-.8 4.9.6.7.7 1.5 1.2 2.4 1.6 1.1.5 1.7-.1 1.7-1.2 0-.6-.1-1.3.1-1.9.1-.4.5-.8.9-1 .1-.1.7.1.8.3.1.4.3 1.2.1 1.3-1.4 1-1.3 2.4-1.4 3.9-.2 2.2-1.9 1.6-3.5 1.7z"/>
    <path d="M63.9 172c-.5.9-1.6 1-2.9.2-.9-.6-1.1-1.7-.2-2.2.8-.4 1.9-.1 2.9.2 1.3-.5 2.4-2.5 4.1-.9.5.5.1 1.9.1 2.9-1.1 0-2.4-.1-4-.2zM148.8 268.7c0-1.4 1.3-2.6 2.8-2.5 1.5.1 2.5 1.2 2.4 2.6 0 1.4-1.2 2.5-2.6 2.5-1.4 0-2.6-1.2-2.6-2.6zM30.6 171.2c1.9 1.5 2 2.4.6 3.8-.5.4-.7 1.1-1 1.7-.8-.1-1.7-.2-2.6-.3-.4-.1-1.1-.2-1.1-.5-.1-.4 0-1.1.3-1.3 1.3-1.3 2.6-2.4 3.8-3.4zM25.9 199.6c1.3-.4 2.4-.8 3.6-.9.5 0 1.4.5 1.6 1 .5 1.1.5 2.4-.9 3-1.8.9-3.3-.1-4.3-3.1zM272.5 155.3c-.2.9-.3 1.8-.5 2.7.8.9 3.1.5 2.7 2.4-.2.8-1.3 1.4-2 2.1-.2-.1-.4-.1-.6-.2-.4-1.8-.8-3.6-1-5.4-.1-.6.6-1.2 1-1.9 0 .2.2.3.4.3zM80.9 156c.1 2-2.8 4.5-4.5 3.8-.3-.1-.5-1.2-.3-1.6 1-1.8 2.2-2.3 4.8-2.2zM58.4 170.7c-1.8-.3-2.1-1.2-2.1-2.3 0-1.2.3-2.1 1.8-2.1 1.4 0 2.4.7 2.2 2-.3.9-1.3 1.6-1.9 2.4zM277.2 176.5c-2.2-.1-3.3-1.3-4.2-2.6-.4-.7-1.1-1.7.2-2.1.6-.2 1.7.3 2.1.9.8 1 1.2 2.3 1.9 3.8zM62.6 158.1c-1-.2-1.7-.4-2.5-.4-.7-.1-1.4 0-2.1-.4 1.9.1 3.8 0 5.5.5.6.2.7 1.9 1.1 2.9-.5.2-1.1.5-1.5.4-.4-.1-.8-.7-.9-1.1 0-.7.2-1.2.4-1.9zM71 160.5c.8.9 1.8 1.6 1.7 1.8-.3.7-1.1 1.3-1.7 1.9-.6-.6-1.4-1.1-1.7-1.9-.1-.2.9-1 1.7-1.8zM75.9 113.8c-.4 1.4.4 3.1-1.6 3.3-.5.1-1.6-.9-1.6-1.4.2-1.8 1.7-1.6 3.2-1.9zM47.7 176.7c-.3-1.8-.6-3.5-.9-5.3 2.1-.2 2.7 2.4.9 5.3zM160 250.1c.6 1.1 1.3 1.7 1.2 2.2-.1.5-.9.9-1.4 1.4-.5-.5-1.3-1-1.3-1.5-.1-.5.7-1.1 1.5-2.1zM60.7 84.4c-.6-.9-1.3-1.5-1.2-1.8.2-.5.9-1.3 1.4-1.3.5 0 1.3.7 1.4 1.2 0 .5-.8 1-1.6 1.9zM161.4 259.5c.5.9 1.2 1.5 1.1 2-.1.5-.9.8-1.3 1.3-.4-.5-1.1-1-1.2-1.4 0-.6.7-1.1 1.4-1.9zM134.1 254.9c-.8.5-1.3 1-1.8 1-.5-.1-.8-.7-1.3-1.1.5-.4.9-1 1.4-1.2.4 0 .9.7 1.7 1.3zM74.6 107.6c1 .7 2 1.3 2.9 2.1.1.1-.1.9-.2.9-.5 0-1.2 0-1.5-.3-.6-.7-1-1.6-1.4-2.4.1-.1.2-.2.2-.3zM140.8 254c-.7.5-1.2 1.1-1.5 1-.4-.1-.9-.7-1-1.2 0-.2.7-.9 1.1-.9.4 0 .8.6 1.4 1.1zM151.6 261.7c-.7.6-1 1.1-1.4 1.1-.4 0-1.2-.6-1.1-.9.1-.5.5-1.1 1-1.2.3 0 .8.6 1.5 1zM76 84.8c.9 1 1.4 1.4 1.3 1.5-.3.4-.7.8-1.1 1-.2.1-.8-.5-.9-.9 0-.4.4-.8.7-1.6zM200.4 128.3c.3.6.7 1.1 1 1.7-.1.2-.2.3-.3.5-.6-.2-1.3-.2-1.6-.5-.2-.4.1-1.1.1-1.6.3-.1.5-.1.8-.1zM250.8 200.6c-.6-.1-1.4 0-1.9-.3s-.8-1-1.1-1.6c0-.1.5-.7.7-.6.7.2 1.5.3 2 .8.3.3.1 1.2.3 1.7z"/>
  </g>
  <path fill="#F5BA00" d="M98.4 242.4h-51c-1.2 0-2.3.2-3.1-1.3-.6-1-1.9-.9-2.8.1-1.2 1.3-4.3 1.6-6 .8-.5-.3-1.5-.3-2-.1-1.5.7-1.8.6-1.9-1.1v-19.2c0-1.7-.1-3-2.2-3.4.6.1 1.2.2 2.2.3v-2-39.2c0-1.3.1-2.6-.1-3.8 0-.5-.5-1-.8-1.4-.9-1.1-1.3-2.2.1-3.2.4-.3.7-.8.8-1.2.1-4.8 0-9.5 0-14.8-.5.7-.7.9-.8 1.1-.2 1.2-.9 1.5-2.1 1.4-1.5-.2-1.5-1.4-1.6-2.4-.2-1 .3-1.7 1.6-1.9 1.7-.3 2.8-1.8 2.8-3.1.2-6.6.1-13.3.1-20.1-.6 0-1.2.1-1.7 0-.6-.2-1.2-.6-1.7-1 .4-.6.8-1.2 1.2-1.7.1-.1.4 0 .5-.1.6-.4 1.1-.7 1.7-1.1-.5-.4-.9-.8-1-.8.4-1.1.9-2.1 1-3.1.2-2 0-4 0-5.9-.2 0-.4-.1-.6-.1-.2 1.1-.5 2.1-.9 3.8-1.2-1.1-2.1-1.8-2.8-2.6-1.4-2-2.6-4.1-4.2-6-.8-.9-2.2-1.3-3.3-2h-.2c-1.5-1.7-2.9-.6-4.3.3-1.4.9-3.1 1.6-3.3 3.7 0 .4-.8.9-1.1.9-.5-.1-1.1-.6-1.2-1-.1-.3.3-1.1.7-1.3l4.8-2.7c.9-.5 1.1-.9.1-1.8-2.2-2-2-3.9.4-5.6.2.6.3 1.5.7 1.7 1.5.8 3.1 1.5 4.7 1.8.5.1 1.3-.9 1.8-1.4-.8-1-1.5-1.8-2.1-2.6-.6-.9-.3-1.4.8-1.5 1.8-.1 2.5-1.5 1.5-3-.4-.6-.8-1.3-.9-2-.1-.7 0-2 .2-2 .9-.1 2.1-.2 2.6.2 1.1 1.3 3.3 2.3 1.9 4.7 0 .1 0 .3.1.4 1.4 1.5 1.1 3.2 0 4.7 1.5.1 2.8.2 4.7.4-1-.9-1.8-1.5-2.6-2.2 0-.1.1-.2.1-.3.6.1 1.2.3 2 .5V74.5c-1.7.9-3.3 1.5-3.6 3.6-.1.4-.9 1-1.4 1-.4 0-1.1-.6-1.1-1s.5-1.2.9-1.3c4.2-1.4 6.3-3.9 5.5-8.5-.4-2.1-.1-4.4 0-6.6 0-1.4.2-2.8.4-4.5 1.4-.1 2.8-.6 2.1-2.8 1.3-.7 2.7-1.3 1.8-3-.8-1.5-2.1-1.4-3.5-.4-.3-1-.6-1.9-1-3.2 1.8.8 3.3 1.5 4.5-.3.9-1.5 0-2.5-.6-2.9-.2-1.5 0-2.8-.5-3.4-.5-.6-1.8-.4-3.1-.6v-7.5c0-1.3 1-1.1 1.8-1.1h25.8c1.5 0 2.9-.1 3.3 2.1.1.7 1.5 1.4 1.2 2.6-.2.6-.3 1.3-.6 1.7-1.2 1.5-2.6 2.9-3.8 4.4-.3.4-.2 1-.3 1.5.5-.2 1.2-.2 1.6-.5.7-.7 1.3-1.5 2-2.3.2.2.4.3.6.5-1.4 1.7-2.7 3.3-4.1 5 .1.1.2.3.3.4 1.6-.5 3.3-1.1 4.9-1.6-.5 1.6-1 3-1.3 4.5 0 .1.7.4 1.2.6-.6 1.3-1.1 2.7-1.7 4.1l.6.3c.7-1.4 1.4-2.7 2.1-4.1.4-.8.9-2.1 1.5-2.1 1.6-.1.8 1.4.8 2.2.2 1.9.1 3.9.1 5.8h-.5c-.1.1-.2.2-.3.2-.8-.1-2-.6-2 .8 0 .5.6 1.3 1 1.4 1.1.1 2-.2 2.3-1.6.3-2.2 1-4.4 1.5-6.6.2 0 .5 0 .7.1.1.9.3 1.7.4 2.6.1 0 .2.1.3.1.2-.8.3-1.5.5-2.3.2-.7.8-1.9.9-1.9 1.1.3 2.2.6 3 1.3.5.4.7 1.3 1 2 .2-.1.4-.1.6-.2-.5-1.8-1-3.7-1.6-5.8.8.2 1.6.3 2.5.5 0-.4-.1-.7-.1-1.1.4 0 .9 0 1.3.1 0-.1.1-.2.1-.3-1-.6-1.9-1.2-2.9-1.8.1-.2.1-.3.2-.5 1.2.1 2.5-.5 3.7.8.6.6 1.9.6 3 1-.2-1.9-1.7-3.5.1-5.2-3.6-.2-5.1-2.5-5.5-5.9 1.5.3 2.7.6 4 .8.1-.2.1-.4.2-.6-1.9-.6-3.8-1.3-5.7-1.9.1-.3.2-.6.2-.9h18.2c.5 0 1.4.6 1.4 1 .3 2.9 2.8 4.9 5.5 4.8 2.8 0 4.6-2 5.3-5.3 0-.1.1-.2.2-.5h10c.8 3.6 1.8 4.9 4 4.7 2.1-.2 3.1-1.6 3.4-4.8h15.9c.4 0 1 .6 1.2 1.1.9 2.4 2.7 3.9 5 4 2.2.1 4.4-1.4 5.2-3.8.3-1 .8-1.4 1.9-1.4 15.3.1 30.5.1 45.8.1 14.3 0 28.7 0 43-.1 2.6 0 4.1-1.7 3.9-4.3 0-.5 0-1.2.3-1.5 3.7-3.3 4.9-2.6 4.3-.9-.6 1.7-.9 3.3-2.4 4.7-1.1 1.1-1.5 3.1-1.5 4.7-.1 11.2-.1 22.4-.1 33.5 0 .2.1.3.2.5 2.3-.9 4.5-1.8 6.8-2.7.1.2.1.4.2.5-1.7.8-3.5 1.5-5.2 2.3-1.5.6-2 1.6-1.9 3.2.1 4.2 0 8.5 0 12.6 2.7-1.4 5.2-2.7 7.1-3.7-.3 1.5-.7 3.5-1 5.5-.3 1.9-2.8 3.2-4.4 1.7-.5-.4-1-.9-1.7-1.5 0 .7-.1 1.3-.1 1.9 0 8.2.1 16.5-.1 24.7 0 2 .8 2.8 2.6 3 1.4.2 2.9.3 4.4.7-2 1.7-4.4.5-6.6 1-.2 1.3-.2 1.3 1.3 1.3h5.3c.1-.1.9-.6 1.4-.4.4.1.8 1 .9 1.6.1 1.4.1 2.8.1 4.2 0 .2 0 .5.1.7.9 1.4 1.9 2.7 3.1 4.4-1.9.7-3.4 1.2-4.9 1.6-.4.1-1-.1-1.4-.3-.8-.6-1.7-1-1.9.2-.2.9.1 2.6.5 2.7 2.7.7 5.6 1.4 8.4 1.5 1.8.1 2.7-1.4 2.3-3.3-.4-1.9.2-3.4 1.4-4.8.4-.5.4-1.3.6-2-.7.1-1.5 0-2 .3-1.5.8-2.4.5-2.5-1.3-.2-2.4 0-4.7 0-7.1 0-1.2-.2-2.4-.4-3.6-.4-2.5-2.3-3.3-4.5-2.1-.5.3-.9.7-1.4 1-.4.3-.8.5-1.2.7-.2-.1-.3-.3-.5-.4 1.1-1.6 2.2-3.3 3.4-4.8.9-1.2 1.8-2.3 2.9-3.3 1-1 2.1-.9 2.9.3.4.6.8 1.3 1.3 1.9.4.4 1.2.9 1.5.8 2.1-1.1 4.1.5 6.2.2 2-.3 4.2.1 6.3.4.6.1 1 1 1.5 1.5-.6.1-1.2.3-1.8.2-2.4-.6-4.9.9-5.9 3.9-.1.2-.1.5-.1.9-1.7-.4-3.2-.7-4.9-1.1-.4 2-.2 3.7 1.7 5 1.9 1.2 2.8 3.1 3.1 5.2.2 1.1.5 1.7 1.8 1.6 1.6-.1 2.7.8 2.7 2.3 0 1.5-1.2 2.2-2.8 2.3-.5 0-1 .1-1.5.1v4c0 2.5-1.6 3.9-3.8 4.4-2.3.6-4.8.8-7.1 1.2-.9.1-1.6 0-2.2 1-.7 1.1-2 .8-2.6-.3-.7-1.4-1.8-1.4-3.1-1.1-2.4.5-4.5 3.1-4.5 5.5v4.8c2.7-3.4 6.6-2.6 9.7-4.1.7 2-.6 2.5-2.2 2.8 1 2.2.4 3.9-1 5.6-.7.8-1 2.1.4 2.9.2.1.2.6.3 1.2-2.9-2.1-6.6-3-6.7-7.5-1 2.6-.7 7.1.3 7.8-.3 1.2-.7 2.4-1 3.6.2.1.3.2.5.4.9-.5 1.8-.9 2.9-1.5-.8 1.3-1.4 2.4-2.1 3.4 1.5 1.6 2.9 1 4.3.2 0 .2.1.3.1.5-1.4.8-2.7 1.9-4.2 2.4-1.4.5-1.4 1.4-1.4 2.5V221.7c-1.7 0-3.4.2-3.3 2.2.1 1.8 1.5 2.3 3.3 2v17c-.7-.3-1.2-.4-1.6-.8-1.5-1.2-2.9-1.2-4.5-.1-.6.4-1.5.7-2.2.7-6.9.1-13.7 0-20.6 0-2.8 0-4.1-1.4-4.1-4.2.9.3 1.8.5 2.6.8.1-.1.1-.2.2-.4-.4-.3-.8-.6-1.3-.9-.3-.2-.8-.2-1-.5-.8-.8-1.5-1.7-2.2-2.5 1-.5 2-1.1 3.2-1.7-1.6-.9-3.5-2-5.5-3.2.9-.8 1.7-1.6 2.8-2.6-1.5.1-2.7.5-3.5.1-.7-.3-.9-1.6-1.3-2.5-.1.1-.4.4-.8.9-.5-.8-.9-1.6-1.4-2.5-.7 1.4-1.6 2-3.3.8-.6-.4-2.1.2-3 .5-.7.2-1.2.9-2.1 1.5.3 1.2-.9 1.3-2.2 1.4.3.6.5 1 .7 1.5-.7.3-1.3.6-2.2 1 .6.4 1 .6 1.5 1-.2.3-.4.5-.6.7-1 1.1-2.1 2.2-3.2 3.3-.5-.1-1.2-.4-1.4-.2-.6.5-1.3 1.4-1.2 1.9.1.5 1.2.9 1.9 1.3.4-.7 1-1.3 1.3-2 .1-.3-.4-.7-.6-1.1 1-.2 2.1-.3 3.1-.5.1.1.3.2.4.4-.6.9-1.2 1.8-1.7 2.6 1.1.3 2.3.6 3.8.9-.7 1.2-1.1 1.9-1.7 2.8 1.2-.5 2-.9 2.9-1.3.2.7.3 1.3.5 2.3.7-.4 1.3-.8 2-1.3.8 1 .7 1.8-.6 1.7-5.4-.1-10.7-.3-16.1-.4-.7 0-1.4.2-2 .2-1 0-2-.2-2.9-.5-1.2.3-2.5.6-3.9 1-.4-1.9-.9-3.6-2.8-3.1-1.1.3-1.9 1.8-3 2.9.6-1.5 1.2-3.2-.5-3.9-1-.4-2.5.1-3.7.2 0 .2 0 .4-.1.6-.2-.3-.4-.7-.7-.8-.4-.2-.9-.5-1.3-.4-.3.1-.6.7-.6 1 0 1 .1 2.1.2 3.2h-11.3l-2.3-2.3c-.5.6-1.1 1.3-1.6 1.9.1.2.2.3.4.5-2.9.3-5.9-.5-8.9 0-3 .4-6.1.1-8.7.1-.6-.8-1-1.4-1.4-1.9-.5.6-.9 1.2-1.8 2.3-.8.5-2.3 1.3-3.7 2"/>
  <circle fill="#FFA300" stroke="#FFF" stroke-width="2.8346" stroke-miterlimit="10" cx="156.8" cy="37.2" r="5"/>
  <path fill="#EC9100" d="M84.5116 7.0131L267.676 28.293l-15.4059 132.6055-183.1645-21.2797z"/>
  <path fill="#FFA300" d="M68.709 142.7053l183.1646 21.2798-15.406 132.6055L53.3033 275.311z"/>
  <path fill="#FFF" d="M69.7229 151.251l178.6947 20.7605-11.4592 98.6347-178.6947-20.7605z"/>
  <g fill="#FFA300" stroke="#FFF" stroke-width="2.8407" stroke-miterlimit="10">
    <circle cx="81" cy="151.9" r="4.2"/>
    <circle cx="98.3" cy="153.9" r="4.2"/>
    <circle cx="115.7" cy="155.9" r="4.2"/>
    <circle cx="133" cy="158" r="4.2"/>
    <circle cx="150.3" cy="160" r="4.2"/>
    <circle cx="167.6" cy="162" r="4.2"/>
    <circle cx="185" cy="164" r="4.2"/>
    <circle cx="202.3" cy="166" r="4.2"/>
    <circle cx="219.6" cy="168" r="4.2"/>
    <circle cx="236.9" cy="170" r="4.2"/>
  </g>
  <g fill="#FFA300" stroke="#FFF" stroke-width="2.8407" stroke-miterlimit="10">
    <circle cx="83.2" cy="132.9" r="4.2"/>
    <circle cx="100.5" cy="135" r="4.2"/>
    <circle cx="117.9" cy="137" r="4.2"/>
    <circle cx="135.2" cy="139" r="4.2"/>
    <circle cx="152.5" cy="141" r="4.2"/>
    <circle cx="169.8" cy="143" r="4.2"/>
    <circle cx="187.2" cy="145" r="4.2"/>
    <circle cx="204.5" cy="147" r="4.2"/>
    <circle cx="221.8" cy="149" r="4.2"/>
    <circle cx="239.1" cy="151.1" r="4.2"/>
  </g>
  <g fill="#FFA300" stroke="#FFF" stroke-width="1.0021" stroke-miterlimit="10">
    <path d="M80.9 152.7h0c-.7-.1-1.3-.8-1.2-1.5l2.2-18.6c.1-.7.8-1.3 1.5-1.2h0c.7.1 1.3.8 1.2 1.5l-2.2 18.6c-.1.8-.7 1.3-1.5 1.2zM98.3 154.8h0c-.7-.1-1.3-.8-1.2-1.5l2.2-18.6c.1-.7.8-1.3 1.5-1.2h0c.7.1 1.3.8 1.2 1.5l-2.2 18.6c-.1.7-.8 1.2-1.5 1.2zM115.7 156.8h0c-.7-.1-1.3-.8-1.2-1.5l2.2-18.6c.1-.7.8-1.3 1.5-1.2v0c.7.1 1.3.8 1.2 1.5l-2.2 18.6c-.1.7-.8 1.3-1.5 1.2zM133.1 158.8h0c-.7-.1-1.3-.8-1.2-1.5l2.2-18.6c.1-.7.8-1.3 1.5-1.2h0c.7.1 1.3.8 1.2 1.5l-2.2 18.6c-.1.7-.8 1.3-1.5 1.2zM150.4 160.8h0c-.7-.1-1.3-.8-1.2-1.5l2.2-18.6c.1-.7.8-1.3 1.5-1.2h0c.7.1 1.3.8 1.2 1.5l-2.2 18.6c-.1.8-.7 1.3-1.5 1.2zM167.8 162.8h0c-.7-.1-1.3-.8-1.2-1.5l2.2-18.6c.1-.7.8-1.3 1.5-1.2h0c.7.1 1.3.8 1.2 1.5l-2.2 18.6c-.1.8-.8 1.3-1.5 1.2zM185.2 164.8h0c-.7-.1-1.3-.8-1.2-1.5l2.2-18.6c.1-.7.8-1.3 1.5-1.2h0c.7.1 1.3.8 1.2 1.5l-2.2 18.6c-.1.8-.8 1.3-1.5 1.2zM202.6 166.9h0c-.7-.1-1.3-.8-1.2-1.5l2.2-18.6c.1-.7.8-1.3 1.5-1.2h0c.7.1 1.3.8 1.2 1.5l-2.2 18.6c-.1.7-.8 1.2-1.5 1.2zM219.9 168.9h0c-.7-.1-1.3-.8-1.2-1.5l2.2-18.6c.1-.7.8-1.3 1.5-1.2h0c.7.1 1.3.8 1.2 1.5l-2.2 18.6c-.1.7-.7 1.3-1.5 1.2zM237.3 170.9h0c-.7-.1-1.3-.8-1.2-1.5l2.2-18.6c.1-.7.8-1.3 1.5-1.2h0c.7.1 1.3.8 1.2 1.5l-2.2 18.6c-.1.8-.7 1.3-1.5 1.2z"/>
  </g>
  <g fill="#FFA300">
    <path d="M70.4 239.7L227.8 258l8.8-76.1-157.3-18.3-8.9 76.1zm14.7-69.9l144.4 16.8-7.6 65.2L77.6 235l7.5-65.2zm0 0"/>
    <path d="M99.4513 187.0448l-10.231-1.1886 1.004-8.6417 10.231 1.1886zM118.563 189.2838l-10.231-1.1886 1.004-8.6417 10.231 1.1886zM137.675 191.5225l-10.231-1.1886 1.004-8.6417 10.231 1.1886zM156.7986 193.662l-10.231-1.1887 1.004-8.6417 10.231 1.1886zM175.913 195.9013l-10.231-1.1886 1.004-8.6417 10.231 1.1886zM221.8227 201.2589l-10.231-1.1886 1.004-8.6417 10.231 1.1886zM203.6946 199.1556l-10.231-1.1886 1.004-8.6417 10.231 1.1886zM97.8136 201.4056l-10.231-1.1886 1.004-8.6417 10.231 1.1886zM116.9257 203.6444l-10.231-1.1886 1.004-8.6417 10.231 1.1886zM136.0378 205.8833l-10.231-1.1886 1.004-8.6417 10.231 1.1886zM155.1498 208.1221l-10.231-1.1886 1.004-8.6417 10.231 1.1886zM174.2753 210.262l-10.231-1.1886 1.004-8.6417 10.231 1.1887zM220.0861 215.6081l-10.231-1.1886 1.004-8.6417 10.231 1.1886zM202.0568 213.5164l-10.231-1.1886 1.004-8.6417 10.231 1.1886zM96.1757 215.7684l-10.231-1.1887 1.004-8.6417 10.231 1.1887zM115.2879 218.0074l-10.231-1.1887 1.004-8.6417 10.231 1.1887zM134.4 220.246l-10.231-1.1886 1.004-8.6417 10.2309 1.1887zM153.512 222.4848l-10.231-1.1887 1.004-8.6417 10.231 1.1886zM172.626 224.724l-10.231-1.1886 1.004-8.6417 10.231 1.1887zM218.4483 229.9709l-10.231-1.1886 1.004-8.6418 10.231 1.1887zM200.419 227.8792l-10.231-1.1887 1.004-8.6417 10.231 1.1886zM94.427 230.219l-10.231-1.1887 1.004-8.6417 10.231 1.1886zM113.5507 232.3586l-10.231-1.1886 1.004-8.6417 10.231 1.1886zM132.6628 234.5973l-10.231-1.1886 1.004-8.6417 10.231 1.1886zM151.7748 236.836l-10.231-1.1886 1.004-8.6418 10.231 1.1887zM170.8888 239.0753l-10.231-1.1886 1.004-8.6417 10.231 1.1886zM216.7984 244.433l-10.231-1.1886 1.004-8.6418 10.231 1.1887zM198.6703 242.3296l-10.231-1.1886 1.004-8.6417 10.231 1.1886z"/>
  </g>
  <g fill="#FFA300" stroke="#FFF" stroke-width="2.8407" stroke-miterlimit="10">
    <circle cx="67.4" cy="269.1" r="4.2"/>
    <circle cx="84.7" cy="271.1" r="4.2"/>
    <circle cx="102.1" cy="273.1" r="4.2"/>
    <circle cx="119.4" cy="275.1" r="4.2"/>
    <circle cx="136.7" cy="277.1" r="4.2"/>
    <circle cx="154" cy="279.1" r="4.2"/>
    <circle cx="171.3" cy="281.1" r="4.2"/>
    <circle cx="188.7" cy="283.2" r="4.2"/>
    <circle cx="206" cy="285.2" r="4.2"/>
    <circle cx="223.3" cy="287.2" r="4.2"/>
  </g>
  <path fill="#FFA300" d="M33.0078 172.2082l183.1645 21.2798-15.406 132.6055L17.602 304.8137z"/>
  <path fill="#FFF" d="M34.0215 183.4498l178.6947 20.7605-11.4592 98.6347-178.6947-20.7605z"/>
  <g fill="#FFA300">
    <path d="M34.5 271.2l157.3 18.3 8.8-76.1-157.3-18.3-8.8 76.1zm14.7-69.9l144.4 16.8-7.6 65.2-144.4-16.8 7.6-65.2zm0 0"/>
    <path d="M63.5123 218.5139l-10.231-1.1886 1.004-8.6417 10.231 1.1886zM82.6243 220.7526l-10.231-1.1886 1.004-8.6417 10.231 1.1886zM101.7364 222.9913l-10.231-1.1886 1.004-8.6417 10.231 1.1886zM120.8485 225.2303l-10.231-1.1886 1.004-8.6417 10.231 1.1886zM139.9745 227.37l-10.231-1.1886 1.004-8.6417 10.231 1.1886zM185.7849 232.7161l-10.231-1.1886 1.004-8.6417 10.231 1.1886zM167.7556 230.6244l-10.231-1.1886 1.004-8.6418 10.231 1.1887zM61.875 232.8745l-10.231-1.1887 1.004-8.6417 10.231 1.1886zM80.9871 235.1133l-10.231-1.1886 1.004-8.6417 10.231 1.1886zM100.0991 237.3521l-10.231-1.1886 1.004-8.6417 10.231 1.1886zM119.2113 239.591l-10.231-1.1886 1.004-8.6417 10.231 1.1886zM138.3253 241.8301l-10.231-1.1886 1.004-8.6417 10.231 1.1886zM184.1471 247.0769l-10.231-1.1887 1.004-8.6417 10.231 1.1887zM166.1183 244.9851l-10.231-1.1886 1.004-8.6417 10.231 1.1886zM60.1264 247.3252l-10.231-1.1886 1.004-8.6417 10.231 1.1886zM79.25 249.4646l-10.231-1.1886 1.004-8.6418 10.231 1.1887zM98.362 251.7033l-10.231-1.1887 1.004-8.6417 10.231 1.1887zM117.474 253.9423l-10.231-1.1886 1.004-8.6418 10.231 1.1887zM136.588 256.1814l-10.2309-1.1886 1.004-8.6418 10.231 1.1887zM182.4978 261.539l-10.231-1.1887 1.004-8.6417 10.231 1.1886zM164.3696 259.4357l-10.231-1.1886 1.004-8.6417 10.231 1.1886zM58.4885 261.688l-10.231-1.1887 1.004-8.6417 10.231 1.1887zM77.6006 263.9267l-10.231-1.1887 1.004-8.6417 10.231 1.1887zM96.7242 266.066l-10.231-1.1886 1.004-8.6417 10.231 1.1886zM115.8362 268.305l-10.231-1.1886 1.004-8.6417 10.231 1.1886zM134.9503 270.544l-10.231-1.1886 1.004-8.6417 10.231 1.1886zM180.7606 275.8904l-10.231-1.1886 1.004-8.6417 10.231 1.1886zM162.7317 273.7984l-10.231-1.1887 1.004-8.6417 10.231 1.1886z"/>
  </g>
  <g fill="#FFA300" stroke="#FFF" stroke-width="2.8407" stroke-miterlimit="10">
    <circle cx="46.4" cy="175.1" r="4.2"/>
    <circle cx="63.7" cy="177.1" r="4.2"/>
    <circle cx="81" cy="179.1" r="4.2"/>
    <circle cx="98.3" cy="181.1" r="4.2"/>
    <circle cx="115.7" cy="183.1" r="4.2"/>
    <circle cx="133" cy="185.1" r="4.2"/>
    <circle cx="150.3" cy="187.1" r="4.2"/>
    <circle cx="167.6" cy="189.2" r="4.2"/>
    <circle cx="185" cy="191.2" r="4.2"/>
    <circle cx="202.3" cy="193.2" r="4.2"/>
  </g>
  <g fill="#FFA300" stroke="#FFF" stroke-width=".685" stroke-miterlimit="10">
    <path d="M46.7 175.9l-.8-.1c-.5-.1-.9-.5-.8-1l.9-8.1c.1-.5.5-.9 1-.8l.8.1c.5.1.9.5.8 1l-.9 8.1c0 .5-.5.9-1 .8zM64.1 178l-.8-.1c-.5-.1-.9-.5-.8-1l.9-8.1c.1-.5.5-.9 1-.8l.8.1c.5.1.9.5.8 1l-.9 8.1c-.1.4-.5.8-1 .8zM81.4 180l-.8-.1c-.5-.1-.9-.5-.8-1l.9-8.1c.1-.5.5-.9 1-.8l.8.1c.5.1.9.5.8 1l-.9 8.1c0 .5-.4.8-1 .8zM98.8 182l-.8-.1c-.5-.1-.9-.5-.8-1l.9-8.1c.1-.5.5-.9 1-.8l.8.1c.5.1.9.5.8 1l-.9 8.1c0 .5-.5.8-1 .8zM116.2 184l-.8-.1c-.5-.1-.9-.5-.8-1l.9-8.1c.1-.5.5-.9 1-.8l.8.1c.5.1.9.5.8 1l-.9 8.1c0 .5-.5.9-1 .8zM133.6 186l-.8-.1c-.5-.1-.9-.5-.8-1l.9-8.1c.1-.5.5-.9 1-.8l.8.1c.5.1.9.5.8 1l-.9 8.1c-.1.5-.5.9-1 .8zM151 188l-.8-.1c-.5-.1-.9-.5-.8-1l.9-8.1c.1-.5.5-.9 1-.8l.8.1c.5.1.9.5.8 1l-.9 8.1c-.1.5-.5.9-1 .8zM168.3 190.1l-.8-.1c-.5-.1-.9-.5-.8-1l.9-8.1c.1-.5.5-.9 1-.8l.8.1c.5.1.9.5.8 1l-.9 8.1c0 .5-.5.8-1 .8zM185.7 192.1l-.8-.1c-.5-.1-.9-.5-.8-1l.9-8.1c.1-.5.5-.9 1-.8l.8.1c.5.1.9.5.8 1l-.9 8.1c0 .5-.5.8-1 .8zM203.1 194.1l-.8-.1c-.5-.1-.9-.5-.8-1l.9-8.1c.1-.5.5-.9 1-.8l.8.1c.5.1.9.5.8 1l-.9 8.1c0 .5-.5.9-1 .8z"/>
  </g>
  <g fill="#FFF">
    <path d="M132.9 52.6c-.1.7-.7 1.1-1.3 1.1l-13.1-1.5-5.7 48.7c-.1.7-.7 1.1-1.3 1.1-.7-.1-1.1-.7-1.1-1.3l5.7-48.7-13.1-1.5c-.6-.1-1.1-.7-1-1.3.1-.6.7-1.1 1.2-1l28.4 3.3c.9-.1 1.4.5 1.3 1.1zM158.5 82.3c-2 1.6-4.6 2.3-7.6 1.9l-14.3-1.7-2.4 20.9c-.1.6-.7 1.1-1.3 1-.6-.1-1.1-.7-1-1.2l4.7-40.5c.1-.8.7-5 3.9-7.6 2-1.6 4.6-2.3 7.6-1.9l6.3.7c3.1.4 5.4 1.6 7 3.6 1.8 2.3 2.4 5.6 2 8.5l-.1 1.2-.8 7.3c-.1.7-.7 5.1-4 7.8zm1.6-8l.3-2.6.7-6c0-.1.5-4-1.6-6.7-1.2-1.5-3-2.5-5.4-2.7l-6.3-.7c-2.4-.3-4.4.2-5.9 1.4-1.8 1.5-2.8 3.8-3.1 6.1l-2 17.1 14.3 1.7c2.4.3 4.3-.3 5.8-1.4 1.9-1.5 3-3.9 3.2-6.2zM192 110.2c-.1.7-.7 1.1-1.3 1.1-.7-.1-1.1-.7-1.1-1.3l5.1-44.3.5-2.4-1.4 2.6-24.7 39.7-1.4 2.4c-.3.3-.7.6-1.1.6-.1 0-.2-.1-.3-.1-.1 0-.2.1-.2 0-.7-.1-1.1-.7-1.1-1.3l5.8-49.9c.1-.7.7-1.1 1.3-1.1.6.1 1.1.7 1.1 1.3l-5.1 44.3-.5 2.4 1.4-2.6 22.7-36.7 3.4-5.4c.2-.4.6-.6 1-.6.1 0 .2.1.3.1.1-.1.2-.1.2 0 .7.1 1.1.7 1.1 1.3l-5.7 49.9zM227.5 104.7c-.1.9-.8 5-3.9 7.5-2 1.7-4.6 2.3-7.6 2l-6.3-.7c-3.1-.4-5.4-1.6-7-3.7-1.8-2.3-2.4-5.5-2-8.4 3.6-30.6 3.6-30.7 3.6-30.7.1-.5.6-4.9 3.9-7.6 2-1.7 4.6-2.3 7.6-2l6.3.7c3.1.4 5.4 1.6 7 3.7 1.8 2.2 2.4 5.4 2 8.4 0 0-3.6 30.7-3.6 30.8zm-2.3-.4l3.6-30.7c.1-.4.4-4-1.6-6.6-1.2-1.5-3-2.4-5.4-2.7l-6.3-.7c-2.4-.3-4.3.2-5.8 1.4-1.8 1.5-2.9 3.8-3.1 6.1l-3.6 30.7c-.1.5-.3 4.1 1.6 6.7 1.2 1.5 3 2.4 5.4 2.7l6.3.7c2.4.3 4.4-.2 5.9-1.4 1.7-1.5 2.7-3.9 3-6.2z"/>
  </g>
  <path fill="#E28900" d="M236.5 296.6l-31.9-3.7 11.5-99.5z"/>
  <circle fill="#FFA300" stroke="#FFF" stroke-width="2.8346" stroke-miterlimit="10" cx="179.5" cy="28.4" r="5"/>
</svg>
