<?xml version="1.0" encoding="UTF-8"?>
<!DOCTYPE svg PUBLIC "-//W3C//DTD SVG 1.1//EN" "http://www.w3.org/Graphics/SVG/1.1/DTD/svg11.dtd">
<!-- Creator: CorelDRAW X6 -->
<svg xmlns="http://www.w3.org/2000/svg" xml:space="preserve" width="43.723mm" height="53.585mm" version="1.1" style="shape-rendering:geometricPrecision; text-rendering:geometricPrecision; image-rendering:optimizeQuality; fill-rule:evenodd; clip-rule:evenodd"
viewBox="0 0 4372 5359"
 xmlns:xlink="http://www.w3.org/1999/xlink"
 enable-background="new 0 0 275 210">
 <defs>
  <style type="text/css">
   <![CDATA[
    .fil0 {fill:#FFA300}
   ]]>
  </style>
 </defs>
 <g id="Слой_x0020_1">
  <metadata id="CorelCorpID_0Corel-Layer"/>
  <g id="_746466512">
   <path class="fil0" d="M2217 6c93,35 128,102 122,198 -3,52 0,108 0,172 23,0 41,0 61,0 593,0 1187,3 1780,-3 143,0 192,87 192,189 -3,951 0,1903 0,2857 0,131 -55,186 -192,186 -204,0 -410,0 -614,0 -15,0 -29,0 -52,0 204,588 407,1169 611,1754 -108,0 -207,0 -308,0 -9,0 -23,-17 -29,-29 -73,-207 -145,-413 -218,-623 -122,-355 -244,-710 -367,-1065 -9,-23 -12,-41 -47,-41 -265,3 -529,0 -794,0 -6,0 -12,0 -23,3 0,564 0,1129 0,1696 -105,0 -201,0 -305,0 0,-564 0,-1129 0,-1696 -20,0 -35,-3 -49,-3 -244,0 -489,0 -733,0 -32,0 -44,12 -55,41 -192,556 -384,1114 -576,1670 -12,38 -29,47 -67,47 -90,-3 -180,0 -276,0 204,-585 407,-1167 611,-1754 -23,0 -38,0 -52,0 -212,0 -428,-3 -640,0 -99,0 -166,-32 -195,-128 0,-995 0,-1990 0,-2985 32,-90 99,-122 195,-122 593,3 1184,0 1777,0 17,0 38,0 61,0 0,-61 3,-116 0,-172 -6,-96 29,-163 122,-198 20,6 41,6 61,6zm-29 3299c608,0 1216,0 1824,0 55,0 55,0 55,-55 0,-841 0,-1679 0,-2519 0,-61 0,-61 -61,-61 -1213,0 -2429,0 -3642,0 -55,0 -55,0 -55,55 0,841 0,1681 0,2522 0,55 0,55 55,55 608,3 1216,3 1824,3z"/>
  </g>
 </g>
</svg>
