<?xml version="1.0" encoding="UTF-8"?>
<!DOCTYPE svg PUBLIC "-//W3C//DTD SVG 1.1//EN" "http://www.w3.org/Graphics/SVG/1.1/DTD/svg11.dtd">
<!-- Creator: CorelDRAW X6 -->
<svg xmlns="http://www.w3.org/2000/svg" xml:space="preserve" width="74.063mm" height="65.118mm" version="1.1" style="shape-rendering:geometricPrecision; text-rendering:geometricPrecision; image-rendering:optimizeQuality; fill-rule:evenodd; clip-rule:evenodd"
viewBox="0 0 7406 6512"
 xmlns:xlink="http://www.w3.org/1999/xlink"
 enable-background="new 0 0 275 210">
 <defs>
  <style type="text/css">
   <![CDATA[
    .fil0 {fill:#FFA300}
   ]]>
  </style>
 </defs>
 <g id="Слой_x0020_1">
  <metadata id="CorelCorpID_0Corel-Layer"/>
  <g id="_747118832">
   <g>
    <g>
     <path class="fil0" d="M7380 1953c-35,-113 -177,-85 -188,28 -18,152 -18,297 -60,446 -46,156 -163,315 -347,280 -103,-18 -198,-166 -262,-248 -191,-241 -393,-418 -694,-456 -513,-67 -648,502 -538,924 -301,7 -701,57 -892,308 -21,7 -39,21 -46,50 0,11 -4,21 -4,28 -4,7 -7,14 -11,21 -14,28 -14,57 -4,81 -99,711 -99,1461 67,2155 78,326 223,658 499,839 304,202 722,81 991,-131 386,-311 556,-874 633,-1359 78,-467 138,-1005 -50,-1451 -177,-421 -633,-531 -1026,-541 -64,-368 28,-800 485,-683 343,88 432,520 740,655 485,216 832,-513 704,-945l0 0zm-1458 3991c4,-7 4,-14 7,-21 60,-71 113,-149 159,-226 -50,88 -103,173 -166,248l0 0zm-326 -2792c-25,7 -50,32 -53,64 -25,219 -42,439 -74,655 -7,50 11,117 67,127 230,35 460,-117 619,-280 42,-42 88,-99 110,-163 42,74 74,159 92,258 -14,4 -32,11 -42,25 -159,188 -255,311 -495,393 -188,64 -488,120 -676,25 -177,-88 -329,-251 -474,-389 -39,-39 -78,-85 -124,-117 -67,-46 -50,-35 -64,-7 4,-4 4,-14 0,-18l-4 -4c-4,-4 -7,-7 -11,-11 4,-96 7,-180 11,-255 7,-7 14,-14 18,-25 14,-28 35,-53 57,-74 -4,106 78,226 134,297 113,142 297,234 467,276 57,14 110,-28 110,-88 0,-234 11,-467 -7,-701 96,0 188,0 262,4 28,4 53,4 78,7l0 0zm0 0z"/>
     <path class="fil0" d="M6350 527c-343,-502 -1097,-400 -1603,-386 -832,21 -1642,7 -2473,-50 -418,-28 -839,-60 -1256,-88 -212,-14 -474,7 -640,166 -315,301 -265,839 -280,1246 -11,393 -71,786 -88,1178 -14,315 -67,1667 418,1780 7,14 21,25 39,28 626,124 1284,99 1925,99 -32,14 -53,46 -53,96 7,205 -78,368 -241,478 -4,4 -7,7 -11,7 -81,4 -166,4 -248,7 -131,4 -131,209 0,212 439,18 881,11 1320,-11 258,-14 577,42 828,-18 21,0 42,-7 57,-21 25,-21 35,-50 35,-81 0,-14 0,-28 -7,-39 42,-255 21,-510 14,-771 0,-32 -11,-53 -25,-71 74,-42 57,-188 -50,-195 -350,-28 -704,-11 -1054,-11 -361,0 -718,-57 -1079,-42 -364,11 -725,50 -1086,-32 -280,-60 -386,-347 -418,-616 -53,-425 53,-849 67,-1270 18,-488 -25,-1033 163,-1493 173,-425 913,-230 1249,-188 619,74 1249,57 1872,103 350,25 697,64 1047,46 347,-18 694,-74 1040,-7 548,110 386,906 379,1323 0,117 131,142 188,71 53,21 124,4 149,-71 152,-453 88,-991 -177,-1380l0 0zm-3963 3747c-184,0 -368,0 -552,-4 184,-7 368,-11 552,4l0 0zm0 0z"/>
    </g>
    <path class="fil0" d="M3024 2159c-113,-78 -237,-131 -361,-188 32,-50 60,-103 92,-152 39,-67 -14,-156 -85,-159 -241,-4 -474,-21 -711,28 -60,14 -99,103 -60,156 14,21 28,39 39,60 11,50 28,96 46,142 42,131 85,265 149,389 21,46 88,67 131,35 74,-60 142,-131 202,-205 11,11 21,21 32,32 85,88 177,173 258,269 35,42 106,39 142,0 78,-85 138,-180 180,-290 11,-42 -18,-92 -53,-117l0 0zm0 0z"/>
   </g>
  </g>
 </g>
</svg>
