<?xml version="1.0" encoding="UTF-8"?>
<!DOCTYPE svg PUBLIC "-//W3C//DTD SVG 1.1//EN" "http://www.w3.org/Graphics/SVG/1.1/DTD/svg11.dtd">
<!-- Creator: CorelDRAW X6 -->
<svg xmlns="http://www.w3.org/2000/svg" xml:space="preserve" width="67.823mm" height="61.638mm" version="1.1" style="shape-rendering:geometricPrecision; text-rendering:geometricPrecision; image-rendering:optimizeQuality; fill-rule:evenodd; clip-rule:evenodd"
viewBox="0 0 6782 6164"
 xmlns:xlink="http://www.w3.org/1999/xlink"
 enable-background="new 0 0 275 210">
 <defs>
  <style type="text/css">
   <![CDATA[
    .fil0 {fill:#FFA300}
    .fil1 {fill:white}
   ]]>
  </style>
 </defs>
 <g id="Слой_x0020_1">
  <metadata id="CorelCorpID_0Corel-Layer"/>
  <g id="_747037824">
   <path class="fil0" d="M3949 5831c-85,0 -170,0 -255,0 -4,103 0,209 -96,272 -46,32 -106,50 -163,53 -81,7 -156,-35 -191,-106 -32,-64 -42,-138 -64,-216 -350,0 -715,0 -1086,0 0,32 0,64 0,92 -4,117 -92,212 -209,230 -120,18 -234,-53 -269,-166 -11,-35 -11,-74 -11,-110 0,-39 -11,-53 -53,-53 -60,4 -117,0 -184,0 0,-25 0,-46 0,-67 0,-612 0,-1224 0,-1837 0,-50 -18,-67 -64,-85 -372,-149 -740,-297 -1108,-446 -120,-50 -188,-134 -195,-262 -7,-180 195,-347 407,-258 297,124 594,244 892,364 18,7 35,14 64,21 0,-25 0,-42 0,-60 0,-276 0,-556 0,-832 0,-53 -18,-74 -64,-92 -364,-145 -729,-290 -1093,-439 -142,-57 -212,-152 -209,-280 4,-180 198,-318 368,-255 212,78 425,166 637,251 117,46 234,92 357,145 0,-329 0,-648 0,-973 863,0 1723,0 2583,0 4,1702 4,3401 4,5106z"/>
   <path class="fil0" d="M5071 736c18,0 35,0 53,0 326,0 651,0 973,0 177,0 340,42 474,159 120,103 198,234 205,389 11,202 4,407 4,609 0,4 -4,11 -4,18 -860,0 -1716,0 -2576,0 0,-389 0,-782 0,-1178 64,0 127,11 188,-4 81,-14 163,-42 241,-71 329,-131 655,-265 984,-396 198,-81 400,-163 598,-244 50,-21 99,-28 142,11 35,32 50,74 28,113 -18,32 -53,64 -85,81 -318,134 -640,262 -962,393 -85,35 -173,71 -258,103 -4,7 -4,11 -4,18z"/>
   <path class="fil0" d="M6776 2699c0,400 0,800 0,1200 -860,0 -1720,0 -2583,0 0,-400 0,-796 0,-1200 860,0 1720,0 2583,0z"/>
   <path class="fil0" d="M5177 5831c-4,46 -7,88 -11,127 -18,113 -120,198 -237,202 -117,4 -223,-78 -244,-191 -4,-11 -4,-25 -7,-35 -11,-103 -11,-103 -117,-103 -103,0 -205,0 -308,0 -18,0 -39,0 -64,0 0,-142 0,-272 0,-407 0,-7 14,-21 25,-25 14,-4 32,0 50,0 814,0 1628,0 2442,0 21,0 42,0 67,0 0,145 0,287 0,432 -39,0 -74,4 -113,4 -4,39 -4,74 -11,113 -18,127 -124,219 -255,216 -127,-4 -223,-99 -237,-226 -7,-103 -7,-103 -113,-103 -269,0 -538,0 -807,0 -18,-4 -39,-4 -60,-4z"/>
   <path class="fil0" d="M4193 4532c0,-134 0,-265 0,-400 860,0 1720,0 2580,0 0,131 0,262 0,400 -856,0 -1716,0 -2580,0z"/>
   <path class="fil0" d="M4197 4766c860,0 1720,0 2580,0 0,134 0,265 0,400 -860,0 -1716,0 -2580,0 0,-127 0,-262 0,-400z"/>
   <ellipse class="fil1" cx="4526" cy="1107" rx="120" ry="117"/>
   <ellipse class="fil1" cx="4919" cy="1107" rx="120" ry="117"/>
   <rect class="fil1" x="1518" y="2377" width="2289" height="117"/>
   <rect class="fil1" x="1518" y="5258" width="2289" height="117"/>
   <rect class="fil1" x="1518" y="3984" width="2289" height="117"/>
  </g>
 </g>
</svg>
