<svg xmlns="http://www.w3.org/2000/svg" version="1.0" viewBox="0 0 283.5 354.3">
  <defs/>
  <g fill="#F5BA00">
    <path d="M240.4 178.7c.9-.4 2.4-.5 2.7-1.2.4-.8-.3-2-.5-3 .5.2 1.1.4 1.6.5 1.9.5 3.6-.3 4.4-2 .7-1.5.2-3.3-1.1-4.4-1.4-1-3.5-1-4.8.1-1.5 1.2-1.8 3.1-.8 4.8.2.4.5.7.7 1.1-1.4-.5-2.7-.5-3.5.9-.8 1.5.2 2.5 1.3 3.2-.4 0-.8-.1-1.3-.1-1.5-.1-2.5.8-2.4 2 0 .9.9 2.2 1.7 2.5.8.2 2.2-.4 2.8-1.1 1-1.2 0-2.3-.8-3.3zM51.9 233.8c.3 0 .7.2.9.1.5-.3.8-.7 1.2-1.1-.4-.4-.8-.8-1.2-1.1-.3.4-.8.8-1 1.3-.1.2.1.5.1.8-.3-.4-.6-.9-1-1.3-1.3-1.1-3-.8-4 .6-.9 1.3-.5 3.1.9 3.7.8.3 2.1.4 2.6 0 .8-.7 1-2 1.5-3zm198.9-33.2c1.5-.1 2-1.4 1.7-2.5-.3-.9-1.2-2-2.1-2.2-1.9-.5-2.7 1.1-3.3 2.7-.5-.2-1.1-.6-1.4-.5-.7.2-1.6.6-1.7 1.1-.2.6.2 2 .5 2.1 1.8.4 3.7.5 5.6.5 0-.1.4-.8.7-1.2zm-184 25.3c-1.2-.1-2.3.2-2.4 1.5 0 .6.6 1.5 1.1 1.8.4.2 1.5-.2 1.9-.6.9-1.1.2-2-.6-2.7.6.1 1.3.3 1.8.5.3-1 .4-2.2.8-2.4.7-.2 1.6.3 2.5.5.9-1.6.8-3.1-.5-4.3-1.3-1.2-2.9-1.7-4.3-.6-1.4 1-2.6.5-3.9.2-.6-.1-1.3-.1-1.9.2-.2.1-.4 1.1-.2 1.3.4.4 1.1.7 1.7.7 1.2 0 2.1.2 2.4 1.7.3.7 1.1 1.4 1.6 2.2zM38.3 192v2.1c.7.5 1.3.8 1.6 1.2.2.2-.1 1.1-.4 1.2-1.2.5-.7 1.1-.2 1.8.9-.5 1.8-.9 2.4.1.7 1.2-.3 1.6-1.5 2.3.8.2 1.2.2 1.5.4.4.3.8.6 1.1 1 .4.5.6 1.1.9 1.6.1-.2.2-.3.3-.5.7-.1 1.5-.5 2.1-.4.8.2 1 .9.8 1.8 0 .1.3.4.5.5.2-.5 0-.9 0-1.3-.2-1.5.4-2.9 1.7-3.6 1.2-.6 3-.5 3.9.4 1 1.1 1.9 2.4 2.9 3.6.7-.4 1.4-.8 1.8-1 .7.4 1.2.8 1.8.9.3 0 1-.5 1-.7 0-.7-.3-1.3-.6-2.2.4-.6 1.5-1.2 1.1-2.6 0-.1.2-.5.4-.6 1.3-.6 1-1.8 1.4-2.8-1.9-.6-2-1-.7-2.6-.9-1.4-.6-1.4-.2-2.8.3-1 0-2.4-.6-3.2-.8-1-2.2-1.7-3.3-2.5-.2-.1-.3-.3-.4-.5-.6-.5-1.2-1.1-1.9-1.7-.5 1.4-1.2 2.1-2.4 1.9-1.5-.3-1.2-1.5-1.3-2.7-1 .2-2 .3-2.9.5-1.1.2-2.2.3-3.3.5-1 .2-1.5.8-1.4 1.9.1 1.3-1.1 2-2.4 1.6-.3-.1-.8-.1-.9 0-.6.8-1.2 1.7-1.9 2.8 2.5-.5 3.6-.1 4.2 1.1.5 1.1.2 2.4-.8 3.1-1.2 1.2-2.3 1-4.3-.6zM187.9 54c.8.6 1.6 1 2.3 1.6 1.7 1.3 4.1 2 4.3 4.6.2 1.8 1.4 3.1 3.3 3.3 4.8.5 9.5-4.2 8.8-8.8-.6-4.4-5.1-6.8-9.2-4.9-.6.3-1.2.4-1.8.4-2.2 0-4.3-.2-5.8-2.5-.6 2.3.6 4.5-1.9 6.3zm51.3 148.7c-.6 2.7 0 4.2 2 4.6 1.6.3 3.2-.7 3.3-2.3 0-.8-.4-1.9-1-2.4-.6-.6-1.7-.7-2.6-.9 1.4-2.3 1.5-4 0-5.4-1.3-1.3-2.8-1.7-4.5-.9-1.7.8-2.6 2.5-2.2 4.3.3 2 1.5 2.7 5 3zm2.1 17.3l.1.1c.1 1.1-.2 2.5.3 3.4.4.6 2 1.1 2.8.8 1-.3 1.6-.2 2.4.3 1.6.8 3.6.2 4.5-1.3.9-1.5.7-3.3-.7-4.4-1.4-1.2-3.2-1.2-4.7 0-.5.4-1.1.7-1.2.7-.7-1.4-1.1-2.4-1.8-3.2-.2-.2-1.9.3-2 .7-.2.9.2 1.9.3 2.9zM212.9 37.4c0 3-.1 5.6 0 8.2 0 .8.3 1.8.8 2.2.9.7 2.1 1.1 3.2 1.2.6 0 1.6-.8 1.9-1.4 1.4-3.2.7-6.4-.4-9.5-.2-.5-.6-.9-1-1.7-.5 1.9 1.1 3.9-1.5 5-.9-1.2-1.8-2.5-3-4zm35.8 174.3c0 .5-.1 1.3.2 1.6.6.6 1.5 1.2 2.2 1.2.5 0 1.4-1.3 1.3-1.9-.3-1.1.1-1.6.7-2.3 1.1-1.4 1.1-2.9 0-4.3s-2.6-1.9-4.2-1.3c-1.6.6-2.5 1.9-2.5 3.6 0 .4.2.9.1 1.3-.4 2.5-.3 2.7 2.2 2.1zm-65.2-175c0-2.3-1.7-4.1-4-4.2-2.3-.1-4.3 1.9-4.3 4.2 0 2.2 2 4.1 4.2 4.1 2.3 0 4.1-1.8 4.1-4.1zm65.9 193.6c1.5 1.6 3.1 1.8 4.2.6 1-1.1.9-2.6-.3-3.5-1.2-1-2.6-.7-4.1 1.1-1.2-1.5-2.6-2.5-4.6-1.5-1.5.7-2 1.9-1.7 3.4.3 1.4 1.2 2.3 2.7 2.5 2 .2 3.1-.9 3.8-2.6zm-9.9-38.1c1.6 2.4 3.3 3 5 1.9 1.5-.9 1.9-3 1-4.5-1.1-1.6-3-1.8-5.3-.3-1-1.3-2.4-1.9-3.7-.7-.6.5-.9 1.9-.6 2.6.6 1.6 2.1 1.7 3.6 1zM186.8 62.9c.9.1 1.7.2 2.4.3 1.5.3 3.3-.8 3.8-2.3.6-1.9 0-3.1-1.9-3.8-4.2-1.7-5-3.1-4.2-7.5.1-.4-.1-.8-.2-1.8-.6.9-.9 1.2-1 1.6-.5 2.1-.5 4.1.6 6.1.4.7.5 1.7.5 2.5.1 1.7 0 3.3 0 4.9zm-14-7.9c-.8-2-1.4-3.6-2-5.3-.2-.5-.5-1.1-.9-1.2-.4-.1-1 .3-1.5.6-2.3 1.3-2.1 4-3.3 5.9-.6.9.7 2 2 1.8 1.2-.2 2.4-.2 3.6-.5.6-.2 1.2-.8 2.1-1.3zm65.4 107.6c-1.4 1.2-2.4 2.4-1.1 4.1.9 1.1 2 1.3 3.2.6 1.8-1 1.4-2.6.7-4.1 1.3-1.1 2.2-2.3 1-3.9-.8-1.1-2-1.4-3.2-.6-1.5 1-1.5 2.3-.6 3.9zM113.3 41.1c0 1.9 1.4 3.4 3.3 3.4 1.8 0 3.5-1.5 3.5-3.3 0-1.8-1.6-3.4-3.4-3.4-2-.1-3.4 1.4-3.4 3.3zM59 228.7c1.9-1 1.9-1.5.3-5.8h-1.7c-2.7-.1-4.1 1.6-3.6 4.2.1.6 0 1.2-.1 1.8-.1 1.1.7 1.7 1.7 1.3.9-.4 1.7-.9 2.3-1.2v-2.5h2.2c-.5 1-.7 1.5-1.1 2.2zm61.6-166.1c0 1.5 1.7 3.1 3.2 3.1 1.6 0 2.8-1.8 2.8-3.9 0-1.2-1.7-2.9-2.8-2.9-1.7.1-3.2 1.9-3.2 3.7zM50 217.7c.1 1.4.8 2.4 2.4 2.6.7.1 1.3.6 2 .8.5.2 1.1.1 1.7.1 0-.6.2-1.2.1-1.7-.2-.8-.6-1.5-.7-2.3-.2-1.4-1.5-2.6-2.9-2.5-1.4.3-2.5 1.6-2.6 3zM175.4 55.6c.4.1.7.3 1 .2 1.7-.3 3.4-.6 5-1.2.9-.4 1.7-1.4 1.9-2.3.2-.5-.6-1.8-1.2-2-.7-.2-1.7.3-2.5.7-.6.3-1.1 1-1.7 1.2-1.8.5-2.1 1.9-2.5 3.4zm60.4 155.7c0 1.4 1.2 2.6 2.7 2.7 1.5.1 2.7-1 2.8-2.5.1-1.6-1.1-2.8-2.7-2.8-1.5.1-2.8 1.2-2.8 2.6zm15-22.5c-1.5 0-2.6 1.2-2.5 2.7.1 1.5 1.1 2.4 2.6 2.4 1.5.1 2.6-1.1 2.6-2.6s-1.1-2.5-2.7-2.5zM53.9 39.9c-1.5 0-2.6 1.2-2.6 2.7.1 1.5 1.2 2.5 2.8 2.4 1.6-.1 2.4-1 2.5-2.5 0-1.5-1.2-2.6-2.7-2.6zm5.8 1.2c-1.9 0-3.1 1.6-2.4 2.9.5.9 1.1 1.7.7 2.8-.1.3.4 1 .8 1.1.5.2 1.5 0 1.5-.2.4-1.8.7-3.7.8-5.6 0-.3-1.1-.8-1.4-1zM57.8 234c-.6.1-.8.1-1.1.2-.6.2-1.3.4-1.9.7-.1.1.2 1.2.3 1.2.6.1 1.2-.1 1.8-.2 1.1-.3 2.1-.8 2.9.5.1.2.6.3.9.3.1 0 .3-.5.3-.8.1-3 .1-3-2.4-4.6-.3-.2-1.1-.3-1.3-.1-.3.3-.4 1-.3 1.4.1.5.5.8.8 1.4zm80.1-195.4c0 1.5.4 2.6 2 2.7 1.3.1 2.4-1.2 2.3-2.6-.1-1.3-.7-2.3-2.2-2.3-1.5 0-2.2.8-2.1 2.2zm-81.1-2.3v-.7c-.4-.6-.8-1.2-1.4-1.6-.2-.1-1.2.5-1.2.5.4 1.3.8 2.5 1.3 3.8.2.4.8.7 1.2.7.4 0 .9-.3 1.3-.5.6-.3 1.1-.5 1.6-.9.4-.3 1-.7 1.1-1.1.1-.4-.3-1.2-.7-1.3-.4-.2-1 .1-1.5.3-.6.2-1.1.5-1.7.8zm194.8 147.5c0-1.3-.8-2.3-2.1-2.4-1.3-.1-2.5 1-2.4 2.3.1 1.4.9 2.2 2.3 2.2 1.3.1 2.1-.6 2.2-2.1zm-177.1 15c.2 1.4 1 2.2 2.5 2.2 1.3-.1 2.2-1 2.2-2.2 0-1.3-.9-2.3-2.3-2.3-1.5 0-2.2 1-2.4 2.3zm87.1-153c-.5-.4-1.3-1.4-2.1-1.4-1.6 0-2.2 1.3-2.2 2.7 0 1.2.7 1.8 1.9 1.7 1.7-.1 2.2-1.1 2.4-3zM81.5 222.6c-.8-.6-1.6-1.5-2.5-1.6-1.3-.2-2.2.8-2.2 2.1s.8 2.2 2.3 2.2c1.4-.1 2.1-.9 2.4-2.7zm169.4 19.3h.9c.6-.8 1.4-1.6 1.7-2.5.3-1.1-1.1-2.3-2.3-2.1-1.3.2-2.3 1-2 2.2.2.8 1.1 1.6 1.7 2.4zM180.4 55.2c-1 1.2-2.1 2-2.1 2.7 0 .6 1.2 1.3 1.8 1.9.7-.7 1.7-1.3 2-2.1.2-.4-.8-1.3-1.7-2.5zm50.9 105.6c-.8 1.2-1.8 2-1.7 2.5.2.7 1.2 1.3 1.9 1.9.6-.7 1.6-1.3 1.7-2.1.1-.5-.9-1.2-1.9-2.3zm8.1 8.4c-1.2-.9-2-1.8-2.6-1.7-.8.2-1.3 1.1-2 1.8.7.6 1.3 1.5 2 1.7.6.1 1.4-.9 2.6-1.8zM51.7 53.3h.8c.5-.7 1.4-1.4 1.3-2-.2-.7-1.1-1.3-1.8-1.9-.6.7-1.6 1.2-1.7 2-.1.5.9 1.3 1.4 1.9zm21.7 159.4c-.5 1-1 2-1.4 3.1-.1.4.1.9.2 1.3 0 .1.2.2.3.2 2 .4 1.5-2.1 2.8-2.4-.2-.6-.4-1.3-.7-1.9-.1-.1-.5-.1-1.2-.3zm11.1-28.4c-.8 1.2-1.4 1.9-1.6 2.7-.2 1.1.6 1.9 1.7 1.6.7-.2 1.7-1.1 1.7-1.7.1-.6-.9-1.3-1.8-2.6zm125.1-140c2.4-2.1 2.6-3.1.8-4.7-1.9 1.4-2 2.5-.8 4.7zm-126 155c-.9 1.1-1.8 1.8-1.7 2.4.1.6.9 1.4 1.6 1.6.4.1 1.4-.9 1.5-1.4 0-.7-.7-1.4-1.4-2.6zm145.8-32c-.7 1-1.5 1.6-1.4 2.1.1.6.9 1.1 1.4 1.6.6-.5 1.4-1 1.6-1.6.1-.4-.8-1.1-1.6-2.1zM126.7 49.5c-.9 1.2-1.7 1.8-1.7 2.4 0 .5.9 1.1 1.4 1.6.5-.5 1.3-1 1.4-1.5.1-.6-.5-1.3-1.1-2.5zm-54 160.7c1 .7 1.7 1.4 2.1 1.3.6-.1 1.2-.9 1.4-1.5.1-.3-.9-1.2-1.4-1.2-.6 0-1.1.7-2.1 1.4zM235 175.9c-.6 1-1.3 1.6-1.2 2.1.1.5.8 1 1.3 1.5.5-.5 1.3-1 1.4-1.6.1-.5-.8-1.1-1.5-2zM73.5 207.8c-1.1-.6-1.7-1.2-2.2-1.2-.5 0-1.4.9-1.3 1.2.2.6.8 1.3 1.3 1.4.5.1 1.1-.6 2.2-1.4zm7.5-11.7c-.7.9-1.4 1.5-1.4 1.9.1.6.9 1 1.3 1.5.5-.4 1.3-.9 1.3-1.3.1-.6-.6-1.1-1.2-2.1zm-19.4 34.1c.9.6 1.5 1.3 1.9 1.2.6-.1 1-.9 1.4-1.3-.5-.4-1-1.1-1.6-1.2-.4-.1-.9.6-1.7 1.3zm1.4 3.7c1.2.7 2.2.9 3-.2.2-.3-.2-1.3-.5-1.5-1.6-.6-1.9.8-2.5 1.7zm64.1-176.3c.1-.9.6-2.2-1.1-2.1-.3 0-.7.8-.6 1.1.3.9.8 1.7 1.3 2.6.2-.2.6-.3.6-.6 0-.2-.1-.6-.2-1zM65.5 33.7c-.6.7-1.3 1.2-1.2 1.6.1.5.8.9 1.2 1.4.4-.4 1.1-.8 1.1-1.3s-.6-1-1.1-1.7zm9 184.1c.8.5 1.2 1.2 1.7 1.1.4 0 1.1-.7 1.1-1.1 0-.4-.7-1.1-1.2-1.1-.3-.1-.8.5-1.6 1.1zm8.2-9.4c.4.1.7.3 1.1.4.4-.8.8-1.7 1.2-2.5-.5-.2-.9-.4-1.4-.6l-.9 2.7zM46.4 58.1c.7.5 1.3 1.2 1.6 1.1.5-.1.9-.8 1.3-1.2-.4-.4-.8-1-1.3-1-.4-.1-.9.5-1.6 1.1zm199.7 178c.7.6 1.2 1.2 1.7 1.2.4 0 1.2-.7 1.2-1.1 0-.4-.7-1.1-1.1-1.2-.5-.1-1 .5-1.8 1.1zM55.6 47c-.8-.5-1.3-1.1-1.7-1-.4.1-.8.7-1.2 1.1.4.4.8 1 1.2 1.1.4 0 .9-.6 1.7-1.2zm176.7 127.1c.9.5 1.4 1 1.8 1 .4 0 .8-.7 1.1-1-.4-.4-.8-1-1.2-1.1-.3 0-.8.6-1.7 1.1zm10.4 35.5c-.5.8-1 1.3-1 1.8 0 .4.8 1 1 .9.5-.1 1.1-.7 1.1-1.1.1-.4-.5-.9-1.1-1.6zM48.7 52.9c-.5.8-1 1.3-1 1.8 0 .3.7.9 1.1.9.4 0 1.1-.6 1.1-1-.1-.5-.6-.9-1.2-1.7zm14.5 160c-.8-.5-1.3-1.1-1.8-1-.4.1-.8.7-1.2 1.1.4.3.8.9 1.2.9.5 0 1-.5 1.8-1zm66.6-165.7c.7.4 1.2.9 1.5.8.5-.2.8-.8 1.2-1.2-.4-.4-.9-1-1.3-1s-.8.8-1.4 1.4zm-76.4 9.4c.7.5 1.1 1.1 1.5 1.1.4 0 .8-.6 1.2-1-.4-.4-.7-.9-1.1-1-.4 0-.8.5-1.6.9zm21.8 145.8c.6.6 1 1.1 1.4 1.2.4 0 1-.6 1-.9 0-.4-.5-1.1-.9-1.1-.2-.2-.7.3-1.5.8zM235.8 148c-.5.7-1.1 1.1-1 1.5 0 .4.6.8.9 1.1.4-.4 1-.7 1.1-1.1.1-.3-.5-.8-1-1.5zm8 35.3c-.4.8-.9 1.2-.8 1.6.1.4.7.7 1.1 1 .3-.4.9-.8.9-1.2-.1-.4-.7-.8-1.2-1.4zM49.8 36.6c.7.6 1.1 1.1 1.5 1.1.4 0 1-.6 1-.9 0-.3-.5-1-.9-1-.4-.1-.9.4-1.6.8zm183.7 146.7c-.5.6-1.2 1.1-1.1 1.4.1.5.7.8 1.1 1.2.3-.4.9-.7 1-1.1 0-.4-.5-.9-1-1.5z"/>
    <path d="M71.4 190.1c1.1-1.7 3.9-1.6 4.5-4 .1-.4.9-.6 1.5-.8.1 0 .7.5.7.7-.2.5-.5 1-.8 1.4-1 1.2-2.2 2.3-2.9 3.6-.7 1.5 1 3.5 3 4 .3.1.6.1.9.5-.4.1-.9.2-1.3.2-2.6.1-4 1.9-3.4 4.3.1.4.7.8 1 .8 2.9.5 5.8 1.1 8.6-.1.3-.1.7-.1 1.4-.1-.4.5-.5.9-.8.9-2.3.4-4.6.7-6.9 1-.8.1-1.7 0-2.2.4-.7.5-1.8 1.5-1.7 2 .2.8 1.3 1.4 2.1 1.9.7.5 1.5.8 2.3 1.2-.1.2-.1.4-.2.6-.5 0-1.1.2-1.5 0-1.8-.6-2.5.7-2.6 1.9-.2 1.2-.5 2.9 1.6 3.2 1.2.2 2.4.7 3.5 1 0 .2-.1.3-.1.5-1.2-.3-2.4-.5-3.6-.9-1.5-.5-2.4-.4-2.9 1.4-.5 1.5-1.5 2.9-.4 4.5.5.8 1.1 1.5 1.6 2.6-.8-.4-1.8-.5-2.4-1.1-1.3-1.1-3.5-1.3-4.8-.1-.9.8-.8 2.2.2 3.2 1.1 1.1 2.1 2.3 3 3.7-2.9-.5-2.9-4.7-6.4-4.6.3.7.6 1.1 1 2.1-.8-.2-1.2-.3-1.6-.5-.8-.5-1.5-1.2-2.4-1.4-.9-.3-1.9-.1-2.9-.1.2.7.4 1.5.6 2.2.1.3.1.5.2.8-.1.1-.3.2-.4.3-.5-.6-1.2-1.1-1.4-1.7-.3-1.6-1.4-1.5-2.6-1.5-1.4 0-1.2.9-1.4 1.8 0 .2-.2.4-.3.5-.9-1.1-1.7-2.1-2.5-3.1-1.5-1.8-1.5-1.7-2.8.2-.1.2-.4.3-.7.4-.4-1.1-.5-2.5-1.2-3.1-.7-.6-2.1-.4-3.4-.5 0-.1.3-.5.3-.9.1-1.1.2-2.3-1.6-2.4-1.3-.1-2.2-1.6-1.3-2.6 1.3-1.5.7-2.6 0-3.9-.2-.4-.2-.8-.2-1.3H34c2-.3 3.1-1.2 2.5-3.3.6-.3 1.1-.5 1.6-.7.3-2.8-2.5-.9-3.4-2.5.9 0 1.6-.2 2.3-.1 1.4.1 2.1-.5 2.5-1.7 1.1-2.8.3-5-2.3-6.4-.4-.2-.5-.8-.7-1.3.4 0 1 0 1.3.2 1.7.8 3.2 1.9 4.9 2.6 1.2.5 2 .2 2.1-1.4.1-1.9.5-3.8.7-5.7.1-.7-.1-1.5 0-2.2.1-.8.4-1.6.5-2.4.2-.8.3-1.5.7-2.3l.3 3.3c.6 0 1.2.1 1.8.1.2.7.4 1.5.6 2.3h4.1c2.6-3.8 2.6-8.2 2.8-12.5.2 0 .5 0 .7.1-.2 3.9-.4 7.7-.6 11.6 2.1.7 3-.2 2.8-3.1.5-.2 1-.5 2-1-1.2-.3-1.9-.5-3-.7.6-.6 1-1.5 1.5-1.5 2.5-.3 3.5-1.8 3.9-4 .1-.5.2-1.1.5-1.4.4-.3 1.1-.4 1.6-.3.6.1 1.2.5 1.8.7 1 .4 2.1.8 3.2 1.2 1.2.6 2-.1 2.3-1 .3-.8.3-1.9 0-2.8-.2-.8-1.4-1.7-1.2-2.1.5-1.1 1.4-2.3 2.5-2.9 2.1-1.2 3.7-2.5 3.9-5.1.2-2.2 3.7-3.8 5.9-2.7.9.4 1.8.9 2.6 1.5 1.2.8 1.7 3 .7 4-1.2 1.3-2.6 2.6-4.1 3.6-2.2 1.5-2.3 1.9-1.4 4.4.4 1.1 0 2.1-1.4 2.3-1.5.3-3.2 2.1-3.2 3.7 0 .6.4 1.8.6 1.8.7.1 1.6-.2 2.2-.7 1-.7 1.9-1.6 3.1-2.6.1.5.3.8.2.9-1.2 1.7-2.4 3.4-3.9 4.9-.3.3-1.9-.3-2.5-1-1.5-1.6-3.5-.5-5.1-1.1-.2.7-.8 1.5-.7 2.1 1.1 3.4 1.2 3.3.2 6.1zM30.4 166.9c-.5.4-1.1.7-1.5 1.1-.7 1.1-2.1 1.3-2.4.3-.6-1.7-1.9-2.4-3.2-3.1-2.3-1.2-4.1-3.6-7.1-3.5-.3 0-.6-.8-1-1.2.7-.3 1.4-.9 2-.8 1.4.3 2.7.9 4.4 1.6-.4-1-.6-1.7-.9-2.3.4-.6.7-1.2 1.2-2-1.3-.5-2.3-.9-3.5-1.4 2.6-.1 3.6-1.6 3.3-4.3 1.8-.4 3.7-.7 5.4-1.3.6-.2 1-1.2 1.2-2 .3-1.3.2-2.6.3-3.9.2 0 .4 0 .6.1-.1 1.2-.2 2.4-.4 3.8 1.6-.3 2.8-.5 4-.7-.1-.1-.1-.2-.2-.3.8-.6 1.5-1.1 2.3-1.6 1.7-1.1 1.9-2.6 1.8-3.9 2.2-.6 4.2-1.2 6.3-1.8 0 1.2.2 2.5-1.1 3.5-1.1.9-.4 4.4 1.2 6 .6-1.5 1.2-2.9 1.9-4.3.1.4.1.9.2 1.4h1.4c0 1 .1 1.9.1 3.2 2.6-1.1 5-2.1 7.4-3.1 0 .1.1.2.1.3-1.3.8-2.6 1.6-3.4 2.1-.3 1.3-.5 2.1-.8 3.3.1.2.3.9.7 1.8h5.5c-1.1 1-3.2-.2-3.5 1.9 1.1.5 2.1 1 3.4 1.6-1.8.3-3.3.5-4.7 1-.5.2-1.1.9-1.2 1.5-.1.4.5 1.1 1 1.3 1.3.5 2.6.8 3.9 1.5-.9-.1-1.8-.2-3-.3.4.7.7 1.2 1 1.7-2.6 1.2-4.4-1.1-6.9-1.5 1 4.3 3 7.5 6.5 9.8.9.6 1.4 1.6 1.9 2.7-4.5-3.5-7.8-8.5-14-10 .1 3.1 3.7 2.8 4.7 4.8-.3.2-.4.4-.5.4-.4 0-5.5-2.7-5.8-3-1.5-1.9-4.4-2.9-6.7-2.1-.7.2-1.1 1.1-1.6 1.7h-.3zM44.8 182.4c-.2.3-.4.9-.7 1-1.3.4-2.7 1-4 .9-2.8-.4-4.2 2.2-6.5 2.7 0 0-.1.1-.1.2-.2 3.6-3.8 2.8-5.7 4.3-1.3 1-2.5 1.9-4.1 2-.2 0-.4.2-.4.3-.4 2-2.6 2-3.8 3-2.8 2.2-5 1.3-7.8-.5-1.9-1.2-2-4.6-.5-6.3.9-1 1.5-2.4 2.6-2.9 1.2-.5 3.3-.9 4.1-.2 1.8 1.6 3.7 1.1 5.5.8 2.8-.4 5.5-1.2 8.2-2 2.6-.8 5.2-1.9 7.8-2.7 1.7-.5 3.5-.7 5.3-1-.1 0 0 .2.1.4zM76.9 114.4c1.1-.1 2-.3 2.5-.3.6 1.4.9 2.8 1.7 3.9 1 1.5 1 2.7 0 4.1-1 1.3-3 1.8-4.3 1-.9-.6-1.8-1.4-2.4-2.4-.3-.5-.1-1.9.3-2.1 1.7-1 2-2.5 2.2-4.2zM14.5 178.7c-1.1-.1-2.5-.2-3.9-.5-1.9-.4-3.1-3.2-2.1-4.8.8-1.2 3.5-.8 4.9.6.7.7 1.5 1.2 2.4 1.6 1.1.5 1.7-.1 1.7-1.2 0-.6-.1-1.3.1-1.9.1-.4.5-.8.9-1 .1-.1.7.1.8.3.1.4.3 1.2.1 1.3-1.4 1-1.3 2.4-1.4 3.9-.2 2.2-1.9 1.6-3.5 1.7z"/>
    <path d="M63.9 172c-.5.9-1.6 1-2.9.2-.9-.6-1.1-1.7-.2-2.2.8-.4 1.9-.1 2.9.2 1.3-.5 2.4-2.5 4.1-.9.5.5.1 1.9.1 2.9-1.1 0-2.4-.1-4-.2zM148.8 268.7c0-1.4 1.3-2.6 2.8-2.5 1.5.1 2.5 1.2 2.4 2.6 0 1.4-1.2 2.5-2.6 2.5-1.4 0-2.6-1.2-2.6-2.6zM30.6 171.2c1.9 1.5 2 2.4.6 3.8-.5.4-.7 1.1-1 1.7-.8-.1-1.7-.2-2.6-.3-.4-.1-1.1-.2-1.1-.5-.1-.4 0-1.1.3-1.3 1.3-1.3 2.6-2.4 3.8-3.4zM25.9 199.6c1.3-.4 2.4-.8 3.6-.9.5 0 1.4.5 1.6 1 .5 1.1.5 2.4-.9 3-1.8.9-3.3-.1-4.3-3.1zM272.5 155.3c-.2.9-.3 1.8-.5 2.7.8.9 3.1.5 2.7 2.4-.2.8-1.3 1.4-2 2.1-.2-.1-.4-.1-.6-.2-.4-1.8-.8-3.6-1-5.4-.1-.6.6-1.2 1-1.9 0 .2.2.3.4.3zM80.9 156c.1 2-2.8 4.5-4.5 3.8-.3-.1-.5-1.2-.3-1.6 1-1.8 2.2-2.3 4.8-2.2zM58.4 170.7c-1.8-.3-2.1-1.2-2.1-2.3 0-1.2.3-2.1 1.8-2.1 1.4 0 2.4.7 2.2 2-.3.9-1.3 1.6-1.9 2.4zM277.2 176.5c-2.2-.1-3.3-1.3-4.2-2.6-.4-.7-1.1-1.7.2-2.1.6-.2 1.7.3 2.1.9.8 1 1.2 2.3 1.9 3.8zM62.6 158.1c-1-.2-1.7-.4-2.5-.4-.7-.1-1.4 0-2.1-.4 1.9.1 3.8 0 5.5.5.6.2.7 1.9 1.1 2.9-.5.2-1.1.5-1.5.4-.4-.1-.8-.7-.9-1.1 0-.7.2-1.2.4-1.9zM71 160.5c.8.9 1.8 1.6 1.7 1.8-.3.7-1.1 1.3-1.7 1.9-.6-.6-1.4-1.1-1.7-1.9-.1-.2.9-1 1.7-1.8zM75.9 113.8c-.4 1.4.4 3.1-1.6 3.3-.5.1-1.6-.9-1.6-1.4.2-1.8 1.7-1.6 3.2-1.9zM47.7 176.7c-.3-1.8-.6-3.5-.9-5.3 2.1-.2 2.7 2.4.9 5.3zM160 250.1c.6 1.1 1.3 1.7 1.2 2.2-.1.5-.9.9-1.4 1.4-.5-.5-1.3-1-1.3-1.5-.1-.5.7-1.1 1.5-2.1zM60.7 84.4c-.6-.9-1.3-1.5-1.2-1.8.2-.5.9-1.3 1.4-1.3.5 0 1.3.7 1.4 1.2 0 .5-.8 1-1.6 1.9zM161.4 259.5c.5.9 1.2 1.5 1.1 2-.1.5-.9.8-1.3 1.3-.4-.5-1.1-1-1.2-1.4 0-.6.7-1.1 1.4-1.9zM134.1 254.9c-.8.5-1.3 1-1.8 1-.5-.1-.8-.7-1.3-1.1.5-.4.9-1 1.4-1.2.4 0 .9.7 1.7 1.3zM74.6 107.6c1 .7 2 1.3 2.9 2.1.1.1-.1.9-.2.9-.5 0-1.2 0-1.5-.3-.6-.7-1-1.6-1.4-2.4.1-.1.2-.2.2-.3zM140.8 254c-.7.5-1.2 1.1-1.5 1-.4-.1-.9-.7-1-1.2 0-.2.7-.9 1.1-.9.4 0 .8.6 1.4 1.1zM151.6 261.7c-.7.6-1 1.1-1.4 1.1-.4 0-1.2-.6-1.1-.9.1-.5.5-1.1 1-1.2.3 0 .8.6 1.5 1zM76 84.8c.9 1 1.4 1.4 1.3 1.5-.3.4-.7.8-1.1 1-.2.1-.8-.5-.9-.9 0-.4.4-.8.7-1.6zM200.4 128.3c.3.6.7 1.1 1 1.7-.1.2-.2.3-.3.5-.6-.2-1.3-.2-1.6-.5-.2-.4.1-1.1.1-1.6.3-.1.5-.1.8-.1zM250.8 200.6c-.6-.1-1.4 0-1.9-.3s-.8-1-1.1-1.6c0-.1.5-.7.7-.6.7.2 1.5.3 2 .8.3.3.1 1.2.3 1.7z"/>
    <path d="M98.4 242.4h-51c-1.2 0-2.3.2-3.1-1.3-.6-1-1.9-.9-2.8.1-1.2 1.3-4.3 1.6-6 .8-.5-.3-1.5-.3-2-.1-1.5.7-1.8.6-1.9-1.1v-19.2c0-1.7-.1-3-2.2-3.4.6.1 1.2.2 2.2.3v-2-39.2c0-1.3.1-2.6-.1-3.8 0-.5-.5-1-.8-1.4-.9-1.1-1.3-2.2.1-3.2.4-.3.7-.8.8-1.2.1-4.8 0-9.5 0-14.8-.5.7-.7.9-.8 1.1-.2 1.2-.9 1.5-2.1 1.4-1.5-.2-1.5-1.4-1.6-2.4-.2-1 .3-1.7 1.6-1.9 1.7-.3 2.8-1.8 2.8-3.1.2-6.6.1-13.3.1-20.1-.6 0-1.2.1-1.7 0-.6-.2-1.2-.6-1.7-1 .4-.6.8-1.2 1.2-1.7.1-.1.4 0 .5-.1.6-.4 1.1-.7 1.7-1.1-.5-.4-.9-.8-1-.8.4-1.1.9-2.1 1-3.1.2-2 0-4 0-5.9-.2 0-.4-.1-.6-.1-.2 1.1-.5 2.1-.9 3.8-1.2-1.1-2.1-1.8-2.8-2.6-1.4-2-2.6-4.1-4.2-6-.8-.9-2.2-1.3-3.3-2h-.2c-1.5-1.7-2.9-.6-4.3.3-1.4.9-3.1 1.6-3.3 3.7 0 .4-.8.9-1.1.9-.5-.1-1.1-.6-1.2-1-.1-.3.3-1.1.7-1.3l4.8-2.7c.9-.5 1.1-.9.1-1.8-2.2-2-2-3.9.4-5.6.2.6.3 1.5.7 1.7 1.5.8 3.1 1.5 4.7 1.8.5.1 1.3-.9 1.8-1.4-.8-1-1.5-1.8-2.1-2.6-.6-.9-.3-1.4.8-1.5 1.8-.1 2.5-1.5 1.5-3-.4-.6-.8-1.3-.9-2-.1-.7 0-2 .2-2 .9-.1 2.1-.2 2.6.2 1.1 1.3 3.3 2.3 1.9 4.7 0 .1 0 .3.1.4 1.4 1.5 1.1 3.2 0 4.7 1.5.1 2.8.2 4.7.4-1-.9-1.8-1.5-2.6-2.2 0-.1.1-.2.1-.3.6.1 1.2.3 2 .5V74.5c-1.7.9-3.3 1.5-3.6 3.6-.1.4-.9 1-1.4 1-.4 0-1.1-.6-1.1-1s.5-1.2.9-1.3c4.2-1.4 6.3-3.9 5.5-8.5-.4-2.1-.1-4.4 0-6.6 0-1.4.2-2.8.4-4.5 1.4-.1 2.8-.6 2.1-2.8 1.3-.7 2.7-1.3 1.8-3-.8-1.5-2.1-1.4-3.5-.4-.3-1-.6-1.9-1-3.2 1.8.8 3.3 1.5 4.5-.3.9-1.5 0-2.5-.6-2.9-.2-1.5 0-2.8-.5-3.4-.5-.6-1.8-.4-3.1-.6v-7.5c0-1.3 1-1.1 1.8-1.1h25.8c1.5 0 2.9-.1 3.3 2.1.1.7 1.5 1.4 1.2 2.6-.2.6-.3 1.3-.6 1.7-1.2 1.5-2.6 2.9-3.8 4.4-.3.4-.2 1-.3 1.5.5-.2 1.2-.2 1.6-.5.7-.7 1.3-1.5 2-2.3.2.2.4.3.6.5-1.4 1.7-2.7 3.3-4.1 5 .1.1.2.3.3.4 1.6-.5 3.3-1.1 4.9-1.6-.5 1.6-1 3-1.3 4.5 0 .1.7.4 1.2.6-.6 1.3-1.1 2.7-1.7 4.1l.6.3c.7-1.4 1.4-2.7 2.1-4.1.4-.8.9-2.1 1.5-2.1 1.6-.1.8 1.4.8 2.2.2 1.9.1 3.9.1 5.8h-.5c-.1.1-.2.2-.3.2-.8-.1-2-.6-2 .8 0 .5.6 1.3 1 1.4 1.1.1 2-.2 2.3-1.6.3-2.2 1-4.4 1.5-6.6.2 0 .5 0 .7.1.1.9.3 1.7.4 2.6.1 0 .2.1.3.1.2-.8.3-1.5.5-2.3.2-.7.8-1.9.9-1.9 1.1.3 2.2.6 3 1.3.5.4.7 1.3 1 2 .2-.1.4-.1.6-.2-.5-1.8-1-3.7-1.6-5.8.8.2 1.6.3 2.5.5 0-.4-.1-.7-.1-1.1.4 0 .9 0 1.3.1 0-.1.1-.2.1-.3-1-.6-1.9-1.2-2.9-1.8.1-.2.1-.3.2-.5 1.2.1 2.5-.5 3.7.8.6.6 1.9.6 3 1-.2-1.9-1.7-3.5.1-5.2-3.6-.2-5.1-2.5-5.5-5.9 1.5.3 2.7.6 4 .8.1-.2.1-.4.2-.6-1.9-.6-3.8-1.3-5.7-1.9.1-.3.2-.6.2-.9h18.2c.5 0 1.4.6 1.4 1 .3 2.9 2.8 4.9 5.5 4.8 2.8 0 4.6-2 5.3-5.3 0-.1.1-.2.2-.5h10c.8 3.6 1.8 4.9 4 4.7 2.1-.2 3.1-1.6 3.4-4.8h15.9c.4 0 1 .6 1.2 1.1.9 2.4 2.7 3.9 5 4 2.2.1 4.4-1.4 5.2-3.8.3-1 .8-1.4 1.9-1.4 15.3.1 30.5.1 45.8.1 14.3 0 28.7 0 43-.1 2.6 0 4.1-1.7 3.9-4.3 0-.5 0-1.2.3-1.5 3.7-3.3 4.9-2.6 4.3-.9-.6 1.7-.9 3.3-2.4 4.7-1.1 1.1-1.5 3.1-1.5 4.7-.1 11.2-.1 22.4-.1 33.5 0 .2.1.3.2.5 2.3-.9 4.5-1.8 6.8-2.7.1.2.1.4.2.5-1.7.8-3.5 1.5-5.2 2.3-1.5.6-2 1.6-1.9 3.2.1 4.2 0 8.5 0 12.6 2.7-1.4 5.2-2.7 7.1-3.7-.3 1.5-.7 3.5-1 5.5-.3 1.9-2.8 3.2-4.4 1.7-.5-.4-1-.9-1.7-1.5 0 .7-.1 1.3-.1 1.9 0 8.2.1 16.5-.1 24.7 0 2 .8 2.8 2.6 3 1.4.2 2.9.3 4.4.7-2 1.7-4.4.5-6.6 1-.2 1.3-.2 1.3 1.3 1.3h5.3c.1-.1.9-.6 1.4-.4.4.1.8 1 .9 1.6.1 1.4.1 2.8.1 4.2 0 .2 0 .5.1.7.9 1.4 1.9 2.7 3.1 4.4-1.9.7-3.4 1.2-4.9 1.6-.4.1-1-.1-1.4-.3-.8-.6-1.7-1-1.9.2-.2.9.1 2.6.5 2.7 2.7.7 5.6 1.4 8.4 1.5 1.8.1 2.7-1.4 2.3-3.3-.4-1.9.2-3.4 1.4-4.8.4-.5.4-1.3.6-2-.7.1-1.5 0-2 .3-1.5.8-2.4.5-2.5-1.3-.2-2.4 0-4.7 0-7.1 0-1.2-.2-2.4-.4-3.6-.4-2.5-2.3-3.3-4.5-2.1-.5.3-.9.7-1.4 1-.4.3-.8.5-1.2.7-.2-.1-.3-.3-.5-.4 1.1-1.6 2.2-3.3 3.4-4.8.9-1.2 1.8-2.3 2.9-3.3 1-1 2.1-.9 2.9.3.4.6.8 1.3 1.3 1.9.4.4 1.2.9 1.5.8 2.1-1.1 4.1.5 6.2.2 2-.3 4.2.1 6.3.4.6.1 1 1 1.5 1.5-.6.1-1.2.3-1.8.2-2.4-.6-4.9.9-5.9 3.9-.1.2-.1.5-.1.9-1.7-.4-3.2-.7-4.9-1.1-.4 2-.2 3.7 1.7 5 1.9 1.2 2.8 3.1 3.1 5.2.2 1.1.5 1.7 1.8 1.6 1.6-.1 2.7.8 2.7 2.3 0 1.5-1.2 2.2-2.8 2.3-.5 0-1 .1-1.5.1v4c0 2.5-1.6 3.9-3.8 4.4-2.3.6-4.8.8-7.1 1.2-.9.1-1.6 0-2.2 1-.7 1.1-2 .8-2.6-.3-.7-1.4-1.8-1.4-3.1-1.1-2.4.5-4.5 3.1-4.5 5.5v4.8c2.7-3.4 6.6-2.6 9.7-4.1.7 2-.6 2.5-2.2 2.8 1 2.2.4 3.9-1 5.6-.7.8-1 2.1.4 2.9.2.1.2.6.3 1.2-2.9-2.1-6.6-3-6.7-7.5-1 2.6-.7 7.1.3 7.8-.3 1.2-.7 2.4-1 3.6.2.1.3.2.5.4.9-.5 1.8-.9 2.9-1.5-.8 1.3-1.4 2.4-2.1 3.4 1.5 1.6 2.9 1 4.3.2 0 .2.1.3.1.5-1.4.8-2.7 1.9-4.2 2.4-1.4.5-1.4 1.4-1.4 2.5V221.7c-1.7 0-3.4.2-3.3 2.2.1 1.8 1.5 2.3 3.3 2v17c-.7-.3-1.2-.4-1.6-.8-1.5-1.2-2.9-1.2-4.5-.1-.6.4-1.5.7-2.2.7-6.9.1-13.7 0-20.6 0-2.8 0-4.1-1.4-4.1-4.2.9.3 1.8.5 2.6.8.1-.1.1-.2.2-.4-.4-.3-.8-.6-1.3-.9-.3-.2-.8-.2-1-.5-.8-.8-1.5-1.7-2.2-2.5 1-.5 2-1.1 3.2-1.7-1.6-.9-3.5-2-5.5-3.2.9-.8 1.7-1.6 2.8-2.6-1.5.1-2.7.5-3.5.1-.7-.3-.9-1.6-1.3-2.5-.1.1-.4.4-.8.9-.5-.8-.9-1.6-1.4-2.5-.7 1.4-1.6 2-3.3.8-.6-.4-2.1.2-3 .5-.7.2-1.2.9-2.1 1.5.3 1.2-.9 1.3-2.2 1.4.3.6.5 1 .7 1.5-.7.3-1.3.6-2.2 1 .6.4 1 .6 1.5 1-.2.3-.4.5-.6.7-1 1.1-2.1 2.2-3.2 3.3-.5-.1-1.2-.4-1.4-.2-.6.5-1.3 1.4-1.2 1.9.1.5 1.2.9 1.9 1.3.4-.7 1-1.3 1.3-2 .1-.3-.4-.7-.6-1.1 1-.2 2.1-.3 3.1-.5.1.1.3.2.4.4-.6.9-1.2 1.8-1.7 2.6 1.1.3 2.3.6 3.8.9-.7 1.2-1.1 1.9-1.7 2.8 1.2-.5 2-.9 2.9-1.3.2.7.3 1.3.5 2.3.7-.4 1.3-.8 2-1.3.8 1 .7 1.8-.6 1.7-5.4-.1-10.7-.3-16.1-.4-.7 0-1.4.2-2 .2-1 0-2-.2-2.9-.5-1.2.3-2.5.6-3.9 1-.4-1.9-.9-3.6-2.8-3.1-1.1.3-1.9 1.8-3 2.9.6-1.5 1.2-3.2-.5-3.9-1-.4-2.5.1-3.7.2 0 .2 0 .4-.1.6-.2-.3-.4-.7-.7-.8-.4-.2-.9-.5-1.3-.4-.3.1-.6.7-.6 1 0 1 .1 2.1.2 3.2h-11.3l-2.3-2.3c-.5.6-1.1 1.3-1.6 1.9.1.2.2.3.4.5-2.9.3-5.9-.5-8.9 0-3 .4-6.1.1-8.7.1-.6-.8-1-1.4-1.4-1.9-.5.6-.9 1.2-1.8 2.3-.8.5-2.3 1.3-3.7 2"/>
  </g>
  <path fill="#FFA300" d="M94.7665 18.2958l178.204 45.7976-33.1535 129.0042L61.613 147.3zM60.8705 150.2967l178.204 45.7976-33.1535 129.0042L27.717 279.301z"/>
  <path fill="#FFF" stroke="#FFF" stroke-miterlimit="10" stroke-width="1.038468845" d="M73.1719 160.9946l150.8923 38.7786-25.0891 97.6248-150.8923-38.7786z"/>
  <g fill="#FFA300" stroke="#FFF" stroke-miterlimit="10" stroke-width="2.8346">
    <circle cx="71.8" cy="161.1" r="4.1"/>
    <circle cx="88.6" cy="165.5" r="4.1"/>
    <circle cx="105.5" cy="169.8" r="4.1"/>
    <circle cx="122.3" cy="174.1" r="4.1"/>
    <circle cx="139.2" cy="178.5" r="4.1"/>
    <circle cx="156" cy="182.8" r="4.1"/>
    <circle cx="172.9" cy="187.1" r="4.1"/>
    <circle cx="189.8" cy="191.4" r="4.1"/>
    <circle cx="206.6" cy="195.8" r="4.1"/>
    <circle cx="223.5" cy="200.1" r="4.1"/>
  </g>
  <g fill="#FFA300" stroke="#FFF" stroke-miterlimit="10" stroke-width="2.8346">
    <circle cx="76.5" cy="142.7" r="4.1"/>
    <circle cx="93.4" cy="147" r="4.1"/>
    <circle cx="110.2" cy="151.3" r="4.1"/>
    <circle cx="127.1" cy="155.7" r="4.1"/>
    <circle cx="143.9" cy="160" r="4.1"/>
    <circle cx="160.8" cy="164.3" r="4.1"/>
    <circle cx="177.6" cy="168.6" r="4.1"/>
    <circle cx="194.5" cy="173" r="4.1"/>
    <circle cx="211.4" cy="177.3" r="4.1"/>
    <circle cx="228.2" cy="181.6" r="4.1"/>
  </g>
  <g fill="#FFA300" stroke="#FFF" stroke-miterlimit="10">
    <path d="M71.6 161.9h0c-.7-.2-1.1-.9-1-1.6l4.6-18.1c.2-.7.9-1.1 1.6-1h0c.7.2 1.1.9 1 1.6L73.2 161c-.2.7-.9 1.1-1.6.9zM88.5 166.3h0c-.7-.2-1.1-.9-1-1.6l4.6-18.1c.2-.7.9-1.1 1.6-1h0c.7.2 1.1.9 1 1.6l-4.6 18.1c-.2.7-.9 1.1-1.6 1zM105.4 170.6h0c-.7-.2-1.1-.9-1-1.6l4.6-18.1c.2-.7.9-1.1 1.6-1h0c.7.2 1.1.9 1 1.6l-4.6 18.1c-.2.8-.9 1.2-1.6 1zM122.3 175h0c-.7-.2-1.1-.9-1-1.6l4.6-18.1c.2-.7.9-1.1 1.6-1h0c.7.2 1.1.9 1 1.6l-4.6 18.1c-.2.7-.9 1.1-1.6 1zM139.2 179.3h0c-.7-.2-1.1-.9-1-1.6l4.6-18.1c.2-.7.9-1.1 1.6-1h0c.7.2 1.1.9 1 1.6l-4.6 18.1c-.2.7-.9 1.2-1.6 1zM156.1 183.6h0c-.7-.2-1.1-.9-1-1.6l4.6-18.1c.2-.7.9-1.1 1.6-1h0c.7.2 1.1.9 1 1.6l-4.6 18.1c-.1.8-.9 1.2-1.6 1zM173 188h0c-.7-.2-1.1-.9-1-1.6l4.6-18.1c.2-.7.9-1.1 1.6-1h0c.7.2 1.1.9 1 1.6l-4.6 18.1c-.1.7-.9 1.2-1.6 1zM189.9 192.3h0c-.7-.2-1.1-.9-1-1.6l4.6-18.1c.2-.7.9-1.1 1.6-1h0c.7.2 1.1.9 1 1.6l-4.6 18.1c-.1.8-.9 1.2-1.6 1zM206.8 196.7h0c-.7-.2-1.1-.9-1-1.6l4.6-18.1c.2-.7.9-1.1 1.6-1h0c.7.2 1.1.9 1 1.6l-4.6 18.1c-.1.7-.9 1.2-1.6 1zM223.7 201h0c-.7-.2-1.1-.9-1-1.6l4.6-18.1c.2-.7.9-1.1 1.6-1h0c.7.2 1.1.9 1 1.6l-4.6 18.1c-.1.8-.8 1.2-1.6 1z"/>
  </g>
  <g fill="#FFA300">
    <path d="M61.1 251.6l129.6 33.3 19-74.1-129.5-33.3-19.1 74.1zm23.1-67.4l118.9 30.6-16.3 63.4-118.9-30.6 16.3-63.4zm0 0"/>
    <path d="M93.6109 202.5114l-8.426-2.1654 2.1655-8.426 8.426 2.1655zM109.3783 206.6076l-8.426-2.1654 2.1654-8.426 8.426 2.1654zM125.1456 210.7039l-8.426-2.1655 2.1655-8.426 8.426 2.1655zM140.8409 214.6785l-8.426-2.1654 2.1655-8.426 8.426 2.1654zM156.6101 218.7753l-8.426-2.1655 2.1655-8.426 8.426 2.1655zM194.3595 228.479l-8.426-2.1653 2.1654-8.426 8.426 2.1654zM179.5032 224.6385l-8.426-2.1654 2.1655-8.426 8.426 2.1655zM89.9996 216.5904l-8.426-2.1654 2.1655-8.426 8.426 2.1655zM105.7917 220.5898l-8.4259-2.1654 2.1654-8.426 8.426 2.1655zM121.4623 224.6611l-8.426-2.1654 2.1654-8.426 8.426 2.1655zM137.2545 228.6605l-8.426-2.1654 2.1655-8.426 8.426 2.1655zM153.0236 232.7576l-8.426-2.1654 2.1655-8.426 8.426 2.1654zM190.773 242.4614l-8.426-2.1654 2.1654-8.426 8.426 2.1655zM175.9167 238.6205l-8.426-2.1654 2.1655-8.426 8.426 2.1655zM86.4122 230.5745l-8.426-2.1654 2.1655-8.426 8.426 2.1655zM102.2046 234.5739l-8.4259-2.1655 2.1654-8.426 8.426 2.1655zM117.875 238.6452l-8.4259-2.1654 2.1654-8.426 8.426 2.1655zM133.6673 242.6448l-8.426-2.1655 2.1655-8.426 8.426 2.1655zM149.4364 246.7415l-8.426-2.1654 2.1655-8.426 8.426 2.1655zM187.1858 256.4454l-8.426-2.1655 2.1654-8.426 8.426 2.1655zM172.3295 252.6048l-8.426-2.1655 2.1655-8.4259 8.426 2.1654zM82.825 244.5585l-8.426-2.1654 2.1655-8.426 8.426 2.1654zM98.6172 248.558l-8.426-2.1654 2.1654-8.426 8.426 2.1655zM114.288 252.6293l-8.426-2.1654 2.1654-8.426 8.426 2.1654zM130.08 256.6287l-8.4259-2.1654 2.1655-8.426 8.426 2.1655zM145.8493 260.7255l-8.426-2.1655 2.1655-8.4259 8.426 2.1654zM183.5986 270.4296l-8.426-2.1654 2.1655-8.426 8.4259 2.1655zM168.7423 266.5887l-8.426-2.1654 2.1655-8.426 8.426 2.1655z"/>
  </g>
  <g fill="#FFF">
    <path d="M141.9 71.4L129.4 120c-.2.7-.8 1-1.4.9-.7-.2-1-.8-.9-1.5l10.2-39.8 1.4-3.5-1.8 3.5-22.8 36.9c-.1.5-.9.6-1.4.5-.8-.2-.8-1.1-.8-1.1l-2.2-43.3.1-3.9-.5 3.7-10.2 39.8c-.2.7-.8 1-1.5.9-.6-.1-1-.8-.9-1.5L109.3 63c.2-.7.9-.9 1.6-.8.4.1.7.6.7 1l.8 16 1.7 32.6 19.2-31.1 6.4-10.3c.3-.4.8-.7 1.4-.5.5.2 1 .8.8 1.5zM165.2 119.3c-.2.9-1.5 4.8-4.9 6.9-2.2 1.4-4.8 1.7-7.8.9l-6.2-1.6c-3-.8-5.1-2.3-6.4-4.6-1.4-2.5-1.6-5.8-.9-8.6l7.7-29.8c.1-.5 1.3-4.8 4.9-7 2.2-1.4 4.8-1.7 7.8-.9l6.2 1.6c3 .8 5.1 2.3 6.4 4.6 1.5 2.5 1.6 5.7.9 8.6 0 0-7.6 29.9-7.7 29.9zm-2.2-.7c7.7-29.8 7.7-29.9 7.7-29.9.1-.4.9-3.9-.7-6.8-1-1.6-2.7-2.8-5-3.4l-6.2-1.6c-2.3-.6-4.3-.4-6 .6-2 1.2-3.3 3.4-3.9 5.7l-7.7 29.8c-.1.5-.9 4 .7 6.8 1 1.6 2.6 2.8 4.9 3.4l6.2 1.6c2.3.6 4.4.4 6-.5 2.1-1.2 3.5-3.4 4-5.7zM196.3 137.2c-.1.6-.8 1-1.4.8-.7-.2-1-.8-.9-1.4l6.7-26L179 105l-6.7 26v.1c-.1.5-.8.8-1.3.7-.7-.2-1-.8-.9-1.4l12.5-48.6c.2-.7.8-1 1.4-.9.7.2 1 .8.9 1.5l-5.2 20.3 21.6 5.6 5.2-20.3c.2-.7.8-1 1.5-.9s1 .8.9 1.5l-12.6 48.6zM232.2 136.6c-.2.9-1.5 4.8-4.9 6.9-2.2 1.4-4.8 1.7-7.8.9l-6.2-1.6c-3-.8-5.1-2.3-6.4-4.6-1.4-2.5-1.6-5.8-.9-8.6l7.7-29.8c.1-.5 1.3-4.8 4.9-7 2.2-1.4 4.8-1.7 7.8-.9l6.2 1.6c3 .8 5.1 2.3 6.4 4.6 1.5 2.5 1.6 5.7.9 8.6 0-.1-7.7 29.8-7.7 29.9zm-2.2-.8c7.7-29.8 7.7-29.9 7.7-29.9.1-.4.9-3.9-.7-6.8-1-1.6-2.7-2.8-5-3.4l-6.2-1.6c-2.3-.6-4.3-.4-6 .6-2 1.2-3.4 3.4-3.9 5.7l-7.7 29.8c-.1.5-.9 4 .7 6.8 1 1.6 2.6 2.8 4.9 3.4l6.2 1.6c2.3.6 4.4.4 6-.5 2.1-1.2 3.4-3.4 4-5.7z"/>
  </g>
  <circle cx="181.4" cy="52.7" r="5" fill="#FFA300" stroke="#FFF" stroke-miterlimit="10" stroke-width="2.8346"/>
</svg>
