<?xml version="1.0" encoding="UTF-8"?>
<!DOCTYPE svg PUBLIC "-//W3C//DTD SVG 1.1//EN" "http://www.w3.org/Graphics/SVG/1.1/DTD/svg11.dtd">
<!-- Creator: CorelDRAW X6 -->
<svg xmlns="http://www.w3.org/2000/svg" xml:space="preserve" width="60.755mm" height="49.46mm" version="1.1" style="shape-rendering:geometricPrecision; text-rendering:geometricPrecision; image-rendering:optimizeQuality; fill-rule:evenodd; clip-rule:evenodd"
viewBox="0 0 6075 4946"
 xmlns:xlink="http://www.w3.org/1999/xlink"
 enable-background="new 0 0 275 210">
 <defs>
  <style type="text/css">
   <![CDATA[
    .fil0 {fill:#FFA300;fill-rule:nonzero}
   ]]>
  </style>
 </defs>
 <g id="Слой_x0020_1">
  <metadata id="CorelCorpID_0Corel-Layer"/>
  <path class="fil0" d="M22 1762c28,-34 61,-53 96,-64 30,-9 60,-11 90,-11l2127 0c-5,-21 -15,-63 -25,-105l0 0 0 -1 0 0c-23,-87 -46,-174 -68,-268l0 0c-21,-93 -18,-183 3,-268 20,-83 57,-162 106,-237l0 0c91,-143 200,-267 323,-373 127,-108 269,-198 426,-270 122,-56 246,-97 373,-124 128,-28 259,-41 393,-41 166,0 326,19 483,56 156,37 307,91 457,163l1 0c80,39 145,89 198,150 53,59 94,126 128,202l0 1c54,121 108,241 163,362 134,297 267,595 396,889l0 0c43,98 87,201 132,309 45,109 86,212 125,311l0 1c47,123 82,248 103,376 20,123 26,247 17,372l0 0c-12,160 -42,316 -91,465 -49,149 -119,293 -209,430 -105,157 -227,291 -367,405 -139,113 -294,207 -465,284l0 0c-125,56 -254,98 -386,126 -132,28 -266,42 -402,42 -1185,0 -2370,0 -3340,3l0 0c-59,0 -97,-7 -132,-37 -35,-29 -48,-64 -60,-120l0 0c-26,-126 -57,-274 -89,-423 -28,-134 -56,-267 -89,-423l0 0 -34 -157c-62,-293 -125,-584 -190,-905l0 0 -1 -6c-64,-306 -127,-613 -191,-916l-1 -6c-1,-6 -4,-15 -7,-24 -4,-11 -8,-23 -8,-24l0 0c-5,-16 -8,-31 -9,-45 -1,-14 -1,-25 -1,-36l0 -34 22 -27zm5588 342l-1 -2 -2 -1 3 3zm-5250 -94c5,26 10,51 15,76 9,44 17,88 22,112l0 0c31,147 67,320 103,493 32,155 65,311 103,493l0 0 209 995c8,39 20,96 33,154 21,98 42,195 61,297l3063 0c106,0 208,-3 309,-8l0 0c90,-5 177,-19 263,-41 85,-22 169,-51 251,-88l1 0c119,-53 229,-117 329,-191 101,-75 195,-161 280,-258l0 0c72,-83 133,-171 183,-265 48,-91 86,-188 111,-289 26,-103 40,-206 44,-308 4,-104 -2,-209 -16,-314l0 0c-20,-156 -64,-301 -131,-435 -68,-136 -160,-261 -275,-376 -68,-68 -140,-127 -216,-178 -77,-51 -161,-94 -251,-130 -122,-48 -245,-79 -369,-92 -125,-14 -251,-10 -379,10l0 0c-102,16 -201,44 -296,83 -95,39 -185,88 -271,146l0 0c-167,115 -293,253 -380,410 -88,161 -135,343 -143,545l0 0c-5,137 13,267 54,391 42,127 107,246 194,359 78,100 167,184 268,248 101,65 212,111 335,139 176,39 344,42 502,5 154,-36 299,-110 434,-223l0 0c76,-65 140,-138 191,-219 48,-77 83,-160 104,-250l0 0c27,-124 31,-244 10,-360 -20,-112 -64,-222 -133,-328l0 0c-108,-163 -271,-274 -450,-321 -178,-47 -372,-31 -544,59l0 0c-114,61 -212,155 -273,268 -54,101 -79,219 -59,343 18,114 70,223 149,303 70,71 162,121 273,132l0 0c81,9 169,-7 245,-46 68,-34 125,-85 157,-152l0 0c24,-52 27,-113 13,-171 -14,-55 -44,-104 -89,-135l-1 -1c-4,-3 -8,-4 -12,-4 -5,0 -10,2 -16,5l2 6 1 3 9 35 1 6c8,42 3,80 -12,114l0 0c-16,36 -42,65 -74,86l0 0c-36,24 -72,35 -109,35 -35,0 -69,-10 -102,-27l-3 -1c-30,-18 -56,-39 -78,-63 -43,-48 -68,-106 -74,-167 -6,-60 6,-123 38,-178 16,-28 37,-54 62,-76l0 0c92,-81 211,-118 327,-112 116,6 231,55 312,146l0 0c12,13 23,27 35,42l0 0c90,120 127,266 112,408 -14,141 -79,279 -191,381 -14,12 -29,25 -46,38l0 0c-104,77 -214,126 -329,146 -115,20 -235,11 -357,-27l0 0c-136,-42 -247,-110 -335,-201 -92,-95 -159,-214 -202,-350l0 0c-37,-118 -49,-234 -36,-348 13,-116 50,-229 111,-337l0 0c93,-163 213,-284 358,-368 149,-86 323,-131 515,-140 264,-11 511,80 705,232 202,159 350,386 403,636l0 0c41,186 44,365 8,536 -37,172 -114,335 -235,488l0 0c-69,87 -147,163 -233,228 -87,65 -184,119 -289,162 -104,42 -210,73 -317,91 -106,18 -215,23 -324,15 -157,-11 -304,-44 -442,-101 -138,-56 -265,-135 -382,-236l0 0c-123,-107 -222,-229 -299,-363 -77,-134 -133,-279 -170,-434 -63,-264 -127,-510 -191,-756 -40,-154 -80,-308 -112,-433l-2063 0zm4001 884l0 -1c0,1 0,1 0,1zm0 -1c0,-1 0,-2 0,-1l0 1zm843 -1335c-12,-27 -23,-53 -33,-78l0 0c-44,-103 -83,-199 -123,-294 -64,-154 -128,-309 -196,-463 -19,-44 -40,-87 -66,-120 -23,-29 -51,-53 -88,-68l-2 -1c-22,-9 -43,-21 -64,-32 -12,-6 -23,-12 -37,-19l-3 -2c-92,-46 -189,-80 -288,-104 -100,-24 -203,-39 -307,-46 -145,-10 -285,-2 -421,24 -136,26 -268,71 -396,137l0 0c-122,62 -231,136 -328,224 -97,88 -180,188 -251,302l0 0c-26,42 -42,84 -48,127 -7,42 -4,86 7,132l0 0 96 375 0 0c31,121 72,278 112,435 15,58 30,117 46,179 80,-174 184,-325 311,-454 194,-195 441,-335 740,-420l0 0c303,-87 589,-95 860,-31 167,39 327,105 481,196z"/>
 </g>
</svg>
