<svg xmlns="http://www.w3.org/2000/svg" version="1.0" viewBox="0 0 283.5 354.3">
  <defs/>
  <g fill="#EC9100">
    <path d="M240.4 178.7c.9-.4 2.4-.5 2.7-1.2.4-.8-.3-2-.5-3 .5.2 1.1.4 1.6.5 1.9.5 3.6-.3 4.4-2 .7-1.5.2-3.3-1.1-4.4-1.4-1-3.5-1-4.8.1-1.5 1.2-1.8 3.1-.8 4.8.2.4.5.7.7 1.1-1.4-.5-2.7-.5-3.5.9-.8 1.5.2 2.5 1.3 3.2-.4 0-.8-.1-1.3-.1-1.5-.1-2.5.8-2.4 2 0 .9.9 2.2 1.7 2.5.8.2 2.2-.4 2.8-1.1 1-1.2 0-2.3-.8-3.3zM51.9 233.8c.3 0 .7.2.9.1.5-.3.8-.7 1.2-1.1-.4-.4-.8-.8-1.2-1.1-.3.4-.8.8-1 1.3-.1.2.1.5.1.8-.3-.4-.6-.9-1-1.3-1.3-1.1-3-.8-4 .6-.9 1.3-.5 3.1.9 3.7.8.3 2.1.4 2.6 0 .8-.7 1-2 1.5-3zm198.9-33.2c1.5-.1 2-1.4 1.7-2.5-.3-.9-1.2-2-2.1-2.2-1.9-.5-2.7 1.1-3.3 2.7-.5-.2-1.1-.6-1.4-.5-.7.2-1.6.6-1.7 1.1-.2.6.2 2 .5 2.1 1.8.4 3.7.5 5.6.5 0-.1.4-.8.7-1.2zm-184 25.3c-1.2-.1-2.3.2-2.4 1.5 0 .6.6 1.5 1.1 1.8.4.2 1.5-.2 1.9-.6.9-1.1.2-2-.6-2.7.6.1 1.3.3 1.8.5.3-1 .4-2.2.8-2.4.7-.2 1.6.3 2.5.5.9-1.6.8-3.1-.5-4.3-1.3-1.2-2.9-1.7-4.3-.6-1.4 1-2.6.5-3.9.2-.6-.1-1.3-.1-1.9.2-.2.1-.4 1.1-.2 1.3.4.4 1.1.7 1.7.7 1.2 0 2.1.2 2.4 1.7.3.7 1.1 1.4 1.6 2.2zM38.3 192v2.1c.7.5 1.3.8 1.6 1.2.2.2-.1 1.1-.4 1.2-1.2.5-.7 1.1-.2 1.8.9-.5 1.8-.9 2.4.1.7 1.2-.3 1.6-1.5 2.3.8.2 1.2.2 1.5.4.4.3.8.6 1.1 1 .4.5.6 1.1.9 1.6.1-.2.2-.3.3-.5.7-.1 1.5-.5 2.1-.4.8.2 1 .9.8 1.8 0 .1.3.4.5.5.2-.5 0-.9 0-1.3-.2-1.5.4-2.9 1.7-3.6 1.2-.6 3-.5 3.9.4 1 1.1 1.9 2.4 2.9 3.6.7-.4 1.4-.8 1.8-1 .7.4 1.2.8 1.8.9.3 0 1-.5 1-.7 0-.7-.3-1.3-.6-2.2.4-.6 1.5-1.2 1.1-2.6 0-.1.2-.5.4-.6 1.3-.6 1-1.8 1.4-2.8-1.9-.6-2-1-.7-2.6-.9-1.4-.6-1.4-.2-2.8.3-1 0-2.4-.6-3.2-.8-1-2.2-1.7-3.3-2.5-.2-.1-.3-.3-.4-.5-.6-.5-1.2-1.1-1.9-1.7-.5 1.4-1.2 2.1-2.4 1.9-1.5-.3-1.2-1.5-1.3-2.7-1 .2-2 .3-2.9.5-1.1.2-2.2.3-3.3.5-1 .2-1.5.8-1.4 1.9.1 1.3-1.1 2-2.4 1.6-.3-.1-.8-.1-.9 0-.6.8-1.2 1.7-1.9 2.8 2.5-.5 3.6-.1 4.2 1.1.5 1.1.2 2.4-.8 3.1-1.2 1.2-2.3 1-4.3-.6zM187.9 54c.8.6 1.6 1 2.3 1.6 1.7 1.3 4.1 2 4.3 4.6.2 1.8 1.4 3.1 3.3 3.3 4.8.5 9.5-4.2 8.8-8.8-.6-4.4-5.1-6.8-9.2-4.9-.6.3-1.2.4-1.8.4-2.2 0-4.3-.2-5.8-2.5-.6 2.3.6 4.5-1.9 6.3zm51.3 148.7c-.6 2.7 0 4.2 2 4.6 1.6.3 3.2-.7 3.3-2.3 0-.8-.4-1.9-1-2.4-.6-.6-1.7-.7-2.6-.9 1.4-2.3 1.5-4 0-5.4-1.3-1.3-2.8-1.7-4.5-.9-1.7.8-2.6 2.5-2.2 4.3.3 2 1.5 2.7 5 3zm2.1 17.3l.1.1c.1 1.1-.2 2.5.3 3.4.4.6 2 1.1 2.8.8 1-.3 1.6-.2 2.4.3 1.6.8 3.6.2 4.5-1.3.9-1.5.7-3.3-.7-4.4-1.4-1.2-3.2-1.2-4.7 0-.5.4-1.1.7-1.2.7-.7-1.4-1.1-2.4-1.8-3.2-.2-.2-1.9.3-2 .7-.2.9.2 1.9.3 2.9zM212.9 37.4c0 3-.1 5.6 0 8.2 0 .8.3 1.8.8 2.2.9.7 2.1 1.1 3.2 1.2.6 0 1.6-.8 1.9-1.4 1.4-3.2.7-6.4-.4-9.5-.2-.5-.6-.9-1-1.7-.5 1.9 1.1 3.9-1.5 5-.9-1.2-1.8-2.5-3-4zm35.8 174.3c0 .5-.1 1.3.2 1.6.6.6 1.5 1.2 2.2 1.2.5 0 1.4-1.3 1.3-1.9-.3-1.1.1-1.6.7-2.3 1.1-1.4 1.1-2.9 0-4.3s-2.6-1.9-4.2-1.3c-1.6.6-2.5 1.9-2.5 3.6 0 .4.2.9.1 1.3-.4 2.5-.3 2.7 2.2 2.1zm-65.2-175c0-2.3-1.7-4.1-4-4.2-2.3-.1-4.3 1.9-4.3 4.2 0 2.2 2 4.1 4.2 4.1 2.3 0 4.1-1.8 4.1-4.1zm65.9 193.6c1.5 1.6 3.1 1.8 4.2.6 1-1.1.9-2.6-.3-3.5-1.2-1-2.6-.7-4.1 1.1-1.2-1.5-2.6-2.5-4.6-1.5-1.5.7-2 1.9-1.7 3.4.3 1.4 1.2 2.3 2.7 2.5 2 .2 3.1-.9 3.8-2.6zm-9.9-38.1c1.6 2.4 3.3 3 5 1.9 1.5-.9 1.9-3 1-4.5-1.1-1.6-3-1.8-5.3-.3-1-1.3-2.4-1.9-3.7-.7-.6.5-.9 1.9-.6 2.6.6 1.6 2.1 1.7 3.6 1zM186.8 62.9c.9.1 1.7.2 2.4.3 1.5.3 3.3-.8 3.8-2.3.6-1.9 0-3.1-1.9-3.8-4.2-1.7-5-3.1-4.2-7.5.1-.4-.1-.8-.2-1.8-.6.9-.9 1.2-1 1.6-.5 2.1-.5 4.1.6 6.1.4.7.5 1.7.5 2.5.1 1.7 0 3.3 0 4.9zm-14-7.9c-.8-2-1.4-3.6-2-5.3-.2-.5-.5-1.1-.9-1.2-.4-.1-1 .3-1.5.6-2.3 1.3-2.1 4-3.3 5.9-.6.9.7 2 2 1.8 1.2-.2 2.4-.2 3.6-.5.6-.2 1.2-.8 2.1-1.3zm65.4 107.6c-1.4 1.2-2.4 2.4-1.1 4.1.9 1.1 2 1.3 3.2.6 1.8-1 1.4-2.6.7-4.1 1.3-1.1 2.2-2.3 1-3.9-.8-1.1-2-1.4-3.2-.6-1.5 1-1.5 2.3-.6 3.9zM113.3 41.1c0 1.9 1.4 3.4 3.3 3.4 1.8 0 3.5-1.5 3.5-3.3 0-1.8-1.6-3.4-3.4-3.4-2-.1-3.4 1.4-3.4 3.3zM59 228.7c1.9-1 1.9-1.5.3-5.8h-1.7c-2.7-.1-4.1 1.6-3.6 4.2.1.6 0 1.2-.1 1.8-.1 1.1.7 1.7 1.7 1.3.9-.4 1.7-.9 2.3-1.2v-2.5h2.2c-.5 1-.7 1.5-1.1 2.2zm61.6-166.1c0 1.5 1.7 3.1 3.2 3.1 1.6 0 2.8-1.8 2.8-3.9 0-1.2-1.7-2.9-2.8-2.9-1.7.1-3.2 1.9-3.2 3.7zM50 217.7c.1 1.4.8 2.4 2.4 2.6.7.1 1.3.6 2 .8.5.2 1.1.1 1.7.1 0-.6.2-1.2.1-1.7-.2-.8-.6-1.5-.7-2.3-.2-1.4-1.5-2.6-2.9-2.5-1.4.3-2.5 1.6-2.6 3zM175.4 55.6c.4.1.7.3 1 .2 1.7-.3 3.4-.6 5-1.2.9-.4 1.7-1.4 1.9-2.3.2-.5-.6-1.8-1.2-2-.7-.2-1.7.3-2.5.7-.6.3-1.1 1-1.7 1.2-1.8.5-2.1 1.9-2.5 3.4zm60.4 155.7c0 1.4 1.2 2.6 2.7 2.7 1.5.1 2.7-1 2.8-2.5.1-1.6-1.1-2.8-2.7-2.8-1.5.1-2.8 1.2-2.8 2.6zm15-22.5c-1.5 0-2.6 1.2-2.5 2.7.1 1.5 1.1 2.4 2.6 2.4 1.5.1 2.6-1.1 2.6-2.6s-1.1-2.5-2.7-2.5zM53.9 39.9c-1.5 0-2.6 1.2-2.6 2.7.1 1.5 1.2 2.5 2.8 2.4 1.6-.1 2.4-1 2.5-2.5 0-1.5-1.2-2.6-2.7-2.6zm5.8 1.2c-1.9 0-3.1 1.6-2.4 2.9.5.9 1.1 1.7.7 2.8-.1.3.4 1 .8 1.1.5.2 1.5 0 1.5-.2.4-1.8.7-3.7.8-5.6 0-.3-1.1-.8-1.4-1zM57.8 234c-.6.1-.8.1-1.1.2-.6.2-1.3.4-1.9.7-.1.1.2 1.2.3 1.2.6.1 1.2-.1 1.8-.2 1.1-.3 2.1-.8 2.9.5.1.2.6.3.9.3.1 0 .3-.5.3-.8.1-3 .1-3-2.4-4.6-.3-.2-1.1-.3-1.3-.1-.3.3-.4 1-.3 1.4.1.5.5.8.8 1.4zm80.1-195.4c0 1.5.4 2.6 2 2.7 1.3.1 2.4-1.2 2.3-2.6-.1-1.3-.7-2.3-2.2-2.3-1.5 0-2.2.8-2.1 2.2zm-81.1-2.3v-.7c-.4-.6-.8-1.2-1.4-1.6-.2-.1-1.2.5-1.2.5.4 1.3.8 2.5 1.3 3.8.2.4.8.7 1.2.7.4 0 .9-.3 1.3-.5.6-.3 1.1-.5 1.6-.9.4-.3 1-.7 1.1-1.1.1-.4-.3-1.2-.7-1.3-.4-.2-1 .1-1.5.3-.6.2-1.1.5-1.7.8zm194.8 147.5c0-1.3-.8-2.3-2.1-2.4-1.3-.1-2.5 1-2.4 2.3.1 1.4.9 2.2 2.3 2.2 1.3.1 2.1-.6 2.2-2.1zm-177.1 15c.2 1.4 1 2.2 2.5 2.2 1.3-.1 2.2-1 2.2-2.2 0-1.3-.9-2.3-2.3-2.3-1.5 0-2.2 1-2.4 2.3zm87.1-153c-.5-.4-1.3-1.4-2.1-1.4-1.6 0-2.2 1.3-2.2 2.7 0 1.2.7 1.8 1.9 1.7 1.7-.1 2.2-1.1 2.4-3zM81.5 222.6c-.8-.6-1.6-1.5-2.5-1.6-1.3-.2-2.2.8-2.2 2.1s.8 2.2 2.3 2.2c1.4-.1 2.1-.9 2.4-2.7zm169.4 19.3h.9c.6-.8 1.4-1.6 1.7-2.5.3-1.1-1.1-2.3-2.3-2.1-1.3.2-2.3 1-2 2.2.2.8 1.1 1.6 1.7 2.4zM180.4 55.2c-1 1.2-2.1 2-2.1 2.7 0 .6 1.2 1.3 1.8 1.9.7-.7 1.7-1.3 2-2.1.2-.4-.8-1.3-1.7-2.5zm50.9 105.6c-.8 1.2-1.8 2-1.7 2.5.2.7 1.2 1.3 1.9 1.9.6-.7 1.6-1.3 1.7-2.1.1-.5-.9-1.2-1.9-2.3zm8.1 8.4c-1.2-.9-2-1.8-2.6-1.7-.8.2-1.3 1.1-2 1.8.7.6 1.3 1.5 2 1.7.6.1 1.4-.9 2.6-1.8zM51.7 53.3h.8c.5-.7 1.4-1.4 1.3-2-.2-.7-1.1-1.3-1.8-1.9-.6.7-1.6 1.2-1.7 2-.1.5.9 1.3 1.4 1.9zm21.7 159.4c-.5 1-1 2-1.4 3.1-.1.4.1.9.2 1.3 0 .1.2.2.3.2 2 .4 1.5-2.1 2.8-2.4-.2-.6-.4-1.3-.7-1.9-.1-.1-.5-.1-1.2-.3zm11.1-28.4c-.8 1.2-1.4 1.9-1.6 2.7-.2 1.1.6 1.9 1.7 1.6.7-.2 1.7-1.1 1.7-1.7.1-.6-.9-1.3-1.8-2.6zm125.1-140c2.4-2.1 2.6-3.1.8-4.7-1.9 1.4-2 2.5-.8 4.7zm-126 155c-.9 1.1-1.8 1.8-1.7 2.4.1.6.9 1.4 1.6 1.6.4.1 1.4-.9 1.5-1.4 0-.7-.7-1.4-1.4-2.6zm145.8-32c-.7 1-1.5 1.6-1.4 2.1.1.6.9 1.1 1.4 1.6.6-.5 1.4-1 1.6-1.6.1-.4-.8-1.1-1.6-2.1zM126.7 49.5c-.9 1.2-1.7 1.8-1.7 2.4 0 .5.9 1.1 1.4 1.6.5-.5 1.3-1 1.4-1.5.1-.6-.5-1.3-1.1-2.5zm-54 160.7c1 .7 1.7 1.4 2.1 1.3.6-.1 1.2-.9 1.4-1.5.1-.3-.9-1.2-1.4-1.2-.6 0-1.1.7-2.1 1.4zM235 175.9c-.6 1-1.3 1.6-1.2 2.1.1.5.8 1 1.3 1.5.5-.5 1.3-1 1.4-1.6.1-.5-.8-1.1-1.5-2zM73.5 207.8c-1.1-.6-1.7-1.2-2.2-1.2-.5 0-1.4.9-1.3 1.2.2.6.8 1.3 1.3 1.4.5.1 1.1-.6 2.2-1.4zm7.5-11.7c-.7.9-1.4 1.5-1.4 1.9.1.6.9 1 1.3 1.5.5-.4 1.3-.9 1.3-1.3.1-.6-.6-1.1-1.2-2.1zm-19.4 34.1c.9.6 1.5 1.3 1.9 1.2.6-.1 1-.9 1.4-1.3-.5-.4-1-1.1-1.6-1.2-.4-.1-.9.6-1.7 1.3zm1.4 3.7c1.2.7 2.2.9 3-.2.2-.3-.2-1.3-.5-1.5-1.6-.6-1.9.8-2.5 1.7zm64.1-176.3c.1-.9.6-2.2-1.1-2.1-.3 0-.7.8-.6 1.1.3.9.8 1.7 1.3 2.6.2-.2.6-.3.6-.6 0-.2-.1-.6-.2-1zM65.5 33.7c-.6.7-1.3 1.2-1.2 1.6.1.5.8.9 1.2 1.4.4-.4 1.1-.8 1.1-1.3s-.6-1-1.1-1.7zm9 184.1c.8.5 1.2 1.2 1.7 1.1.4 0 1.1-.7 1.1-1.1 0-.4-.7-1.1-1.2-1.1-.3-.1-.8.5-1.6 1.1zm8.2-9.4c.4.1.7.3 1.1.4.4-.8.8-1.7 1.2-2.5-.5-.2-.9-.4-1.4-.6l-.9 2.7zM46.4 58.1c.7.5 1.3 1.2 1.6 1.1.5-.1.9-.8 1.3-1.2-.4-.4-.8-1-1.3-1-.4-.1-.9.5-1.6 1.1zm199.7 178c.7.6 1.2 1.2 1.7 1.2.4 0 1.2-.7 1.2-1.1 0-.4-.7-1.1-1.1-1.2-.5-.1-1 .5-1.8 1.1zM55.6 47c-.8-.5-1.3-1.1-1.7-1-.4.1-.8.7-1.2 1.1.4.4.8 1 1.2 1.1.4 0 .9-.6 1.7-1.2zm176.7 127.1c.9.5 1.4 1 1.8 1 .4 0 .8-.7 1.1-1-.4-.4-.8-1-1.2-1.1-.3 0-.8.6-1.7 1.1zm10.4 35.5c-.5.8-1 1.3-1 1.8 0 .4.8 1 1 .9.5-.1 1.1-.7 1.1-1.1.1-.4-.5-.9-1.1-1.6zM48.7 52.9c-.5.8-1 1.3-1 1.8 0 .3.7.9 1.1.9.4 0 1.1-.6 1.1-1-.1-.5-.6-.9-1.2-1.7zm14.5 160c-.8-.5-1.3-1.1-1.8-1-.4.1-.8.7-1.2 1.1.4.3.8.9 1.2.9.5 0 1-.5 1.8-1zm66.6-165.7c.7.4 1.2.9 1.5.8.5-.2.8-.8 1.2-1.2-.4-.4-.9-1-1.3-1s-.8.8-1.4 1.4zm-76.4 9.4c.7.5 1.1 1.1 1.5 1.1.4 0 .8-.6 1.2-1-.4-.4-.7-.9-1.1-1-.4 0-.8.5-1.6.9zm21.8 145.8c.6.6 1 1.1 1.4 1.2.4 0 1-.6 1-.9 0-.4-.5-1.1-.9-1.1-.2-.2-.7.3-1.5.8zM235.8 148c-.5.7-1.1 1.1-1 1.5 0 .4.6.8.9 1.1.4-.4 1-.7 1.1-1.1.1-.3-.5-.8-1-1.5zm8 35.3c-.4.8-.9 1.2-.8 1.6.1.4.7.7 1.1 1 .3-.4.9-.8.9-1.2-.1-.4-.7-.8-1.2-1.4zM49.8 36.6c.7.6 1.1 1.1 1.5 1.1.4 0 1-.6 1-.9 0-.3-.5-1-.9-1-.4-.1-.9.4-1.6.8zm183.7 146.7c-.5.6-1.2 1.1-1.1 1.4.1.5.7.8 1.1 1.2.3-.4.9-.7 1-1.1 0-.4-.5-.9-1-1.5z"/>
    <path d="M71.4 190.1c1.1-1.7 3.9-1.6 4.5-4 .1-.4.9-.6 1.5-.8.1 0 .7.5.7.7-.2.5-.5 1-.8 1.4-1 1.2-2.2 2.3-2.9 3.6-.7 1.5 1 3.5 3 4 .3.1.6.1.9.5-.4.1-.9.2-1.3.2-2.6.1-4 1.9-3.4 4.3.1.4.7.8 1 .8 2.9.5 5.8 1.1 8.6-.1.3-.1.7-.1 1.4-.1-.4.5-.5.9-.8.9-2.3.4-4.6.7-6.9 1-.8.1-1.7 0-2.2.4-.7.5-1.8 1.5-1.7 2 .2.8 1.3 1.4 2.1 1.9.7.5 1.5.8 2.3 1.2-.1.2-.1.4-.2.6-.5 0-1.1.2-1.5 0-1.8-.6-2.5.7-2.6 1.9-.2 1.2-.5 2.9 1.6 3.2 1.2.2 2.4.7 3.5 1 0 .2-.1.3-.1.5-1.2-.3-2.4-.5-3.6-.9-1.5-.5-2.4-.4-2.9 1.4-.5 1.5-1.5 2.9-.4 4.5.5.8 1.1 1.5 1.6 2.6-.8-.4-1.8-.5-2.4-1.1-1.3-1.1-3.5-1.3-4.8-.1-.9.8-.8 2.2.2 3.2 1.1 1.1 2.1 2.3 3 3.7-2.9-.5-2.9-4.7-6.4-4.6.3.7.6 1.1 1 2.1-.8-.2-1.2-.3-1.6-.5-.8-.5-1.5-1.2-2.4-1.4-.9-.3-1.9-.1-2.9-.1.2.7.4 1.5.6 2.2.1.3.1.5.2.8-.1.1-.3.2-.4.3-.5-.6-1.2-1.1-1.4-1.7-.3-1.6-1.4-1.5-2.6-1.5-1.4 0-1.2.9-1.4 1.8 0 .2-.2.4-.3.5-.9-1.1-1.7-2.1-2.5-3.1-1.5-1.8-1.5-1.7-2.8.2-.1.2-.4.3-.7.4-.4-1.1-.5-2.5-1.2-3.1-.7-.6-2.1-.4-3.4-.5 0-.1.3-.5.3-.9.1-1.1.2-2.3-1.6-2.4-1.3-.1-2.2-1.6-1.3-2.6 1.3-1.5.7-2.6 0-3.9-.2-.4-.2-.8-.2-1.3H34c2-.3 3.1-1.2 2.5-3.3.6-.3 1.1-.5 1.6-.7.3-2.8-2.5-.9-3.4-2.5.9 0 1.6-.2 2.3-.1 1.4.1 2.1-.5 2.5-1.7 1.1-2.8.3-5-2.3-6.4-.4-.2-.5-.8-.7-1.3.4 0 1 0 1.3.2 1.7.8 3.2 1.9 4.9 2.6 1.2.5 2 .2 2.1-1.4.1-1.9.5-3.8.7-5.7.1-.7-.1-1.5 0-2.2.1-.8.4-1.6.5-2.4.2-.8.3-1.5.7-2.3l.3 3.3c.6 0 1.2.1 1.8.1.2.7.4 1.5.6 2.3h4.1c2.6-3.8 2.6-8.2 2.8-12.5.2 0 .5 0 .7.1-.2 3.9-.4 7.7-.6 11.6 2.1.7 3-.2 2.8-3.1.5-.2 1-.5 2-1-1.2-.3-1.9-.5-3-.7.6-.6 1-1.5 1.5-1.5 2.5-.3 3.5-1.8 3.9-4 .1-.5.2-1.1.5-1.4.4-.3 1.1-.4 1.6-.3.6.1 1.2.5 1.8.7 1 .4 2.1.8 3.2 1.2 1.2.6 2-.1 2.3-1 .3-.8.3-1.9 0-2.8-.2-.8-1.4-1.7-1.2-2.1.5-1.1 1.4-2.3 2.5-2.9 2.1-1.2 3.7-2.5 3.9-5.1.2-2.2 3.7-3.8 5.9-2.7.9.4 1.8.9 2.6 1.5 1.2.8 1.7 3 .7 4-1.2 1.3-2.6 2.6-4.1 3.6-2.2 1.5-2.3 1.9-1.4 4.4.4 1.1 0 2.1-1.4 2.3-1.5.3-3.2 2.1-3.2 3.7 0 .6.4 1.8.6 1.8.7.1 1.6-.2 2.2-.7 1-.7 1.9-1.6 3.1-2.6.1.5.3.8.2.9-1.2 1.7-2.4 3.4-3.9 4.9-.3.3-1.9-.3-2.5-1-1.5-1.6-3.5-.5-5.1-1.1-.2.7-.8 1.5-.7 2.1 1.1 3.4 1.2 3.3.2 6.1zM30.4 166.9c-.5.4-1.1.7-1.5 1.1-.7 1.1-2.1 1.3-2.4.3-.6-1.7-1.9-2.4-3.2-3.1-2.3-1.2-4.1-3.6-7.1-3.5-.3 0-.6-.8-1-1.2.7-.3 1.4-.9 2-.8 1.4.3 2.7.9 4.4 1.6-.4-1-.6-1.7-.9-2.3.4-.6.7-1.2 1.2-2-1.3-.5-2.3-.9-3.5-1.4 2.6-.1 3.6-1.6 3.3-4.3 1.8-.4 3.7-.7 5.4-1.3.6-.2 1-1.2 1.2-2 .3-1.3.2-2.6.3-3.9.2 0 .4 0 .6.1-.1 1.2-.2 2.4-.4 3.8 1.6-.3 2.8-.5 4-.7-.1-.1-.1-.2-.2-.3.8-.6 1.5-1.1 2.3-1.6 1.7-1.1 1.9-2.6 1.8-3.9 2.2-.6 4.2-1.2 6.3-1.8 0 1.2.2 2.5-1.1 3.5-1.1.9-.4 4.4 1.2 6 .6-1.5 1.2-2.9 1.9-4.3.1.4.1.9.2 1.4h1.4c0 1 .1 1.9.1 3.2 2.6-1.1 5-2.1 7.4-3.1 0 .1.1.2.1.3-1.3.8-2.6 1.6-3.4 2.1-.3 1.3-.5 2.1-.8 3.3.1.2.3.9.7 1.8h5.5c-1.1 1-3.2-.2-3.5 1.9 1.1.5 2.1 1 3.4 1.6-1.8.3-3.3.5-4.7 1-.5.2-1.1.9-1.2 1.5-.1.4.5 1.1 1 1.3 1.3.5 2.6.8 3.9 1.5-.9-.1-1.8-.2-3-.3.4.7.7 1.2 1 1.7-2.6 1.2-4.4-1.1-6.9-1.5 1 4.3 3 7.5 6.5 9.8.9.6 1.4 1.6 1.9 2.7-4.5-3.5-7.8-8.5-14-10 .1 3.1 3.7 2.8 4.7 4.8-.3.2-.4.4-.5.4-.4 0-5.5-2.7-5.8-3-1.5-1.9-4.4-2.9-6.7-2.1-.7.2-1.1 1.1-1.6 1.7h-.3zM44.8 182.4c-.2.3-.4.9-.7 1-1.3.4-2.7 1-4 .9-2.8-.4-4.2 2.2-6.5 2.7 0 0-.1.1-.1.2-.2 3.6-3.8 2.8-5.7 4.3-1.3 1-2.5 1.9-4.1 2-.2 0-.4.2-.4.3-.4 2-2.6 2-3.8 3-2.8 2.2-5 1.3-7.8-.5-1.9-1.2-2-4.6-.5-6.3.9-1 1.5-2.4 2.6-2.9 1.2-.5 3.3-.9 4.1-.2 1.8 1.6 3.7 1.1 5.5.8 2.8-.4 5.5-1.2 8.2-2 2.6-.8 5.2-1.9 7.8-2.7 1.7-.5 3.5-.7 5.3-1-.1 0 0 .2.1.4zM76.9 114.4c1.1-.1 2-.3 2.5-.3.6 1.4.9 2.8 1.7 3.9 1 1.5 1 2.7 0 4.1-1 1.3-3 1.8-4.3 1-.9-.6-1.8-1.4-2.4-2.4-.3-.5-.1-1.9.3-2.1 1.7-1 2-2.5 2.2-4.2zM14.5 178.7c-1.1-.1-2.5-.2-3.9-.5-1.9-.4-3.1-3.2-2.1-4.8.8-1.2 3.5-.8 4.9.6.7.7 1.5 1.2 2.4 1.6 1.1.5 1.7-.1 1.7-1.2 0-.6-.1-1.3.1-1.9.1-.4.5-.8.9-1 .1-.1.7.1.8.3.1.4.3 1.2.1 1.3-1.4 1-1.3 2.4-1.4 3.9-.2 2.2-1.9 1.6-3.5 1.7z"/>
    <path d="M63.9 172c-.5.9-1.6 1-2.9.2-.9-.6-1.1-1.7-.2-2.2.8-.4 1.9-.1 2.9.2 1.3-.5 2.4-2.5 4.1-.9.5.5.1 1.9.1 2.9-1.1 0-2.4-.1-4-.2zM148.8 268.7c0-1.4 1.3-2.6 2.8-2.5 1.5.1 2.5 1.2 2.4 2.6 0 1.4-1.2 2.5-2.6 2.5-1.4 0-2.6-1.2-2.6-2.6zM30.6 171.2c1.9 1.5 2 2.4.6 3.8-.5.4-.7 1.1-1 1.7-.8-.1-1.7-.2-2.6-.3-.4-.1-1.1-.2-1.1-.5-.1-.4 0-1.1.3-1.3 1.3-1.3 2.6-2.4 3.8-3.4zM25.9 199.6c1.3-.4 2.4-.8 3.6-.9.5 0 1.4.5 1.6 1 .5 1.1.5 2.4-.9 3-1.8.9-3.3-.1-4.3-3.1zM272.5 155.3c-.2.9-.3 1.8-.5 2.7.8.9 3.1.5 2.7 2.4-.2.8-1.3 1.4-2 2.1-.2-.1-.4-.1-.6-.2-.4-1.8-.8-3.6-1-5.4-.1-.6.6-1.2 1-1.9 0 .2.2.3.4.3zM80.9 156c.1 2-2.8 4.5-4.5 3.8-.3-.1-.5-1.2-.3-1.6 1-1.8 2.2-2.3 4.8-2.2zM58.4 170.7c-1.8-.3-2.1-1.2-2.1-2.3 0-1.2.3-2.1 1.8-2.1 1.4 0 2.4.7 2.2 2-.3.9-1.3 1.6-1.9 2.4zM277.2 176.5c-2.2-.1-3.3-1.3-4.2-2.6-.4-.7-1.1-1.7.2-2.1.6-.2 1.7.3 2.1.9.8 1 1.2 2.3 1.9 3.8zM62.6 158.1c-1-.2-1.7-.4-2.5-.4-.7-.1-1.4 0-2.1-.4 1.9.1 3.8 0 5.5.5.6.2.7 1.9 1.1 2.9-.5.2-1.1.5-1.5.4-.4-.1-.8-.7-.9-1.1 0-.7.2-1.2.4-1.9zM71 160.5c.8.9 1.8 1.6 1.7 1.8-.3.7-1.1 1.3-1.7 1.9-.6-.6-1.4-1.1-1.7-1.9-.1-.2.9-1 1.7-1.8zM75.9 113.8c-.4 1.4.4 3.1-1.6 3.3-.5.1-1.6-.9-1.6-1.4.2-1.8 1.7-1.6 3.2-1.9zM47.7 176.7c-.3-1.8-.6-3.5-.9-5.3 2.1-.2 2.7 2.4.9 5.3zM160 250.1c.6 1.1 1.3 1.7 1.2 2.2-.1.5-.9.9-1.4 1.4-.5-.5-1.3-1-1.3-1.5-.1-.5.7-1.1 1.5-2.1zM60.7 84.4c-.6-.9-1.3-1.5-1.2-1.8.2-.5.9-1.3 1.4-1.3.5 0 1.3.7 1.4 1.2 0 .5-.8 1-1.6 1.9zM161.4 259.5c.5.9 1.2 1.5 1.1 2-.1.5-.9.8-1.3 1.3-.4-.5-1.1-1-1.2-1.4 0-.6.7-1.1 1.4-1.9zM134.1 254.9c-.8.5-1.3 1-1.8 1-.5-.1-.8-.7-1.3-1.1.5-.4.9-1 1.4-1.2.4 0 .9.7 1.7 1.3zM74.6 107.6c1 .7 2 1.3 2.9 2.1.1.1-.1.9-.2.9-.5 0-1.2 0-1.5-.3-.6-.7-1-1.6-1.4-2.4.1-.1.2-.2.2-.3zM140.8 254c-.7.5-1.2 1.1-1.5 1-.4-.1-.9-.7-1-1.2 0-.2.7-.9 1.1-.9.4 0 .8.6 1.4 1.1zM151.6 261.7c-.7.6-1 1.1-1.4 1.1-.4 0-1.2-.6-1.1-.9.1-.5.5-1.1 1-1.2.3 0 .8.6 1.5 1zM76 84.8c.9 1 1.4 1.4 1.3 1.5-.3.4-.7.8-1.1 1-.2.1-.8-.5-.9-.9 0-.4.4-.8.7-1.6zM200.4 128.3c.3.6.7 1.1 1 1.7-.1.2-.2.3-.3.5-.6-.2-1.3-.2-1.6-.5-.2-.4.1-1.1.1-1.6.3-.1.5-.1.8-.1zM250.8 200.6c-.6-.1-1.4 0-1.9-.3s-.8-1-1.1-1.6c0-.1.5-.7.7-.6.7.2 1.5.3 2 .8.3.3.1 1.2.3 1.7z"/>
    <path d="M98.4 242.4h-51c-1.2 0-2.3.2-3.1-1.3-.6-1-1.9-.9-2.8.1-1.2 1.3-4.3 1.6-6 .8-.5-.3-1.5-.3-2-.1-1.5.7-1.8.6-1.9-1.1v-19.2c0-1.7-.1-3-2.2-3.4.6.1 1.2.2 2.2.3v-2-39.2c0-1.3.1-2.6-.1-3.8 0-.5-.5-1-.8-1.4-.9-1.1-1.3-2.2.1-3.2.4-.3.7-.8.8-1.2.1-4.8 0-9.5 0-14.8-.5.7-.7.9-.8 1.1-.2 1.2-.9 1.5-2.1 1.4-1.5-.2-1.5-1.4-1.6-2.4-.2-1 .3-1.7 1.6-1.9 1.7-.3 2.8-1.8 2.8-3.1.2-6.6.1-13.3.1-20.1-.6 0-1.2.1-1.7 0-.6-.2-1.2-.6-1.7-1 .4-.6.8-1.2 1.2-1.7.1-.1.4 0 .5-.1.6-.4 1.1-.7 1.7-1.1-.5-.4-.9-.8-1-.8.4-1.1.9-2.1 1-3.1.2-2 0-4 0-5.9-.2 0-.4-.1-.6-.1-.2 1.1-.5 2.1-.9 3.8-1.2-1.1-2.1-1.8-2.8-2.6-1.4-2-2.6-4.1-4.2-6-.8-.9-2.2-1.3-3.3-2h-.2c-1.5-1.7-2.9-.6-4.3.3-1.4.9-3.1 1.6-3.3 3.7 0 .4-.8.9-1.1.9-.5-.1-1.1-.6-1.2-1-.1-.3.3-1.1.7-1.3l4.8-2.7c.9-.5 1.1-.9.1-1.8-2.2-2-2-3.9.4-5.6.2.6.3 1.5.7 1.7 1.5.8 3.1 1.5 4.7 1.8.5.1 1.3-.9 1.8-1.4-.8-1-1.5-1.8-2.1-2.6-.6-.9-.3-1.4.8-1.5 1.8-.1 2.5-1.5 1.5-3-.4-.6-.8-1.3-.9-2-.1-.7 0-2 .2-2 .9-.1 2.1-.2 2.6.2 1.1 1.3 3.3 2.3 1.9 4.7 0 .1 0 .3.1.4 1.4 1.5 1.1 3.2 0 4.7 1.5.1 2.8.2 4.7.4-1-.9-1.8-1.5-2.6-2.2 0-.1.1-.2.1-.3.6.1 1.2.3 2 .5V74.5c-1.7.9-3.3 1.5-3.6 3.6-.1.4-.9 1-1.4 1-.4 0-1.1-.6-1.1-1s.5-1.2.9-1.3c4.2-1.4 6.3-3.9 5.5-8.5-.4-2.1-.1-4.4 0-6.6 0-1.4.2-2.8.4-4.5 1.4-.1 2.8-.6 2.1-2.8 1.3-.7 2.7-1.3 1.8-3-.8-1.5-2.1-1.4-3.5-.4-.3-1-.6-1.9-1-3.2 1.8.8 3.3 1.5 4.5-.3.9-1.5 0-2.5-.6-2.9-.2-1.5 0-2.8-.5-3.4-.5-.6-1.8-.4-3.1-.6v-7.5c0-1.3 1-1.1 1.8-1.1h25.8c1.5 0 2.9-.1 3.3 2.1.1.7 1.5 1.4 1.2 2.6-.2.6-.3 1.3-.6 1.7-1.2 1.5-2.6 2.9-3.8 4.4-.3.4-.2 1-.3 1.5.5-.2 1.2-.2 1.6-.5.7-.7 1.3-1.5 2-2.3.2.2.4.3.6.5-1.4 1.7-2.7 3.3-4.1 5 .1.1.2.3.3.4 1.6-.5 3.3-1.1 4.9-1.6-.5 1.6-1 3-1.3 4.5 0 .1.7.4 1.2.6-.6 1.3-1.1 2.7-1.7 4.1l.6.3c.7-1.4 1.4-2.7 2.1-4.1.4-.8.9-2.1 1.5-2.1 1.6-.1.8 1.4.8 2.2.2 1.9.1 3.9.1 5.8h-.5c-.1.1-.2.2-.3.2-.8-.1-2-.6-2 .8 0 .5.6 1.3 1 1.4 1.1.1 2-.2 2.3-1.6.3-2.2 1-4.4 1.5-6.6.2 0 .5 0 .7.1.1.9.3 1.7.4 2.6.1 0 .2.1.3.1.2-.8.3-1.5.5-2.3.2-.7.8-1.9.9-1.9 1.1.3 2.2.6 3 1.3.5.4.7 1.3 1 2 .2-.1.4-.1.6-.2-.5-1.8-1-3.7-1.6-5.8.8.2 1.6.3 2.5.5 0-.4-.1-.7-.1-1.1.4 0 .9 0 1.3.1 0-.1.1-.2.1-.3-1-.6-1.9-1.2-2.9-1.8.1-.2.1-.3.2-.5 1.2.1 2.5-.5 3.7.8.6.6 1.9.6 3 1-.2-1.9-1.7-3.5.1-5.2-3.6-.2-5.1-2.5-5.5-5.9 1.5.3 2.7.6 4 .8.1-.2.1-.4.2-.6-1.9-.6-3.8-1.3-5.7-1.9.1-.3.2-.6.2-.9h18.2c.5 0 1.4.6 1.4 1 .3 2.9 2.8 4.9 5.5 4.8 2.8 0 4.6-2 5.3-5.3 0-.1.1-.2.2-.5h10c.8 3.6 1.8 4.9 4 4.7 2.1-.2 3.1-1.6 3.4-4.8h15.9c.4 0 1 .6 1.2 1.1.9 2.4 2.7 3.9 5 4 2.2.1 4.4-1.4 5.2-3.8.3-1 .8-1.4 1.9-1.4 15.3.1 30.5.1 45.8.1 14.3 0 28.7 0 43-.1 2.6 0 4.1-1.7 3.9-4.3 0-.5 0-1.2.3-1.5 3.7-3.3 4.9-2.6 4.3-.9-.6 1.7-.9 3.3-2.4 4.7-1.1 1.1-1.5 3.1-1.5 4.7-.1 11.2-.1 22.4-.1 33.5 0 .2.1.3.2.5 2.3-.9 4.5-1.8 6.8-2.7.1.2.1.4.2.5-1.7.8-3.5 1.5-5.2 2.3-1.5.6-2 1.6-1.9 3.2.1 4.2 0 8.5 0 12.6 2.7-1.4 5.2-2.7 7.1-3.7-.3 1.5-.7 3.5-1 5.5-.3 1.9-2.8 3.2-4.4 1.7-.5-.4-1-.9-1.7-1.5 0 .7-.1 1.3-.1 1.9 0 8.2.1 16.5-.1 24.7 0 2 .8 2.8 2.6 3 1.4.2 2.9.3 4.4.7-2 1.7-4.4.5-6.6 1-.2 1.3-.2 1.3 1.3 1.3h5.3c.1-.1.9-.6 1.4-.4.4.1.8 1 .9 1.6.1 1.4.1 2.8.1 4.2 0 .2 0 .5.1.7.9 1.4 1.9 2.7 3.1 4.4-1.9.7-3.4 1.2-4.9 1.6-.4.1-1-.1-1.4-.3-.8-.6-1.7-1-1.9.2-.2.9.1 2.6.5 2.7 2.7.7 5.6 1.4 8.4 1.5 1.8.1 2.7-1.4 2.3-3.3-.4-1.9.2-3.4 1.4-4.8.4-.5.4-1.3.6-2-.7.1-1.5 0-2 .3-1.5.8-2.4.5-2.5-1.3-.2-2.4 0-4.7 0-7.1 0-1.2-.2-2.4-.4-3.6-.4-2.5-2.3-3.3-4.5-2.1-.5.3-.9.7-1.4 1-.4.3-.8.5-1.2.7-.2-.1-.3-.3-.5-.4 1.1-1.6 2.2-3.3 3.4-4.8.9-1.2 1.8-2.3 2.9-3.3 1-1 2.1-.9 2.9.3.4.6.8 1.3 1.3 1.9.4.4 1.2.9 1.5.8 2.1-1.1 4.1.5 6.2.2 2-.3 4.2.1 6.3.4.6.1 1 1 1.5 1.5-.6.1-1.2.3-1.8.2-2.4-.6-4.9.9-5.9 3.9-.1.2-.1.5-.1.9-1.7-.4-3.2-.7-4.9-1.1-.4 2-.2 3.7 1.7 5 1.9 1.2 2.8 3.1 3.1 5.2.2 1.1.5 1.7 1.8 1.6 1.6-.1 2.7.8 2.7 2.3 0 1.5-1.2 2.2-2.8 2.3-.5 0-1 .1-1.5.1v4c0 2.5-1.6 3.9-3.8 4.4-2.3.6-4.8.8-7.1 1.2-.9.1-1.6 0-2.2 1-.7 1.1-2 .8-2.6-.3-.7-1.4-1.8-1.4-3.1-1.1-2.4.5-4.5 3.1-4.5 5.5v4.8c2.7-3.4 6.6-2.6 9.7-4.1.7 2-.6 2.5-2.2 2.8 1 2.2.4 3.9-1 5.6-.7.8-1 2.1.4 2.9.2.1.2.6.3 1.2-2.9-2.1-6.6-3-6.7-7.5-1 2.6-.7 7.1.3 7.8-.3 1.2-.7 2.4-1 3.6.2.1.3.2.5.4.9-.5 1.8-.9 2.9-1.5-.8 1.3-1.4 2.4-2.1 3.4 1.5 1.6 2.9 1 4.3.2 0 .2.1.3.1.5-1.4.8-2.7 1.9-4.2 2.4-1.4.5-1.4 1.4-1.4 2.5V221.7c-1.7 0-3.4.2-3.3 2.2.1 1.8 1.5 2.3 3.3 2v17c-.7-.3-1.2-.4-1.6-.8-1.5-1.2-2.9-1.2-4.5-.1-.6.4-1.5.7-2.2.7-6.9.1-13.7 0-20.6 0-2.8 0-4.1-1.4-4.1-4.2.9.3 1.8.5 2.6.8.1-.1.1-.2.2-.4-.4-.3-.8-.6-1.3-.9-.3-.2-.8-.2-1-.5-.8-.8-1.5-1.7-2.2-2.5 1-.5 2-1.1 3.2-1.7-1.6-.9-3.5-2-5.5-3.2.9-.8 1.7-1.6 2.8-2.6-1.5.1-2.7.5-3.5.1-.7-.3-.9-1.6-1.3-2.5-.1.1-.4.4-.8.9-.5-.8-.9-1.6-1.4-2.5-.7 1.4-1.6 2-3.3.8-.6-.4-2.1.2-3 .5-.7.2-1.2.9-2.1 1.5.3 1.2-.9 1.3-2.2 1.4.3.6.5 1 .7 1.5-.7.3-1.3.6-2.2 1 .6.4 1 .6 1.5 1-.2.3-.4.5-.6.7-1 1.1-2.1 2.2-3.2 3.3-.5-.1-1.2-.4-1.4-.2-.6.5-1.3 1.4-1.2 1.9.1.5 1.2.9 1.9 1.3.4-.7 1-1.3 1.3-2 .1-.3-.4-.7-.6-1.1 1-.2 2.1-.3 3.1-.5.1.1.3.2.4.4-.6.9-1.2 1.8-1.7 2.6 1.1.3 2.3.6 3.8.9-.7 1.2-1.1 1.9-1.7 2.8 1.2-.5 2-.9 2.9-1.3.2.7.3 1.3.5 2.3.7-.4 1.3-.8 2-1.3.8 1 .7 1.8-.6 1.7-5.4-.1-10.7-.3-16.1-.4-.7 0-1.4.2-2 .2-1 0-2-.2-2.9-.5-1.2.3-2.5.6-3.9 1-.4-1.9-.9-3.6-2.8-3.1-1.1.3-1.9 1.8-3 2.9.6-1.5 1.2-3.2-.5-3.9-1-.4-2.5.1-3.7.2 0 .2 0 .4-.1.6-.2-.3-.4-.7-.7-.8-.4-.2-.9-.5-1.3-.4-.3.1-.6.7-.6 1 0 1 .1 2.1.2 3.2h-11.3l-2.3-2.3c-.5.6-1.1 1.3-1.6 1.9.1.2.2.3.4.5-2.9.3-5.9-.5-8.9 0-3 .4-6.1.1-8.7.1-.6-.8-1-1.4-1.4-1.9-.5.6-.9 1.2-1.8 2.3-.8.5-2.3 1.3-3.7 2"/>
  </g>
  <path fill="#FFF" d="M86.3377 173.0183l182.2958 25.7188-19.4462 137.8358-182.2958-25.7187z"/>
  <path fill="#F2AE31" stroke="#FFA300" stroke-miterlimit="10" stroke-width="5.6693" d="M90.9 181.9l5.3 110.5 105.1 9.8-9.8-108z"/>
  <path fill="#FFF" stroke="#FFA300" stroke-linecap="round" stroke-linejoin="round" stroke-width="5.9483" d="M59.8 313.6l-35.1-40 56-108z"/>
  <path fill="#FFA300" d="M249.2 189.4l.1-1c.3-2.2-.3-4.4-1.6-6.2-1.3-1.8-3.3-3-5.5-3.3-4.6-.6-8.8 2.6-9.5 7.1l-.1 1-17.2-2.4.1-1c.3-2.2-.3-4.4-1.6-6.2-1.4-1.8-3.3-3-5.5-3.3-4.6-.6-8.8 2.6-9.5 7.1l-.1 1-17.2-2.4.1-1c.3-2.2-.3-4.4-1.6-6.2-1.4-1.8-3.3-3-5.5-3.3-4.6-.6-8.8 2.6-9.5 7.1l-.1 1-17.2-2.4.1-1c.3-2.2-.3-4.4-1.6-6.2-1.4-1.8-3.3-3-5.5-3.3-4.6-.6-8.8 2.6-9.5 7.1l-.1 1-17.2-2.4.1-1c.3-2.2-.3-4.4-1.6-6.2-1.3-1.8-3.3-3-5.5-3.3-4.6-.6-8.8 2.6-9.5 7.1l-.1 1-16.7-2.4-.4 3.1L65 277.1 60.5 309l-1 7.4L254.8 344l21.3-150.9-26.9-3.7zm-10-2.5c.1-1 1.1-1.7 2.1-1.6.5.1.9.3 1.2.7.3.4.4.9.3 1.3l-.1 1-3.6-.5.1-.9zm-33.8-4.7c.1-1 1.1-1.7 2.1-1.6.6.1 1 .4 1.2.7.3.4.4.9.3 1.3l-.1 1-3.6-.5.1-.9zm-33.8-4.8c.1-1 1.1-1.7 2.1-1.6.6.1 1 .4 1.2.7.3.4.4.9.3 1.3l-.1 1-3.6-.5.1-.9zm-33.7-4.8c.1-1 1.1-1.7 2.1-1.6.6.1 1 .4 1.2.7.3.4.4.9.3 1.3l-.1 1-3.6-.5.1-.9zm-33.8-4.7c.1-1 1.1-1.7 2.1-1.6.6.1 1 .4 1.2.7.3.4.4.9.3 1.3l-.1 1-3.6-.5.1-.9zM249.2 336.6L66.9 310.9 86.3 173l20.3 2.9-.6 4.2c-3.7.8-6.7 3.8-7.2 7.8-.7 5.1 2.8 9.8 7.9 10.5 5.1.7 9.8-2.8 10.5-7.9.6-4-1.5-7.7-4.8-9.5l.6-4.2 27.3 3.9-.6 4.2c-3.7.8-6.7 3.8-7.2 7.8-.7 5.1 2.8 9.8 7.9 10.5 5.1.7 9.8-2.8 10.5-7.9.6-4-1.5-7.7-4.8-9.5l.6-4.2 27.3 3.9-.6 4.2c-3.7.8-6.7 3.8-7.2 7.8-.7 5.1 2.8 9.8 7.9 10.5 5.1.7 9.8-2.8 10.5-7.9.6-4-1.5-7.7-4.8-9.5l.6-4.2 27.3 3.9-.6 4.2c-3.7.8-6.7 3.8-7.2 7.8-.7 5.1 2.8 9.8 7.9 10.5 5.1.7 9.8-2.8 10.5-7.9.6-4-1.5-7.7-4.8-9.5l.6-4.2 27.3 3.9-.6 4.2c-3.7.8-6.7 3.8-7.2 7.8-.7 5.1 2.8 9.8 7.9 10.5 5.1.7 9.8-2.8 10.5-7.9.6-4-1.5-7.7-4.8-9.5l.6-4.2 20.4 2.9-19 137.7zm-138.4-147c-.2 1.5-1.6 2.6-3.1 2.4-1.5-.2-2.6-1.6-2.4-3.1.2-1.5 1.6-2.6 3.1-2.4s2.6 1.6 2.4 3.1zm33.8 4.7c-.2 1.5-1.6 2.6-3.1 2.4-1.5-.2-2.6-1.6-2.4-3.1.2-1.5 1.6-2.6 3.1-2.4 1.6.2 2.6 1.6 2.4 3.1zm33.8 4.8c-.2 1.5-1.6 2.6-3.1 2.4-1.5-.2-2.6-1.6-2.4-3.1.2-1.5 1.6-2.6 3.1-2.4 1.5.2 2.6 1.6 2.4 3.1zm33.8 4.8c-.2 1.5-1.6 2.6-3.1 2.4-1.5-.2-2.6-1.6-2.4-3.1.2-1.5 1.6-2.6 3.1-2.4 1.5.2 2.6 1.6 2.4 3.1zm33.8 4.7c-.2 1.5-1.6 2.6-3.1 2.4-1.5-.2-2.6-1.6-2.4-3.1.2-1.5 1.6-2.6 3.1-2.4 1.5.2 2.6 1.6 2.4 3.1zm0 0"/>
  <path fill="#FFF" d="M118.6593 228.3924l-10.2619-.8886.8887-10.262 10.2619.8887zM137.9778 230.0332l-10.2619-.8887.8887-10.2619 10.2619.8887zM157.1902 231.7651l-10.262-.8887.8888-10.2618 10.2618.8886zM117.193 245.5284l-10.262-.8886.8887-10.262 10.2619.8887zM136.5114 247.1693l-10.2619-.8887.8887-10.2619 10.262.8887zM155.7238 248.9012l-10.2619-.8887.8887-10.2619 10.2619.8887zM115.7264 262.667l-10.2619-.8887.8887-10.2618 10.262.8886zM134.9453 264.2991l-10.2619-.8886.8887-10.262 10.2619.8887zM154.266 265.94l-10.262-.8887.8887-10.2619 10.262.8887zM114.26 279.8055l-10.262-.8887.8887-10.2619 10.262.8887zM133.4784 281.4376l-10.2619-.8887.8887-10.2618 10.262.8886zM152.799 283.0786l-10.262-.8887.8887-10.262 10.262.8888zM182.4876 233.5719l-10.2619-.8887.8887-10.262 10.2619.8888zM181.0212 250.7078l-10.2619-.8886.8887-10.262 10.2619.8888zM179.4637 267.7382l-10.2618-.8887.8886-10.2619 10.262.8887zM177.9969 284.8767l-10.262-.8887.8887-10.2619 10.262.8887z"/>
  <g fill="#FFF">
    <path d="M95.5 101.9c-.1.6-.7 1.1-1.2 1-.7-.1-1.1-.7-1.1-1.3l.6-5.4L61 92.4c-.4 0-.4-.1-.4-.1l-.6 5.5c-.1.6-.7 1.1-1.3 1-.6-.1-1.1-.7-1-1.2l.8-6.5c.1-.7.7-1.1 1.3-1.1l1.5.2c.7.1 2.5.1 3.8-1 .9-.7 1.5-1.8 1.7-3.2.2-1.3.2-1.4.2-1.4l3.8-33.1c.1-.8.7-5 3.9-7.5 2-1.7 4.6-2.3 7.6-2l13.5 1.6c.6.1 1.1.7 1.1 1.3l-5.7 48.7 4.2.5c.6.1 1.1.7 1 1.3l-.9 6.5zM66.7 90.8l22 2.6 5.5-47.5-12.3-1.4c-2.4-.3-4.4.2-5.9 1.4-1.8 1.5-2.8 3.8-3.1 6.1l-3.8 33-.1 1.2c-.2 1.9-1 3.5-2.3 4.6zM128.9 89.6c-.1.9-.8 5-3.9 7.5-2 1.7-4.6 2.3-7.6 2l-6.3-.7c-3.1-.4-5.4-1.6-7-3.7-1.8-2.3-2.4-5.5-2-8.4 3.6-30.6 3.6-30.7 3.6-30.7.1-.5.6-4.9 3.9-7.6 2-1.7 4.6-2.3 7.6-2l6.3.7c3.1.4 5.4 1.6 7 3.7 1.8 2.3 2.4 5.4 2 8.4-.1.1-3.6 30.7-3.6 30.8zm-2.3-.4l3.6-30.7c.1-.4.4-4-1.6-6.6-1.2-1.5-3.1-2.4-5.4-2.7l-6.3-.7c-2.4-.3-4.3.2-5.8 1.4-1.8 1.5-2.9 3.8-3.1 6.1l-3.6 30.7c-.1.5-.3 4.1 1.6 6.7 1.2 1.5 3 2.4 5.4 2.7l6.3.7c2.4.3 4.4-.2 5.9-1.4 1.7-1.5 2.7-3.9 3-6.2zM174.5 53.9l-5.8 49.9c-.1.7-.7 1.1-1.3 1.1-.7-.1-1.1-.7-1.1-1.3l4.8-40.9.9-3.7-1.3 3.7-17.6 39.7c-.1.5-.8.7-1.3.7-.8-.1-.9-.9-.9-.9l-8.1-42.7-.5-3.9v3.8l-4.8 40.9c-.1.7-.7 1.1-1.3 1.1-.6-.1-1.1-.7-1.1-1.3L141 50c.1-.7.7-1.1 1.5-1 .4.1.8.5.9.9l3 15.8 6.1 32.2 14.9-33.5 4.9-11.1c.2-.4.7-.8 1.3-.7.5.1 1 .6.9 1.3zM203.1 107.8c-.1.7-.7 1.1-1.3 1.1-.7-.1-1.1-.7-1.1-1.3l5.1-44.3.5-2.4-1.4 2.6-24.7 39.7-1.4 2.4c-.3.3-.7.6-1.1.6-.1 0-.2-.1-.3-.1-.1 0-.2.1-.2 0-.7-.1-1.1-.7-1.1-1.3l5.8-49.9c.1-.7.7-1.1 1.3-1.1.6.1 1.1.7 1.1 1.3l-5.1 44.3-.5 2.4 1.4-2.6 22.7-36.7 3.4-5.4c.2-.4.6-.6 1-.6.1 0 .2.1.3.1.1-.1.2-.1.2 0 .7.1 1.1.7 1.1 1.3l-5.7 49.9zM237.6 111.8c-.1.6-.7 1.1-1.3 1-.6-.1-1.1-.7-1.1-1.3l1.2-10.7c0-.1 0-.1.1-.4l.8-7.2c0-.1.5-4-1.6-6.8-1.2-1.5-3-2.4-5.5-2.7L216 82.1l-3.1 26.9c-.1.6-.7 1.1-1.3 1-.7-.1-1.1-.7-1.1-1.3l5.8-49.9c.1-.7.7-1.1 1.3-1.1.6.1 1.1.7 1 1.3l-2.4 20.7 14.1 1.6c2.2.1 3.9-.4 5.3-1.5 1.8-1.5 2.8-3.8 3.1-6.1.3-2.5.3-2.6.3-2.6l1.1-9.6c.1-.7.7-1.1 1.3-1.1.6.1 1.1.7 1 1.3-1.2 10.8-1.2 10.8-1.2 10.9-.2 1.3-.2 1.4-.2 1.4-.1.5-.6 4.9-4 7.6-.6.5-1.2.8-1.9 1.1.9.6 1.7 1.3 2.4 2.2 1.8 2.3 2.4 5.5 2 8.4l-.9 7.6-1 10.9z"/>
  </g>
  <g fill="#FFF" stroke="#FFF" stroke-miterlimit="10" stroke-width=".7087">
    <path d="M56.5 122.5c-.6.5-1.3.6-2.1.5l-1.8-.2c-.9-.1-1.5-.4-1.9-1-.5-.6-.7-1.5-.6-2.3v-.1l1-8.4c0-.1.2-1.4 1.1-2.1.3-.3.8-.5 1.2-.5.3 0 .6-.1.9 0l1.6.2c.9.1 1.5.4 1.9 1 .7.8.6 1.9.6 2.3v.1c0 .2-.2.3-.4.3s-.3-.2-.3-.4c0-.1.1-1.1-.4-1.8-.3-.4-.8-.7-1.4-.7l-1.6-.2h-.8c-.3.1-.6.2-.9.4-.5.4-.8 1.1-.9 1.7l-1 8.5s-.1 1.1.5 1.9c.3.4.8.7 1.5.7l1.8.2c.7.1 1.2 0 1.6-.4.7-.6.8-1.5.8-1.7 0-.2.2-.3.4-.3.1 0 .3.2.3.3 0 0-.2 1.2-1.1 2zM76.1 125.2c0 .2-.2.3-.3.3-.2 0-.3-.2-.3-.4l1.4-12.3.1-.7-.4.7-6.9 11-.4.7c-.1.1-.2.2-.3.2h-.1-.1c-.2 0-.3-.2-.3-.4l1.6-13.9c0-.2.2-.3.4-.3s.3.2.3.4l-1.4 12.3-.1.7.4-.7 6.3-10.2 1-1.5c.1-.1.2-.2.3-.2h.2c.2 0 .3.2.3.4l-1.7 13.9zM87.2 126.5c0 .2-.2.3-.3.3-.2 0-.3-.2-.3-.3l.9-7.4-6.2-.7-.9 7.4h0c0 .1-.2.3-.3.2-.2 0-.3-.2-.3-.3l1.6-13.9c0-.2.2-.3.4-.3s.3.2.3.4l-.7 5.8 6.2.7.7-5.8c0-.2.2-.3.4-.3s.3.2.3.4l-1.8 13.8zM100.3 129.8c0 .2-.2.3-.3.3-.2 0-.3-.2-.3-.3l.2-1.5-9.1-1.1h-.1l-.2 1.5c0 .2-.2.3-.4.3s-.3-.2-.3-.3l.2-1.8c0-.2.2-.3.4-.3h.4c.2 0 .7 0 1.1-.3.3-.2.4-.5.5-.9v-.4l1.1-9.2c0-.2.2-1.4 1.1-2.1.6-.5 1.3-.7 2.1-.6l3.8.4c.2 0 .3.2.3.4l-1.6 13.6 1.2.1c.2 0 .3.2.3.4l-.4 1.8zm-8-3.1l6.1.7 1.5-13.2-3.4-.4c-.7-.1-1.2 0-1.6.4-.5.4-.8 1.1-.9 1.7l-1.1 9.2v.4c0 .5-.2.9-.6 1.2zM110.8 129.2c0 .2-.2.3-.4.3s-.3-.2-.3-.4l1.4-12.3.1-.7-.4.7-6.9 11-.4.7c-.1.1-.2.2-.3.2h-.1-.1c-.2 0-.3-.2-.3-.4l1.6-13.9c0-.2.2-.3.4-.3s.3.2.3.4l-1.4 12.3-.1.7.4-.7 6.3-10.2 1-1.5c.1-.1.2-.2.3-.2h.2c.2 0 .3.2.3.4l-1.6 13.9zM122.3 127.9c0 .2-.2 1.4-1.1 2.1-.6.5-1.3.6-2.1.5l-1.3-.2-3-.3c-.2 0-.3-.2-.3-.4l1.3-11.2c0-.1.2-1.4 1.1-2.1.6-.4 1.3-.6 2.1-.5l1.8.2c.9.1 1.5.4 1.9 1 .5.7.7 1.6.6 2.4l-.1.7c0 .2-.2 1.4-1.1 2.1-.2.2-.4.3-.6.4.2.1.4.3.5.5.5.6.7 1.5.6 2.3l-.1.8-.2 1.7zm-.7-.1l.2-1.7.1-.8c0-.1.1-1.1-.4-1.8-.3-.4-.8-.7-1.4-.8l-4.1-.5-.8 7.1 3.8.4h.2c.7.1 1.2 0 1.6-.4.5-.2.8-.9.8-1.5zm-5.2-9.3l-.4 3.1 2.7.3 1.4.2c.6.1 1.1-.1 1.5-.4.5-.4.8-1.1.9-1.7v-.2l.1-.5c0-.1.1-1.1-.4-1.8-.3-.4-.8-.7-1.5-.8l-1.8-.2c-.7-.1-1.2.1-1.6.4-.7.5-.9 1.6-.9 1.6zM132.8 131.8c0 .2-.2.3-.4.3s-.3-.2-.3-.4l1.4-12.3.1-.7-.4.7-6.9 11-.4.7c-.1.1-.2.2-.3.2h-.1-.1c-.2 0-.3-.2-.3-.4l1.6-13.9c0-.2.2-.3.4-.3s.3.2.3.4l-1.4 12.3-.1.7.4-.7 6.3-10.2 1-1.5c.1-.1.2-.2.3-.2h.2c.2 0 .3.2.3.4l-1.6 13.9zM145.9 135.1c0 .2-.2.3-.3.3-.2 0-.3-.2-.3-.3l.2-1.5-9.1-1.1h-.1l-.3 1.5c0 .2-.2.3-.4.3s-.3-.2-.3-.3l.2-1.8c0-.2.2-.3.4-.3h.4c.2 0 .7 0 1.1-.3.3-.2.4-.5.5-.9v-.4l1.1-9.2c0-.2.2-1.4 1.1-2.1.6-.5 1.3-.7 2.1-.6l3.8.4c.2 0 .3.2.3.4l-1.6 13.6 1.2.1c.2 0 .3.2.3.4l-.3 1.8zm-8-3.1l6.1.7 1.5-13.2-3.4-.4c-.7-.1-1.2 0-1.6.4-.5.4-.8 1.1-.9 1.7l-1.1 9.2v.4c0 .5-.3.9-.6 1.2zM156.8 131.8c0 .2-.2 1.4-1.1 2.1-.6.5-1.3.7-2.1.6l-1.3-.2-.5-.1c-.9-.1-1.5-.4-1.9-1-.7-.8-.6-1.9-.6-2.2v-.1c0-.2.2-.3.4-.3s.3.2.3.4c0 .1-.1 1.1.4 1.8.3.4.8.7 1.5.7l1.2.1.6.1c.7.1 1.2 0 1.6-.4.7-.6.9-1.7.9-1.7l.4-3.1-2.7-.3-1.3-.2c-.9-.1-1.5-.4-1.9-1-.5-.6-.7-1.5-.6-2.3l.2-2v-.1s0 0 0 0l.3-3c0-.2.2-.3.4-.3s.3.2.3.4l-.4 3.1c-.2 2-.2 2.1-.2 2.1 0 .1-.1 1.1.4 1.8.3.4.8.7 1.5.8l4 .5.9-7.5c0-.2.2-.3.4-.3s.3.2.3.4l-1.2 10.6-.2.6zM168.9 124.6l-1.3 11.2c0 .2-.2.3-.3.3-.2 0-.3-.2-.3-.3l.7-5.8-6.2-.7-.7 5.8c0 .2-.2.3-.4.3s-.3-.2-.3-.3l1.3-11.2c0-.1.2-1.4 1.1-2.1.6-.4 1.3-.6 2.1-.5l1.8.2c.9.1 1.5.4 1.9 1 .5.4.7 1.3.6 2.1zm-1.2 4.7l.6-4.8c0-.1.1-1.1-.5-1.8-.3-.4-.8-.7-1.5-.8l-1.8-.2c-.7-.1-1.2.1-1.6.4-.5.4-.8 1.1-.9 1.7l-.6 4.8 6.3.7zM178.7 137.1c0 .2-.2.3-.4.3s-.3-.2-.3-.4l1.6-13.6-3.4-.4c-.7-.1-1.2.1-1.6.4-.5.4-.8 1.1-.9 1.7l-1.1 9.2v.4c-.1.6-.3 1-.7 1.3-.5.3-1.1.4-1.6.4h-.3c-.2 0-.3-.2-.3-.4s.2-.3.4-.3h.4c.1 0 .7.1 1.1-.3.3-.2.4-.5.4-.9v-.4l1.1-9.2c0-.1.2-1.4 1.1-2.1.6-.5 1.3-.7 2.1-.6l3.8.4c.2 0 .3.2.3.4l-1.7 14.1zM189.1 137.9c-.6.5-1.3.6-2.1.5l-1.8-.2c-.9-.1-1.5-.4-1.9-1-.5-.6-.7-1.5-.6-2.3l1.3-11.2c0-.2.2-.3.4-.3s.3.2.3.4l-.7 5.8 4 .5c.9.1 1.5.4 1.9 1 .5.6.7 1.5.6 2.3l-.1.7-.2 1.6c-.1.3-.2 1.4-1.1 2.2zm.4-2.2l.2-1.7c.1-.7.1-.8.1-.8 0-.1.1-1.1-.4-1.8-.3-.4-.8-.7-1.5-.7l-4-.5-.5 4.7s-.1 1.1.5 1.9c.3.4.8.7 1.5.8l1.8.2c.7.1 1.2 0 1.6-.4.4-.4.6-1.1.7-1.7zM200.7 139.7c0 .2-.2.3-.3.3-.2 0-.3-.2-.3-.3l.9-7.4-6.2-.7-.9 7.4h0c0 .1-.2.3-.3.2-.2 0-.3-.2-.3-.3l1.6-13.9c0-.2.2-.3.4-.3s.3.2.3.4l-.7 5.8 6.2.7.7-5.8c0-.2.2-.3.4-.3s.3.2.3.4l-1.8 13.8zM212.1 138.3c0 .2-.2 1.4-1.1 2.1-.6.5-1.3.6-2.1.5l-1.8-.2c-.9-.1-1.5-.4-1.9-1-.5-.6-.7-1.5-.6-2.3l1.3-11.2c0-.2.2-.3.4-.3s.3.2.3.4l-.7 5.8 4 .5c.9.1 1.5.4 1.9 1 .5.6.7 1.5.6 2.3l-.1.7-.2 1.7zm-.6-.1v-.4c.2-2 .2-2.1.2-2.1 0-.1.1-1.1-.4-1.8-.3-.4-.8-.7-1.5-.7l-4-.5c-.5 4.7-.6 4.8-.6 4.8 0 .1-.1 1.1.5 1.8.3.4.8.7 1.5.8l1.8.2c.7.1 1.2 0 1.6-.4.5-.4.8-1 .9-1.7zm1.9 3c0 .2-.2.3-.4.3s-.3-.2-.3-.3l1.6-13.9c0-.2.2-.3.4-.3s.3.2.3.4l-1.6 13.8zM228 128.7l-1.6 13.9c0 .2-.2.3-.3.3-.2 0-.3-.2-.3-.4l1.3-11.4.2-1-.4 1-4.9 11c0 .1-.2.2-.4.2s-.3-.3-.3-.3l-2.2-11.9-.1-1.1v1.1l-1.3 11.4c0 .2-.2.3-.4.3s-.3-.2-.3-.4l1.6-13.9c0-.2.2-.3.4-.3.1 0 .2.1.2.3l.8 4.4 1.7 9 4.1-9.3 1.4-3.1c.1-.1.2-.2.4-.2.3.1.4.2.4.4zM237.5 143.9c0 .2-.2.3-.4.3s-.3-.2-.3-.4l1.4-12.3.1-.7-.4.7-6.9 11-.4.7c-.1.1-.2.2-.3.2h-.1-.1c-.2 0-.3-.2-.3-.4l1.6-13.9c0-.2.2-.3.4-.3s.3.2.3.4l-1.4 12.3-.1.7.4-.7 6.3-10.2 1-1.5c.1-.1.2-.2.3-.2h.2c.2 0 .3.2.3.4l-1.6 13.9zM54.1 147.9c0 .2-.2.3-.4.3s-.3-.2-.3-.4l.7-5.8-4-.5c-.9-.1-1.5-.4-1.9-1-.5-.6-.7-1.5-.6-2.3l.6-5.1c0-.2.2-.3.4-.3s.3.2.3.4l-.4 3.1c-.2 2-.2 2.1-.2 2.1 0 .1-.1 1.1.4 1.8.3.4.8.7 1.5.8l4 .5.9-7.5c0-.2.2-.3.4-.3s.3.2.3.4l-1.7 13.8zM65.2 149.2c0 .2-.2.3-.4.3s-.3-.2-.3-.4l1.4-12.3.1-.7-.4.7-6.9 11-.4.7c-.1.1-.2.2-.3.2h-.1-.1c-.2 0-.3-.2-.3-.4l1.6-13.9c0-.2.2-.3.4-.3s.3.2.3.4l-1.4 12.3-.1.7.4-.7 6.3-10.2 1-1.5c.1-.1.2-.2.3-.2h.2c.2 0 .3.2.3.4l-1.6 13.9zM75.6 149.9c-.6.5-1.3.6-2.1.5l-1.8-.2c-.9-.1-1.5-.4-1.9-1-.5-.6-.7-1.5-.6-2.3v-.1l1-8.4c0-.1.2-1.4 1.1-2.1.3-.3.8-.5 1.2-.5.3 0 .6-.1.9 0l1.6.2c.9.1 1.5.4 1.9 1 .7.8.6 1.9.6 2.3v.1c0 .2-.2.3-.4.3s-.3-.2-.3-.4c0-.1.1-1.1-.4-1.8-.3-.4-.8-.7-1.4-.7l-1.6-.2h-.8c-.3.1-.6.2-.9.4-.5.4-.8 1.1-.9 1.7l-1 8.5s-.1 1.1.5 1.9c.3.4.8.7 1.5.7l1.8.2c.7.1 1.2 0 1.6-.4.7-.6.8-1.5.8-1.7 0-.2.2-.3.4-.3.1 0 .3.2.3.3 0 .1-.2 1.3-1.1 2zM87.4 151.7c0 .2-.2.3-.4.3s-.3-.2-.3-.4l1.6-13.6-3.4-.4c-.7-.1-1.2.1-1.6.4-.5.4-.8 1.1-.9 1.7l-1.1 9.2v.4c-.1.6-.3 1-.7 1.3-.5.3-1.1.4-1.6.4h-.3c-.2 0-.3-.2-.3-.4s.2-.3.4-.3h.4c.1 0 .7.1 1.1-.3.3-.2.4-.5.4-.9v-.4l1.1-9.2c0-.1.2-1.4 1.1-2.1.6-.5 1.3-.7 2.1-.6l3.8.4c.2 0 .3.2.3.4l-1.7 14.1zM98.5 153.1c0 .2-.2.3-.4.3-2.7-.3-2.8-.3-2.8-.3l-4.1-.5c-.2 0-.3-.2-.3-.4l1.3-11.2c0-.1.2-1.4 1.1-2.1.6-.4 1.3-.6 2.1-.5h.3l3.9.4c.2 0 .3.2.3.4s-.2.3-.4.3c-2.9-.3-3-.3-3-.3l-1.2-.1c-.7-.1-1.2.1-1.6.4-.5.4-.8 1.1-.9 1.7l-.4 3.1 3.8.4c.2 0 .3.2.3.3 0 .2-.2.3-.4.3l-3.8-.4-.8 7.1 6.5.8c.4-.1.5.1.5.3zM109.3 154.3c0 .2-.2.3-.3.3-.2 0-.3-.2-.3-.4l.9-7.4-6.2-.7-.9 7.4h0c0 .1-.2.3-.3.2-.2 0-.3-.2-.3-.4l1.6-13.9c0-.2.2-.3.4-.3s.3.2.3.4l-.7 5.8 6.2.7.7-5.8c0-.2.2-.3.4-.3s.3.2.3.4l-1.8 14zM120.4 155.6c0 .2-.2.3-.3.3-.2 0-.3-.2-.3-.3l.9-7.4-6.2-.7-.9 7.4h0c0 .1-.2.3-.3.2-.2 0-.3-.2-.3-.3l1.6-13.9c0-.2.2-.3.3-.3.2 0 .3.2.3.4l-.7 5.8 6.2.7.7-5.8c0-.2.2-.3.4-.3s.3.2.3.4l-1.7 13.8zM131.6 156.9c0 .2-.2.3-.3.3-.2 0-.3-.2-.3-.4l1.4-12.3.1-.7-.4.7-6.9 11-.4.7c-.1.1-.2.2-.3.2h-.1-.1c-.2 0-.3-.2-.3-.4l1.6-13.9c0-.2.2-.3.4-.3s.3.2.3.4l-1.4 12.3-.1.7.4-.7 6.3-10.2 1-1.5c.1-.1.2-.2.3-.2h.2c.2 0 .3.2.3.4l-1.7 13.9zM142.7 158.2c0 .2-.2.3-.4.3s-.3-.2-.3-.4l.3-3v-.1l.2-2s.1-1.1-.5-1.9c-.3-.4-.8-.7-1.5-.7l-3.9-.5-.9 7.5c0 .2-.2.3-.4.3s-.3-.2-.3-.4l1.6-13.9c0-.2.2-.3.4-.3s.3.2.3.4l-.7 5.8 3.9.5c.6 0 1.1-.1 1.5-.4.5-.4.8-1.1.9-1.7l.1-.7.3-2.7c0-.2.2-.3.4-.3s.3.2.3.4l-.3 3v.4c0 .1-.2 1.4-1.1 2.1-.2.1-.3.2-.5.3.3.2.5.4.7.6.5.6.7 1.5.6 2.3l-.2 2.1-.5 3zM154.8 148.3l-1.3 11.2c0 .2-.2.3-.3.3-.2 0-.3-.2-.3-.4l.7-5.8-6.2-.7-.7 5.8c0 .2-.2.3-.4.3s-.3-.2-.3-.3l1.3-11.2c0-.1.2-1.4 1.1-2.1.6-.4 1.3-.6 2.1-.5l1.8.2c.9.1 1.5.4 1.9 1 .5.4.7 1.3.6 2.2zm-1.2 4.6l.6-4.8c0-.1.1-1.1-.5-1.8-.3-.4-.8-.7-1.5-.8l-1.8-.2c-.7-.1-1.2.1-1.6.4-.5.4-.8 1.1-.9 1.7l-.6 4.8 6.3.7zM168.1 147l-1.6 13.9c0 .2-.2.3-.3.3-.2 0-.3-.2-.3-.4l1.3-11.4.2-1-.4 1-4.9 11c0 .1-.2.2-.4.2s-.3-.3-.3-.3l-2.2-11.9-.1-1.1v1.1l-1.3 11.4c0 .2-.2.3-.4.3s-.3-.2-.3-.4l1.6-13.9c0-.2.2-.3.4-.3.1 0 .2.1.2.3l.8 4.4 1.7 9 4.1-9.3 1.4-3.1c.1-.1.2-.2.4-.2.3.1.4.2.4.4zM177.6 162.2c0 .2-.2.3-.4.3s-.3-.2-.3-.4l1.4-12.3.1-.7-.4.7-6.9 11-.4.7c-.1.1-.2.2-.3.2h-.1-.1c-.2 0-.3-.2-.3-.4l1.6-13.9c0-.2.2-.3.4-.3s.3.2.3.4l-1.4 12.3-.1.7.4-.7 6.3-10.2 1-1.5c.1-.1.2-.2.3-.2h.2c.2 0 .3.2.3.4l-1.6 13.9z"/>
  </g>
  <path fill="#FFA300" stroke="#FFA300" stroke-width="5.6693" d="M24.7 273.6c16.8-.5 40-2.6 40-2.6"/>
</svg>
