<?xml version="1.0" encoding="UTF-8"?>
<!DOCTYPE svg PUBLIC "-//W3C//DTD SVG 1.1//EN" "http://www.w3.org/Graphics/SVG/1.1/DTD/svg11.dtd">
<!-- Creator: CorelDRAW X6 -->
<svg xmlns="http://www.w3.org/2000/svg" xml:space="preserve" width="66.817mm" height="55.841mm" version="1.1" style="shape-rendering:geometricPrecision; text-rendering:geometricPrecision; image-rendering:optimizeQuality; fill-rule:evenodd; clip-rule:evenodd"
viewBox="0 0 6682 5584"
 xmlns:xlink="http://www.w3.org/1999/xlink"
 enable-background="new 0 0 275 210">
 <defs>
  <style type="text/css">
   <![CDATA[
    .fil0 {fill:#FFA300}
   ]]>
  </style>
 </defs>
 <g id="Слой_x0020_1">
  <metadata id="CorelCorpID_0Corel-Layer"/>
  <g id="_746335952">
   <g>
    <path class="fil0" d="M0 984c35,-88 60,-184 113,-262 113,-166 280,-241 481,-241 142,0 283,0 428,0 18,0 39,0 67,0 0,-46 0,-85 0,-127 4,-216 142,-354 361,-354 1260,0 2523,0 3783,0 219,0 357,138 361,354 0,39 0,78 0,127 25,0 42,0 60,0 177,4 354,-7 527,11 223,21 375,152 453,354 28,78 42,166 42,251 7,244 4,492 4,736 0,255 -138,453 -375,548 -32,14 -67,18 -103,25 -32,7 -42,21 -42,53 0,156 0,311 0,467 0,594 7,1189 -4,1783 -4,159 60,290 99,435 14,50 28,103 25,152 -7,88 -71,145 -159,156 -92,11 -170,-28 -202,-113 -39,-103 -74,-205 -110,-311 -110,-322 -212,-644 -326,-966 -28,-85 -32,-163 39,-226 67,-64 152,-74 237,-28 4,0 7,0 14,0 0,-18 4,-35 4,-53 0,-421 0,-842 0,-1267 0,-53 -18,-64 -67,-64 -78,4 -152,4 -230,0 -46,-4 -60,11 -60,57 4,435 0,870 0,1306 0,272 0,545 0,817 0,46 -11,60 -60,60 -1348,0 -2696,0 -4045,0 -53,0 -57,-21 -57,-64 0,-704 0,-1408 4,-2113 0,-53 -14,-67 -67,-67 -120,4 -237,4 -357,0 -35,0 -46,11 -46,46 0,467 0,934 0,1401 0,25 4,39 35,42 142,18 212,120 170,255 -81,251 -166,502 -251,754 -53,159 -106,318 -159,478 -28,81 -60,156 -156,180 -71,18 -134,4 -184,-46 -53,-50 -74,-113 -50,-188 39,-120 81,-241 120,-361 28,-81 57,-163 81,-244 7,-18 7,-42 7,-60 0,-747 0,-1493 0,-2240 0,-25 7,-46 -28,-60 -202,-78 -322,-226 -368,-432 -4,-7 -7,-18 -11,-25 0,-311 0,-623 0,-938zm5198 3461c0,-25 0,-39 0,-57 0,-786 0,-1568 0,-2353 0,-173 -53,-329 -145,-474 -46,-71 -113,-124 -166,-191 -35,-46 -78,-57 -131,-57 -913,0 -1826,4 -2735,0 -124,0 -209,28 -290,120 -156,173 -248,364 -248,591 -4,789 0,1575 0,2364 0,18 4,35 4,57 1238,0 2470,0 3712,0zm-3896 -3967c1362,0 2714,0 4073,0 0,-25 0,-46 0,-67 0,-28 0,-57 -4,-85 -11,-67 -53,-106 -120,-110 -18,-4 -39,0 -60,0 -1231,0 -2463,0 -3698,0 -32,0 -60,0 -92,4 -50,7 -85,39 -92,88 -7,53 -4,110 -7,170z"/>
    <path class="fil0" d="M3340 1872c-471,0 -941,0 -1412,0 -71,0 -131,-57 -124,-120 7,-50 39,-85 92,-92 35,-7 74,-4 113,-4 895,0 1791,0 2689,0 25,0 50,0 74,0 67,7 110,53 106,113 -4,60 -50,103 -117,103 -375,0 -747,0 -1122,0 -103,0 -202,0 -301,0z"/>
   </g>
  </g>
 </g>
</svg>
