<?xml version="1.0" encoding="UTF-8"?>
<!DOCTYPE svg PUBLIC "-//W3C//DTD SVG 1.1//EN" "http://www.w3.org/Graphics/SVG/1.1/DTD/svg11.dtd">
<!-- Creator: CorelDRAW X6 -->
<svg xmlns="http://www.w3.org/2000/svg" xml:space="preserve" width="61.925mm" height="58.453mm" version="1.1" style="shape-rendering:geometricPrecision; text-rendering:geometricPrecision; image-rendering:optimizeQuality; fill-rule:evenodd; clip-rule:evenodd"
viewBox="0 0 6193 5845"
 xmlns:xlink="http://www.w3.org/1999/xlink"
 enable-background="new 0 0 275 210">
 <defs>
  <style type="text/css">
   <![CDATA[
    .fil0 {fill:#FFA300}
   ]]>
  </style>
 </defs>
 <g id="Слой_x0020_1">
  <metadata id="CorelCorpID_0Corel-Layer"/>
  <g id="_744273232">
   <path class="fil0" d="M0 4c0,0 0,-4 4,-4 7,0 15,0 22,0 724,0 1447,0 2171,0 0,0 0,4 4,4 55,62 109,124 164,189 4,4 7,7 11,11 7,-4 15,-7 22,-11 175,-105 364,-156 571,-160 684,0 1367,0 2047,0 69,0 135,7 204,18 302,58 545,211 727,455 189,255 251,545 204,855 -36,240 -142,444 -316,618 -229,229 -509,342 -836,345 -196,0 -389,0 -585,0 -11,0 -18,0 -33,0 15,15 22,25 29,33 171,182 342,364 513,545 265,284 531,564 796,847 69,73 142,145 207,222 225,269 309,582 251,924 -36,222 -138,415 -291,578 -236,247 -527,367 -873,371 -622,4 -1244,0 -1865,0 -105,0 -207,-15 -309,-40 -538,-138 -938,-636 -865,-1258 22,-175 84,-331 182,-476 4,-7 7,-15 15,-25 -11,0 -22,0 -29,0 -47,0 -95,0 -138,0 -240,-4 -476,-7 -716,-11 -84,0 -167,-11 -251,-29 -600,-138 -993,-727 -869,-1316 80,-385 309,-662 673,-829 153,-69 313,-98 480,-102 95,0 189,0 287,0 7,0 18,0 29,0 -7,-7 -11,-15 -15,-18 -280,-305 -556,-604 -833,-902 -167,-178 -335,-360 -502,-542 -87,-95 -175,-189 -262,-284 -7,0 -15,-4 -22,-7zm3793 5633c15,0 25,0 33,0 389,0 782,0 1171,0 84,0 167,-11 247,-29 498,-120 811,-604 716,-1080 -33,-171 -105,-320 -225,-447 -236,-251 -473,-502 -709,-753 -313,-331 -622,-658 -935,-989 -15,-15 -29,-22 -47,-22 -353,0 -705,0 -1058,0 -73,0 -145,-7 -218,-18 -196,-36 -371,-116 -527,-236 -7,-4 -15,-11 -18,-15 4,11 7,15 15,22 222,236 447,476 669,713 360,382 716,767 1076,1149 189,204 291,440 302,716 4,98 -4,193 -25,287 -62,276 -211,502 -436,680 -11,7 -15,15 -29,22zm135 -4465c-7,-51 -7,-102 -18,-153 -44,-244 -167,-444 -367,-593 -229,-171 -487,-236 -771,-175 -484,102 -840,560 -738,1102 44,229 160,415 345,556 156,124 335,189 535,204 116,7 229,-11 338,-44 400,-127 673,-491 676,-898zm-2629 785c-55,0 -116,4 -175,18 -240,51 -436,167 -582,360 -171,225 -236,480 -175,756 109,480 578,818 1124,720 189,-33 353,-120 491,-251 229,-222 349,-567 255,-905 -120,-415 -502,-698 -938,-698zm1833 1811c-91,0 -178,11 -269,33 -455,120 -767,560 -684,1047 40,236 156,433 349,582 218,171 469,240 749,196 185,-29 345,-105 480,-229 291,-258 393,-655 262,-1018 -40,-109 -91,-211 -171,-295 -193,-207 -429,-316 -716,-316zm-2644 -3553c0,0 -4,4 -4,4 509,535 1015,1069 1524,1607 0,0 4,-4 4,-4 -7,-7 -11,-18 -18,-25 -116,-175 -182,-367 -182,-578 0,-87 0,-175 18,-262 44,-218 145,-407 302,-567 25,-25 51,-47 76,-73 -4,-7 -11,-11 -15,-18 -22,-22 -44,-44 -65,-65 -15,-15 -29,-22 -51,-22 -520,0 -1040,0 -1560,0 -11,4 -22,4 -29,4z"/>
  </g>
 </g>
</svg>
