<svg xmlns="http://www.w3.org/2000/svg" version="1.0" viewBox="0 0 283.5 354.3">
  <defs/>
  <g fill="#9AC228">
    <path d="M240.4 178.7c.9-.4 2.4-.5 2.7-1.2.4-.8-.3-2-.5-3 .5.2 1.1.4 1.6.5 1.9.5 3.6-.3 4.4-2 .7-1.5.2-3.3-1.1-4.4-1.4-1-3.5-1-4.8.1-1.5 1.2-1.8 3.1-.8 4.8.2.4.5.7.7 1.1-1.4-.5-2.7-.5-3.5.9-.8 1.5.2 2.5 1.3 3.2-.4 0-.8-.1-1.3-.1-1.5-.1-2.5.8-2.4 2 0 .9.9 2.2 1.7 2.5.8.2 2.2-.4 2.8-1.1 1-1.2 0-2.3-.8-3.3zM51.9 233.8c.3 0 .7.2.9.1.5-.3.8-.7 1.2-1.1-.4-.4-.8-.8-1.2-1.1-.3.4-.8.8-1 1.3-.1.2.1.5.1.8-.3-.4-.6-.9-1-1.3-1.3-1.1-3-.8-4 .6-.9 1.3-.5 3.1.9 3.7.8.3 2.1.4 2.6 0 .8-.7 1-2 1.5-3zm198.9-33.2c1.5-.1 2-1.4 1.7-2.5-.3-.9-1.2-2-2.1-2.2-1.9-.5-2.7 1.1-3.3 2.7-.5-.2-1.1-.6-1.4-.5-.7.2-1.6.6-1.7 1.1-.2.6.2 2 .5 2.1 1.8.4 3.7.5 5.6.5 0-.1.4-.8.7-1.2zm-184 25.3c-1.2-.1-2.3.2-2.4 1.5 0 .6.6 1.5 1.1 1.8.4.2 1.5-.2 1.9-.6.9-1.1.2-2-.6-2.7.6.1 1.3.3 1.8.5.3-1 .4-2.2.8-2.4.7-.2 1.6.3 2.5.5.9-1.6.8-3.1-.5-4.3-1.3-1.2-2.9-1.7-4.3-.6-1.4 1-2.6.5-3.9.2-.6-.1-1.3-.1-1.9.2-.2.1-.4 1.1-.2 1.3.4.4 1.1.7 1.7.7 1.2 0 2.1.2 2.4 1.7.3.7 1.1 1.4 1.6 2.2zM38.3 192v2.1c.7.5 1.3.8 1.6 1.2.2.2-.1 1.1-.4 1.2-1.2.5-.7 1.1-.2 1.8.9-.5 1.8-.9 2.4.1.7 1.2-.3 1.6-1.5 2.3.8.2 1.2.2 1.5.4.4.3.8.6 1.1 1 .4.5.6 1.1.9 1.6.1-.2.2-.3.3-.5.7-.1 1.5-.5 2.1-.4.8.2 1 .9.8 1.8 0 .1.3.4.5.5.2-.5 0-.9 0-1.3-.2-1.5.4-2.9 1.7-3.6 1.2-.6 3-.5 3.9.4 1 1.1 1.9 2.4 2.9 3.6.7-.4 1.4-.8 1.8-1 .7.4 1.2.8 1.8.9.3 0 1-.5 1-.7 0-.7-.3-1.3-.6-2.2.4-.6 1.5-1.2 1.1-2.6 0-.1.2-.5.4-.6 1.3-.6 1-1.8 1.4-2.8-1.9-.6-2-1-.7-2.6-.9-1.4-.6-1.4-.2-2.8.3-1 0-2.4-.6-3.2-.8-1-2.2-1.7-3.3-2.5-.2-.1-.3-.3-.4-.5-.6-.5-1.2-1.1-1.9-1.7-.5 1.4-1.2 2.1-2.4 1.9-1.5-.3-1.2-1.5-1.3-2.7-1 .2-2 .3-2.9.5-1.1.2-2.2.3-3.3.5-1 .2-1.5.8-1.4 1.9.1 1.3-1.1 2-2.4 1.6-.3-.1-.8-.1-.9 0-.6.8-1.2 1.7-1.9 2.8 2.5-.5 3.6-.1 4.2 1.1.5 1.1.2 2.4-.8 3.1-1.2 1.2-2.3 1-4.3-.6zM187.9 54c.8.6 1.6 1 2.3 1.6 1.7 1.3 4.1 2 4.3 4.6.2 1.8 1.4 3.1 3.3 3.3 4.8.5 9.5-4.2 8.8-8.8-.6-4.4-5.1-6.8-9.2-4.9-.6.3-1.2.4-1.8.4-2.2 0-4.3-.2-5.8-2.5-.6 2.3.6 4.5-1.9 6.3zm51.3 148.7c-.6 2.7 0 4.2 2 4.6 1.6.3 3.2-.7 3.3-2.3 0-.8-.4-1.9-1-2.4-.6-.6-1.7-.7-2.6-.9 1.4-2.3 1.5-4 0-5.4-1.3-1.3-2.8-1.7-4.5-.9-1.7.8-2.6 2.5-2.2 4.3.3 2 1.5 2.7 5 3zm2.1 17.3l.1.1c.1 1.1-.2 2.5.3 3.4.4.6 2 1.1 2.8.8 1-.3 1.6-.2 2.4.3 1.6.8 3.6.2 4.5-1.3.9-1.5.7-3.3-.7-4.4-1.4-1.2-3.2-1.2-4.7 0-.5.4-1.1.7-1.2.7-.7-1.4-1.1-2.4-1.8-3.2-.2-.2-1.9.3-2 .7-.2.9.2 1.9.3 2.9zM212.9 37.4c0 3-.1 5.6 0 8.2 0 .8.3 1.8.8 2.2.9.7 2.1 1.1 3.2 1.2.6 0 1.6-.8 1.9-1.4 1.4-3.2.7-6.4-.4-9.5-.2-.5-.6-.9-1-1.7-.5 1.9 1.1 3.9-1.5 5-.9-1.2-1.8-2.5-3-4zm35.8 174.3c0 .5-.1 1.3.2 1.6.6.6 1.5 1.2 2.2 1.2.5 0 1.4-1.3 1.3-1.9-.3-1.1.1-1.6.7-2.3 1.1-1.4 1.1-2.9 0-4.3s-2.6-1.9-4.2-1.3c-1.6.6-2.5 1.9-2.5 3.6 0 .4.2.9.1 1.3-.4 2.5-.3 2.7 2.2 2.1zm-65.2-175c0-2.3-1.7-4.1-4-4.2-2.3-.1-4.3 1.9-4.3 4.2 0 2.2 2 4.1 4.2 4.1 2.3 0 4.1-1.8 4.1-4.1zm65.9 193.6c1.5 1.6 3.1 1.8 4.2.6 1-1.1.9-2.6-.3-3.5-1.2-1-2.6-.7-4.1 1.1-1.2-1.5-2.6-2.5-4.6-1.5-1.5.7-2 1.9-1.7 3.4.3 1.4 1.2 2.3 2.7 2.5 2 .2 3.1-.9 3.8-2.6zm-9.9-38.1c1.6 2.4 3.3 3 5 1.9 1.5-.9 1.9-3 1-4.5-1.1-1.6-3-1.8-5.3-.3-1-1.3-2.4-1.9-3.7-.7-.6.5-.9 1.9-.6 2.6.6 1.6 2.1 1.7 3.6 1zM186.8 62.9c.9.1 1.7.2 2.4.3 1.5.3 3.3-.8 3.8-2.3.6-1.9 0-3.1-1.9-3.8-4.2-1.7-5-3.1-4.2-7.5.1-.4-.1-.8-.2-1.8-.6.9-.9 1.2-1 1.6-.5 2.1-.5 4.1.6 6.1.4.7.5 1.7.5 2.5.1 1.7 0 3.3 0 4.9zm-14-7.9c-.8-2-1.4-3.6-2-5.3-.2-.5-.5-1.1-.9-1.2-.4-.1-1 .3-1.5.6-2.3 1.3-2.1 4-3.3 5.9-.6.9.7 2 2 1.8 1.2-.2 2.4-.2 3.6-.5.6-.2 1.2-.8 2.1-1.3zm65.4 107.6c-1.4 1.2-2.4 2.4-1.1 4.1.9 1.1 2 1.3 3.2.6 1.8-1 1.4-2.6.7-4.1 1.3-1.1 2.2-2.3 1-3.9-.8-1.1-2-1.4-3.2-.6-1.5 1-1.5 2.3-.6 3.9zM113.3 41.1c0 1.9 1.4 3.4 3.3 3.4 1.8 0 3.5-1.5 3.5-3.3 0-1.8-1.6-3.4-3.4-3.4-2-.1-3.4 1.4-3.4 3.3zM59 228.7c1.9-1 1.9-1.5.3-5.8h-1.7c-2.7-.1-4.1 1.6-3.6 4.2.1.6 0 1.2-.1 1.8-.1 1.1.7 1.7 1.7 1.3.9-.4 1.7-.9 2.3-1.2v-2.5h2.2c-.5 1-.7 1.5-1.1 2.2zm61.6-166.1c0 1.5 1.7 3.1 3.2 3.1 1.6 0 2.8-1.8 2.8-3.9 0-1.2-1.7-2.9-2.8-2.9-1.7.1-3.2 1.9-3.2 3.7zM50 217.7c.1 1.4.8 2.4 2.4 2.6.7.1 1.3.6 2 .8.5.2 1.1.1 1.7.1 0-.6.2-1.2.1-1.7-.2-.8-.6-1.5-.7-2.3-.2-1.4-1.5-2.6-2.9-2.5-1.4.3-2.5 1.6-2.6 3zM175.4 55.6c.4.1.7.3 1 .2 1.7-.3 3.4-.6 5-1.2.9-.4 1.7-1.4 1.9-2.3.2-.5-.6-1.8-1.2-2-.7-.2-1.7.3-2.5.7-.6.3-1.1 1-1.7 1.2-1.8.5-2.1 1.9-2.5 3.4zm60.4 155.7c0 1.4 1.2 2.6 2.7 2.7 1.5.1 2.7-1 2.8-2.5.1-1.6-1.1-2.8-2.7-2.8-1.5.1-2.8 1.2-2.8 2.6zm15-22.5c-1.5 0-2.6 1.2-2.5 2.7.1 1.5 1.1 2.4 2.6 2.4 1.5.1 2.6-1.1 2.6-2.6s-1.1-2.5-2.7-2.5zM53.9 39.9c-1.5 0-2.6 1.2-2.6 2.7.1 1.5 1.2 2.5 2.8 2.4 1.6-.1 2.4-1 2.5-2.5 0-1.5-1.2-2.6-2.7-2.6zm5.8 1.2c-1.9 0-3.1 1.6-2.4 2.9.5.9 1.1 1.7.7 2.8-.1.3.4 1 .8 1.1.5.2 1.5 0 1.5-.2.4-1.8.7-3.7.8-5.6 0-.3-1.1-.8-1.4-1zM57.8 234c-.6.1-.8.1-1.1.2-.6.2-1.3.4-1.9.7-.1.1.2 1.2.3 1.2.6.1 1.2-.1 1.8-.2 1.1-.3 2.1-.8 2.9.5.1.2.6.3.9.3.1 0 .3-.5.3-.8.1-3 .1-3-2.4-4.6-.3-.2-1.1-.3-1.3-.1-.3.3-.4 1-.3 1.4.1.5.5.8.8 1.4zm80.1-195.4c0 1.5.4 2.6 2 2.7 1.3.1 2.4-1.2 2.3-2.6-.1-1.3-.7-2.3-2.2-2.3-1.5 0-2.2.8-2.1 2.2zm-81.1-2.3v-.7c-.4-.6-.8-1.2-1.4-1.6-.2-.1-1.2.5-1.2.5.4 1.3.8 2.5 1.3 3.8.2.4.8.7 1.2.7.4 0 .9-.3 1.3-.5.6-.3 1.1-.5 1.6-.9.4-.3 1-.7 1.1-1.1.1-.4-.3-1.2-.7-1.3-.4-.2-1 .1-1.5.3-.6.2-1.1.5-1.7.8zm194.8 147.5c0-1.3-.8-2.3-2.1-2.4-1.3-.1-2.5 1-2.4 2.3.1 1.4.9 2.2 2.3 2.2 1.3.1 2.1-.6 2.2-2.1zm-177.1 15c.2 1.4 1 2.2 2.5 2.2 1.3-.1 2.2-1 2.2-2.2 0-1.3-.9-2.3-2.3-2.3-1.5 0-2.2 1-2.4 2.3zm87.1-153c-.5-.4-1.3-1.4-2.1-1.4-1.6 0-2.2 1.3-2.2 2.7 0 1.2.7 1.8 1.9 1.7 1.7-.1 2.2-1.1 2.4-3zM81.5 222.6c-.8-.6-1.6-1.5-2.5-1.6-1.3-.2-2.2.8-2.2 2.1s.8 2.2 2.3 2.2c1.4-.1 2.1-.9 2.4-2.7zm169.4 19.3h.9c.6-.8 1.4-1.6 1.7-2.5.3-1.1-1.1-2.3-2.3-2.1-1.3.2-2.3 1-2 2.2.2.8 1.1 1.6 1.7 2.4zM180.4 55.2c-1 1.2-2.1 2-2.1 2.7 0 .6 1.2 1.3 1.8 1.9.7-.7 1.7-1.3 2-2.1.2-.4-.8-1.3-1.7-2.5zm50.9 105.6c-.8 1.2-1.8 2-1.7 2.5.2.7 1.2 1.3 1.9 1.9.6-.7 1.6-1.3 1.7-2.1.1-.5-.9-1.2-1.9-2.3zm8.1 8.4c-1.2-.9-2-1.8-2.6-1.7-.8.2-1.3 1.1-2 1.8.7.6 1.3 1.5 2 1.7.6.1 1.4-.9 2.6-1.8zM51.7 53.3h.8c.5-.7 1.4-1.4 1.3-2-.2-.7-1.1-1.3-1.8-1.9-.6.7-1.6 1.2-1.7 2-.1.5.9 1.3 1.4 1.9zm21.7 159.4c-.5 1-1 2-1.4 3.1-.1.4.1.9.2 1.3 0 .1.2.2.3.2 2 .4 1.5-2.1 2.8-2.4-.2-.6-.4-1.3-.7-1.9-.1-.1-.5-.1-1.2-.3zm11.1-28.4c-.8 1.2-1.4 1.9-1.6 2.7-.2 1.1.6 1.9 1.7 1.6.7-.2 1.7-1.1 1.7-1.7.1-.6-.9-1.3-1.8-2.6zm125.1-140c2.4-2.1 2.6-3.1.8-4.7-1.9 1.4-2 2.5-.8 4.7zm-126 155c-.9 1.1-1.8 1.8-1.7 2.4.1.6.9 1.4 1.6 1.6.4.1 1.4-.9 1.5-1.4 0-.7-.7-1.4-1.4-2.6zm145.8-32c-.7 1-1.5 1.6-1.4 2.1.1.6.9 1.1 1.4 1.6.6-.5 1.4-1 1.6-1.6.1-.4-.8-1.1-1.6-2.1zM126.7 49.5c-.9 1.2-1.7 1.8-1.7 2.4 0 .5.9 1.1 1.4 1.6.5-.5 1.3-1 1.4-1.5.1-.6-.5-1.3-1.1-2.5zm-54 160.7c1 .7 1.7 1.4 2.1 1.3.6-.1 1.2-.9 1.4-1.5.1-.3-.9-1.2-1.4-1.2-.6 0-1.1.7-2.1 1.4zM235 175.9c-.6 1-1.3 1.6-1.2 2.1.1.5.8 1 1.3 1.5.5-.5 1.3-1 1.4-1.6.1-.5-.8-1.1-1.5-2zM73.5 207.8c-1.1-.6-1.7-1.2-2.2-1.2-.5 0-1.4.9-1.3 1.2.2.6.8 1.3 1.3 1.4.5.1 1.1-.6 2.2-1.4zm7.5-11.7c-.7.9-1.4 1.5-1.4 1.9.1.6.9 1 1.3 1.5.5-.4 1.3-.9 1.3-1.3.1-.6-.6-1.1-1.2-2.1zm-19.4 34.1c.9.6 1.5 1.3 1.9 1.2.6-.1 1-.9 1.4-1.3-.5-.4-1-1.1-1.6-1.2-.4-.1-.9.6-1.7 1.3zm1.4 3.7c1.2.7 2.2.9 3-.2.2-.3-.2-1.3-.5-1.5-1.6-.6-1.9.8-2.5 1.7zm64.1-176.3c.1-.9.6-2.2-1.1-2.1-.3 0-.7.8-.6 1.1.3.9.8 1.7 1.3 2.6.2-.2.6-.3.6-.6 0-.2-.1-.6-.2-1zM65.5 33.7c-.6.7-1.3 1.2-1.2 1.6.1.5.8.9 1.2 1.4.4-.4 1.1-.8 1.1-1.3s-.6-1-1.1-1.7zm9 184.1c.8.5 1.2 1.2 1.7 1.1.4 0 1.1-.7 1.1-1.1 0-.4-.7-1.1-1.2-1.1-.3-.1-.8.5-1.6 1.1zm8.2-9.4c.4.1.7.3 1.1.4.4-.8.8-1.7 1.2-2.5-.5-.2-.9-.4-1.4-.6l-.9 2.7zM46.4 58.1c.7.5 1.3 1.2 1.6 1.1.5-.1.9-.8 1.3-1.2-.4-.4-.8-1-1.3-1-.4-.1-.9.5-1.6 1.1zm199.7 178c.7.6 1.2 1.2 1.7 1.2.4 0 1.2-.7 1.2-1.1 0-.4-.7-1.1-1.1-1.2-.5-.1-1 .5-1.8 1.1zM55.6 47c-.8-.5-1.3-1.1-1.7-1-.4.1-.8.7-1.2 1.1.4.4.8 1 1.2 1.1.4 0 .9-.6 1.7-1.2zm176.7 127.1c.9.5 1.4 1 1.8 1 .4 0 .8-.7 1.1-1-.4-.4-.8-1-1.2-1.1-.3 0-.8.6-1.7 1.1zm10.4 35.5c-.5.8-1 1.3-1 1.8 0 .4.8 1 1 .9.5-.1 1.1-.7 1.1-1.1.1-.4-.5-.9-1.1-1.6zM48.7 52.9c-.5.8-1 1.3-1 1.8 0 .3.7.9 1.1.9.4 0 1.1-.6 1.1-1-.1-.5-.6-.9-1.2-1.7zm14.5 160c-.8-.5-1.3-1.1-1.8-1-.4.1-.8.7-1.2 1.1.4.3.8.9 1.2.9.5 0 1-.5 1.8-1zm66.6-165.7c.7.4 1.2.9 1.5.8.5-.2.8-.8 1.2-1.2-.4-.4-.9-1-1.3-1s-.8.8-1.4 1.4zm-76.4 9.4c.7.5 1.1 1.1 1.5 1.1.4 0 .8-.6 1.2-1-.4-.4-.7-.9-1.1-1-.4 0-.8.5-1.6.9zm21.8 145.8c.6.6 1 1.1 1.4 1.2.4 0 1-.6 1-.9 0-.4-.5-1.1-.9-1.1-.2-.2-.7.3-1.5.8zM235.8 148c-.5.7-1.1 1.1-1 1.5 0 .4.6.8.9 1.1.4-.4 1-.7 1.1-1.1.1-.3-.5-.8-1-1.5zm8 35.3c-.4.8-.9 1.2-.8 1.6.1.4.7.7 1.1 1 .3-.4.9-.8.9-1.2-.1-.4-.7-.8-1.2-1.4zM49.8 36.6c.7.6 1.1 1.1 1.5 1.1.4 0 1-.6 1-.9 0-.3-.5-1-.9-1-.4-.1-.9.4-1.6.8zm183.7 146.7c-.5.6-1.2 1.1-1.1 1.4.1.5.7.8 1.1 1.2.3-.4.9-.7 1-1.1 0-.4-.5-.9-1-1.5z"/>
    <path d="M71.4 190.1c1.1-1.7 3.9-1.6 4.5-4 .1-.4.9-.6 1.5-.8.1 0 .7.5.7.7-.2.5-.5 1-.8 1.4-1 1.2-2.2 2.3-2.9 3.6-.7 1.5 1 3.5 3 4 .3.1.6.1.9.5-.4.1-.9.2-1.3.2-2.6.1-4 1.9-3.4 4.3.1.4.7.8 1 .8 2.9.5 5.8 1.1 8.6-.1.3-.1.7-.1 1.4-.1-.4.5-.5.9-.8.9-2.3.4-4.6.7-6.9 1-.8.1-1.7 0-2.2.4-.7.5-1.8 1.5-1.7 2 .2.8 1.3 1.4 2.1 1.9.7.5 1.5.8 2.3 1.2-.1.2-.1.4-.2.6-.5 0-1.1.2-1.5 0-1.8-.6-2.5.7-2.6 1.9-.2 1.2-.5 2.9 1.6 3.2 1.2.2 2.4.7 3.5 1 0 .2-.1.3-.1.5-1.2-.3-2.4-.5-3.6-.9-1.5-.5-2.4-.4-2.9 1.4-.5 1.5-1.5 2.9-.4 4.5.5.8 1.1 1.5 1.6 2.6-.8-.4-1.8-.5-2.4-1.1-1.3-1.1-3.5-1.3-4.8-.1-.9.8-.8 2.2.2 3.2 1.1 1.1 2.1 2.3 3 3.7-2.9-.5-2.9-4.7-6.4-4.6.3.7.6 1.1 1 2.1-.8-.2-1.2-.3-1.6-.5-.8-.5-1.5-1.2-2.4-1.4-.9-.3-1.9-.1-2.9-.1.2.7.4 1.5.6 2.2.1.3.1.5.2.8-.1.1-.3.2-.4.3-.5-.6-1.2-1.1-1.4-1.7-.3-1.6-1.4-1.5-2.6-1.5-1.4 0-1.2.9-1.4 1.8 0 .2-.2.4-.3.5-.9-1.1-1.7-2.1-2.5-3.1-1.5-1.8-1.5-1.7-2.8.2-.1.2-.4.3-.7.4-.4-1.1-.5-2.5-1.2-3.1-.7-.6-2.1-.4-3.4-.5 0-.1.3-.5.3-.9.1-1.1.2-2.3-1.6-2.4-1.3-.1-2.2-1.6-1.3-2.6 1.3-1.5.7-2.6 0-3.9-.2-.4-.2-.8-.2-1.3H34c2-.3 3.1-1.2 2.5-3.3.6-.3 1.1-.5 1.6-.7.3-2.8-2.5-.9-3.4-2.5.9 0 1.6-.2 2.3-.1 1.4.1 2.1-.5 2.5-1.7 1.1-2.8.3-5-2.3-6.4-.4-.2-.5-.8-.7-1.3.4 0 1 0 1.3.2 1.7.8 3.2 1.9 4.9 2.6 1.2.5 2 .2 2.1-1.4.1-1.9.5-3.8.7-5.7.1-.7-.1-1.5 0-2.2.1-.8.4-1.6.5-2.4.2-.8.3-1.5.7-2.3l.3 3.3c.6 0 1.2.1 1.8.1.2.7.4 1.5.6 2.3h4.1c2.6-3.8 2.6-8.2 2.8-12.5.2 0 .5 0 .7.1-.2 3.9-.4 7.7-.6 11.6 2.1.7 3-.2 2.8-3.1.5-.2 1-.5 2-1-1.2-.3-1.9-.5-3-.7.6-.6 1-1.5 1.5-1.5 2.5-.3 3.5-1.8 3.9-4 .1-.5.2-1.1.5-1.4.4-.3 1.1-.4 1.6-.3.6.1 1.2.5 1.8.7 1 .4 2.1.8 3.2 1.2 1.2.6 2-.1 2.3-1 .3-.8.3-1.9 0-2.8-.2-.8-1.4-1.7-1.2-2.1.5-1.1 1.4-2.3 2.5-2.9 2.1-1.2 3.7-2.5 3.9-5.1.2-2.2 3.7-3.8 5.9-2.7.9.4 1.8.9 2.6 1.5 1.2.8 1.7 3 .7 4-1.2 1.3-2.6 2.6-4.1 3.6-2.2 1.5-2.3 1.9-1.4 4.4.4 1.1 0 2.1-1.4 2.3-1.5.3-3.2 2.1-3.2 3.7 0 .6.4 1.8.6 1.8.7.1 1.6-.2 2.2-.7 1-.7 1.9-1.6 3.1-2.6.1.5.3.8.2.9-1.2 1.7-2.4 3.4-3.9 4.9-.3.3-1.9-.3-2.5-1-1.5-1.6-3.5-.5-5.1-1.1-.2.7-.8 1.5-.7 2.1 1.1 3.4 1.2 3.3.2 6.1zM30.4 166.9c-.5.4-1.1.7-1.5 1.1-.7 1.1-2.1 1.3-2.4.3-.6-1.7-1.9-2.4-3.2-3.1-2.3-1.2-4.1-3.6-7.1-3.5-.3 0-.6-.8-1-1.2.7-.3 1.4-.9 2-.8 1.4.3 2.7.9 4.4 1.6-.4-1-.6-1.7-.9-2.3.4-.6.7-1.2 1.2-2-1.3-.5-2.3-.9-3.5-1.4 2.6-.1 3.6-1.6 3.3-4.3 1.8-.4 3.7-.7 5.4-1.3.6-.2 1-1.2 1.2-2 .3-1.3.2-2.6.3-3.9.2 0 .4 0 .6.1-.1 1.2-.2 2.4-.4 3.8 1.6-.3 2.8-.5 4-.7-.1-.1-.1-.2-.2-.3.8-.6 1.5-1.1 2.3-1.6 1.7-1.1 1.9-2.6 1.8-3.9 2.2-.6 4.2-1.2 6.3-1.8 0 1.2.2 2.5-1.1 3.5-1.1.9-.4 4.4 1.2 6 .6-1.5 1.2-2.9 1.9-4.3.1.4.1.9.2 1.4h1.4c0 1 .1 1.9.1 3.2 2.6-1.1 5-2.1 7.4-3.1 0 .1.1.2.1.3-1.3.8-2.6 1.6-3.4 2.1-.3 1.3-.5 2.1-.8 3.3.1.2.3.9.7 1.8h5.5c-1.1 1-3.2-.2-3.5 1.9 1.1.5 2.1 1 3.4 1.6-1.8.3-3.3.5-4.7 1-.5.2-1.1.9-1.2 1.5-.1.4.5 1.1 1 1.3 1.3.5 2.6.8 3.9 1.5-.9-.1-1.8-.2-3-.3.4.7.7 1.2 1 1.7-2.6 1.2-4.4-1.1-6.9-1.5 1 4.3 3 7.5 6.5 9.8.9.6 1.4 1.6 1.9 2.7-4.5-3.5-7.8-8.5-14-10 .1 3.1 3.7 2.8 4.7 4.8-.3.2-.4.4-.5.4-.4 0-5.5-2.7-5.8-3-1.5-1.9-4.4-2.9-6.7-2.1-.7.2-1.1 1.1-1.6 1.7h-.3zM44.8 182.4c-.2.3-.4.9-.7 1-1.3.4-2.7 1-4 .9-2.8-.4-4.2 2.2-6.5 2.7 0 0-.1.1-.1.2-.2 3.6-3.8 2.8-5.7 4.3-1.3 1-2.5 1.9-4.1 2-.2 0-.4.2-.4.3-.4 2-2.6 2-3.8 3-2.8 2.2-5 1.3-7.8-.5-1.9-1.2-2-4.6-.5-6.3.9-1 1.5-2.4 2.6-2.9 1.2-.5 3.3-.9 4.1-.2 1.8 1.6 3.7 1.1 5.5.8 2.8-.4 5.5-1.2 8.2-2 2.6-.8 5.2-1.9 7.8-2.7 1.7-.5 3.5-.7 5.3-1-.1 0 0 .2.1.4zM76.9 114.4c1.1-.1 2-.3 2.5-.3.6 1.4.9 2.8 1.7 3.9 1 1.5 1 2.7 0 4.1-1 1.3-3 1.8-4.3 1-.9-.6-1.8-1.4-2.4-2.4-.3-.5-.1-1.9.3-2.1 1.7-1 2-2.5 2.2-4.2zM14.5 178.7c-1.1-.1-2.5-.2-3.9-.5-1.9-.4-3.1-3.2-2.1-4.8.8-1.2 3.5-.8 4.9.6.7.7 1.5 1.2 2.4 1.6 1.1.5 1.7-.1 1.7-1.2 0-.6-.1-1.3.1-1.9.1-.4.5-.8.9-1 .1-.1.7.1.8.3.1.4.3 1.2.1 1.3-1.4 1-1.3 2.4-1.4 3.9-.2 2.2-1.9 1.6-3.5 1.7z"/>
    <path d="M63.9 172c-.5.9-1.6 1-2.9.2-.9-.6-1.1-1.7-.2-2.2.8-.4 1.9-.1 2.9.2 1.3-.5 2.4-2.5 4.1-.9.5.5.1 1.9.1 2.9-1.1 0-2.4-.1-4-.2zM148.8 268.7c0-1.4 1.3-2.6 2.8-2.5 1.5.1 2.5 1.2 2.4 2.6 0 1.4-1.2 2.5-2.6 2.5-1.4 0-2.6-1.2-2.6-2.6zM30.6 171.2c1.9 1.5 2 2.4.6 3.8-.5.4-.7 1.1-1 1.7-.8-.1-1.7-.2-2.6-.3-.4-.1-1.1-.2-1.1-.5-.1-.4 0-1.1.3-1.3 1.3-1.3 2.6-2.4 3.8-3.4zM25.9 199.6c1.3-.4 2.4-.8 3.6-.9.5 0 1.4.5 1.6 1 .5 1.1.5 2.4-.9 3-1.8.9-3.3-.1-4.3-3.1zM272.5 155.3c-.2.9-.3 1.8-.5 2.7.8.9 3.1.5 2.7 2.4-.2.8-1.3 1.4-2 2.1-.2-.1-.4-.1-.6-.2-.4-1.8-.8-3.6-1-5.4-.1-.6.6-1.2 1-1.9 0 .2.2.3.4.3zM80.9 156c.1 2-2.8 4.5-4.5 3.8-.3-.1-.5-1.2-.3-1.6 1-1.8 2.2-2.3 4.8-2.2zM58.4 170.7c-1.8-.3-2.1-1.2-2.1-2.3 0-1.2.3-2.1 1.8-2.1 1.4 0 2.4.7 2.2 2-.3.9-1.3 1.6-1.9 2.4zM277.2 176.5c-2.2-.1-3.3-1.3-4.2-2.6-.4-.7-1.1-1.7.2-2.1.6-.2 1.7.3 2.1.9.8 1 1.2 2.3 1.9 3.8zM62.6 158.1c-1-.2-1.7-.4-2.5-.4-.7-.1-1.4 0-2.1-.4 1.9.1 3.8 0 5.5.5.6.2.7 1.9 1.1 2.9-.5.2-1.1.5-1.5.4-.4-.1-.8-.7-.9-1.1 0-.7.2-1.2.4-1.9zM71 160.5c.8.9 1.8 1.6 1.7 1.8-.3.7-1.1 1.3-1.7 1.9-.6-.6-1.4-1.1-1.7-1.9-.1-.2.9-1 1.7-1.8zM75.9 113.8c-.4 1.4.4 3.1-1.6 3.3-.5.1-1.6-.9-1.6-1.4.2-1.8 1.7-1.6 3.2-1.9zM47.7 176.7c-.3-1.8-.6-3.5-.9-5.3 2.1-.2 2.7 2.4.9 5.3zM160 250.1c.6 1.1 1.3 1.7 1.2 2.2-.1.5-.9.9-1.4 1.4-.5-.5-1.3-1-1.3-1.5-.1-.5.7-1.1 1.5-2.1zM60.7 84.4c-.6-.9-1.3-1.5-1.2-1.8.2-.5.9-1.3 1.4-1.3.5 0 1.3.7 1.4 1.2 0 .5-.8 1-1.6 1.9zM161.4 259.5c.5.9 1.2 1.5 1.1 2-.1.5-.9.8-1.3 1.3-.4-.5-1.1-1-1.2-1.4 0-.6.7-1.1 1.4-1.9zM134.1 254.9c-.8.5-1.3 1-1.8 1-.5-.1-.8-.7-1.3-1.1.5-.4.9-1 1.4-1.2.4 0 .9.7 1.7 1.3zM74.6 107.6c1 .7 2 1.3 2.9 2.1.1.1-.1.9-.2.9-.5 0-1.2 0-1.5-.3-.6-.7-1-1.6-1.4-2.4.1-.1.2-.2.2-.3zM140.8 254c-.7.5-1.2 1.1-1.5 1-.4-.1-.9-.7-1-1.2 0-.2.7-.9 1.1-.9.4 0 .8.6 1.4 1.1zM151.6 261.7c-.7.6-1 1.1-1.4 1.1-.4 0-1.2-.6-1.1-.9.1-.5.5-1.1 1-1.2.3 0 .8.6 1.5 1zM76 84.8c.9 1 1.4 1.4 1.3 1.5-.3.4-.7.8-1.1 1-.2.1-.8-.5-.9-.9 0-.4.4-.8.7-1.6zM200.4 128.3c.3.6.7 1.1 1 1.7-.1.2-.2.3-.3.5-.6-.2-1.3-.2-1.6-.5-.2-.4.1-1.1.1-1.6.3-.1.5-.1.8-.1zM250.8 200.6c-.6-.1-1.4 0-1.9-.3s-.8-1-1.1-1.6c0-.1.5-.7.7-.6.7.2 1.5.3 2 .8.3.3.1 1.2.3 1.7z"/>
    <path d="M98.4 242.4h-51c-1.2 0-2.3.2-3.1-1.3-.6-1-1.9-.9-2.8.1-1.2 1.3-4.3 1.6-6 .8-.5-.3-1.5-.3-2-.1-1.5.7-1.8.6-1.9-1.1v-19.2c0-1.7-.1-3-2.2-3.4.6.1 1.2.2 2.2.3v-2-39.2c0-1.3.1-2.6-.1-3.8 0-.5-.5-1-.8-1.4-.9-1.1-1.3-2.2.1-3.2.4-.3.7-.8.8-1.2.1-4.8 0-9.5 0-14.8-.5.7-.7.9-.8 1.1-.2 1.2-.9 1.5-2.1 1.4-1.5-.2-1.5-1.4-1.6-2.4-.2-1 .3-1.7 1.6-1.9 1.7-.3 2.8-1.8 2.8-3.1.2-6.6.1-13.3.1-20.1-.6 0-1.2.1-1.7 0-.6-.2-1.2-.6-1.7-1 .4-.6.8-1.2 1.2-1.7.1-.1.4 0 .5-.1.6-.4 1.1-.7 1.7-1.1-.5-.4-.9-.8-1-.8.4-1.1.9-2.1 1-3.1.2-2 0-4 0-5.9-.2 0-.4-.1-.6-.1-.2 1.1-.5 2.1-.9 3.8-1.2-1.1-2.1-1.8-2.8-2.6-1.4-2-2.6-4.1-4.2-6-.8-.9-2.2-1.3-3.3-2h-.2c-1.5-1.7-2.9-.6-4.3.3-1.4.9-3.1 1.6-3.3 3.7 0 .4-.8.9-1.1.9-.5-.1-1.1-.6-1.2-1-.1-.3.3-1.1.7-1.3l4.8-2.7c.9-.5 1.1-.9.1-1.8-2.2-2-2-3.9.4-5.6.2.6.3 1.5.7 1.7 1.5.8 3.1 1.5 4.7 1.8.5.1 1.3-.9 1.8-1.4-.8-1-1.5-1.8-2.1-2.6-.6-.9-.3-1.4.8-1.5 1.8-.1 2.5-1.5 1.5-3-.4-.6-.8-1.3-.9-2-.1-.7 0-2 .2-2 .9-.1 2.1-.2 2.6.2 1.1 1.3 3.3 2.3 1.9 4.7 0 .1 0 .3.1.4 1.4 1.5 1.1 3.2 0 4.7 1.5.1 2.8.2 4.7.4-1-.9-1.8-1.5-2.6-2.2 0-.1.1-.2.1-.3.6.1 1.2.3 2 .5V74.5c-1.7.9-3.3 1.5-3.6 3.6-.1.4-.9 1-1.4 1-.4 0-1.1-.6-1.1-1s.5-1.2.9-1.3c4.2-1.4 6.3-3.9 5.5-8.5-.4-2.1-.1-4.4 0-6.6 0-1.4.2-2.8.4-4.5 1.4-.1 2.8-.6 2.1-2.8 1.3-.7 2.7-1.3 1.8-3-.8-1.5-2.1-1.4-3.5-.4-.3-1-.6-1.9-1-3.2 1.8.8 3.3 1.5 4.5-.3.9-1.5 0-2.5-.6-2.9-.2-1.5 0-2.8-.5-3.4-.5-.6-1.8-.4-3.1-.6v-7.5c0-1.3 1-1.1 1.8-1.1h25.8c1.5 0 2.9-.1 3.3 2.1.1.7 1.5 1.4 1.2 2.6-.2.6-.3 1.3-.6 1.7-1.2 1.5-2.6 2.9-3.8 4.4-.3.4-.2 1-.3 1.5.5-.2 1.2-.2 1.6-.5.7-.7 1.3-1.5 2-2.3.2.2.4.3.6.5-1.4 1.7-2.7 3.3-4.1 5 .1.1.2.3.3.4 1.6-.5 3.3-1.1 4.9-1.6-.5 1.6-1 3-1.3 4.5 0 .1.7.4 1.2.6-.6 1.3-1.1 2.7-1.7 4.1l.6.3c.7-1.4 1.4-2.7 2.1-4.1.4-.8.9-2.1 1.5-2.1 1.6-.1.8 1.4.8 2.2.2 1.9.1 3.9.1 5.8h-.5c-.1.1-.2.2-.3.2-.8-.1-2-.6-2 .8 0 .5.6 1.3 1 1.4 1.1.1 2-.2 2.3-1.6.3-2.2 1-4.4 1.5-6.6.2 0 .5 0 .7.1.1.9.3 1.7.4 2.6.1 0 .2.1.3.1.2-.8.3-1.5.5-2.3.2-.7.8-1.9.9-1.9 1.1.3 2.2.6 3 1.3.5.4.7 1.3 1 2 .2-.1.4-.1.6-.2-.5-1.8-1-3.7-1.6-5.8.8.2 1.6.3 2.5.5 0-.4-.1-.7-.1-1.1.4 0 .9 0 1.3.1 0-.1.1-.2.1-.3-1-.6-1.9-1.2-2.9-1.8.1-.2.1-.3.2-.5 1.2.1 2.5-.5 3.7.8.6.6 1.9.6 3 1-.2-1.9-1.7-3.5.1-5.2-3.6-.2-5.1-2.5-5.5-5.9 1.5.3 2.7.6 4 .8.1-.2.1-.4.2-.6-1.9-.6-3.8-1.3-5.7-1.9.1-.3.2-.6.2-.9h18.2c.5 0 1.4.6 1.4 1 .3 2.9 2.8 4.9 5.5 4.8 2.8 0 4.6-2 5.3-5.3 0-.1.1-.2.2-.5h10c.8 3.6 1.8 4.9 4 4.7 2.1-.2 3.1-1.6 3.4-4.8h15.9c.4 0 1 .6 1.2 1.1.9 2.4 2.7 3.9 5 4 2.2.1 4.4-1.4 5.2-3.8.3-1 .8-1.4 1.9-1.4 15.3.1 30.5.1 45.8.1 14.3 0 28.7 0 43-.1 2.6 0 4.1-1.7 3.9-4.3 0-.5 0-1.2.3-1.5 3.7-3.3 4.9-2.6 4.3-.9-.6 1.7-.9 3.3-2.4 4.7-1.1 1.1-1.5 3.1-1.5 4.7-.1 11.2-.1 22.4-.1 33.5 0 .2.1.3.2.5 2.3-.9 4.5-1.8 6.8-2.7.1.2.1.4.2.5-1.7.8-3.5 1.5-5.2 2.3-1.5.6-2 1.6-1.9 3.2.1 4.2 0 8.5 0 12.6 2.7-1.4 5.2-2.7 7.1-3.7-.3 1.5-.7 3.5-1 5.5-.3 1.9-2.8 3.2-4.4 1.7-.5-.4-1-.9-1.7-1.5 0 .7-.1 1.3-.1 1.9 0 8.2.1 16.5-.1 24.7 0 2 .8 2.8 2.6 3 1.4.2 2.9.3 4.4.7-2 1.7-4.4.5-6.6 1-.2 1.3-.2 1.3 1.3 1.3h5.3c.1-.1.9-.6 1.4-.4.4.1.8 1 .9 1.6.1 1.4.1 2.8.1 4.2 0 .2 0 .5.1.7.9 1.4 1.9 2.7 3.1 4.4-1.9.7-3.4 1.2-4.9 1.6-.4.1-1-.1-1.4-.3-.8-.6-1.7-1-1.9.2-.2.9.1 2.6.5 2.7 2.7.7 5.6 1.4 8.4 1.5 1.8.1 2.7-1.4 2.3-3.3-.4-1.9.2-3.4 1.4-4.8.4-.5.4-1.3.6-2-.7.1-1.5 0-2 .3-1.5.8-2.4.5-2.5-1.3-.2-2.4 0-4.7 0-7.1 0-1.2-.2-2.4-.4-3.6-.4-2.5-2.3-3.3-4.5-2.1-.5.3-.9.7-1.4 1-.4.3-.8.5-1.2.7-.2-.1-.3-.3-.5-.4 1.1-1.6 2.2-3.3 3.4-4.8.9-1.2 1.8-2.3 2.9-3.3 1-1 2.1-.9 2.9.3.4.6.8 1.3 1.3 1.9.4.4 1.2.9 1.5.8 2.1-1.1 4.1.5 6.2.2 2-.3 4.2.1 6.3.4.6.1 1 1 1.5 1.5-.6.1-1.2.3-1.8.2-2.4-.6-4.9.9-5.9 3.9-.1.2-.1.5-.1.9-1.7-.4-3.2-.7-4.9-1.1-.4 2-.2 3.7 1.7 5 1.9 1.2 2.8 3.1 3.1 5.2.2 1.1.5 1.7 1.8 1.6 1.6-.1 2.7.8 2.7 2.3 0 1.5-1.2 2.2-2.8 2.3-.5 0-1 .1-1.5.1v4c0 2.5-1.6 3.9-3.8 4.4-2.3.6-4.8.8-7.1 1.2-.9.1-1.6 0-2.2 1-.7 1.1-2 .8-2.6-.3-.7-1.4-1.8-1.4-3.1-1.1-2.4.5-4.5 3.1-4.5 5.5v4.8c2.7-3.4 6.6-2.6 9.7-4.1.7 2-.6 2.5-2.2 2.8 1 2.2.4 3.9-1 5.6-.7.8-1 2.1.4 2.9.2.1.2.6.3 1.2-2.9-2.1-6.6-3-6.7-7.5-1 2.6-.7 7.1.3 7.8-.3 1.2-.7 2.4-1 3.6.2.1.3.2.5.4.9-.5 1.8-.9 2.9-1.5-.8 1.3-1.4 2.4-2.1 3.4 1.5 1.6 2.9 1 4.3.2 0 .2.1.3.1.5-1.4.8-2.7 1.9-4.2 2.4-1.4.5-1.4 1.4-1.4 2.5V221.7c-1.7 0-3.4.2-3.3 2.2.1 1.8 1.5 2.3 3.3 2v17c-.7-.3-1.2-.4-1.6-.8-1.5-1.2-2.9-1.2-4.5-.1-.6.4-1.5.7-2.2.7-6.9.1-13.7 0-20.6 0-2.8 0-4.1-1.4-4.1-4.2.9.3 1.8.5 2.6.8.1-.1.1-.2.2-.4-.4-.3-.8-.6-1.3-.9-.3-.2-.8-.2-1-.5-.8-.8-1.5-1.7-2.2-2.5 1-.5 2-1.1 3.2-1.7-1.6-.9-3.5-2-5.5-3.2.9-.8 1.7-1.6 2.8-2.6-1.5.1-2.7.5-3.5.1-.7-.3-.9-1.6-1.3-2.5-.1.1-.4.4-.8.9-.5-.8-.9-1.6-1.4-2.5-.7 1.4-1.6 2-3.3.8-.6-.4-2.1.2-3 .5-.7.2-1.2.9-2.1 1.5.3 1.2-.9 1.3-2.2 1.4.3.6.5 1 .7 1.5-.7.3-1.3.6-2.2 1 .6.4 1 .6 1.5 1-.2.3-.4.5-.6.7-1 1.1-2.1 2.2-3.2 3.3-.5-.1-1.2-.4-1.4-.2-.6.5-1.3 1.4-1.2 1.9.1.5 1.2.9 1.9 1.3.4-.7 1-1.3 1.3-2 .1-.3-.4-.7-.6-1.1 1-.2 2.1-.3 3.1-.5.1.1.3.2.4.4-.6.9-1.2 1.8-1.7 2.6 1.1.3 2.3.6 3.8.9-.7 1.2-1.1 1.9-1.7 2.8 1.2-.5 2-.9 2.9-1.3.2.7.3 1.3.5 2.3.7-.4 1.3-.8 2-1.3.8 1 .7 1.8-.6 1.7-5.4-.1-10.7-.3-16.1-.4-.7 0-1.4.2-2 .2-1 0-2-.2-2.9-.5-1.2.3-2.5.6-3.9 1-.4-1.9-.9-3.6-2.8-3.1-1.1.3-1.9 1.8-3 2.9.6-1.5 1.2-3.2-.5-3.9-1-.4-2.5.1-3.7.2 0 .2 0 .4-.1.6-.2-.3-.4-.7-.7-.8-.4-.2-.9-.5-1.3-.4-.3.1-.6.7-.6 1 0 1 .1 2.1.2 3.2h-11.3l-2.3-2.3c-.5.6-1.1 1.3-1.6 1.9.1.2.2.3.4.5-2.9.3-5.9-.5-8.9 0-3 .4-6.1.1-8.7.1-.6-.8-1-1.4-1.4-1.9-.5.6-.9 1.2-1.8 2.3-.8.5-2.3 1.3-3.7 2"/>
  </g>
  <g fill="#FFF" stroke="#FFF" stroke-miterlimit="10" stroke-width=".7087">
    <path d="M57.7 102.1c0 .4-.4.7-.8.6-.4 0-.7-.4-.7-.8L57 95s0-.1.1-.2l.5-4.6s.3-2.6-1-4.3c-.8-1-1.9-1.5-3.5-1.7L44 83.1l-2 17.2c0 .4-.4.7-.8.6-.4 0-.7-.4-.7-.8L44.2 68c0-.4.4-.7.9-.7.4 0 .7.4.6.9l-1.5 13.3 9.1 1.1c1.4.1 2.5-.2 3.4-1 1.1-.9 1.8-2.5 2-3.9.2-1.6.2-1.7.2-1.7l.7-6.2c0-.4.4-.7.9-.7.4 0 .7.4.6.9-.8 6.9-.8 7-.8 7l-.3.9c0 .3-.4 3.2-2.6 4.9-.4.3-.7.5-1.2.7.6.4 1.1.9 1.5 1.4 1.1 1.5 1.5 3.5 1.3 5.4l-.6 4.9-.7 6.9zM82.1 78.9l-3 25.8c0 .4-.4.7-.8.6-.4 0-.7-.4-.7-.8l1.6-13.4-14.3-1.7-1.6 13.4c0 .4-.4.7-.9.6-.4 0-.7-.4-.6-.8l3-25.9c0-.3.4-3.2 2.5-4.9 1.3-1 2.9-1.5 4.9-1.2l4.1.5c2 .2 3.5 1 4.5 2.3 1.1 1.5 1.5 3.6 1.3 5.5zm-2.8 10.7l1.3-11c0-.3.3-2.6-1.1-4.3-.7-1-1.9-1.6-3.4-1.8L72 72c-1.5-.2-2.8.2-3.8.9-1.1.9-1.8 2.5-2 3.9l-1.3 11 14.4 1.8zM101 91.8c-1.3 1-2.9 1.5-4.9 1.2l-9.2-1.1-1.6 13.4c0 .4-.4.7-.9.6-.4 0-.7-.4-.6-.8l3-26c.1-.5.5-3.2 2.5-4.9 1.3-1 2.9-1.5 4.9-1.2l4.1.5c2 .2 3.5 1 4.5 2.3 1.1 1.5 1.5 3.6 1.3 5.4l-.1.8-.5 4.7c0 .5-.4 3.3-2.5 5.1zm1.1-5.1l.2-1.7.4-3.8s.3-2.5-1.1-4.3c-.8-1-1.9-1.6-3.4-1.8l-4.1-.5c-1.5-.2-2.8.2-3.8.9-1.1.9-1.8 2.5-2 3.9l-1.3 11 9.2 1.1c1.5.2 2.8-.2 3.7-.9 1.3-.9 2-2.5 2.2-3.9zM130.5 78.1l-3.7 32.1c0 .4-.4.7-.8.7s-.7-.4-.7-.9l3-26.3.6-2.4-.9 2.4-11.3 25.5c0 .3-.5.5-.8.4-.5-.1-.6-.6-.6-.6l-5.2-27.4-.3-2.5v2.4l-3 26.3c0 .4-.4.7-.9.7-.4 0-.7-.4-.7-.9l3.7-32.1c0-.4.5-.7.9-.6.3 0 .5.3.6.6l1.9 10.1 3.9 20.7 9.5-21.5 3.2-7.1c.1-.3.4-.5.8-.4.5.1.9.3.8.8zM151.9 87l-3 25.8c0 .4-.4.7-.8.6-.4 0-.7-.4-.7-.8l1.6-13.4-14.3-1.7-1.6 13.4c0 .4-.4.7-.9.6-.4 0-.7-.4-.6-.8l3-25.9c0-.3.4-3.2 2.5-4.9 1.3-1 2.9-1.5 4.9-1.2l4.1.5c2 .2 3.5 1 4.5 2.3 1.1 1.5 1.5 3.6 1.3 5.5zm-2.8 10.7l1.3-11c0-.3.3-2.6-1.1-4.3-.7-1-1.9-1.6-3.4-1.8l-4.1-.5c-1.5-.2-2.8.2-3.8.9-1.1.9-1.8 2.5-2 3.9l-1.3 11 14.4 1.8zM170.9 115.3c0 .4-.4.7-.8.6-.4-.1-.7-.4-.7-.8l2-17.2-14.3-1.7-2 17.2v.1c0 .3-.4.6-.8.5-.4 0-.7-.4-.7-.8l3.7-32.1c0-.4.4-.7.8-.7.4.1.7.4.7.9l-1.6 13.4 14.3 1.7 1.6-13.4c0-.4.4-.7.9-.7.4 0 .7.4.7.9l-3.8 32.1zM193 117.9c0 .4-.4.7-.8.6-.4-.1-.7-.4-.7-.8l2-17.2-14.3-1.7-2 17.2v.1c0 .3-.4.6-.8.5-.4 0-.7-.4-.7-.8l3.7-32.1c0-.4.4-.7.8-.7.4.1.7.4.7.9l-1.6 13.4 14.3 1.7 1.6-13.4c0-.4.4-.7.9-.7.4 0 .7.4.7.9l-3.8 32.1zM215.8 114.3c-.1.5-.5 3.2-2.5 4.9-1.3 1.1-2.9 1.5-4.9 1.2l-4.1-.5c-2-.2-3.5-1-4.5-2.3-1.1-1.5-1.5-3.5-1.3-5.4l3-25.8c0-.4.4-.7.9-.7.4 0 .7.4.6.8l-1.6 13.4 9.2 1.1c2 .2 3.5 1 4.5 2.4 1.1 1.4 1.5 3.5 1.3 5.4l-.2 1.7-.4 3.8zm-1.5-.2l.1-.9c.5-4.7.6-4.7.6-4.7 0-.3.3-2.6-1-4.2-.8-1-2-1.5-3.5-1.7l-9.2-1.1c-1.3 10.9-1.3 11-1.3 11 0 .3-.3 2.6 1.1 4.3.8 1 1.9 1.6 3.4 1.8l4.1.5c1.5.2 2.8-.1 3.8-.9 1.1-1.1 1.8-2.6 1.9-4.1zm4.5 6.8c0 .4-.4.7-.9.6-.4 0-.7-.4-.7-.8l3.7-32.1c0-.4.4-.7.9-.7.4 0 .7.4.6.8l-3.6 32.2zM240.9 123.4c0 .4-.4.7-.8.7s-.7-.4-.7-.9l3.3-28.4.3-1.6-.9 1.6-15.9 25.5-.9 1.5c-.2.2-.4.4-.7.4 0 0-.1-.1-.2-.1h-.1c-.4 0-.7-.4-.7-.9l3.7-32.1c0-.4.4-.7.9-.7.4 0 .7.4.7.9l-3.3 28.4-.3 1.6.9-1.6 14.6-23.6 2.2-3.5c.1-.2.4-.4.7-.4 0 0 .1.1.2.1h.1c.4 0 .7.4.7.9l-3.8 32.2zm-8.8-38.6c-.2-.2-.2-.4-.2-.6 0-.2.1-.4.3-.5.2-.1.4-.2.5-.1.2 0 .4.1.5.3l.5.6s1 1.2 2.3 1.4c.7.1 1.5-.2 2.2-.8l.7-.6c.2-.1.4-.2.5-.1.2 0 .4.1.5.3s.2.4.2.6c0 .2-.1.4-.3.5l-.6.6c-1 .8-2.1 1.2-3.4 1.1-2-.3-3.2-1.9-3.3-2l-.4-.7z"/>
  </g>
  <g fill="#FFF" stroke="#FFF" stroke-miterlimit="10" stroke-width="1.055">
    <path d="M60.4 140c0 .2-.3.4-.5.4s-.4-.3-.4-.5l.5-4.5v-.2l.3-3s.2-1.7-.7-2.8c-.5-.6-1.2-1-2.3-1.1l-5.9-.7-1.3 11.1c0 .2-.3.4-.5.4-.3 0-.5-.3-.4-.5l2.4-20.7c0-.3.3-.5.6-.4.2 0 .4.3.4.5l-1 8.6 5.8.7c.9 0 1.6-.2 2.2-.6.7-.6 1.2-1.6 1.3-2.5.1-1 .1-1.1.1-1.1l.5-4c0-.3.3-.5.6-.4.2 0 .4.3.4.5l-.5 4.5-.1.6c0 .2-.3 2-1.7 3.2-.2.2-.5.4-.8.5.4.2.7.6 1 .9.7 1 1 2.3.8 3.5l-.4 3.2-.4 4.4zM78.4 125.3L76.5 142c0 .2-.3.4-.5.4-.3 0-.5-.3-.4-.5l1-8.7-9.2-1.1-1 8.7c0 .2-.3.4-.5.4s-.4-.3-.4-.5l1.9-16.7c0-.2.3-2 1.6-3.2.8-.7 1.9-.9 3.2-.8l2.6.3c1.3.1 2.2.7 2.9 1.5.6.9.8 2.3.7 3.5zm-1.8 6.9l.8-7.1c0-.2.2-1.7-.7-2.7-.5-.6-1.2-1-2.2-1.1l-2.6-.3c-1-.1-1.8.1-2.4.6-.7.6-1.2 1.6-1.3 2.5l-.8 7.1 9.2 1zM93.1 143.8c0 .2-.3.4-.5.4-.3 0-.5-.3-.4-.5l2.3-20.2-5.1-.6c-1-.1-1.8.1-2.4.6-.7.6-1.2 1.6-1.3 2.5L84 139.7l-.1.6c-.1.9-.5 1.5-1 2-.7.5-1.6.7-2.4.6l-.5-.1c-.3 0-.5-.3-.4-.5 0-.3.3-.5.6-.4l.5.1c.2 0 1.1.1 1.7-.4.4-.3.6-.7.7-1.3l.1-.6c1.6-13.6 1.6-13.7 1.6-13.7 0-.2.3-2 1.6-3.1.8-.7 1.9-1 3.1-.8l5.6.6c.3 0 .5.3.4.6l-2.4 20.5zM109.6 145.8c0 .2-.3.4-.5.4l-4.1-.5-6.1-.7c-.3 0-.5-.3-.4-.5l1.9-16.7c0-.2.3-2 1.6-3.2.8-.7 1.9-.9 3.2-.8.4 0 .4.1.4.1l5.7.7c.3 0 .5.3.4.6 0 .2-.3.4-.5.4l-4.4-.5-1.8-.2c-1-.1-1.8.1-2.4.6-.8.6-1.2 1.6-1.3 2.5l-.5 4.6 5.6.6c.2 0 .4.3.4.5 0 .3-.3.5-.5.4l-5.6-.6-1.2 10.6 9.7 1.1c.3.1.4.3.4.6zM125.7 147.6c0 .2-.3.4-.5.4-.3 0-.5-.3-.4-.5l1.3-11.1-9.2-1.1-1.3 11.1v.1c0 .2-.3.4-.5.3-.3 0-.5-.3-.4-.5l2.4-20.7c0-.3.3-.5.5-.4.3 0 .5.3.4.6l-1 8.7 9.2 1.1 1-8.7c0-.3.3-.5.6-.4s.5.3.4.6l-2.5 20.5zM145.3 152.6c0 .2-.3.4-.5.4-.3 0-.5-.3-.4-.5l.3-2.2-13.6-1.6h-.2l-.3 2.2c0 .2-.3.4-.5.4s-.4-.3-.4-.5l.3-2.7c0-.3.3-.5.5-.4l.6.1c.3 0 1 0 1.6-.4.4-.3.6-.7.7-1.3l.1-.6 1.6-13.7c0-.3.3-2.1 1.6-3.1.8-.7 1.9-1 3.2-.8l5.6.7c.2 0 .4.3.4.5l-2.3 20.2 1.7.2c.2 0 .4.3.4.5l-.4 2.6zm-12-4.6l9.1 1.1 2.3-19.7-5.1-.6c-1-.1-1.8.1-2.4.6-.7.6-1.2 1.6-1.3 2.5l-1.6 13.7-.1.6c0 .7-.3 1.4-.9 1.8zM162.9 135.1l-1.9 16.7c0 .2-.3.4-.5.4-.3 0-.5-.3-.4-.5l1-8.7-9.2-1.1-1 8.7c0 .2-.3.4-.5.4s-.4-.3-.4-.5l1.9-16.7c0-.2.3-2 1.6-3.2.8-.7 1.9-.9 3.2-.8l2.6.3c1.3.1 2.2.7 2.9 1.5.6.9.8 2.3.7 3.5zm-1.8 6.9l.8-7.1c0-.2.2-1.7-.7-2.7-.5-.6-1.2-1-2.2-1.1l-2.6-.3c-1-.1-1.8.1-2.4.6-.7.6-1.2 1.6-1.3 2.5l-.8 7.1 9.2 1zM177.4 143.7c-.8.7-1.9.9-3.2.8l-5.9-.7-1 8.7c0 .2-.3.4-.5.4s-.4-.3-.4-.5l1.9-16.8c0-.3.3-2.1 1.6-3.1.8-.7 1.9-.9 3.2-.8l2.6.3c1.3.1 2.2.7 2.9 1.5.7 1 1 2.3.8 3.5l-.1.5-.4 3c.1.2-.1 2.1-1.5 3.2zm.7-3.3l.1-1.1.3-2.5s.2-1.6-.7-2.8c-.5-.6-1.2-1-2.2-1.1l-2.6-.3c-1-.1-1.8.1-2.5.6-.7.6-1.2 1.6-1.3 2.5l-.8 7.1 5.9.7c1 .1 1.8-.1 2.4-.6.8-.6 1.3-1.6 1.4-2.5zM192.5 154.7c-.8.7-1.9.9-3.2.8l-2.6-.3c-1.3-.1-2.2-.6-2.9-1.5-.7-1-1-2.3-.8-3.5l1.9-16.7c0-.3.3-.5.6-.4.2 0 .4.3.4.5l-1 8.6 5.9.7c1.3.1 2.2.7 2.9 1.5.7.9 1 2.2.8 3.5l-.1 1.1-.3 2.4c-.1.5-.3 2.2-1.6 3.3zm.6-3.3l.3-2.5.1-1.1c0-.2.2-1.7-.7-2.7-.5-.6-1.3-1-2.3-1.1l-5.9-.7-.8 7s-.2 1.6.7 2.8c.5.7 1.2 1 2.2 1.1l2.6.3c1 .1 1.8-.1 2.4-.6.9-.6 1.3-1.5 1.4-2.5z"/>
  </g>
  <path fill="#FFA300" stroke="#FFF" stroke-miterlimit="10" stroke-width="7.8716" d="M206.4 339.1L62.8 311.3c-11.3-2.2-18.8-13.2-16.6-24.5l20.5-105.6c2.2-11.3 13.2-18.8 24.5-16.6l143.6 27.8c11.3 2.2 18.8 13.2 16.6 24.5l-20.5 105.6c-2.2 11.4-13.2 18.8-24.5 16.6z"/>
  <g fill="#FFF">
    <path d="M66.6 302.7l140.8 26.8c6.1 1.2 12.1-2.9 13.2-9l13.5-71c1.2-6.1-2.9-12.1-9-13.2L84.3 209.5c-6.1-1.2-12.1 2.9-13.2 9l-13.5 71c-1.2 6.1 2.9 12 9 13.2zm23.2-85.2l127.4 24.2c6.1 1.2 10.2 7.1 9 13.2l-10.9 57.5c-1.2 6.1-7.1 10.2-13.2 9L74.6 297.3c-6.1-1.2-10.2-7.1-9-13.2l10.9-57.5c1.2-6.2 7.1-10.3 13.3-9.1zm-11.1-2.1"/>
    <path d="M91.7872 237.287l-10.5117-1.9988 1.9988-10.5117 10.5116 1.9988zM111.5686 241.1126l-10.5117-1.9987 1.9988-10.5117 10.5117 1.9988zM131.3688 244.84l-10.5116-1.9987 1.9987-10.5117 10.5117 1.9988zM151.1696 248.5671l-10.5117-1.9987 1.9987-10.5117 10.5117 1.9987zM170.9534 252.3935l-10.5117-1.9988 1.9988-10.5116 10.5117 1.9987zM218.4889 261.3623l-10.5117-1.9988 1.9988-10.5117 10.5116 1.9988zM199.847 257.8603l-10.5118-1.9987 1.9988-10.5117 10.5117 1.9988zM88.4958 254.8896l-10.5117-1.9987 1.9988-10.5117 10.5117 1.9988zM108.2779 258.7154l-10.5117-1.9987 1.9987-10.5117 10.5117 1.9987zM128.078 262.4429l-10.5117-1.9988 1.9988-10.5117 10.5116 1.9988zM147.8787 266.1704l-10.5117-1.9988 1.9988-10.5116 10.5117 1.9987zM167.6625 269.9963l-10.5116-1.9988 1.9987-10.5117 10.5117 1.9988zM215.1981 278.965l-10.5117-1.9988 1.9988-10.5117 10.5117 1.9988zM196.458 275.445l-10.5118-1.9988 1.9988-10.5117 10.5117 1.9988zM85.106 272.4766l-10.5117-1.9987 1.9988-10.5117 10.5117 1.9988zM104.888 276.3018l-10.5116-1.9987 1.9987-10.5117 10.5117 1.9987zM124.6883 280.0293l-10.5117-1.9988 1.9988-10.5117 10.5116 1.9988zM144.4884 283.7567l-10.5117-1.9988 1.9988-10.5116 10.5117 1.9987zM164.2727 287.5832l-10.5116-1.9988 1.9987-10.5117 10.5117 1.9988zM211.8083 296.5514l-10.5117-1.9987 1.9988-10.5117 10.5117 1.9988zM193.0681 293.0313l-10.5117-1.9987 1.9988-10.5117 10.5117 1.9988zM81.8146 290.0817l-10.5117-1.9987 1.9987-10.5117 10.5117 1.9987zM101.5965 293.9075l-10.5117-1.9988 1.9988-10.5116 10.5117 1.9987zM121.3967 297.6344l-10.5117-1.9987 1.9988-10.5117 10.5117 1.9988zM141.1968 301.3618l-10.5116-1.9988 1.9987-10.5117 10.5117 1.9988zM160.9808 305.1883l-10.5117-1.9988 1.9988-10.5117 10.5116 1.9988zM208.498 314.2553l-10.5116-1.9988 1.9988-10.5117 10.5116 1.9988zM189.7766 310.6364l-10.5117-1.9987 1.9987-10.5117 10.5117 1.9987z"/>
  </g>
  <g fill="#FFF" stroke="#FFF" stroke-miterlimit="10" stroke-width="1.4173">
    <path d="M139.2 209.2c-.1.3-.4.5-.8.4l-11.7-3.2c-.3-.1-.5-.4-.4-.8l1.7-6.4s0-.1.1-.2c.2-.6.8-2.4 2.5-3.4 1.2-.7 2.5-.8 4-.4l2.6.7h.1c1.2.3 2.2.2 3.1-.2 1-.6 1.7-1.7 2-2.9 1.2-4.2 1.2-4.3 1.2-4.3.1-.2.5-2-.3-3.5-.5-.9-1.3-1.5-2.5-1.8l-2.7-.7c-1.2-.3-2.2-.2-3.1.3-1.4.9-2 2.6-2 2.9-.1.3-.7.4-.8.4-.3-.1-.5-.4-.4-.7 0 0 0-.1.1-.2.2-.6.8-2.5 2.5-3.4 1.2-.7 2.5-.8 4-.4l2.7.7c1.5.4 2.6 1.2 3.3 2.4 1 1.7.6 3.7.4 4.3 0 .1-.1.2-.1.2l-.4 1.3-.8 3s0 .1-.1.2c-.2.6-.8 2.5-2.5 3.4-1.2.7-2.6.8-4 .4l-2.7-.7c-1.2-.3-2.2-.2-3.1.3-1 .6-1.7 1.7-2 2.9l-1.6 5.8 11.1 3c.5-.1.7.2.6.6zM153.9 212.4c-1.2.7-2.5.8-4.1.4l-1.6-.4c-1.5-.4-2.6-1.2-3.3-2.4-.8-1.3-.8-3-.4-4.5l4.2-15.5c.1-.3.7-2.5 2.6-3.6 1.2-.7 2.5-.8 4.1-.4l1.6.4c1.5.4 2.6 1.2 3.3 2.4.7 1.3.8 3 .4 4.5l-4.2 15.5c-.1.5-.8 2.5-2.6 3.6zm-8.2-3.8l13.1-19.9c-.5-.5-1.2-.9-2.1-1.2l-1.6-.4c-1.2-.3-2.3-.2-3.1.3-1.5.9-2.1 2.9-2.1 2.9l-3.4 12.5-.8 3c-.1.2-.4 1.5 0 2.8zm9.7-.2c.8-3 .8-3.1.8-3.1l3.4-12.4s.4-1.6-.1-3.1c-13.1 20-13.2 20-13.2 20 .5.6 1.2 1.1 2.2 1.3l1.6.4c1.2.3 2.3.2 3.1-.3 1.1-.5 1.9-1.6 2.2-2.8zM166.6 216.7c-.1.3-.4.5-.8.4-.3-.1-.5-.4-.4-.8l6.6-24.2-8.4 3.1c-.1 0-.3.1-.4 0-.2-.1-.3-.2-.4-.4v-.4c.1-.2.2-.3.3-.4l9.4-3.5h.5c.3.1.5.4.4.8l-6.8 25.4zM186 216.8c-.1.4-.8 2.5-2.6 3.6-1.2.7-2.5.8-4.1.4l-.7-.2h-.1l-2.4-.6c-1.5-.4-2.7-1.3-3.3-2.4-.7-1.3-.8-3-.4-4.5l.2-.7 1-3.7c.1-.4.8-2.5 2.6-3.6.4-.2.8-.4 1.3-.5-.4-.3-.6-.7-.9-1.1-.7-1.3-.8-3-.4-4.5l.1-.3.3-1c.1-.4.8-2.5 2.6-3.6 1.2-.7 2.6-.8 4.1-.4l.8.2 2.4.7c1.5.4 2.6 1.2 3.3 2.4.8 1.4.8 3 .4 4.5l-.4 1.3c-.1.4-.8 2.5-2.6 3.6-.4.2-.8.4-1.3.5.3.3.6.7.9 1.1.7 1.3.8 3 .4 4.5l-.4 1.4-.8 2.9zm-1.1-.4l.2-.7 1-3.7c.1-.2.5-2.1-.3-3.5-.5-.8-1.2-1.5-2.3-1.8l-3.7-1c-1.1-.3-2.1-.1-2.9.3-1 .6-1.8 1.7-2.1 2.9l-.4 1.4-.8 3c-.1.2-.5 2.1.3 3.5.5.9 1.4 1.5 2.6 1.8l.8.2 2.4.7c1.2.3 2.3.3 3.1-.3 1.6-.8 2.1-2.8 2.1-2.8zm-4.8-11.9h.2l.8.2 2.6.7c1.1.3 2.1.2 2.9-.3 1-.6 1.8-1.7 2.1-2.9l.1-.4.3-1c.1-.2.5-2-.3-3.5-.5-.9-1.4-1.5-2.6-1.8l-3.2-.9c-1.2-.3-2.3-.3-3.1.3-1 .6-1.8 1.7-2.1 3-.3 1.3-.4 1.3-.4 1.3-.1.2-.5 2.1.3 3.5.5.9 1.3 1.4 2.4 1.8z"/>
  </g>
</svg>
